<?xml version="1.0" standalone="no"?>
<!DOCTYPE svg PUBLIC "-//W3C//DTD SVG 1.1//EN" "http://www.w3.org/Graphics/SVG/1.1/DTD/svg11.dtd" >
<svg xmlns="http://www.w3.org/2000/svg" xmlns:xlink="http://www.w3.org/1999/xlink" version="1.1">
<metadata>
Created by FontForge 20201107 at Thu Dec  5 17:32:40 2019
 By 
Copyright 2017 The Inria Serif Project Authors (https://github.com/BlackFoundryCom/InriaFonts)
</metadata>
<defs>
<font id="InriaSerif-Light" horiz-adv-x="588" >
  <font-face 
    font-family="Inria Serif Light"
    font-weight="300"
    font-stretch="normal"
    units-per-em="1000"
    panose-1="0 0 0 0 0 0 0 0 0 0"
    ascent="800"
    descent="-200"
    x-height="487"
    cap-height="680"
    bbox="-175 -238 1252 974"
    underline-thickness="65"
    underline-position="-116"
    unicode-range="U+000D-FB04"
  />
<missing-glyph horiz-adv-x="658" 
d="M120 0v680h418v-680h-418zM185 30h288v620h-288v-620z" />
    <glyph glyph-name="ff" unicode="ff" horiz-adv-x="665" 
d="M588 25v-25h-234v25l55 5q16 2 19 8t3 41v378h-250v-378q0 -35 3 -41t19 -8l55 -5v-25h-214v25l55 5q16 2 19 8t3 41v329q0 35 -2.5 41.5t-19.5 7.5l-55 5v25h77v44q0 55 18.5 102.5t59.5 77t110 29.5q99 0 139 -70q15 35 47.5 57.5t88.5 22.5q78 0 115.5 -44t26.5 -111
l-57 -9q9 65 -12 99.5t-73 34.5q-30 0 -51 -11.5t-31.5 -41.5t-10.5 -86v-94h165v-30h-165v-378q0 -35 3 -41.5t19 -7.5zM181 541v-54h250v49q0 100 -31.5 137t-90.5 37q-34 0 -63.5 -14t-47 -50.5t-17.5 -104.5z" />
    <glyph glyph-name="fi" unicode="fi" horiz-adv-x="605" 
d="M568 25v-25h-214v25l55 5q16 2 19 8t3 41v378h-250v-378q0 -35 3 -41t19 -8l55 -5v-25h-214v25l55 5q16 2 19 8t3 41v329q0 35 -2.5 41.5t-19.5 7.5l-55 5v25h77v44q0 58 19 107.5t62 80.5t116 31q91 0 135 -46.5t33 -118.5l-57 -9q20 144 -111 144q-40 0 -71 -14.5
t-48.5 -53.5t-17.5 -111v-54h310v-408q0 -35 3 -41t19 -8z" />
    <glyph glyph-name="fl" unicode="fl" horiz-adv-x="621" 
d="M584 25v-25h-214v25l55 5q16 2 19 8t3 41v467q0 100 -33.5 137t-96.5 37q-37 0 -68 -14t-49.5 -50.5t-18.5 -104.5v-64h165v-30h-165v-378q0 -35 3 -41t19 -8l55 -5v-25h-214v25l55 5q16 2 19 8t3 41v329q0 35 -2.5 41.5t-19.5 7.5l-55 5v25h77v54q0 55 19 102.5t62 77
t115 29.5q93 0 136 -55q11 10 20 21t16 24h18v-661q0 -35 3 -41t19 -8z" />
    <glyph glyph-name="ffi" unicode="ffi" horiz-adv-x="915" 
d="M568 25v-25h-214v25l55 5q16 2 19 8t3 41v378h-250v-378q0 -35 3 -41t19 -8l55 -5v-25h-214v25l55 5q16 2 19 8t3 41v329q0 35 -2.5 41.5t-19.5 7.5l-55 5v25h77v44q0 55 18.5 102.5t59.5 77t110 29.5q111 0 147 -87q21 44 63 70.5t109 26.5q91 0 135 -46.5t33 -118.5
l-57 -9q20 144 -111 144q-40 0 -71 -14.5t-48.5 -53.5t-17.5 -111v-54h310v-408q0 -35 3 -41t19 -8l55 -5v-25h-214v25l55 5q16 2 19 8t3 41v378h-250v-378q0 -35 3 -41t19 -8zM181 487h250v49q0 100 -31.5 137t-90.5 37q-34 0 -63.5 -14t-47 -50.5t-17.5 -104.5v-54z" />
    <glyph glyph-name="ffl" unicode="ffl" horiz-adv-x="931" 
d="M568 25v-25h-214v25l55 5q16 2 19 8t3 41v378h-250v-378q0 -35 3 -41t19 -8l55 -5v-25h-214v25l55 5q16 2 19 8t3 41v329q0 35 -2.5 41.5t-19.5 7.5l-55 5v25h77v44q0 55 18.5 102.5t59.5 77t110 29.5q109 0 146 -85q21 42 63 68.5t109 26.5q93 0 136 -55q10 10 19.5 21
t16.5 24h18v-661q0 -35 3 -41t19 -8l55 -5v-25h-214v25l55 5q16 2 19 8t3 41v467q0 100 -33.5 137t-96.5 37q-37 0 -68 -14t-49.5 -50.5t-18.5 -104.5v-64h165v-30h-165v-378q0 -35 3 -41t19 -8zM181 541v-54h250v49q0 100 -31.5 137t-90.5 37q-34 0 -63.5 -14t-47 -50.5
t-17.5 -104.5z" />
    <glyph glyph-name="ft" unicode="ft" horiz-adv-x="694" 
d="M278 25v-25h-234v25l55 5q16 2 19 8t3 41v329q0 35 -2.5 41.5t-19.5 7.5l-55 5v25h77v54q0 55 17.5 102.5t56.5 77t102 29.5q59 0 96.5 -29t50.5 -91l10 10t9 10h18v-163h165v-30h-165v-328q0 -62 18 -85.5t50 -23.5t48 23t24 71l47 -12q-16 -57 -44.5 -84.5t-77.5 -27.5
q-45 0 -72.5 20.5t-40 52.5t-12.5 66v328h-240v-378q0 -35 3 -41.5t19 -7.5zM181 551v-64h240v59q0 100 -30.5 137t-86.5 37q-33 0 -61 -14t-45 -50.5t-17 -104.5z" />
    <glyph glyph-name="fft" unicode="fft" horiz-adv-x="1004" 
d="M258 25v-25h-214v25l55 5q16 2 19 8t3 41v329q0 35 -2.5 41.5t-19.5 7.5l-55 5v25h77v44q0 55 18.5 102.5t59.5 77t110 29.5q108 0 145 -82q20 41 57.5 66.5t95.5 25.5q59 0 96.5 -29t50.5 -91l10 10t9 10h18v-163h165v-30h-165v-328q0 -62 18 -85.5t50 -23.5t48 23
t24 71l47 -12q-16 -57 -44.5 -84.5t-77.5 -27.5q-45 0 -72.5 20.5t-40 52.5t-12.5 66v328h-240v-378q0 -35 3 -41.5t19 -7.5l75 -5v-25h-234v25l55 5q16 2 19 8t3 41v378h-250v-378q0 -35 3 -41t19 -8zM491 551v-64h240v59q0 100 -30.5 137t-86.5 37q-33 0 -61 -14
t-45 -50.5t-17 -104.5zM181 541v-54h250v49q0 100 -31.5 137t-90.5 37q-34 0 -63.5 -14t-47 -50.5t-17.5 -104.5z" />
    <glyph glyph-name="fb" unicode="fb" horiz-adv-x="911" 
d="M278 25v-25h-234v25l55 5q16 2 19 8t3 41v329q0 35 -2.5 41.5t-19.5 7.5l-55 5v25h77v54q0 55 19 102.5t62 77t115 29.5q93 0 136 -55q9 10 17 21t15 24h22v-325q33 44 71.5 63t80.5 19q88 0 134 -63.5t46 -179.5v-20q0 -112 -53.5 -178t-149.5 -66q-38 0 -71 14t-59 42
q-12 -10 -20.5 -22.5t-16.5 -28.5h-22v551q0 100 -33.5 137t-96.5 37q-37 0 -68 -14t-49.5 -50.5t-18.5 -104.5v-64h165v-30h-165v-378q0 -35 3 -41.5t19 -7.5zM655 467q-35 0 -73.5 -20t-74.5 -80v-271q47 -76 129 -76q71 0 103 49t32 135v80q0 95 -30 139t-86 44z" />
    <glyph glyph-name="ffb" unicode="ffb" horiz-adv-x="1221" 
d="M258 25v-25h-214v25l55 5q16 2 19 8t3 41v329q0 35 -2.5 41.5t-19.5 7.5l-55 5v25h77v44q0 55 18.5 102.5t59.5 77t110 29.5q109 0 146 -85q21 42 63 68.5t109 26.5q93 0 136 -55q9 10 17 21t15 24h22v-325q33 44 71.5 63t80.5 19q88 0 134 -63.5t46 -179.5v-20
q0 -112 -53.5 -178t-149.5 -66q-38 0 -71 14t-59 42q-12 -10 -20.5 -22.5t-16.5 -28.5h-22v551q0 100 -33.5 137t-96.5 37q-37 0 -68 -14t-49.5 -50.5t-18.5 -104.5v-64h165v-30h-165v-378q0 -35 3 -41.5t19 -7.5l75 -5v-25h-234v25l55 5q16 2 19 8t3 41v378h-250v-378
q0 -35 3 -41t19 -8zM181 541v-54h250v49q0 100 -31.5 137t-90.5 37q-34 0 -63.5 -14t-47 -50.5t-17.5 -104.5zM965 467q-35 0 -73.5 -20t-74.5 -80v-271q47 -76 129 -76q71 0 103 49t32 135v80q0 95 -30 139t-86 44z" />
    <glyph glyph-name="fff" unicode="fff" horiz-adv-x="975" 
d="M568 25v-25h-214v25l55 5q16 2 19 8t3 41v378h-250v-378q0 -35 3 -41t19 -8l55 -5v-25h-214v25l55 5q16 2 19 8t3 41v329q0 35 -2.5 41.5t-19.5 7.5l-55 5v25h77v44q0 55 18.5 102.5t59.5 77t110 29.5q112 0 148 -89q21 40 60.5 64.5t101.5 24.5q99 0 139 -70
q15 35 47.5 57.5t88.5 22.5q78 0 115.5 -44t26.5 -111l-57 -9q9 65 -12 99.5t-73 34.5q-30 0 -51 -11.5t-31.5 -41.5t-10.5 -86v-94h165v-30h-165v-378q0 -35 3 -41.5t19 -7.5l75 -5v-25h-234v25l55 5q16 2 19 8t3 41v378h-250v-378q0 -35 3 -41t19 -8zM181 487h250v49
q0 100 -31.5 137t-90.5 37q-34 0 -63.5 -14t-47 -50.5t-17.5 -104.5v-54zM491 541v-54h250v49q0 100 -31.5 137t-90.5 37q-34 0 -63.5 -14t-47 -50.5t-17.5 -104.5z" />
    <glyph glyph-name="fh" unicode="fh" horiz-adv-x="940" 
d="M584 25v-25h-214v25l55 5q16 2 19 8t3 41v467q0 100 -33.5 137t-96.5 37q-37 0 -68 -14t-49.5 -50.5t-18.5 -104.5v-64h165v-30h-165v-378q0 -35 3 -41t19 -8l55 -5v-25h-214v25l55 5q16 2 19 8t3 41v329q0 35 -2.5 41.5t-19.5 7.5l-55 5v25h77v54q0 55 19 102.5t62 77
t115 29.5q93 0 136 -55q9 10 17 21t15 24h22v-326q40 44 85 63.5t89 19.5q74 0 112.5 -44.5t38.5 -125.5v-248q0 -35 3 -41t19 -8l55 -5v-25h-214v25l55 5q16 2 19 8t3 41v247q0 77 -26 107t-74 30q-38 0 -80 -19t-85 -72v-293q0 -35 3 -41t19 -8z" />
    <glyph glyph-name="ffh" unicode="ffh" horiz-adv-x="1250" 
d="M568 25v-25h-214v25l55 5q16 2 19 8t3 41v378h-250v-378q0 -35 3 -41t19 -8l55 -5v-25h-214v25l55 5q16 2 19 8t3 41v329q0 35 -2.5 41.5t-19.5 7.5l-55 5v25h77v44q0 55 18.5 102.5t59.5 77t110 29.5q109 0 146 -85q21 42 63 68.5t109 26.5q93 0 136 -55q9 10 17 21
t15 24h22v-326q40 44 85 63.5t89 19.5q74 0 112.5 -44.5t38.5 -125.5v-248q0 -35 3 -41t19 -8l55 -5v-25h-214v25l55 5q16 2 19 8t3 41v247q0 77 -26 107t-74 30q-38 0 -80 -19t-85 -72v-293q0 -35 3 -41t19 -8l55 -5v-25h-214v25l55 5q16 2 19 8t3 41v467q0 100 -33.5 137
t-96.5 37q-37 0 -68 -14t-49.5 -50.5t-18.5 -104.5v-64h165v-30h-165v-378q0 -35 3 -41t19 -8zM181 541v-54h250v49q0 100 -31.5 137t-90.5 37q-34 0 -63.5 -14t-47 -50.5t-17.5 -104.5z" />
    <glyph glyph-name="fj" unicode="fj" horiz-adv-x="583" 
d="M181 541v-54h310v-551q0 -42 -13 -78t-42 -58.5t-77 -22.5q-46 0 -78.5 25.5t-42.5 86.5l49 12q4 -53 21.5 -73.5t47.5 -20.5q37 0 56 26t19 103v521h-250v-378q0 -35 3 -41.5t19 -7.5l75 -5v-25h-234v25l55 5q16 2 19 8t3 41v329q0 35 -2.5 41.5t-19.5 7.5l-55 5v25h77
v44q0 58 19 107.5t62 80.5t116 31q91 0 135 -46.5t33 -118.5l-57 -9q20 144 -111 144q-40 0 -71 -14.5t-48.5 -53.5t-17.5 -111z" />
    <glyph glyph-name="ffj" unicode="ffj" horiz-adv-x="893" 
d="M491 541v-54h310v-551q0 -42 -13 -78t-42 -58.5t-77 -22.5q-46 0 -78.5 25.5t-42.5 86.5l49 12q4 -53 21.5 -73.5t47.5 -20.5q37 0 56 26t19 103v521h-250v-378q0 -35 3 -41.5t19 -7.5l75 -5v-25h-234v25l55 5q16 2 19 8t3 41v378h-250v-378q0 -35 3 -41t19 -8l55 -5v-25
h-214v25l55 5q16 2 19 8t3 41v329q0 35 -2.5 41.5t-19.5 7.5l-55 5v25h77v44q0 55 18.5 102.5t59.5 77t110 29.5q111 0 147 -87q21 44 63 70.5t109 26.5q91 0 135 -46.5t33 -118.5l-57 -9q20 144 -111 144q-40 0 -71 -14.5t-48.5 -53.5t-17.5 -111zM181 487h250v49
q0 100 -31.5 137t-90.5 37q-34 0 -63.5 -14t-47 -50.5t-17.5 -104.5v-54z" />
    <glyph glyph-name="fk" unicode="fk" horiz-adv-x="879" 
d="M584 25v-25h-214v25l55 5q16 2 19 8t3 41v467q0 100 -33.5 137t-96.5 37q-37 0 -68 -14t-49.5 -50.5t-18.5 -104.5v-64h165v-30h-165v-378q0 -35 3 -41t19 -8l55 -5v-25h-214v25l55 5q16 2 19 8t3 41v329q0 35 -2.5 41.5t-19.5 7.5l-55 5v25h77v54q0 55 19 102.5t62 77
t115 29.5q93 0 136 -55q9 10 17 21t15 24h22v-527l198 205q26 27 27 32.5t-16 6.5l-49 5v25h186v-25l-49 -5q-9 -1 -15 -3t-14 -10l-26 -26l-119 -124l150 -225q12 -18 18 -26t12 -10t16 -3l49 -5v-25h-123l-163 251l-82 -86v-86q0 -35 3 -41t19 -8z" />
    <glyph glyph-name="ffk" unicode="ffk" horiz-adv-x="1189" 
d="M568 25v-25h-214v25l55 5q16 2 19 8t3 41v378h-250v-378q0 -35 3 -41t19 -8l55 -5v-25h-214v25l55 5q16 2 19 8t3 41v329q0 35 -2.5 41.5t-19.5 7.5l-55 5v25h77v44q0 55 18.5 102.5t59.5 77t110 29.5q109 0 146 -85q21 42 63 68.5t109 26.5q93 0 136 -55q9 10 17 21
t15 24h22v-527l198 205q26 27 27 32.5t-16 6.5l-49 5v25h186v-25l-49 -5q-9 -1 -15 -3t-14 -10l-26 -26l-119 -124l150 -225q12 -18 18 -26t12 -10t16 -3l49 -5v-25h-123l-163 251l-82 -86v-86q0 -35 3 -41t19 -8l55 -5v-25h-214v25l55 5q16 2 19 8t3 41v467
q0 100 -33.5 137t-96.5 37q-37 0 -68 -14t-49.5 -50.5t-18.5 -104.5v-64h165v-30h-165v-378q0 -35 3 -41t19 -8zM181 541v-54h250v49q0 100 -31.5 137t-90.5 37q-34 0 -63.5 -14t-47 -50.5t-17.5 -104.5z" />
    <glyph glyph-name=".notdef" horiz-adv-x="658" 
d="M120 0v680h418v-680h-418zM185 30h288v620h-288v-620z" />
    <glyph glyph-name=".null" horiz-adv-x="0" 
 />
    <glyph glyph-name="nonmarkingreturn" horiz-adv-x="333" 
 />
    <glyph glyph-name="NULL" horiz-adv-x="0" 
 />
    <glyph glyph-name="NULL" horiz-adv-x="0" 
 />
    <glyph glyph-name="CR" unicode="&#xd;" horiz-adv-x="230" 
 />
    <glyph glyph-name="space" unicode=" " horiz-adv-x="230" 
 />
    <glyph glyph-name="exclam" unicode="!" horiz-adv-x="261" 
d="M145 172h-28q0 72 -1.5 125t-4 96t-5 84.5t-4 90t-1.5 112.5h60q0 -64 -1.5 -112.5t-4 -90t-5 -84.5t-4 -96t-1.5 -125zM130 -10q-20 0 -33.5 13.5t-13.5 34.5q0 20 13.5 33.5t33.5 13.5q21 0 34.5 -13.5t13.5 -33.5q0 -21 -13.5 -34.5t-34.5 -13.5z" />
    <glyph glyph-name="quotedbl" unicode="&#x22;" horiz-adv-x="411" 
d="M144 459h-28q0 54 -4 84.5t-8.5 46.5t-8.5 27t-4 26q0 23 11 35t28 12t28 -12t11 -35q0 -15 -4 -26t-8.5 -27t-8.5 -46.5t-4 -84.5zM295 459h-28q0 54 -4 84.5t-8.5 46.5t-8.5 27t-4 26q0 23 11 35t28 12t28 -12t11 -35q0 -15 -4 -26t-8.5 -27t-8.5 -46.5t-4 -84.5z" />
    <glyph glyph-name="numbersign" unicode="#" horiz-adv-x="651" 
d="M553 213h-118l-69 -223l-32 10l66 213h-227l-69 -223l-32 10l66 213h-109v30h118l60 194h-109v30h118l69 223l32 -10l-66 -213h227l69 223l32 -10l-66 -213h109v-30h-118l-60 -194h109v-30zM182 243h227l60 194h-227z" />
    <glyph glyph-name="dollar" unicode="$" horiz-adv-x="540" 
d="M484 174q0 -73 -48.5 -126t-149.5 -58v-115h-35v115q-47 2 -89.5 19t-73 56.5t-42.5 107.5l55 18q5 -63 27 -99.5t54.5 -52.5t68.5 -18v296l-30 8q-82 22 -122.5 70.5t-40.5 116.5q0 45 20.5 84.5t63 65.5t109.5 28v115h35v-116q70 -4 112.5 -34.5t58.5 -75.5t7 -96
l-63 -16q10 86 -17.5 136t-97.5 57v-282l22 -6q87 -23 131.5 -73.5t44.5 -124.5zM118 527q0 -51 28.5 -85.5t104.5 -54.5v274q-62 -3 -97.5 -37.5t-35.5 -96.5zM424 159q0 53 -30.5 90t-107.5 59v-287q63 5 100.5 40t37.5 98z" />
    <glyph glyph-name="percent" unicode="%" horiz-adv-x="715" 
d="M308 546v-31q0 -37 -15.5 -69t-45 -51.5t-71.5 -19.5t-71.5 19.5t-45 51.5t-15.5 69v31q0 37 15.5 68.5t45 51t71.5 19.5t71.5 -19.5t45 -51t15.5 -68.5zM533 680l25 -16l-376 -664l-25 16zM257 571q0 43 -21.5 68.5t-59.5 25.5t-59 -25.5t-21 -68.5v-81q0 -43 21 -69
t59 -26t59.5 26t21.5 69v81zM671 166v-31q0 -37 -15.5 -69t-45 -51.5t-71.5 -19.5t-71.5 19.5t-45 51.5t-15.5 69v31q0 37 15.5 68.5t45 51t71.5 19.5t71.5 -19.5t45 -51t15.5 -68.5zM620 191q0 43 -21.5 68.5t-59.5 25.5t-59 -25.5t-21 -68.5v-81q0 -43 21 -69t59 -26
t59.5 26t21.5 69v81z" />
    <glyph glyph-name="ampersand" unicode="&#x26;" horiz-adv-x="616" 
d="M248 20q54 0 89 31t42 80.5t-23 104.5l49 30l124 -197q17 -27 23.5 -32t22.5 -7l49 -5v-25h-124l-90 148q1 -43 -19 -79t-56.5 -57.5t-88.5 -21.5q-53 0 -95.5 18t-67 53t-24.5 85q0 49 22.5 84.5t57.5 64t72 54.5l19 13q-67 45 -98.5 88.5t-31.5 90.5q0 38 20 72
t57 55.5t87 21.5q52 0 88.5 -21.5t56.5 -56t20 -74.5q0 -39 -17.5 -67.5t-46.5 -50.5t-62 -45l-71 -48q-45 -31 -76.5 -74t-31.5 -107q0 -46 18 -74t46.5 -40t59.5 -12zM165 545q0 -37 17.5 -79t72.5 -86l28 19q36 25 58.5 59t22.5 86q0 56 -27.5 86t-71.5 30
q-43 0 -71.5 -28t-28.5 -87z" />
    <glyph glyph-name="quotesingle" unicode="'" horiz-adv-x="260" 
d="M144 459h-28q0 54 -4 84.5t-8.5 46.5t-8.5 27t-4 26q0 23 11 35t28 12t28 -12t11 -35q0 -15 -4 -26t-8.5 -27t-8.5 -46.5t-4 -84.5z" />
    <glyph glyph-name="parenleft" unicode="(" horiz-adv-x="339" 
d="M82 280v37q0 125 52 234t155 199l23 -24q-87 -82 -126 -187.5t-39 -221.5v-37q0 -115 39 -220.5t126 -188.5l-23 -24q-103 90 -155 199.5t-52 233.5z" />
    <glyph glyph-name="parenright" unicode=")" horiz-adv-x="339" 
d="M257 317v-37q0 -124 -51.5 -233.5t-155.5 -199.5l-23 24q87 83 126 188.5t39 220.5v37q0 116 -39 221.5t-126 187.5l23 24q104 -90 155.5 -199t51.5 -234z" />
    <glyph glyph-name="asterisk" unicode="*" horiz-adv-x="440" 
d="M50 578q35 -11 55 -22.5t42 -23t61 -24.5q0 41 -4 65.5t-8.5 47.5t-4.5 59h58q0 -36 -4 -59t-8.5 -47.5t-4.5 -65.5q39 13 60.5 24.5t42 23t55.5 22.5l18 -55q-35 -11 -58 -14.5t-47.5 -6.5t-63.5 -16q24 -33 42 -50t35 -33t38 -46l-47 -34q-21 30 -31 51t-21 43t-35 54
q-24 -32 -35 -54t-20.5 -43t-31.5 -51l-47 34q22 30 38.5 46t34.5 33t42 50q-39 13 -63.5 16t-47.5 6.5t-58 14.5z" />
    <glyph glyph-name="plus" unicode="+" 
d="M501 318h-190v-194h-34v194h-190v32h190v194h34v-194h190v-32z" />
    <glyph glyph-name="comma" unicode="," horiz-adv-x="261" 
d="M176 27q0 -47 -28 -108t-78 -118l-21 18q41 50 59.5 94t21.5 77q-19 0 -32 13t-13 33t13 32.5t32 12.5q20 0 33 -14t13 -40z" />
    <glyph glyph-name="hyphen" unicode="-" horiz-adv-x="418" 
d="M77 318v34h264v-34h-264z" />
    <glyph glyph-name="period" unicode="." horiz-adv-x="261" 
d="M130 -10q-20 0 -33.5 13.5t-13.5 34.5q0 20 13.5 33.5t33.5 13.5q21 0 34.5 -13.5t13.5 -33.5q0 -21 -13.5 -34.5t-34.5 -13.5z" />
    <glyph glyph-name="slash" unicode="/" horiz-adv-x="383" 
d="M331 740l34 -15l-346 -868l-34 15z" />
    <glyph glyph-name="zero" unicode="0" horiz-adv-x="614" 
d="M531 372v-63q0 -96 -26.5 -168t-76.5 -111.5t-121 -39.5q-72 0 -122 39.5t-76 111.5t-26 168v63q0 96 26 167.5t76 111t122 39.5q71 0 121 -39.5t76.5 -111t26.5 -167.5zM458 442q0 117 -39 167.5t-112 50.5t-112 -50.5t-39 -167.5v-203q0 -118 39 -168.5t112 -50.5
t112 50.5t39 168.5v203z" />
    <glyph glyph-name="one" unicode="1" horiz-adv-x="345" 
d="M38 601l127 79h55v-601q0 -35 3 -41t19 -8l55 -5v-25h-239v25l75 5q16 1 19 7.5t3 41.5v559l-101 -62z" />
    <glyph glyph-name="two" unicode="2" horiz-adv-x="543" 
d="M434 184h25v-184h-390v43q0 74 25 122t65 81t84 62q35 24 67.5 48.5t53.5 59t21 86.5q0 82 -32.5 120t-93.5 38q-77 0 -106.5 -50t-19.5 -143l-65 16q-9 54 9 101t64 76.5t119 29.5q72 0 116 -26.5t64 -68.5t20 -90q0 -52 -18.5 -88t-49 -60.5t-67 -43.5t-72.5 -39
q-39 -22 -72 -50t-53.5 -68.5t-23.5 -98.5h249q35 0 42.5 4.5t11.5 21.5z" />
    <glyph glyph-name="three" unicode="3" horiz-adv-x="531" 
d="M211 336h-27v30h27q90 0 127 42t37 108q0 71 -32.5 107.5t-92.5 36.5q-77 0 -106 -50t-19 -143l-65 16q-9 54 8.5 101t63.5 76.5t119 29.5q71 0 115 -24.5t64 -64t20 -85.5q0 -70 -39.5 -110.5t-113.5 -54.5q81 -14 124 -59t43 -122q0 -47 -21 -88.5t-67 -66.5t-121 -25
q-69 0 -122.5 33t-82.5 123l57 17q9 -57 32 -88t53 -43t61 -12q66 0 101 38t35 112t-40 120t-138 46z" />
    <glyph glyph-name="four" unicode="4" horiz-adv-x="490" 
d="M314 79v97h-294v30q51 56 90 107.5t68 106.5t50 118.5t37 141.5h80q-37 -140 -111.5 -254t-177.5 -220h258v161l65 10v-171h77v-30h-77v-97q0 -35 3 -41t19 -8l55 -5v-25h-239v25l75 5q16 1 19 7.5t3 41.5z" />
    <glyph glyph-name="five" unicode="5" horiz-adv-x="509" 
d="M403 760h25v-139h-300l-12 -227q31 21 64.5 30t67.5 9q98 0 153 -62t55 -166q0 -57 -21.5 -106t-67.5 -79t-121 -30q-64 0 -113.5 33.5t-78.5 122.5l57 17q9 -57 29.5 -88t48 -43t56.5 -12q65 0 100.5 47t35.5 138q0 86 -31.5 140.5t-107.5 54.5q-37 0 -74 -12.5
t-72 -43.5l-17 5l18 331h244q25 0 35.5 1.5t13.5 7t5 17.5z" />
    <glyph glyph-name="six" unicode="6" horiz-adv-x="572" 
d="M508 189q0 -60 -26 -105t-72 -69.5t-107 -24.5q-106 0 -163.5 79t-57.5 236v63q0 165 60 243.5t158 78.5q67 0 113.5 -29.5t68 -76.5t11.5 -101l-65 -16q11 93 -21.5 143t-107.5 50q-40 0 -73 -18.5t-52 -69t-19 -145.5v-102q57 74 156 74q91 0 144 -54.5t53 -145.5v-10z
M155 246q0 -86 17 -135.5t50 -70t81 -20.5q60 0 96 38t36 131v10q0 78 -34 123t-99 45q-40 0 -79.5 -20.5t-67.5 -70.5v-30z" />
    <glyph glyph-name="seven" unicode="7" horiz-adv-x="452" 
d="M49 494h-25v186h412v-51q-46 -60 -80.5 -118.5t-58 -128.5t-36.5 -162.5t-18 -219.5h-80q12 107 31 193t47.5 158.5t68 138t91.5 131.5h-271q-35 0 -42 -4.5t-12 -21.5z" />
    <glyph glyph-name="eight" unicode="8" horiz-adv-x="538" 
d="M478 166q0 -78 -51.5 -127t-152.5 -49q-71 0 -119 23.5t-71.5 61.5t-23.5 81q0 54 37 102.5t107 79.5q-61 26 -95.5 69t-34.5 104q0 49 21.5 89.5t64 65t105.5 24.5q62 0 106 -23t68 -61t24 -83q0 -52 -31.5 -92.5t-101.5 -69.5q76 -29 112 -76.5t36 -118.5zM260 389
l37 -15q58 26 79.5 63.5t21.5 86.5q0 68 -36.5 102t-95.5 34q-55 0 -96 -31.5t-41 -96.5q0 -53 33.5 -85t97.5 -58zM125 157q0 -63 38 -100t111 -37q71 0 110 33.5t39 95.5q0 56 -31 91.5t-103 63.5l-54 21q-52 -23 -81 -68t-29 -100z" />
    <glyph glyph-name="nine" unicode="9" horiz-adv-x="572" 
d="M490 312q0 -165 -62 -243.5t-165 -78.5q-65 0 -115 33t-79 123l57 17q9 -57 30.5 -88t49.5 -43t57 -12q40 0 75 18.5t57 69t22 145.5v87q-57 -74 -156 -74q-91 0 -144 54.5t-53 145.5v25q0 61 26 105.5t72.5 69t106.5 24.5q107 0 164 -79t57 -236v-63zM137 466
q0 -78 34 -123t99 -45q41 0 80 20.5t67 70.5v45q0 86 -17 135.5t-50 70t-81 20.5q-60 0 -96 -38t-36 -131v-25z" />
    <glyph glyph-name="colon" unicode=":" horiz-adv-x="261" 
d="M130 402q-20 0 -33.5 13.5t-13.5 34.5q0 20 13.5 33.5t33.5 13.5q21 0 34.5 -13.5t13.5 -33.5q0 -21 -13.5 -34.5t-34.5 -13.5zM130 -10q-20 0 -33.5 13.5t-13.5 34.5q0 20 13.5 33.5t33.5 13.5q21 0 34.5 -13.5t13.5 -33.5q0 -21 -13.5 -34.5t-34.5 -13.5z" />
    <glyph glyph-name="semicolon" unicode=";" horiz-adv-x="261" 
d="M130 402q-20 0 -33.5 13.5t-13.5 34.5q0 20 13.5 33.5t33.5 13.5q21 0 34.5 -13.5t13.5 -33.5q0 -21 -13.5 -34.5t-34.5 -13.5zM176 27q0 -47 -28 -108t-78 -118l-21 18q41 50 59.5 94t21.5 77q-19 0 -32 13t-13 33t13 32.5t32 12.5q20 0 33 -14t13 -40z" />
    <glyph glyph-name="less" unicode="&#x3c;" 
d="M501 188l-12 -30l-402 161v28l402 161l12 -29l-366 -145z" />
    <glyph glyph-name="equal" unicode="=" 
d="M87 418v32h414v-32h-414zM87 218v32h414v-32h-414z" />
    <glyph glyph-name="greater" unicode="&#x3e;" 
d="M501 319l-402 -161l-12 29l366 146l-366 145l12 30l402 -161v-28z" />
    <glyph glyph-name="question" unicode="?" horiz-adv-x="471" 
d="M252 172h-43v26q0 46 14.5 75t36 50t43 43t36 54t14.5 83q0 80 -31.5 118.5t-89.5 38.5q-74 0 -103.5 -50t-19.5 -143l-60 16q-9 54 8 101t61.5 76.5t114.5 29.5q68 0 110 -25t61 -65t19 -86q0 -48 -13.5 -79.5t-35 -53t-45 -38.5t-43.5 -35.5t-30.5 -44t-6.5 -64.5z
M229 -10q-20 0 -33.5 13.5t-13.5 34.5q0 20 13.5 33.5t33.5 13.5q21 0 34.5 -13.5t13.5 -33.5q0 -21 -13.5 -34.5t-34.5 -13.5z" />
    <glyph glyph-name="at" unicode="@" horiz-adv-x="976" 
d="M747 -167q-55 -28 -123.5 -42t-130.5 -14q-97 0 -175 32.5t-134 91t-86 138.5t-30 175q0 101 32 187.5t90 151t137.5 101t174.5 36.5q88 0 163 -31.5t130.5 -87.5t86 -131t30.5 -162q0 -78 -27.5 -141t-75 -100t-107.5 -37q-47 0 -80 25t-38 73q-35 -55 -73.5 -79
t-79.5 -24q-53 0 -87.5 34t-46.5 91t0 126l4 22q12 63 42 108.5t73 70.5t91 25q42 0 72.5 -18t52.5 -52q8 15 15.5 30.5t14.5 29.5h40l-55 -307q-9 -52 -2 -79t24 -37t37 -10q47 0 86.5 32t63.5 88.5t24 128.5q0 81 -28.5 150.5t-79.5 121.5t-120 81t-150 29
q-88 0 -161.5 -34t-127.5 -95t-83.5 -142t-29.5 -175q0 -119 48.5 -211t136.5 -144t208 -52q56 0 117.5 15t116.5 57zM359 216q-14 -88 8.5 -139.5t68.5 -51.5q24 0 48 11.5t50 40.5t54 83l35 199q-22 42 -49 62.5t-65 20.5q-57 0 -92 -44t-48 -122z" />
    <glyph glyph-name="A" unicode="A" horiz-adv-x="622" 
d="M189 25v-25h-189v25l55 5q11 1 16 3.5t9.5 12.5t11.5 33l195 601h47l197 -601q8 -23 12 -33t9 -12.5t15 -3.5l55 -5v-25h-221v25l55 5q17 2 18 8.5t-10 40.5l-43 131h-253l-42 -131q-11 -34 -9.5 -40.5t17.5 -8.5zM178 240h234l-117 360z" />
    <glyph glyph-name="B" unicode="B" horiz-adv-x="598" 
d="M52 655v25h270q83 0 133 -44.5t50 -118.5v-26q0 -52 -29.5 -88.5t-81.5 -52.5q65 -11 103 -52t38 -103v-26q0 -76 -51.5 -122.5t-136.5 -46.5h-295v25l55 5q16 2 19 8t3 41v522q0 35 -3 41.5t-19 7.5zM322 650h-128v-290h128q57 0 86 31.5t29 89.5v46q0 58 -29 90.5
t-86 32.5zM347 330h-153v-300h153q59 0 89.5 34t30.5 95v46q0 58 -30.5 91.5t-89.5 33.5z" />
    <glyph glyph-name="C" unicode="C" horiz-adv-x="579" 
d="M323 -10q-121 0 -182 83.5t-61 225.5v83q0 93 28 162.5t81.5 107.5t130.5 38q74 0 121.5 -29.5t67.5 -76.5t10 -101l-65 -16q11 93 -23.5 143t-108.5 50q-83 0 -126 -53t-43 -175v-183q0 -121 44 -175t129 -54q33 0 64 11.5t53 38.5t27 74l56 -13q-22 -77 -77.5 -109
t-125.5 -32z" />
    <glyph glyph-name="D" unicode="D" horiz-adv-x="652" 
d="M52 655v25h277q78 0 132 -37t82.5 -104t28.5 -157v-83q0 -90 -28.5 -157.5t-82.5 -104.5t-132 -37h-277v25l55 5q16 2 19 8t3 41v522q0 35 -3 41.5t-19 7.5zM329 650h-135v-620h135q83 0 126.5 51t43.5 168v183q0 117 -43.5 167.5t-126.5 50.5z" />
    <glyph glyph-name="E" unicode="E" horiz-adv-x="565" 
d="M496 157h24v-157h-468v25l55 5q16 2 19 8t3 41v522q0 35 -3 41.5t-19 7.5l-55 5v25h454v-157h-24l-27 101q-4 17 -11.5 21.5t-42.5 4.5h-207v-291h148q24 0 34 1.5t13.5 7t6.5 17.5l17 71h24v-224h-24l-17 71q-3 12 -6.5 17.5t-13.5 7t-34 1.5h-148v-299h221
q35 0 42.5 4.5t11.5 21.5z" />
    <glyph glyph-name="F" unicode="F" horiz-adv-x="537" 
d="M403 445h25v-224h-25l-17 71q-3 12 -6.5 17.5t-13.5 7t-34 1.5h-138v-239q0 -35 3 -41.5t19 -7.5l75 -5v-25h-239v25l55 5q16 2 19 8t3 41v522q0 35 -3 41.5t-19 7.5l-55 5v25h446v-157h-25l-27 101q-4 17 -11.5 21.5t-42.5 4.5h-198v-302h138q24 0 34 1.5t13.5 7
t6.5 17.5z" />
    <glyph glyph-name="G" unicode="G" horiz-adv-x="640" 
d="M380 283v25h236v-25l-55 -5q-16 -1 -19 -7.5t-3 -41.5v-229h-22q-6 14 -15 25.5t-20 21.5q-60 -57 -158 -57q-78 0 -132.5 38.5t-83 108t-28.5 162.5v83q0 93 29 162.5t84.5 107.5t134.5 38q77 0 127 -29.5t71 -76.5t11 -101l-65 -16q11 93 -25.5 143.5t-116.5 50.5
q-87 0 -132 -53t-45 -176v-183q0 -121 44.5 -175t131.5 -54q47 0 84 16.5t64 54.5v138q0 35 -3 41.5t-19 7.5z" />
    <glyph glyph-name="H" unicode="H" horiz-adv-x="716" 
d="M664 25v-25h-219v25l55 5q16 2 19 8t3 41v250h-328v-250q0 -35 3 -41t19 -8l55 -5v-25h-219v25l55 5q16 2 19 8t3 41v522q0 35 -3 41.5t-19 7.5l-55 5v25h219v-25l-55 -5q-16 -1 -19 -7.5t-3 -41.5v-242h328v242q0 35 -3 41.5t-19 7.5l-55 5v25h219v-25l-55 -5
q-16 -1 -19 -7.5t-3 -41.5v-522q0 -35 3 -41t19 -8z" />
    <glyph glyph-name="I" unicode="I" horiz-adv-x="323" 
d="M52 655v25h219v-25l-55 -5q-16 -1 -19 -7.5t-3 -41.5v-522q0 -35 3 -41t19 -8l55 -5v-25h-219v25l55 5q16 2 19 8t3 41v522q0 35 -3 41.5t-19 7.5z" />
    <glyph glyph-name="J" unicode="J" horiz-adv-x="452" 
d="M193 655v25h219v-25l-55 -5q-16 -1 -19 -7.5t-3 -41.5v-399q0 -53 -15 -102t-51.5 -79.5t-101.5 -30.5q-33 0 -66 12t-56 42.5t-28 84.5l50 15q2 -52 17 -78.5t37 -36t44 -9.5q32 0 55.5 16t36.5 56t13 110v399q0 35 -3 41.5t-19 7.5z" />
    <glyph glyph-name="K" unicode="K" horiz-adv-x="636" 
d="M52 656v24h219v-24l-55 -5q-16 -1 -19 -7.5t-3 -41.5v-312l258 322q22 27 22 32.5t-17 6.5l-49 5v24h182v-24l-49 -5q-9 -1 -14.5 -3t-12.5 -10t-22 -26l-168 -209l202 -324q15 -23 22 -33t13 -12.5t16 -3.5l50 -5v-25h-132l-213 351l-88 -109v-163q0 -35 3 -41t19 -8
l55 -5v-25h-219v25l55 5q16 2 19 8t3 41v523q0 35 -3 41.5t-19 7.5z" />
    <glyph glyph-name="L" unicode="L" horiz-adv-x="504" 
d="M468 161h25v-161h-441v25l55 5q16 2 19 8t3 41v522q0 35 -3 41.5t-19 7.5l-55 5v25h219v-25l-55 -5q-16 -1 -19 -7.5t-3 -41.5v-571h193q35 0 42.5 4.5t11.5 21.5z" />
    <glyph glyph-name="M" unicode="M" horiz-adv-x="853" 
d="M801 25v-25h-219v25l55 5q16 2 19 8.5t3 40.5v559l-225 -558h-42l-228 558v-559q0 -34 3 -40.5t19 -8.5l55 -5v-25h-189v25l55 5q16 2 19 8.5t3 40.5v522q0 35 -3 41.5t-19 7.5l-55 5v25h164l215 -526l210 526h160v-25l-55 -5q-16 -1 -19 -7.5t-3 -41.5v-522
q0 -34 3 -40.5t19 -8.5z" />
    <glyph glyph-name="N" unicode="N" horiz-adv-x="695" 
d="M459 655v25h189v-25l-55 -5q-16 -1 -19 -7.5t-3 -41.5v-601h-45l-362 630v-551q0 -34 3 -40.5t19 -8.5l55 -5v-25h-189v25l55 5q16 2 19 8.5t3 40.5v522q0 35 -3 41.5t-19 7.5l-55 5v25h154l330 -574v495q0 35 -3 41.5t-19 7.5z" />
    <glyph glyph-name="O" unicode="O" horiz-adv-x="662" 
d="M582 382v-83q0 -93 -29.5 -162.5t-85.5 -108t-136 -38.5q-81 0 -137 38.5t-85 108t-29 162.5v83q0 93 29 162.5t85 107.5t137 38q80 0 136 -38t85.5 -107.5t29.5 -162.5zM509 432q0 122 -46 175t-132 53q-85 0 -131.5 -53t-46.5 -175v-183q0 -121 46.5 -175t131.5 -54
q86 0 132 54t46 175v183z" />
    <glyph glyph-name="P" unicode="P" horiz-adv-x="558" 
d="M52 655v25h272q92 0 142.5 -48.5t50.5 -129.5v-33q0 -81 -50.5 -130t-142.5 -49h-130v-211q0 -35 3 -41.5t19 -7.5l75 -5v-25h-239v25l55 5q16 2 19 8t3 41v522q0 35 -3 41.5t-19 7.5zM324 650h-130v-330h130q62 0 93.5 33t31.5 106v53q0 72 -31.5 105t-93.5 33z" />
    <glyph glyph-name="Q" unicode="Q" horiz-adv-x="662" 
d="M556 -109l11 -64q-76 0 -136.5 35t-94.5 128h-5q-81 0 -137 38.5t-85 108t-29 162.5v83q0 93 29 162.5t85 107.5t137 38q80 0 136 -38t85.5 -107.5t29.5 -162.5v-83q0 -129 -55.5 -211t-157.5 -96q26 -61 70 -81t117 -20zM509 432q0 122 -46 175t-132 53
q-85 0 -131.5 -53t-46.5 -175v-183q0 -121 46.5 -175t131.5 -54q86 0 132 54t46 175v183z" />
    <glyph glyph-name="R" unicode="R" horiz-adv-x="608" 
d="M52 655v25h262q92 0 142.5 -45.5t50.5 -122.5v-35q0 -63 -34 -106t-98 -57l131 -235q13 -23 19.5 -33t12.5 -12.5t16 -3.5l45 -5v-25h-127l-165 308h-113v-229q0 -35 3 -41t19 -8l55 -5v-25h-219v25l55 5q16 2 19 8t3 41v522q0 35 -3 41.5t-19 7.5zM314 650h-120v-312
h120q56 0 90.5 37.5t34.5 101.5v35q0 65 -34.5 101.5t-90.5 36.5z" />
    <glyph glyph-name="S" unicode="S" horiz-adv-x="540" 
d="M267 20q71 0 114 36t43 103q0 56 -33.5 93t-116.5 59l-53 14q-82 22 -122.5 70.5t-40.5 116.5q0 46 21.5 86.5t66.5 66t116 25.5q79 0 127 -29.5t66.5 -76.5t8.5 -101l-63 -16q11 93 -22 143.5t-116 50.5q-67 0 -106 -34.5t-39 -99.5q0 -51 29 -85.5t108 -55.5l53 -14
q87 -23 131.5 -73.5t44.5 -124.5q0 -51 -23.5 -92.5t-71.5 -66.5t-122 -25q-50 0 -96 15.5t-79.5 55.5t-45.5 112l55 18q6 -67 30.5 -104.5t60.5 -52t75 -14.5z" />
    <glyph glyph-name="T" unicode="T" horiz-adv-x="549" 
d="M14 680h521v-157h-25l-27 101q-4 17 -11.5 21.5t-42.5 4.5h-122v-571q0 -35 3 -41t19 -8l55 -5v-25h-219v25l55 5q16 2 19 8t3 41v571h-122q-35 0 -42 -4.5t-12 -21.5l-27 -101h-25v157z" />
    <glyph glyph-name="U" unicode="U" horiz-adv-x="673" 
d="M446 655v25h189v-25l-55 -5q-16 -1 -19 -7.5t-3 -41.5v-370q0 -109 -53.5 -175t-163.5 -66q-115 0 -170.5 71.5t-55.5 189.5v350q0 35 -3 41.5t-19 7.5l-55 5v25h219v-25l-55 -5q-16 -1 -19 -7.5t-3 -41.5v-370q0 -104 39.5 -157t127.5 -53q92 0 134 57t42 153v370
q0 35 -3 41.5t-19 7.5z" />
    <glyph glyph-name="V" unicode="V" horiz-adv-x="612" 
d="M531 611l-197 -611h-55l-197 611q-9 28 -13 33t-20 6l-49 5v25h209v-25l-49 -5q-16 -1 -17.5 -6.5t6.5 -32.5l174 -545l174 545q9 27 7.5 32.5t-18.5 6.5l-49 5v25h175v-25l-49 -5q-14 -1 -18.5 -6t-13.5 -33z" />
    <glyph glyph-name="W" unicode="W" horiz-adv-x="911" 
d="M632 0l-174 591l-177 -591h-51l-151 611q-7 27 -11 32.5t-19 6.5l-49 5v25h205v-25l-49 -5q-16 -1 -18 -6.5t5 -32.5l129 -525l177 594h48l174 -590l128 521q7 27 5 32.5t-18 6.5l-49 5v25h174v-25l-49 -5q-13 -1 -17.5 -6t-11.5 -33l-151 -611h-50z" />
    <glyph glyph-name="X" unicode="X" horiz-adv-x="583" 
d="M182 25v-25h-179v25l49 5q14 2 20.5 6.5t22.5 32.5l165 270l-158 272q-10 19 -15.5 26.5t-10.5 9.5t-15 3l-49 5v25h214v-25l-49 -5q-16 -1 -17 -6.5t15 -32.5l129 -222l135 222q17 26 16.5 32t-16.5 7l-49 5v25h179v-25l-49 -5q-14 -1 -20 -6t-23 -33l-155 -253
l167 -289q16 -27 21.5 -32t20.5 -7l49 -5v-25h-214v25l49 5q16 2 17 7t-15 32l-139 239l-145 -239q-16 -26 -16 -31.5t16 -7.5z" />
    <glyph glyph-name="Y" unicode="Y" horiz-adv-x="570" 
d="M395 25v-25h-219v25l55 5q16 2 19 8t3 41v211l-163 321q-13 27 -19 32.5t-22 6.5l-49 5v25h214v-25l-49 -5q-15 -1 -15.5 -6.5t12.5 -32.5l141 -283l141 283q14 27 13 32.5t-16 6.5l-49 5v25h178v-25l-49 -5q-16 -1 -21.5 -6.5t-19.5 -32.5l-162 -321v-211q0 -35 3 -41
t19 -8z" />
    <glyph glyph-name="Z" unicode="Z" horiz-adv-x="522" 
d="M456 157h25v-157h-440v20l354 630h-238q-35 0 -42 -4.5t-12 -21.5l-27 -101h-25v157h420v-20l-354 -630h258q35 0 42.5 4.5t11.5 21.5z" />
    <glyph glyph-name="bracketleft" unicode="[" horiz-adv-x="360" 
d="M333 710h-165v-823h165v-30h-225v883h225v-30z" />
    <glyph glyph-name="backslash" unicode="\" horiz-adv-x="383" 
d="M52 740l346 -868l-34 -15l-346 868z" />
    <glyph glyph-name="bracketright" unicode="]" horiz-adv-x="360" 
d="M27 740h225v-883h-225v30h165v823h-165v30z" />
    <glyph glyph-name="asciicircum" unicode="^" 
d="M469 278l-31 -12l-145 365l-145 -365l-29 12l161 402h28z" />
    <glyph glyph-name="underscore" unicode="_" horiz-adv-x="404" 
d="M20 -143v34h364v-34h-364z" />
    <glyph glyph-name="grave" unicode="`" horiz-adv-x="500" 
d="M251 579q-74 73 -128 161h76q13 -46 28.5 -77t42.5 -65z" />
    <glyph glyph-name="a" unicode="a" horiz-adv-x="542" 
d="M452 -5q-34 0 -56 19.5t-27 54.5q-37 -42 -80 -60.5t-85 -18.5q-70 0 -102.5 39.5t-32.5 92.5q0 59 39 92t133 33h127v81q0 80 -31 109.5t-84 29.5q-34 0 -60 -11.5t-38 -42t-6 -87.5l-58 10q-6 70 36 115.5t128 45.5q69 0 106.5 -23.5t52 -62t14.5 -83.5v-221
q0 -51 13.5 -64t29.5 -13q8 0 19 4t22 14l18 -24q-14 -13 -33 -21t-45 -8zM221 25q29 0 66.5 16t80.5 71v105h-119q-61 0 -89 -21.5t-28 -68.5q0 -48 22 -75t67 -27z" />
    <glyph glyph-name="b" unicode="b" horiz-adv-x="571" 
d="M30 715v25h137v-323q32 44 70.5 62t81.5 18q88 0 134 -63.5t46 -179.5v-20q0 -112 -53.5 -178t-149.5 -66q-38 0 -71 14t-59 42q-12 -10 -20.5 -23t-16.5 -28h-22v666q0 35 -3 41.5t-19 7.5zM315 467q-35 0 -73.5 -20t-74.5 -80v-271q47 -76 129 -76q71 0 103 49t32 135
v80q0 95 -30 139t-86 44z" />
    <glyph glyph-name="c" unicode="c" horiz-adv-x="502" 
d="M269 467q-61 0 -95.5 -44.5t-34.5 -148.5v-60q0 -103 32.5 -148.5t107.5 -45.5q48 0 77.5 23t42.5 81l46 -13q-18 -67 -66.5 -94t-104.5 -27q-102 0 -152.5 66.5t-50.5 177.5v20q0 110 50.5 176.5t147.5 66.5q60 0 100.5 -23.5t58.5 -64t10 -91.5l-57 -9q11 77 -18 117.5
t-94 40.5z" />
    <glyph glyph-name="d" unicode="d" horiz-adv-x="578" 
d="M541 24v-24h-133v76q-31 -46 -71 -66t-85 -20q-88 0 -134 64t-46 179v20q0 112 53.5 178t149.5 66q78 0 129 -55v219q0 35 -3 41.5t-19 7.5l-55 5v25h137v-661q0 -35 3 -41t19 -8zM140 203q0 -95 30.5 -139t85.5 -44q35 0 73.5 20t74.5 80v271q-47 76 -129 76
q-70 0 -102.5 -49t-32.5 -135v-80z" />
    <glyph glyph-name="e" unicode="e" horiz-adv-x="523" 
d="M453 111q-18 -67 -67.5 -94t-107.5 -27q-104 0 -155.5 66.5t-51.5 177.5v20q0 110 50.5 176.5t147.5 66.5q51 0 94 -21t69 -63t26 -107q0 -28 -6 -61h-313v-31q0 -103 33.5 -148.5t110.5 -45.5q49 0 80 23t44 81zM269 467q-66 0 -98 -44.5t-32 -147.5h254q1 12 1.5 21.5
t0.5 17.5q0 82 -35 117.5t-91 35.5z" />
    <glyph glyph-name="f" unicode="f" horiz-adv-x="355" 
d="M278 25v-25h-234v25l55 5q16 2 19 8t3 41v329q0 35 -2.5 41.5t-19.5 7.5l-55 5v25h77v84q0 47 13 88t46.5 66t93.5 25q78 0 115.5 -44t26.5 -111l-57 -9q9 65 -12 99.5t-73 34.5q-30 0 -50.5 -11.5t-31.5 -41.5t-11 -86v-94h165v-30h-165v-378q0 -35 3 -41.5t19 -7.5z
" />
    <glyph glyph-name="g" unicode="g" horiz-adv-x="546" 
d="M495 -63q0 -79 -57 -119.5t-158 -40.5q-112 0 -161.5 40t-48.5 101l52 15q-3 -57 32.5 -91.5t125.5 -34.5q78 0 126 28.5t48 84.5q0 41 -27.5 62.5t-89.5 21.5h-122q-58 0 -84 27t-26 62q0 55 54 99q-38 20 -61.5 55t-23.5 86q0 55 25 91.5t66.5 54.5t92.5 18h17
q56 0 98 -21l145 37l10 -59h-121q24 -20 37.5 -50.5t13.5 -70.5q0 -52 -24.5 -88.5t-66 -55t-92.5 -18.5h-17q-37 0 -67 9q-40 -28 -40 -66q0 -22 14.5 -36.5t46.5 -14.5h130q74 0 113.5 -31.5t39.5 -94.5zM275 201q31 0 57 11.5t42 40t16 80.5q0 53 -16 82t-42 40.5
t-57 11.5h-17q-31 0 -57.5 -11.5t-42.5 -40.5t-16 -82q0 -52 16 -80.5t42.5 -40t57.5 -11.5h17z" />
    <glyph glyph-name="h" unicode="h" horiz-adv-x="607" 
d="M576 25v-25h-214v25l55 5q16 2 19 8t3 41v247q0 77 -26 107t-74 30q-38 0 -80 -19t-85 -72v-293q0 -35 3 -41t19 -8l55 -5v-25h-214v25l55 5q16 2 19 8t3 41v582q0 35 -3 41.5t-19 7.5l-55 5v25h137v-326q40 44 85 63.5t89 19.5q74 0 112.5 -44.5t38.5 -125.5v-248
q0 -35 3 -41t19 -8z" />
    <glyph glyph-name="i" unicode="i" horiz-adv-x="294" 
d="M149 617q-19 0 -32 13t-13 33t13 32.5t32 12.5q20 0 33 -12.5t13 -32.5t-13 -33t-33 -13zM43 462v25h137v-408q0 -35 3 -41t19 -8l55 -5v-25h-214v25l55 5q16 2 19 8t3 41v329q0 35 -3 41.5t-19 7.5z" />
    <glyph glyph-name="j" unicode="j" horiz-adv-x="280" 
d="M142 617q-19 0 -32 13t-13 33t13 32.5t32 12.5q20 0 33 -12.5t13 -32.5t-13 -33t-33 -13zM36 462v25h137v-551q0 -42 -13 -78t-42 -58.5t-77 -22.5q-46 0 -78.5 25.5t-42.5 86.5l49 12q4 -53 21.5 -73.5t47.5 -20.5q37 0 56 26t19 103v472q0 35 -3 41.5t-19 7.5z" />
    <glyph glyph-name="k" unicode="k" horiz-adv-x="546" 
d="M37 715v25h137v-530l198 208q26 27 27 32.5t-16 6.5l-49 5v25h186v-25l-49 -5q-9 -1 -15 -3t-14 -10l-26 -26l-119 -124l150 -225q12 -18 18 -26t12 -10t16 -3l49 -5v-25h-123l-163 251l-82 -86v-86q0 -35 3 -41t19 -8l55 -5v-25h-214v25l55 5q16 2 19 8t3 41v582
q0 35 -3 41.5t-19 7.5z" />
    <glyph glyph-name="l" unicode="l" horiz-adv-x="288" 
d="M37 715v25h137v-661q0 -35 3 -41t19 -8l55 -5v-25h-214v25l55 5q16 2 19 8t3 41v582q0 35 -3 41.5t-19 7.5z" />
    <glyph glyph-name="m" unicode="m" horiz-adv-x="918" 
d="M572 25v-25h-214v25l55 5q16 2 19 8t3 41v247q0 77 -24.5 107t-70.5 30q-37 0 -77.5 -19t-82.5 -72v-293q0 -35 3 -41t19 -8l55 -5v-25h-214v25l55 5q16 2 19 8t3 41v329q0 35 -3 41.5t-19 7.5l-55 5v25h133v-78q40 47 84.5 67.5t88.5 20.5q53 0 87 -24.5t49 -70.5
q41 50 87 72.5t92 22.5q71 0 108.5 -44.5t37.5 -125.5v-248q0 -35 3 -41t19 -8l55 -5v-25h-214v25l55 5q16 2 19 8t3 41v247q0 77 -24.5 107t-70.5 30q-37 0 -78.5 -20t-84.5 -74q3 -19 3 -42v-248q0 -35 3 -41t19 -8z" />
    <glyph glyph-name="n" unicode="n" horiz-adv-x="613" 
d="M582 25v-25h-214v25l55 5q16 2 19 8t3 41v247q0 77 -26 107t-74 30q-38 0 -80 -19t-85 -72v-293q0 -35 3 -41t19 -8l55 -5v-25h-214v25l55 5q16 2 19 8t3 41v329q0 35 -3 41.5t-19 7.5l-55 5v25h133v-78q41 47 86.5 67.5t91.5 20.5q74 0 112.5 -44.5t38.5 -125.5v-248
q0 -35 3 -41t19 -8z" />
    <glyph glyph-name="o" unicode="o" horiz-adv-x="554" 
d="M485 254v-20q0 -111 -54.5 -177.5t-153.5 -66.5q-100 0 -154 66.5t-54 177.5v20q0 110 54 176.5t154 66.5t154 -66.5t54 -176.5zM417 274q0 104 -36 148.5t-104 44.5q-67 0 -103.5 -44.5t-36.5 -148.5v-60q0 -103 36.5 -148.5t103.5 -45.5q68 0 104 45.5t36 148.5v60z
" />
    <glyph glyph-name="p" unicode="p" horiz-adv-x="577" 
d="M36 463v24h133v-76q32 47 71.5 66.5t84.5 19.5q88 0 134 -63.5t46 -179.5v-20q0 -112 -53.5 -178t-149.5 -66q-78 0 -129 55v-179q0 -35 3 -41.5t19 -7.5l75 -5v-25h-234v25l55 5q16 2 19 8t3 41v542q0 35 -3 41.5t-19 7.5zM321 467q-35 0 -73.5 -20t-74.5 -80v-271
q47 -76 129 -76q71 0 103 49t32 135v80q0 95 -30 139t-86 44z" />
    <glyph glyph-name="q" unicode="q" horiz-adv-x="571" 
d="M541 -188v-25h-234v25l75 5q16 1 19 7.5t3 41.5v204q-31 -43 -69.5 -61.5t-82.5 -18.5q-88 0 -134 64t-46 179v20q0 112 53.5 178t149.5 66q38 0 71.5 -13.5t58.5 -42.5q12 11 20.5 23t16.5 28h22v-626q0 -35 3 -41t19 -8zM140 203q0 -95 30.5 -139t85.5 -44
q35 0 73.5 20t74.5 80v271q-47 76 -129 76q-70 0 -102.5 -49t-32.5 -135v-80z" />
    <glyph glyph-name="r" unicode="r" horiz-adv-x="425" 
d="M43 462v25h133v-78q38 47 73 67.5t69 20.5q69 0 106 -71l-49 -34q-16 33 -34.5 47t-44.5 14q-28 0 -54 -17.5t-62 -67.5v-289q0 -35 3 -41.5t19 -7.5l75 -5v-25h-234v25l55 5q16 2 19 8t3 41v329q0 35 -3 41.5t-19 7.5z" />
    <glyph glyph-name="s" unicode="s" horiz-adv-x="470" 
d="M244 211l-57 15q-57 15 -88.5 48.5t-31.5 86.5q0 34 16.5 65t52 51t90.5 20q64 0 102 -21.5t53.5 -56t9.5 -75.5l-57 -10q11 65 -17 99t-92 34q-51 0 -81 -23.5t-30 -69.5q0 -31 20 -53.5t73 -36.5l58 -15q62 -16 100 -50t38 -93q0 -61 -44 -98.5t-122 -37.5
q-70 0 -118 32t-64 89l49 16q14 -61 50.5 -84.5t84.5 -23.5q27 0 54 9t45 30t18 55t-25 58t-87 40z" />
    <glyph glyph-name="t" unicode="t" horiz-adv-x="382" 
d="M356 102q-16 -57 -44.5 -84.5t-77.5 -27.5q-45 0 -72.5 20.5t-40 52.5t-12.5 66v279q0 35 -2.5 41.5t-19.5 7.5l-55 5v25h77v142l60 12v-154h165v-30h-165v-328q0 -62 18 -85.5t50 -23.5t48 23t24 71z" />
    <glyph glyph-name="u" unicode="u" horiz-adv-x="595" 
d="M558 25v-25h-133v78q-40 -46 -84.5 -67t-88.5 -21q-71 0 -108.5 44.5t-37.5 125.5v248q0 35 -3 41.5t-19 7.5l-55 5v25h137v-326q0 -77 24.5 -107t70.5 -30q37 0 77.5 19.5t82.5 71.5v293q0 35 -3 41.5t-19 7.5l-75 5v25h157v-408q0 -35 3 -41t19 -8z" />
    <glyph glyph-name="v" unicode="v" horiz-adv-x="513" 
d="M430 418l-148 -418h-48l-150 418q-10 27 -14.5 32.5t-20.5 6.5l-49 5v25h201v-25l-49 -5q-16 -1 -17.5 -6.5t8.5 -32.5l127 -357l126 357q9 27 7.5 32.5t-17.5 6.5l-49 5v25h176v-25l-49 -5q-16 -1 -20.5 -6.5t-13.5 -32.5z" />
    <glyph glyph-name="w" unicode="w" horiz-adv-x="759" 
d="M679 418l-114 -418h-48l-138 422l-137 -422h-48l-113 418q-7 27 -11.5 32.5t-20.5 6.5l-49 5v25h201v-25l-49 -5q-16 -1 -17.5 -6.5t5.5 -32.5l92 -348l135 417h49l136 -418l92 349q8 27 6 32.5t-18 6.5l-49 5v25h176v-25l-49 -5q-15 -1 -19 -6.5t-12 -32.5z" />
    <glyph glyph-name="x" unicode="x" horiz-adv-x="510" 
d="M196 25v-25h-184v25l49 5q11 1 16.5 3t12 10t18.5 26l120 173l-113 176q-11 18 -17 26t-11.5 10t-16.5 3l-49 5v25h207v-25l-49 -5q-16 -1 -16 -6.5t17 -32.5l84 -131l90 131q19 27 17.5 32.5t-15.5 6.5l-49 5v25h184v-25l-49 -5q-10 -1 -16 -3t-12 -10t-19 -26
l-112 -161l121 -188q12 -18 17.5 -26t11.5 -10t16 -3l49 -5v-25h-207v25l49 5q16 2 16.5 6.5t-17.5 32.5l-93 145v-4l-97 -141q-19 -27 -17.5 -32t15.5 -7z" />
    <glyph glyph-name="y" unicode="y" horiz-adv-x="514" 
d="M265 -50q-32 -91 -73 -132t-115 -41v60q40 0 68.5 9.5t49.5 35.5t38 75l15 43h-14l-150 418q-9 26 -14 31t-21 7l-49 6v25h201v-25l-49 -6q-16 -2 -17 -7t8 -31l127 -356l126 356q9 26 7.5 31t-17.5 7l-49 6v25h177v-25l-49 -6q-15 -1 -19.5 -6.5t-14.5 -31.5z" />
    <glyph glyph-name="z" unicode="z" horiz-adv-x="459" 
d="M383 137h25v-137h-357v25l278 432h-162q-23 0 -33 -1.5t-13.5 -7t-7.5 -17.5l-27 -81h-25v137h337v-25l-278 -432h182q24 0 33.5 1.5t13 7.5t7.5 17z" />
    <glyph glyph-name="braceleft" unicode="{" horiz-adv-x="407" 
d="M380 -114v-30h-85q-79 0 -120.5 46.5t-24.5 138.5l20 106q11 60 -4.5 98t-62.5 38h-73v30h73q47 0 62.5 38t4.5 98l-20 106q-17 92 24.5 138.5t120.5 46.5h85v-30h-85q-58 0 -77 -35.5t-7 -100.5l20 -106q13 -69 -8.5 -112t-66.5 -58q45 -15 66.5 -57.5t8.5 -112.5
l-20 -106q-12 -65 7 -100.5t77 -35.5h85z" />
    <glyph glyph-name="bar" unicode="|" horiz-adv-x="251" 
d="M108 740h35v-953h-35v953z" />
    <glyph glyph-name="braceright" unicode="}" horiz-adv-x="407" 
d="M257 41q17 -92 -24.5 -138.5t-120.5 -46.5h-85v30h85q58 0 77 35.5t7 100.5l-20 106q-13 69 8.5 112t66.5 58q-45 15 -66.5 57.5t-8.5 112.5l20 106q12 65 -7 100.5t-77 35.5h-85v30h85q79 0 120.5 -46.5t24.5 -138.5l-20 -106q-11 -60 5 -98t62 -38h73v-30h-73
q-46 0 -62 -38t-5 -98z" />
    <glyph glyph-name="asciitilde" unicode="~" 
d="M390 258q-36 0 -60.5 17.5t-43.5 40.5t-39 40.5t-49 17.5q-25 0 -44.5 -18.5t-36.5 -71.5l-30 14q24 65 51.5 87.5t59.5 22.5q36 0 60 -17.5t43 -40.5t39.5 -40.5t49.5 -17.5q25 0 44.5 18.5t36.5 71.5l30 -14q-24 -65 -51.5 -87.5t-59.5 -22.5z" />
    <glyph glyph-name="uni00A0" unicode="&#xa0;" horiz-adv-x="230" 
 />
    <glyph glyph-name="exclamdown" unicode="&#xa1;" horiz-adv-x="261" 
d="M131 497q20 0 33.5 -13.5t13.5 -34.5q0 -20 -13.5 -33.5t-33.5 -13.5q-21 0 -34.5 13.5t-13.5 33.5q0 21 13.5 34.5t34.5 13.5zM116 315h28q0 -72 1.5 -125t4 -96t5 -84.5t4 -89.5t1.5 -113h-60q0 65 1.5 113t4 89.5t5 84.5t4 96t1.5 125z" />
    <glyph glyph-name="cent" unicode="&#xa2;" horiz-adv-x="502" 
d="M445 111q-17 -63 -61 -90.5t-97 -30.5v-115h-35v116q-91 8 -136 73t-45 170v20q0 105 46.5 170.5t134.5 71.5v116h35v-116q81 -5 121.5 -55t29.5 -123l-57 -9q10 71 -14 111.5t-80 45.5v-446q44 2 72 25.5t40 78.5zM139 214q0 -94 26.5 -139.5t86.5 -52.5v444
q-54 -5 -83.5 -50.5t-29.5 -141.5v-60z" />
    <glyph glyph-name="sterling" unicode="&#xa3;" horiz-adv-x="522" 
d="M427 160h25v-160h-385v46q42 46 64 77.5t30 57t8 52.5q0 26 -8 52h-102v30h91q-14 31 -32 59.5t-31 61.5t-13 75q0 43 19 84t61.5 68t110.5 27q72 0 117 -29.5t63 -76.5t8 -101l-65 -16q10 93 -18.5 143t-103.5 50q-56 0 -86.5 -38t-30.5 -106q0 -43 10 -77t22.5 -63.5
t21.5 -60.5h180v-30h-173q3 -18 3 -38q0 -50 -25.5 -95t-73.5 -99h242q35 0 42.5 4t11.5 22z" />
    <glyph glyph-name="currency" unicode="&#xa4;" horiz-adv-x="592" 
d="M542 67l-22 -24l-102 104q-25 -20 -56 -32t-66 -12t-66.5 12t-55.5 32l-102 -104l-22 24l100 104q-22 26 -34 59t-12 70q0 38 12 71t34 58l-100 104l22 24l101 -104q52 44 123 44q70 0 122 -44l102 104l22 -24l-100 -104q22 -25 34 -58t12 -71q0 -37 -12 -70t-34 -59z
M296 133q45 0 81.5 22t57.5 60t21 85t-21 85t-57.5 60t-81.5 22t-81 -22t-57.5 -60t-21.5 -85t21.5 -85t57.5 -60t81 -22z" />
    <glyph glyph-name="yen" unicode="&#xa5;" horiz-adv-x="594" 
d="M407 25v-25h-219v25l55 5q16 2 19 8t3 41v135h-193v30h193v46l-33 64h-160v30h145l-115 227q-13 27 -19 32.5t-22 6.5l-49 5v25h214v-25l-49 -5q-15 -1 -15.5 -6.5t12.5 -32.5l141 -283l141 283q14 27 13 32.5t-16 6.5l-49 5v25h178v-25l-49 -5q-16 -1 -21.5 -6.5
t-19.5 -32.5l-114 -227h145v-30h-161l-32 -64v-46h193v-30h-193v-135q0 -35 3 -41t19 -8z" />
    <glyph glyph-name="brokenbar" unicode="&#xa6;" horiz-adv-x="237" 
d="M101 740h35v-383h-35v383zM101 170h35v-383h-35v383z" />
    <glyph glyph-name="section" unicode="&#xa7;" horiz-adv-x="533" 
d="M455 -56q0 -70 -48.5 -118.5t-146.5 -48.5q-47 0 -89.5 14.5t-73 52.5t-42.5 106l55 18q5 -63 27 -98t54.5 -49t68.5 -14q62 0 100.5 30.5t38.5 88.5q0 48 -27.5 80.5t-96.5 51.5l-66 18q-75 20 -117 61.5t-42 97.5q0 48 30 88.5t89 58.5q-44 23 -68 62t-24 88
q0 41 18.5 77t59 58.5t105.5 22.5q73 0 116.5 -28t59.5 -73t7 -96l-63 -16q10 88 -18 136t-102 48q-61 0 -94 -29t-33 -85q0 -46 24 -77.5t91 -49.5l66 -18q83 -22 126 -63t43 -100q0 -50 -29 -89.5t-85 -59.5q86 -47 86 -146zM309 113q5 -1 10 -2.5t10 -3.5
q47 11 72.5 39.5t25.5 72.5q0 47 -33 76.5t-114 51.5l-66 18q-108 -15 -108 -111q0 -44 29.5 -73t107.5 -50z" />
    <glyph glyph-name="dieresis" unicode="&#xa8;" horiz-adv-x="500" 
d="M150 619q-19 0 -31 12.5t-12 31.5t12 31t31 12q20 0 32 -12t12 -31t-12 -31.5t-32 -12.5zM349 619q-19 0 -31 12.5t-12 31.5t12 31t31 12q20 0 32 -12t12 -31t-12 -31.5t-32 -12.5z" />
    <glyph glyph-name="copyright" unicode="&#xa9;" horiz-adv-x="858" 
d="M429 -37q-79 0 -146.5 29t-118 80t-79 120t-28.5 148q0 80 28.5 148.5t79 120t118 80t146.5 28.5q78 0 146 -28.5t118.5 -80t79 -120t28.5 -148.5q0 -79 -28.5 -148t-79 -120t-118.5 -80t-146 -29zM429 -7q72 0 134 26.5t108 73.5t72 110.5t26 136.5q0 74 -26 137
t-72 110t-108 73.5t-134 26.5t-134 -26.5t-108 -73.5t-72 -110t-26 -137q0 -73 26 -136.5t72 -110.5t108 -73.5t134 -26.5zM434 544q-58 0 -91 -40t-33 -133v-61q0 -93 31.5 -133.5t101.5 -40.5q47 0 76.5 24.5t41.5 87.5l45 -14q-19 -70 -65.5 -98t-102.5 -28
q-98 0 -147 60.5t-49 161.5v21q0 101 49 161t143 60q59 0 98.5 -23t57 -62t9.5 -89l-57 -9q11 75 -17.5 115t-90.5 40z" />
    <glyph glyph-name="ordfeminine" unicode="&#xaa;" horiz-adv-x="387" 
d="M311 339q-51 0 -60 47q-25 -27 -53 -39t-55 -12q-47 0 -69 27t-22 64q0 41 27 64t91 23h79v55q0 56 -19.5 74.5t-52.5 18.5q-21 0 -37.5 -7t-24 -27t-3.5 -60l-44 7q-4 48 24 79.5t86 31.5q46 0 71.5 -16.5t35.5 -43t10 -57.5v-152q0 -35 9 -42.5t20 -7.5q6 0 13.5 2.5
t15.5 9.5l12 -19q-10 -9 -23 -14.5t-31 -5.5zM154 362q20 0 43.5 10.5t51.5 44.5v72h-74q-40 0 -57.5 -13.5t-17.5 -45.5q0 -68 54 -68z" />
    <glyph glyph-name="guillemotleft" unicode="&#xab;" horiz-adv-x="642" 
d="M583 26l-15 -16l-262 222v24l262 222l15 -16l-200 -218zM333 26l-15 -16l-262 222v24l262 222l15 -16l-200 -218z" />
    <glyph glyph-name="logicalnot" unicode="&#xac;" 
d="M87 429v32h414v-223h-34v191h-380z" />
    <glyph glyph-name="uni00AD" unicode="&#xad;" horiz-adv-x="0" 
 />
    <glyph glyph-name="registered" unicode="&#xae;" horiz-adv-x="570" 
d="M285 241q-66 0 -119 32t-84 86t-31 120q0 67 31 121t84 85.5t119 31.5t119 -31.5t84 -85.5t31 -121q0 -66 -31 -120t-84 -86t-119 -32zM285 270q57 0 103 27.5t72.5 75t26.5 106.5q0 60 -26.5 107t-72.5 74.5t-103 27.5q-56 0 -102 -27.5t-73 -74.5t-27 -107
q0 -59 27 -106.5t73 -75t102 -27.5zM182 588v20h106q38 0 59 -18t21 -47v-16q0 -47 -44 -63l43 -70q8 -13 10 -16t8 -3l18 -1v-21h-63l-59 105h-28v-64q0 -13 1.5 -16t6.5 -3l21 -1v-21h-100v21l21 1q6 0 7.5 3t1.5 16v174q0 13 -1.5 15t-7.5 3zM288 586h-35v-105h35
q37 0 37 46v16q0 43 -37 43z" />
    <glyph glyph-name="macron" unicode="&#xaf;" horiz-adv-x="500" 
d="M394 662v-43h-287v43h287z" />
    <glyph glyph-name="degree" unicode="&#xb0;" horiz-adv-x="402" 
d="M201 366q-45 0 -80.5 21t-56 58t-20.5 83q0 47 20.5 83.5t56 57.5t80.5 21t80.5 -21t56 -57.5t20.5 -83.5q0 -46 -20.5 -83t-56 -58t-80.5 -21zM201 398q53 0 87 36.5t34 93.5t-34 93.5t-87 36.5t-87 -36.5t-34 -93.5t34 -93.5t87 -36.5z" />
    <glyph glyph-name="plusminus" unicode="&#xb1;" 
d="M501 318h-190v-194h-34v194h-190v32h190v194h34v-194h190v-32zM87 0v32h414v-32h-414z" />
    <glyph glyph-name="uni00B2" unicode="&#xb2;" horiz-adv-x="285" 
d="M225 530h18v-85h-211v23q0 39 10 62t31 39.5t54 35.5q25 14 44.5 33t19.5 56q0 40 -15 58t-41 18q-34 0 -47 -23.5t-9 -67.5l-48 8q-7 40 19 71.5t85 31.5t83.5 -28.5t24.5 -65.5q0 -35 -17.5 -56.5t-43 -35t-50.5 -26.5q-39 -19 -54.5 -42t-17.5 -59h130q17 0 21.5 2
t5.5 11z" />
    <glyph glyph-name="uni00B3" unicode="&#xb3;" horiz-adv-x="291" 
d="M116 610h-14v20h14q42 0 59.5 20.5t17.5 52.5q0 67 -58 67q-35 0 -48 -23.5t-9 -67.5l-48 8q-7 40 19 71.5t87 31.5q59 0 84 -26t25 -61q0 -64 -71 -83q38 -9 58 -31t20 -59q0 -35 -26 -62.5t-88 -27.5q-36 0 -65 15.5t-43 54.5l30 10q6 -34 29 -47t48 -13q63 0 63 70
q0 35 -19 57.5t-65 22.5z" />
    <glyph glyph-name="acute" unicode="&#xb4;" horiz-adv-x="500" 
d="M249 579l-19 19q27 34 42.5 65t28.5 77h76q-54 -88 -128 -161z" />
    <glyph glyph-name="uni00B5" unicode="&#xb5;" horiz-adv-x="606" 
d="M330 462v25h157v-380q0 -51 13.5 -64t29.5 -13q8 0 19 4t22 14l18 -24q-14 -13 -33 -21t-45 -8q-36 0 -57.5 21t-25.5 58q-39 -44 -82.5 -64t-87.5 -20q-68 0 -106 41q1 -55 3.5 -92.5t9 -68t15.5 -63.5l-68 -20v621q0 35 -3 41.5t-19 7.5l-55 5v25h137v-326
q0 -76 24.5 -105t70.5 -29q37 0 77.5 19.5t82.5 71.5v290q0 35 -3 41.5t-19 7.5z" />
    <glyph glyph-name="paragraph" unicode="&#xb6;" horiz-adv-x="555" 
d="M41 502q0 81 50.5 129.5t142.5 48.5h272v-25l-55 -5q-16 -1 -19 -7.5t-3 -41.5v-665q0 -35 3 -41t19 -8l55 -5v-25h-239v25l75 5q16 1 19 7.5t3 41.5v714h-71v-360h-59q-92 0 -142.5 49t-50.5 130v33z" />
    <glyph glyph-name="periodcentered" unicode="&#xb7;" horiz-adv-x="500" 
d="M250 339q-19 0 -32 13t-13 33t13 32.5t32 12.5q20 0 33 -12.5t13 -32.5t-13 -33t-33 -13z" />
    <glyph glyph-name="cedilla" unicode="&#xb8;" horiz-adv-x="500" 
d="M355 -141q0 -38 -29 -60t-76 -22q-37 0 -67 17.5t-38 60.5l44 13q4 -36 19 -51t40 -15q29 0 41.5 16t12.5 41q0 24 -13 39.5t-48 15.5q-15 0 -25 -2l-9 25l26 63h32l-25 -60h4q50 0 80.5 -21.5t30.5 -59.5z" />
    <glyph glyph-name="uni00B9" unicode="&#xb9;" horiz-adv-x="201" 
d="M25 746l64 39h42v-295q0 -18 2 -21t9 -4l28 -2v-18h-135v18l38 2q8 1 9.5 4t1.5 21v268l-48 -29z" />
    <glyph glyph-name="ordmasculine" unicode="&#xba;" horiz-adv-x="398" 
d="M343 517v-13q0 -77 -38 -123t-106 -46q-69 0 -106.5 46t-37.5 123v13q0 77 37.5 122.5t106.5 45.5t106.5 -45.5t37.5 -122.5zM290 531q0 71 -22 100.5t-69 29.5q-46 0 -68.5 -29.5t-22.5 -100.5v-41q0 -71 22.5 -101t68.5 -30q47 0 69 30t22 101v41z" />
    <glyph glyph-name="guillemotright" unicode="&#xbb;" horiz-adv-x="642" 
d="M59 463l15 16l262 -222v-24l-262 -222l-15 16l200 218zM309 463l15 16l262 -222v-24l-262 -222l-15 16l200 218z" />
    <glyph glyph-name="onequarter" unicode="&#xbc;" horiz-adv-x="531" 
d="M25 641l64 39h42v-295q0 -18 2 -21t9 -4l28 -2v-18h-135v18l38 2q8 1 9.5 4t1.5 21v268l-48 -29zM432 680l25 -16l-376 -664l-25 16zM433 45v38h-152v20q34 38 58.5 72t40 73.5t23.5 91.5h55q-14 -70 -57.5 -126.5t-96.5 -110.5h129v81l47 5v-86h39v-20h-39v-38
q0 -18 2 -21t9 -4l28 -2v-18h-125v18l28 2q8 1 9.5 4t1.5 21z" />
    <glyph glyph-name="onehalf" unicode="&#xbd;" horiz-adv-x="567" 
d="M25 641l64 39h42v-295q0 -18 2 -21t9 -4l28 -2v-18h-135v18l38 2q8 1 9.5 4t1.5 21v268l-48 -29zM432 680l25 -16l-376 -664l-25 16zM507 85h18v-85h-211v23q0 39 10 62t31 39.5t54 35.5q25 14 44.5 33t19.5 56q0 40 -15 58t-41 18q-34 0 -47 -23.5t-9 -67.5l-48 8
q-7 40 19 71.5t85 31.5t83.5 -28.5t24.5 -65.5q0 -35 -17.5 -56.5t-43 -35t-50.5 -26.5q-39 -19 -54.5 -42t-17.5 -59h130q17 0 21.5 2t5.5 11z" />
    <glyph glyph-name="threequarters" unicode="&#xbe;" horiz-adv-x="591" 
d="M116 505h-14v20h14q42 0 59.5 20.5t17.5 52.5q0 67 -58 67q-35 0 -48 -23.5t-9 -67.5l-48 8q-7 40 19 71.5t87 31.5q59 0 84 -26t25 -61q0 -64 -71 -83q38 -9 58 -31t20 -59q0 -35 -26 -62.5t-88 -27.5q-36 0 -65 15.5t-43 54.5l30 10q6 -34 29 -47t48 -13q63 0 63 70
q0 35 -19 57.5t-65 22.5zM492 680l25 -16l-376 -664l-25 16zM493 45v38h-152v20q34 38 58.5 72t40 73.5t23.5 91.5h55q-14 -70 -57.5 -126.5t-96.5 -110.5h129v81l47 5v-86h39v-20h-39v-38q0 -18 2 -21t9 -4l28 -2v-18h-125v18l28 2q8 1 9.5 4t1.5 21z" />
    <glyph glyph-name="questiondown" unicode="&#xbf;" horiz-adv-x="471" 
d="M243 497q20 0 33.5 -13.5t13.5 -34.5q0 -20 -13.5 -33.5t-33.5 -13.5q-21 0 -34.5 13.5t-13.5 33.5q0 21 13.5 34.5t34.5 13.5zM220 315h43v-26q0 -46 -14.5 -75t-36 -50t-43 -43t-36 -54t-14.5 -83q0 -80 31.5 -118.5t89.5 -38.5q74 0 103.5 50t19.5 143l60 -16
q10 -54 -7.5 -101t-61.5 -76.5t-115 -29.5q-68 0 -110 25t-61 65.5t-19 85.5q0 48 13.5 79.5t35 53t45 38.5t43.5 35.5t30.5 44t6.5 64.5z" />
    <glyph glyph-name="Agrave" unicode="&#xc0;" horiz-adv-x="622" 
d="M189 25v-25h-189v25l55 5q11 1 16 3.5t9.5 12.5t11.5 33l195 601h47l197 -601q8 -23 12 -33t9 -12.5t15 -3.5l55 -5v-25h-221v25l55 5q17 2 18 8.5t-10 40.5l-43 131h-253l-42 -131q-11 -34 -9.5 -40.5t17.5 -8.5zM178 240h234l-117 360zM312 772q-74 73 -128 161h76
q13 -46 28.5 -77t42.5 -65z" />
    <glyph glyph-name="Aacute" unicode="&#xc1;" horiz-adv-x="622" 
d="M189 25v-25h-189v25l55 5q11 1 16 3.5t9.5 12.5t11.5 33l195 601h47l197 -601q8 -23 12 -33t9 -12.5t15 -3.5l55 -5v-25h-221v25l55 5q17 2 18 8.5t-10 40.5l-43 131h-253l-42 -131q-11 -34 -9.5 -40.5t17.5 -8.5zM178 240h234l-117 360zM310 772l-19 19q27 34 42.5 65
t28.5 77h76q-54 -88 -128 -161z" />
    <glyph glyph-name="Acircumflex" unicode="&#xc2;" horiz-adv-x="622" 
d="M189 25v-25h-189v25l55 5q11 1 16 3.5t9.5 12.5t11.5 33l195 601h47l197 -601q8 -23 12 -33t9 -12.5t15 -3.5l55 -5v-25h-221v25l55 5q17 2 18 8.5t-10 40.5l-43 131h-253l-42 -131q-11 -34 -9.5 -40.5t17.5 -8.5zM178 240h234l-117 360zM438 791l-19 -19
q-32 28 -59.5 54t-51.5 52q-22 -26 -48 -51.5t-57 -54.5l-19 19q25 26 41.5 46t30 42t29.5 54h52q16 -32 29.5 -54t30.5 -42t41 -46z" />
    <glyph glyph-name="Atilde" unicode="&#xc3;" horiz-adv-x="622" 
d="M189 25v-25h-189v25l55 5q11 1 16 3.5t9.5 12.5t11.5 33l195 601h47l197 -601q8 -23 12 -33t9 -12.5t15 -3.5l55 -5v-25h-221v25l55 5q17 2 18 8.5t-10 40.5l-43 131h-253l-42 -131q-11 -34 -9.5 -40.5t17.5 -8.5zM178 240h234l-117 360zM382 786q-25 0 -44.5 14
t-36 32.5t-32 32.5t-33.5 14t-31 -18.5t-14 -59.5h-29q2 65 24 96t56 31q26 0 45 -14t35 -32.5t31 -32.5t33 -14t31 19t14 59h29q-1 -65 -23.5 -96t-54.5 -31z" />
    <glyph glyph-name="Adieresis" unicode="&#xc4;" horiz-adv-x="622" 
d="M189 25v-25h-189v25l55 5q11 1 16 3.5t9.5 12.5t11.5 33l195 601h47l197 -601q8 -23 12 -33t9 -12.5t15 -3.5l55 -5v-25h-221v25l55 5q17 2 18 8.5t-10 40.5l-43 131h-253l-42 -131q-11 -34 -9.5 -40.5t17.5 -8.5zM178 240h234l-117 360zM207 812q-19 0 -31 12.5
t-12 31.5t12 31t31 12q20 0 32 -12t12 -31t-12 -31.5t-32 -12.5zM406 812q-19 0 -31 12.5t-12 31.5t12 31t31 12q20 0 32 -12t12 -31t-12 -31.5t-32 -12.5z" />
    <glyph glyph-name="Aring" unicode="&#xc5;" horiz-adv-x="622" 
d="M189 25v-25h-189v25l55 5q11 1 16 3.5t9.5 12.5t11.5 33l188 579q-42 9 -65 38.5t-23 63.5v11q0 26 14 49.5t40.5 39t63.5 15.5t63.5 -15.5t40.5 -39t14 -49.5v-11q0 -33 -23 -62.5t-64 -39.5l190 -579q8 -23 12 -33t9 -12.5t15 -3.5l55 -5v-25h-221v25l55 5q17 2 18 8.5
t-10 40.5l-43 131h-253l-42 -131q-11 -34 -9.5 -40.5t17.5 -8.5zM377 778q0 34 -17.5 53t-49.5 19q-31 0 -48.5 -19t-17.5 -53v-25q0 -34 17.5 -53.5t48.5 -19.5q32 0 49.5 19.5t17.5 53.5v25zM178 240h234l-117 360z" />
    <glyph glyph-name="AE" unicode="&#xc6;" horiz-adv-x="875" 
d="M827 157v-157h-465v25l55 5q16 2 19 8t3 41v131h-228l-71 -131q-18 -34 -18 -40.5t16 -8.5l55 -5v-25h-193v25l55 5q11 1 16.5 3.5t12 12.5t18.5 33l282 522q19 35 19.5 41.5t-15.5 7.5l-55 5v25h484v-157h-24l-27 101q-4 17 -11.5 21.5t-42.5 4.5h-208v-291h148
q24 0 34 1.5t13.5 7t6.5 17.5l17 71h24v-224h-24l-17 71q-3 12 -6.5 17.5t-13.5 7t-34 1.5h-148v-299h218q35 0 42.5 4.5t11.5 21.5l27 101h24zM227 240h212v392z" />
    <glyph glyph-name="Ccedilla" unicode="&#xc7;" horiz-adv-x="579" 
d="M431 -141q0 -38 -29 -60t-76 -22q-37 0 -67 17.5t-38 60.5l44 13q4 -36 19 -51t40 -15q29 0 41.5 16t12.5 41q0 24 -13 39.5t-48 15.5q-15 0 -25 -2l-9 25l22 54q-112 6 -168.5 89t-56.5 219v83q0 93 28 162.5t81.5 107.5t130.5 38q74 0 121.5 -29.5t67.5 -76.5t10 -101
l-65 -16q11 93 -23.5 143t-108.5 50q-83 0 -126 -53t-43 -175v-183q0 -121 44 -175t129 -54q33 0 64 11.5t53 38.5t27 74l56 -13q-21 -73 -72.5 -105.5t-116.5 -35.5l-21 -50h4q50 0 80.5 -21.5t30.5 -59.5z" />
    <glyph glyph-name="Egrave" unicode="&#xc8;" horiz-adv-x="565" 
d="M496 157h24v-157h-468v25l55 5q16 2 19 8t3 41v522q0 35 -3 41.5t-19 7.5l-55 5v25h454v-157h-24l-27 101q-4 17 -11.5 21.5t-42.5 4.5h-207v-291h148q24 0 34 1.5t13.5 7t6.5 17.5l17 71h24v-224h-24l-17 71q-3 12 -6.5 17.5t-13.5 7t-34 1.5h-148v-299h221
q35 0 42.5 4.5t11.5 21.5zM304 772q-74 73 -128 161h76q13 -46 28.5 -77t42.5 -65z" />
    <glyph glyph-name="Eacute" unicode="&#xc9;" horiz-adv-x="565" 
d="M496 157h24v-157h-468v25l55 5q16 2 19 8t3 41v522q0 35 -3 41.5t-19 7.5l-55 5v25h454v-157h-24l-27 101q-4 17 -11.5 21.5t-42.5 4.5h-207v-291h148q24 0 34 1.5t13.5 7t6.5 17.5l17 71h24v-224h-24l-17 71q-3 12 -6.5 17.5t-13.5 7t-34 1.5h-148v-299h221
q35 0 42.5 4.5t11.5 21.5zM302 772l-19 19q27 34 42.5 65t28.5 77h76q-54 -88 -128 -161z" />
    <glyph glyph-name="Ecircumflex" unicode="&#xca;" horiz-adv-x="565" 
d="M496 157h24v-157h-468v25l55 5q16 2 19 8t3 41v522q0 35 -3 41.5t-19 7.5l-55 5v25h454v-157h-24l-27 101q-4 17 -11.5 21.5t-42.5 4.5h-207v-291h148q24 0 34 1.5t13.5 7t6.5 17.5l17 71h24v-224h-24l-17 71q-3 12 -6.5 17.5t-13.5 7t-34 1.5h-148v-299h221
q35 0 42.5 4.5t11.5 21.5zM430 791l-19 -19q-32 28 -59.5 54t-51.5 52q-22 -26 -48 -51.5t-57 -54.5l-19 19q25 26 41.5 46t30 42t29.5 54h52q16 -32 29.5 -54t30.5 -42t41 -46z" />
    <glyph glyph-name="Edieresis" unicode="&#xcb;" horiz-adv-x="565" 
d="M496 157h24v-157h-468v25l55 5q16 2 19 8t3 41v522q0 35 -3 41.5t-19 7.5l-55 5v25h454v-157h-24l-27 101q-4 17 -11.5 21.5t-42.5 4.5h-207v-291h148q24 0 34 1.5t13.5 7t6.5 17.5l17 71h24v-224h-24l-17 71q-3 12 -6.5 17.5t-13.5 7t-34 1.5h-148v-299h221
q35 0 42.5 4.5t11.5 21.5zM203 812q-19 0 -31 12.5t-12 31.5t12 31t31 12q20 0 32 -12t12 -31t-12 -31.5t-32 -12.5zM402 812q-19 0 -31 12.5t-12 31.5t12 31t31 12q20 0 32 -12t12 -31t-12 -31.5t-32 -12.5z" />
    <glyph glyph-name="Igrave" unicode="&#xcc;" horiz-adv-x="323" 
d="M52 655v25h219v-25l-55 -5q-16 -1 -19 -7.5t-3 -41.5v-522q0 -35 3 -41t19 -8l55 -5v-25h-219v25l55 5q16 2 19 8t3 41v522q0 35 -3 41.5t-19 7.5zM163 772q-74 73 -128 161h76q13 -46 28.5 -77t42.5 -65z" />
    <glyph glyph-name="Iacute" unicode="&#xcd;" horiz-adv-x="323" 
d="M52 655v25h219v-25l-55 -5q-16 -1 -19 -7.5t-3 -41.5v-522q0 -35 3 -41t19 -8l55 -5v-25h-219v25l55 5q16 2 19 8t3 41v522q0 35 -3 41.5t-19 7.5zM161 772l-19 19q27 34 42.5 65t28.5 77h76q-54 -88 -128 -161z" />
    <glyph glyph-name="Icircumflex" unicode="&#xce;" horiz-adv-x="323" 
d="M52 655v25h219v-25l-55 -5q-16 -1 -19 -7.5t-3 -41.5v-522q0 -35 3 -41t19 -8l55 -5v-25h-219v25l55 5q16 2 19 8t3 41v522q0 35 -3 41.5t-19 7.5zM289 791l-19 -19q-32 28 -59.5 54t-51.5 52q-22 -26 -48 -51.5t-57 -54.5l-19 19q25 26 41.5 46t30 42t29.5 54h52
q16 -32 29.5 -54t30.5 -42t41 -46z" />
    <glyph glyph-name="Idieresis" unicode="&#xcf;" horiz-adv-x="323" 
d="M52 655v25h219v-25l-55 -5q-16 -1 -19 -7.5t-3 -41.5v-522q0 -35 3 -41t19 -8l55 -5v-25h-219v25l55 5q16 2 19 8t3 41v522q0 35 -3 41.5t-19 7.5zM62 812q-19 0 -31 12.5t-12 31.5t12 31t31 12q20 0 32 -12t12 -31t-12 -31.5t-32 -12.5zM261 812q-19 0 -31 12.5
t-12 31.5t12 31t31 12q20 0 32 -12t12 -31t-12 -31.5t-32 -12.5z" />
    <glyph glyph-name="Eth" unicode="&#xd0;" horiz-adv-x="655" 
d="M55 655v25h277q78 0 132 -37t82.5 -104t28.5 -157v-83q0 -90 -28.5 -157.5t-82.5 -104.5t-132 -37h-277v25l55 5q16 2 19 8t3 41v260h-77v30h77v232q0 35 -3 41.5t-19 7.5zM359 339h-162v-309h135q83 0 126.5 51t43.5 168v183q0 117 -43.5 167.5t-126.5 50.5h-135v-281
h162v-30z" />
    <glyph glyph-name="Ntilde" unicode="&#xd1;" horiz-adv-x="695" 
d="M459 655v25h189v-25l-55 -5q-16 -1 -19 -7.5t-3 -41.5v-601h-45l-362 630v-551q0 -34 3 -40.5t19 -8.5l55 -5v-25h-189v25l55 5q16 2 19 8.5t3 40.5v522q0 35 -3 41.5t-19 7.5l-55 5v25h154l330 -574v495q0 35 -3 41.5t-19 7.5zM423 786q-25 0 -44.5 14t-36 32.5
t-32 32.5t-33.5 14t-31 -18.5t-14 -59.5h-29q2 65 24 96t56 31q26 0 45 -14t35 -32.5t31 -32.5t33 -14t31 19t14 59h29q-1 -65 -23.5 -96t-54.5 -31z" />
    <glyph glyph-name="Ograve" unicode="&#xd2;" horiz-adv-x="662" 
d="M582 382v-83q0 -93 -29.5 -162.5t-85.5 -108t-136 -38.5q-81 0 -137 38.5t-85 108t-29 162.5v83q0 93 29 162.5t85 107.5t137 38q80 0 136 -38t85.5 -107.5t29.5 -162.5zM509 432q0 122 -46 175t-132 53q-85 0 -131.5 -53t-46.5 -175v-183q0 -121 46.5 -175t131.5 -54
q86 0 132 54t46 175v183zM332 772q-74 73 -128 161h76q13 -46 28.5 -77t42.5 -65z" />
    <glyph glyph-name="Oacute" unicode="&#xd3;" horiz-adv-x="662" 
d="M582 382v-83q0 -93 -29.5 -162.5t-85.5 -108t-136 -38.5q-81 0 -137 38.5t-85 108t-29 162.5v83q0 93 29 162.5t85 107.5t137 38q80 0 136 -38t85.5 -107.5t29.5 -162.5zM509 432q0 122 -46 175t-132 53q-85 0 -131.5 -53t-46.5 -175v-183q0 -121 46.5 -175t131.5 -54
q86 0 132 54t46 175v183zM330 772l-19 19q27 34 42.5 65t28.5 77h76q-54 -88 -128 -161z" />
    <glyph glyph-name="Ocircumflex" unicode="&#xd4;" horiz-adv-x="662" 
d="M582 382v-83q0 -93 -29.5 -162.5t-85.5 -108t-136 -38.5q-81 0 -137 38.5t-85 108t-29 162.5v83q0 93 29 162.5t85 107.5t137 38q80 0 136 -38t85.5 -107.5t29.5 -162.5zM509 432q0 122 -46 175t-132 53q-85 0 -131.5 -53t-46.5 -175v-183q0 -121 46.5 -175t131.5 -54
q86 0 132 54t46 175v183zM458 791l-19 -19q-32 28 -59.5 54t-51.5 52q-22 -26 -48 -51.5t-57 -54.5l-19 19q25 26 41.5 46t30 42t29.5 54h52q16 -32 29.5 -54t30.5 -42t41 -46z" />
    <glyph glyph-name="Otilde" unicode="&#xd5;" horiz-adv-x="662" 
d="M582 382v-83q0 -93 -29.5 -162.5t-85.5 -108t-136 -38.5q-81 0 -137 38.5t-85 108t-29 162.5v83q0 93 29 162.5t85 107.5t137 38q80 0 136 -38t85.5 -107.5t29.5 -162.5zM509 432q0 122 -46 175t-132 53q-85 0 -131.5 -53t-46.5 -175v-183q0 -121 46.5 -175t131.5 -54
q86 0 132 54t46 175v183zM402 786q-25 0 -44.5 14t-36 32.5t-32 32.5t-33.5 14t-31 -18.5t-14 -59.5h-29q2 65 24 96t56 31q26 0 45 -14t35 -32.5t31 -32.5t33 -14t31 19t14 59h29q-1 -65 -23.5 -96t-54.5 -31z" />
    <glyph glyph-name="Odieresis" unicode="&#xd6;" horiz-adv-x="662" 
d="M582 382v-83q0 -93 -29.5 -162.5t-85.5 -108t-136 -38.5q-81 0 -137 38.5t-85 108t-29 162.5v83q0 93 29 162.5t85 107.5t137 38q80 0 136 -38t85.5 -107.5t29.5 -162.5zM509 432q0 122 -46 175t-132 53q-85 0 -131.5 -53t-46.5 -175v-183q0 -121 46.5 -175t131.5 -54
q86 0 132 54t46 175v183zM231 812q-19 0 -31 12.5t-12 31.5t12 31t31 12q20 0 32 -12t12 -31t-12 -31.5t-32 -12.5zM430 812q-19 0 -31 12.5t-12 31.5t12 31t31 12q20 0 32 -12t12 -31t-12 -31.5t-32 -12.5z" />
    <glyph glyph-name="multiply" unicode="&#xd7;" 
d="M481 171l-24 -24l-163 163l-163 -163l-24 24l163 163l-163 163l24 24l163 -163l163 163l24 -24l-163 -163z" />
    <glyph glyph-name="Oslash" unicode="&#xd8;" horiz-adv-x="662" 
d="M582 299q0 -93 -29.5 -162.5t-85.5 -108t-136 -38.5q-107 0 -172 68l-39 -58h-40l57 85q-57 82 -57 214v83q0 93 29 162.5t85 107.5t137 38q54 0 97 -17.5t74 -50.5l40 58h40l-58 -85q58 -81 58 -213v-83zM153 249q0 -71 16 -118l309 454q-22 39 -59.5 57t-87.5 18
q-85 0 -131.5 -53t-46.5 -175v-183zM509 432q0 72 -16 117l-308 -454q22 -39 59 -57t87 -18q86 0 132 54t46 175v183z" />
    <glyph glyph-name="Ugrave" unicode="&#xd9;" horiz-adv-x="673" 
d="M446 655v25h189v-25l-55 -5q-16 -1 -19 -7.5t-3 -41.5v-370q0 -109 -53.5 -175t-163.5 -66q-115 0 -170.5 71.5t-55.5 189.5v350q0 35 -3 41.5t-19 7.5l-55 5v25h219v-25l-55 -5q-16 -1 -19 -7.5t-3 -41.5v-370q0 -104 39.5 -157t127.5 -53q92 0 134 57t42 153v370
q0 35 -3 41.5t-19 7.5zM351 772q-74 73 -128 161h76q13 -46 28.5 -77t42.5 -65z" />
    <glyph glyph-name="Uacute" unicode="&#xda;" horiz-adv-x="673" 
d="M446 655v25h189v-25l-55 -5q-16 -1 -19 -7.5t-3 -41.5v-370q0 -109 -53.5 -175t-163.5 -66q-115 0 -170.5 71.5t-55.5 189.5v350q0 35 -3 41.5t-19 7.5l-55 5v25h219v-25l-55 -5q-16 -1 -19 -7.5t-3 -41.5v-370q0 -104 39.5 -157t127.5 -53q92 0 134 57t42 153v370
q0 35 -3 41.5t-19 7.5zM349 772l-19 19q27 34 42.5 65t28.5 77h76q-54 -88 -128 -161z" />
    <glyph glyph-name="Ucircumflex" unicode="&#xdb;" horiz-adv-x="673" 
d="M446 655v25h189v-25l-55 -5q-16 -1 -19 -7.5t-3 -41.5v-370q0 -109 -53.5 -175t-163.5 -66q-115 0 -170.5 71.5t-55.5 189.5v350q0 35 -3 41.5t-19 7.5l-55 5v25h219v-25l-55 -5q-16 -1 -19 -7.5t-3 -41.5v-370q0 -104 39.5 -157t127.5 -53q92 0 134 57t42 153v370
q0 35 -3 41.5t-19 7.5zM477 791l-19 -19q-32 28 -59.5 54t-51.5 52q-22 -26 -48 -51.5t-57 -54.5l-19 19q25 26 41.5 46t30 42t29.5 54h52q16 -32 29.5 -54t30.5 -42t41 -46z" />
    <glyph glyph-name="Udieresis" unicode="&#xdc;" horiz-adv-x="673" 
d="M446 655v25h189v-25l-55 -5q-16 -1 -19 -7.5t-3 -41.5v-370q0 -109 -53.5 -175t-163.5 -66q-115 0 -170.5 71.5t-55.5 189.5v350q0 35 -3 41.5t-19 7.5l-55 5v25h219v-25l-55 -5q-16 -1 -19 -7.5t-3 -41.5v-370q0 -104 39.5 -157t127.5 -53q92 0 134 57t42 153v370
q0 35 -3 41.5t-19 7.5zM250 812q-19 0 -31 12.5t-12 31.5t12 31t31 12q20 0 32 -12t12 -31t-12 -31.5t-32 -12.5zM449 812q-19 0 -31 12.5t-12 31.5t12 31t31 12q20 0 32 -12t12 -31t-12 -31.5t-32 -12.5z" />
    <glyph glyph-name="Yacute" unicode="&#xdd;" horiz-adv-x="570" 
d="M395 25v-25h-219v25l55 5q16 2 19 8t3 41v211l-163 321q-13 27 -19 32.5t-22 6.5l-49 5v25h214v-25l-49 -5q-15 -1 -15.5 -6.5t12.5 -32.5l141 -283l141 283q14 27 13 32.5t-16 6.5l-49 5v25h178v-25l-49 -5q-16 -1 -21.5 -6.5t-19.5 -32.5l-162 -321v-211q0 -35 3 -41
t19 -8zM299 772l-19 19q27 34 42.5 65t28.5 77h76q-54 -88 -128 -161z" />
    <glyph glyph-name="Thorn" unicode="&#xde;" horiz-adv-x="558" 
d="M52 655v25h239v-25l-75 -5q-16 -1 -19 -7.5t-3 -41.5v-65h130q92 0 142.5 -48.5t50.5 -129.5v-33q0 -81 -50.5 -130t-142.5 -49h-130v-67q0 -35 3 -41.5t19 -7.5l75 -5v-25h-239v25l55 5q16 2 19 8t3 41v522q0 35 -3 41.5t-19 7.5zM324 506h-130v-330h130q62 0 93.5 33
t31.5 106v53q0 72 -31.5 105t-93.5 33z" />
    <glyph glyph-name="germandbls" unicode="&#xdf;" horiz-adv-x="615" 
d="M181 581v-581h-137v25l55 5q16 2 19 8t3 41v329q0 35 -3 41.5t-19 7.5l-55 5v25h77v84q0 47 14.5 88t52.5 66t106 25q61 0 97 -19.5t52 -49t16 -60.5q0 -34 -13.5 -61t-31 -52t-31 -52t-13.5 -60q0 -32 17 -50t54 -46l43 -32q38 -28 62 -63t24 -84q0 -55 -36 -93
t-107 -38q-66 0 -109 30t-57 91l49 16q13 -64 43.5 -86t72.5 -22q38 0 67.5 22t29.5 67q0 25 -15 49t-55 54l-42 32q-37 29 -62.5 55.5t-25.5 71.5q0 33 12 59.5t27.5 53t27.5 58t12 74.5q0 28 -8.5 52t-32 38.5t-67.5 14.5q-35 0 -60.5 -11.5t-39 -41.5t-13.5 -86z" />
    <glyph glyph-name="agrave" unicode="&#xe0;" horiz-adv-x="542" 
d="M452 -5q-34 0 -56 19.5t-27 54.5q-37 -42 -80 -60.5t-85 -18.5q-70 0 -102.5 39.5t-32.5 92.5q0 59 39 92t133 33h127v81q0 80 -31 109.5t-84 29.5q-34 0 -60 -11.5t-38 -42t-6 -87.5l-58 10q-6 70 36 115.5t128 45.5q69 0 106.5 -23.5t52 -62t14.5 -83.5v-221
q0 -51 13.5 -64t29.5 -13q8 0 19 4t22 14l18 -24q-14 -13 -33 -21t-45 -8zM221 25q29 0 66.5 16t80.5 71v105h-119q-61 0 -89 -21.5t-28 -68.5q0 -48 22 -75t67 -27zM262 579q-74 73 -128 161h76q13 -46 28.5 -77t42.5 -65z" />
    <glyph glyph-name="aacute" unicode="&#xe1;" horiz-adv-x="542" 
d="M452 -5q-34 0 -56 19.5t-27 54.5q-37 -42 -80 -60.5t-85 -18.5q-70 0 -102.5 39.5t-32.5 92.5q0 59 39 92t133 33h127v81q0 80 -31 109.5t-84 29.5q-34 0 -60 -11.5t-38 -42t-6 -87.5l-58 10q-6 70 36 115.5t128 45.5q69 0 106.5 -23.5t52 -62t14.5 -83.5v-221
q0 -51 13.5 -64t29.5 -13q8 0 19 4t22 14l18 -24q-14 -13 -33 -21t-45 -8zM221 25q29 0 66.5 16t80.5 71v105h-119q-61 0 -89 -21.5t-28 -68.5q0 -48 22 -75t67 -27zM260 579l-19 19q27 34 42.5 65t28.5 77h76q-54 -88 -128 -161z" />
    <glyph glyph-name="acircumflex" unicode="&#xe2;" horiz-adv-x="542" 
d="M452 -5q-34 0 -56 19.5t-27 54.5q-37 -42 -80 -60.5t-85 -18.5q-70 0 -102.5 39.5t-32.5 92.5q0 59 39 92t133 33h127v81q0 80 -31 109.5t-84 29.5q-34 0 -60 -11.5t-38 -42t-6 -87.5l-58 10q-6 70 36 115.5t128 45.5q69 0 106.5 -23.5t52 -62t14.5 -83.5v-221
q0 -51 13.5 -64t29.5 -13q8 0 19 4t22 14l18 -24q-14 -13 -33 -21t-45 -8zM221 25q29 0 66.5 16t80.5 71v105h-119q-61 0 -89 -21.5t-28 -68.5q0 -48 22 -75t67 -27zM388 598l-19 -19q-32 28 -59.5 54t-51.5 52q-22 -26 -48 -51.5t-57 -54.5l-19 19q25 26 41.5 46t30 42
t29.5 54h52q16 -32 29.5 -54t30.5 -42t41 -46z" />
    <glyph glyph-name="atilde" unicode="&#xe3;" horiz-adv-x="542" 
d="M452 -5q-34 0 -56 19.5t-27 54.5q-37 -42 -80 -60.5t-85 -18.5q-70 0 -102.5 39.5t-32.5 92.5q0 59 39 92t133 33h127v81q0 80 -31 109.5t-84 29.5q-34 0 -60 -11.5t-38 -42t-6 -87.5l-58 10q-6 70 36 115.5t128 45.5q69 0 106.5 -23.5t52 -62t14.5 -83.5v-221
q0 -51 13.5 -64t29.5 -13q8 0 19 4t22 14l18 -24q-14 -13 -33 -21t-45 -8zM221 25q29 0 66.5 16t80.5 71v105h-119q-61 0 -89 -21.5t-28 -68.5q0 -48 22 -75t67 -27zM332 593q-25 0 -44.5 14t-36 32.5t-32 32.5t-33.5 14t-31 -18.5t-14 -59.5h-29q2 65 24 96t56 31
q26 0 45 -14t35 -32.5t31 -32.5t33 -14t31 19t14 59h29q-1 -65 -23.5 -96t-54.5 -31z" />
    <glyph glyph-name="adieresis" unicode="&#xe4;" horiz-adv-x="542" 
d="M452 -5q-34 0 -56 19.5t-27 54.5q-37 -42 -80 -60.5t-85 -18.5q-70 0 -102.5 39.5t-32.5 92.5q0 59 39 92t133 33h127v81q0 80 -31 109.5t-84 29.5q-34 0 -60 -11.5t-38 -42t-6 -87.5l-58 10q-6 70 36 115.5t128 45.5q69 0 106.5 -23.5t52 -62t14.5 -83.5v-221
q0 -51 13.5 -64t29.5 -13q8 0 19 4t22 14l18 -24q-14 -13 -33 -21t-45 -8zM221 25q29 0 66.5 16t80.5 71v105h-119q-61 0 -89 -21.5t-28 -68.5q0 -48 22 -75t67 -27zM161 619q-19 0 -31 12.5t-12 31.5t12 31t31 12q20 0 32 -12t12 -31t-12 -31.5t-32 -12.5zM360 619
q-19 0 -31 12.5t-12 31.5t12 31t31 12q20 0 32 -12t12 -31t-12 -31.5t-32 -12.5z" />
    <glyph glyph-name="aring" unicode="&#xe5;" horiz-adv-x="542" 
d="M452 -5q-34 0 -56 19.5t-27 54.5q-37 -42 -80 -60.5t-85 -18.5q-70 0 -102.5 39.5t-32.5 92.5q0 59 39 92t133 33h127v81q0 80 -31 109.5t-84 29.5q-34 0 -60 -11.5t-38 -42t-6 -87.5l-58 10q-6 70 36 115.5t128 45.5q69 0 106.5 -23.5t52 -62t14.5 -83.5v-221
q0 -51 13.5 -64t29.5 -13q8 0 19 4t22 14l18 -24q-14 -13 -33 -21t-45 -8zM221 25q29 0 66.5 16t80.5 71v105h-119q-61 0 -89 -21.5t-28 -68.5q0 -48 22 -75t67 -27zM379 677v-11q0 -26 -14 -50t-40.5 -39.5t-63.5 -15.5t-63.5 15.5t-40.5 39.5t-14 50v11q0 26 14 49.5
t40.5 39t63.5 15.5t63.5 -15.5t40.5 -39t14 -49.5zM328 684q0 34 -17.5 53t-49.5 19q-31 0 -48.5 -19t-17.5 -53v-25q0 -34 17.5 -53.5t48.5 -19.5q32 0 49.5 19.5t17.5 53.5v25z" />
    <glyph glyph-name="ae" unicode="&#xe6;" horiz-adv-x="820" 
d="M750 111q-18 -67 -67.5 -94t-107.5 -27q-67 0 -112.5 28.5t-68.5 79.5q-43 -58 -92 -83t-98 -25q-70 0 -102.5 39.5t-32.5 92.5q0 59 39 92t133 33h127v81q0 80 -31 109.5t-84 29.5q-34 0 -60 -11.5t-38 -42t-6 -87.5l-58 10q-6 70 36 115.5t128 45.5q68 0 104 -25.5
t50 -65.5q23 43 62.5 67t94.5 24q51 0 94 -21t69 -63t26 -107q0 -28 -6 -61h-313v-31q0 -103 33.5 -148.5t110.5 -45.5q49 0 80 23t44 81zM566 467q-66 0 -98 -44.5t-32 -147.5h254v4q1 9 1.5 18t0.5 17q0 82 -35 117.5t-91 35.5zM221 25q33 0 74 20t87 84q-6 20 -9 42
t-5 46h-119q-61 0 -89 -21.5t-28 -68.5q0 -48 22 -75t67 -27z" />
    <glyph glyph-name="ccedilla" unicode="&#xe7;" horiz-adv-x="502" 
d="M386 -141q0 -38 -29 -60t-76 -22q-37 0 -67 17.5t-38 60.5l44 13q4 -36 19 -51t40 -15q29 0 41.5 16t12.5 41q0 24 -13 39.5t-48 15.5q-15 0 -25 -2l-9 25l22 53q-95 5 -142 71t-47 173v20q0 110 50.5 176.5t147.5 66.5q60 0 100.5 -23.5t58.5 -64t10 -91.5l-57 -9
q11 77 -18 117.5t-94 40.5q-61 0 -95.5 -44.5t-34.5 -148.5v-60q0 -103 32.5 -148.5t107.5 -45.5q48 0 77.5 23t42.5 81l46 -13q-16 -61 -59 -88.5t-94 -31.5l-21 -51h4q50 0 80.5 -21.5t30.5 -59.5z" />
    <glyph glyph-name="egrave" unicode="&#xe8;" horiz-adv-x="523" 
d="M453 111q-18 -67 -67.5 -94t-107.5 -27q-104 0 -155.5 66.5t-51.5 177.5v20q0 110 50.5 176.5t147.5 66.5q51 0 94 -21t69 -63t26 -107q0 -28 -6 -61h-313v-31q0 -103 33.5 -148.5t110.5 -45.5q49 0 80 23t44 81zM269 467q-66 0 -98 -44.5t-32 -147.5h254q1 12 1.5 21.5
t0.5 17.5q0 82 -35 117.5t-91 35.5zM268 579q-74 73 -128 161h76q13 -46 28.5 -77t42.5 -65z" />
    <glyph glyph-name="eacute" unicode="&#xe9;" horiz-adv-x="523" 
d="M453 111q-18 -67 -67.5 -94t-107.5 -27q-104 0 -155.5 66.5t-51.5 177.5v20q0 110 50.5 176.5t147.5 66.5q51 0 94 -21t69 -63t26 -107q0 -28 -6 -61h-313v-31q0 -103 33.5 -148.5t110.5 -45.5q49 0 80 23t44 81zM269 467q-66 0 -98 -44.5t-32 -147.5h254q1 12 1.5 21.5
t0.5 17.5q0 82 -35 117.5t-91 35.5zM266 579l-19 19q27 34 42.5 65t28.5 77h76q-54 -88 -128 -161z" />
    <glyph glyph-name="ecircumflex" unicode="&#xea;" horiz-adv-x="523" 
d="M453 111q-18 -67 -67.5 -94t-107.5 -27q-104 0 -155.5 66.5t-51.5 177.5v20q0 110 50.5 176.5t147.5 66.5q51 0 94 -21t69 -63t26 -107q0 -28 -6 -61h-313v-31q0 -103 33.5 -148.5t110.5 -45.5q49 0 80 23t44 81zM269 467q-66 0 -98 -44.5t-32 -147.5h254q1 12 1.5 21.5
t0.5 17.5q0 82 -35 117.5t-91 35.5zM394 598l-19 -19q-32 28 -59.5 54t-51.5 52q-22 -26 -48 -51.5t-57 -54.5l-19 19q25 26 41.5 46t30 42t29.5 54h52q16 -32 29.5 -54t30.5 -42t41 -46z" />
    <glyph glyph-name="edieresis" unicode="&#xeb;" horiz-adv-x="523" 
d="M453 111q-18 -67 -67.5 -94t-107.5 -27q-104 0 -155.5 66.5t-51.5 177.5v20q0 110 50.5 176.5t147.5 66.5q51 0 94 -21t69 -63t26 -107q0 -28 -6 -61h-313v-31q0 -103 33.5 -148.5t110.5 -45.5q49 0 80 23t44 81zM269 467q-66 0 -98 -44.5t-32 -147.5h254q1 12 1.5 21.5
t0.5 17.5q0 82 -35 117.5t-91 35.5zM167 619q-19 0 -31 12.5t-12 31.5t12 31t31 12q20 0 32 -12t12 -31t-12 -31.5t-32 -12.5zM366 619q-19 0 -31 12.5t-12 31.5t12 31t31 12q20 0 32 -12t12 -31t-12 -31.5t-32 -12.5z" />
    <glyph glyph-name="igrave" unicode="&#xec;" horiz-adv-x="294" 
d="M43 462v25h137v-408q0 -35 3 -41t19 -8l55 -5v-25h-214v25l55 5q16 2 19 8t3 41v329q0 35 -3 41.5t-19 7.5zM145 579q-74 73 -128 161h76q13 -46 28.5 -77t42.5 -65z" />
    <glyph glyph-name="iacute" unicode="&#xed;" horiz-adv-x="294" 
d="M43 462v25h137v-408q0 -35 3 -41t19 -8l55 -5v-25h-214v25l55 5q16 2 19 8t3 41v329q0 35 -3 41.5t-19 7.5zM143 579l-19 19q27 34 42.5 65t28.5 77h76q-54 -88 -128 -161z" />
    <glyph glyph-name="icircumflex" unicode="&#xee;" horiz-adv-x="294" 
d="M43 462v25h137v-408q0 -35 3 -41t19 -8l55 -5v-25h-214v25l55 5q16 2 19 8t3 41v329q0 35 -3 41.5t-19 7.5zM271 598l-19 -19q-32 28 -59.5 54t-51.5 52q-22 -26 -48 -51.5t-57 -54.5l-19 19q25 26 41.5 46t30 42t29.5 54h52q16 -32 29.5 -54t30.5 -42t41 -46z" />
    <glyph glyph-name="idieresis" unicode="&#xef;" horiz-adv-x="294" 
d="M43 462v25h137v-408q0 -35 3 -41t19 -8l55 -5v-25h-214v25l55 5q16 2 19 8t3 41v329q0 35 -3 41.5t-19 7.5zM44 619q-19 0 -31 12.5t-12 31.5t12 31t31 12q20 0 32 -12t12 -31t-12 -31.5t-32 -12.5zM243 619q-19 0 -31 12.5t-12 31.5t12 31t31 12q20 0 32 -12t12 -31
t-12 -31.5t-32 -12.5z" />
    <glyph glyph-name="eth" unicode="&#xf0;" horiz-adv-x="558" 
d="M485 264q0 -124 -53 -199t-157 -75q-98 0 -152 59.5t-54 159.5v20q0 99 53 158.5t149 59.5q38 0 73.5 -13t66.5 -42q-11 77 -40 133.5t-67 97.5l-121 -89l-16 25l116 85q-28 27 -58.5 47t-60.5 35l10 24q38 -17 72.5 -38t64.5 -47l116 85l16 -25l-109 -80
q70 -65 110.5 -155.5t40.5 -205.5v-20zM137 189q0 -90 36 -129.5t102 -39.5q73 0 107.5 52.5t34.5 171.5v60v21t-1 20q-36 44 -72.5 58t-72.5 14q-63 0 -98.5 -38.5t-35.5 -129.5v-60z" />
    <glyph glyph-name="ntilde" unicode="&#xf1;" horiz-adv-x="613" 
d="M582 25v-25h-214v25l55 5q16 2 19 8t3 41v247q0 77 -26 107t-74 30q-38 0 -80 -19t-85 -72v-293q0 -35 3 -41t19 -8l55 -5v-25h-214v25l55 5q16 2 19 8t3 41v329q0 35 -3 41.5t-19 7.5l-55 5v25h133v-78q41 47 86.5 67.5t91.5 20.5q74 0 112.5 -44.5t38.5 -125.5v-248
q0 -35 3 -41t19 -8zM384 593q-25 0 -44.5 14t-36 32.5t-32 32.5t-33.5 14t-31 -18.5t-14 -59.5h-29q2 65 24 96t56 31q26 0 45 -14t35 -32.5t31 -32.5t33 -14t31 19t14 59h29q-1 -65 -23.5 -96t-54.5 -31z" />
    <glyph glyph-name="ograve" unicode="&#xf2;" horiz-adv-x="554" 
d="M485 254v-20q0 -111 -54.5 -177.5t-153.5 -66.5q-100 0 -154 66.5t-54 177.5v20q0 110 54 176.5t154 66.5t154 -66.5t54 -176.5zM417 274q0 104 -36 148.5t-104 44.5q-67 0 -103.5 -44.5t-36.5 -148.5v-60q0 -103 36.5 -148.5t103.5 -45.5q68 0 104 45.5t36 148.5v60z
M278 579q-74 73 -128 161h76q13 -46 28.5 -77t42.5 -65z" />
    <glyph glyph-name="oacute" unicode="&#xf3;" horiz-adv-x="554" 
d="M485 254v-20q0 -111 -54.5 -177.5t-153.5 -66.5q-100 0 -154 66.5t-54 177.5v20q0 110 54 176.5t154 66.5t154 -66.5t54 -176.5zM417 274q0 104 -36 148.5t-104 44.5q-67 0 -103.5 -44.5t-36.5 -148.5v-60q0 -103 36.5 -148.5t103.5 -45.5q68 0 104 45.5t36 148.5v60z
M276 579l-19 19q27 34 42.5 65t28.5 77h76q-54 -88 -128 -161z" />
    <glyph glyph-name="ocircumflex" unicode="&#xf4;" horiz-adv-x="554" 
d="M485 254v-20q0 -111 -54.5 -177.5t-153.5 -66.5q-100 0 -154 66.5t-54 177.5v20q0 110 54 176.5t154 66.5t154 -66.5t54 -176.5zM417 274q0 104 -36 148.5t-104 44.5q-67 0 -103.5 -44.5t-36.5 -148.5v-60q0 -103 36.5 -148.5t103.5 -45.5q68 0 104 45.5t36 148.5v60z
M404 598l-19 -19q-32 28 -59.5 54t-51.5 52q-22 -26 -48 -51.5t-57 -54.5l-19 19q25 26 41.5 46t30 42t29.5 54h52q16 -32 29.5 -54t30.5 -42t41 -46z" />
    <glyph glyph-name="otilde" unicode="&#xf5;" horiz-adv-x="554" 
d="M485 254v-20q0 -111 -54.5 -177.5t-153.5 -66.5q-100 0 -154 66.5t-54 177.5v20q0 110 54 176.5t154 66.5t154 -66.5t54 -176.5zM417 274q0 104 -36 148.5t-104 44.5q-67 0 -103.5 -44.5t-36.5 -148.5v-60q0 -103 36.5 -148.5t103.5 -45.5q68 0 104 45.5t36 148.5v60z
M348 593q-25 0 -44.5 14t-36 32.5t-32 32.5t-33.5 14t-31 -18.5t-14 -59.5h-29q2 65 24 96t56 31q26 0 45 -14t35 -32.5t31 -32.5t33 -14t31 19t14 59h29q-1 -65 -23.5 -96t-54.5 -31z" />
    <glyph glyph-name="odieresis" unicode="&#xf6;" horiz-adv-x="554" 
d="M485 254v-20q0 -111 -54.5 -177.5t-153.5 -66.5q-100 0 -154 66.5t-54 177.5v20q0 110 54 176.5t154 66.5t154 -66.5t54 -176.5zM417 274q0 104 -36 148.5t-104 44.5q-67 0 -103.5 -44.5t-36.5 -148.5v-60q0 -103 36.5 -148.5t103.5 -45.5q68 0 104 45.5t36 148.5v60z
M177 619q-19 0 -31 12.5t-12 31.5t12 31t31 12q20 0 32 -12t12 -31t-12 -31.5t-32 -12.5zM376 619q-19 0 -31 12.5t-12 31.5t12 31t31 12q20 0 32 -12t12 -31t-12 -31.5t-32 -12.5z" />
    <glyph glyph-name="divide" unicode="&#xf7;" 
d="M294 493q-20 0 -33.5 13.5t-13.5 34.5q0 20 13.5 33.5t33.5 13.5q21 0 34.5 -13.5t13.5 -33.5q0 -21 -13.5 -34.5t-34.5 -13.5zM87 318v32h414v-32h-414zM294 80q-20 0 -33.5 13.5t-13.5 34.5q0 20 13.5 33.5t33.5 13.5q21 0 34.5 -13.5t13.5 -33.5q0 -21 -13.5 -34.5
t-34.5 -13.5z" />
    <glyph glyph-name="oslash" unicode="&#xf8;" horiz-adv-x="554" 
d="M485 234q0 -111 -54.5 -177.5t-153.5 -66.5q-43 0 -77.5 13t-60.5 36l-30 -39h-40l49 63q-49 64 -49 171v20q0 110 54 176.5t154 66.5q43 0 77.5 -13t60.5 -36l30 39h40l-49 -63q49 -64 49 -170v-20zM137 214q0 -65 15 -107l235 305q-17 29 -45 42t-65 13
q-67 0 -103.5 -44.5t-36.5 -148.5v-60zM417 274q0 62 -14 106l-236 -305q17 -28 45 -41.5t65 -13.5q68 0 104 45.5t36 148.5v60z" />
    <glyph glyph-name="ugrave" unicode="&#xf9;" horiz-adv-x="595" 
d="M558 25v-25h-133v78q-40 -46 -84.5 -67t-88.5 -21q-71 0 -108.5 44.5t-37.5 125.5v248q0 35 -3 41.5t-19 7.5l-55 5v25h137v-326q0 -77 24.5 -107t70.5 -30q37 0 77.5 19.5t82.5 71.5v293q0 35 -3 41.5t-19 7.5l-75 5v25h157v-408q0 -35 3 -41t19 -8zM295 579
q-74 73 -128 161h76q13 -46 28.5 -77t42.5 -65z" />
    <glyph glyph-name="uacute" unicode="&#xfa;" horiz-adv-x="595" 
d="M558 25v-25h-133v78q-40 -46 -84.5 -67t-88.5 -21q-71 0 -108.5 44.5t-37.5 125.5v248q0 35 -3 41.5t-19 7.5l-55 5v25h137v-326q0 -77 24.5 -107t70.5 -30q37 0 77.5 19.5t82.5 71.5v293q0 35 -3 41.5t-19 7.5l-75 5v25h157v-408q0 -35 3 -41t19 -8zM293 579l-19 19
q27 34 42.5 65t28.5 77h76q-54 -88 -128 -161z" />
    <glyph glyph-name="ucircumflex" unicode="&#xfb;" horiz-adv-x="595" 
d="M558 25v-25h-133v78q-40 -46 -84.5 -67t-88.5 -21q-71 0 -108.5 44.5t-37.5 125.5v248q0 35 -3 41.5t-19 7.5l-55 5v25h137v-326q0 -77 24.5 -107t70.5 -30q37 0 77.5 19.5t82.5 71.5v293q0 35 -3 41.5t-19 7.5l-75 5v25h157v-408q0 -35 3 -41t19 -8zM421 598l-19 -19
q-32 28 -59.5 54t-51.5 52q-22 -26 -48 -51.5t-57 -54.5l-19 19q25 26 41.5 46t30 42t29.5 54h52q16 -32 29.5 -54t30.5 -42t41 -46z" />
    <glyph glyph-name="udieresis" unicode="&#xfc;" horiz-adv-x="595" 
d="M558 25v-25h-133v78q-40 -46 -84.5 -67t-88.5 -21q-71 0 -108.5 44.5t-37.5 125.5v248q0 35 -3 41.5t-19 7.5l-55 5v25h137v-326q0 -77 24.5 -107t70.5 -30q37 0 77.5 19.5t82.5 71.5v293q0 35 -3 41.5t-19 7.5l-75 5v25h157v-408q0 -35 3 -41t19 -8zM194 619
q-19 0 -31 12.5t-12 31.5t12 31t31 12q20 0 32 -12t12 -31t-12 -31.5t-32 -12.5zM393 619q-19 0 -31 12.5t-12 31.5t12 31t31 12q20 0 32 -12t12 -31t-12 -31.5t-32 -12.5z" />
    <glyph glyph-name="yacute" unicode="&#xfd;" horiz-adv-x="514" 
d="M265 -50q-32 -91 -73 -132t-115 -41v60q40 0 68.5 9.5t49.5 35.5t38 75l15 43h-14l-150 418q-9 26 -14 31t-21 7l-49 6v25h201v-25l-49 -6q-16 -2 -17 -7t8 -31l127 -356l126 356q9 26 7.5 31t-17.5 7l-49 6v25h177v-25l-49 -6q-15 -1 -19.5 -6.5t-14.5 -31.5zM268 579
l-19 19q27 34 42.5 65t28.5 77h76q-54 -88 -128 -161z" />
    <glyph glyph-name="thorn" unicode="&#xfe;" horiz-adv-x="575" 
d="M34 716v24h137v-325q33 44 71.5 63t80.5 19q88 0 134 -63.5t46 -179.5v-20q0 -112 -53.5 -178t-149.5 -66q-78 0 -129 55v-179q0 -35 3 -41.5t19 -7.5l75 -5v-25h-234v25l55 5q16 2 19 8t3 41v795q0 35 -3 41.5t-19 7.5zM319 467q-35 0 -73.5 -20t-74.5 -80v-271
q47 -76 129 -76q71 0 103 49t32 135v80q0 95 -30 139t-86 44z" />
    <glyph glyph-name="ydieresis" unicode="&#xff;" horiz-adv-x="514" 
d="M265 -50q-32 -91 -73 -132t-115 -41v60q40 0 68.5 9.5t49.5 35.5t38 75l15 43h-14l-150 418q-9 26 -14 31t-21 7l-49 6v25h201v-25l-49 -6q-16 -2 -17 -7t8 -31l127 -356l126 356q9 26 7.5 31t-17.5 7l-49 6v25h177v-25l-49 -6q-15 -1 -19.5 -6.5t-14.5 -31.5zM169 619
q-19 0 -31 12.5t-12 31.5t12 31t31 12q20 0 32 -12t12 -31t-12 -31.5t-32 -12.5zM368 619q-19 0 -31 12.5t-12 31.5t12 31t31 12q20 0 32 -12t12 -31t-12 -31.5t-32 -12.5z" />
    <glyph glyph-name="Amacron" unicode="&#x100;" horiz-adv-x="622" 
d="M189 25v-25h-189v25l55 5q11 1 16 3.5t9.5 12.5t11.5 33l195 601h47l197 -601q8 -23 12 -33t9 -12.5t15 -3.5l55 -5v-25h-221v25l55 5q17 2 18 8.5t-10 40.5l-43 131h-253l-42 -131q-11 -34 -9.5 -40.5t17.5 -8.5zM178 240h234l-117 360zM455 855v-43h-287v43h287z" />
    <glyph glyph-name="amacron" unicode="&#x101;" horiz-adv-x="542" 
d="M452 -5q-34 0 -56 19.5t-27 54.5q-37 -42 -80 -60.5t-85 -18.5q-70 0 -102.5 39.5t-32.5 92.5q0 59 39 92t133 33h127v81q0 80 -31 109.5t-84 29.5q-34 0 -60 -11.5t-38 -42t-6 -87.5l-58 10q-6 70 36 115.5t128 45.5q69 0 106.5 -23.5t52 -62t14.5 -83.5v-221
q0 -51 13.5 -64t29.5 -13q8 0 19 4t22 14l18 -24q-14 -13 -33 -21t-45 -8zM221 25q29 0 66.5 16t80.5 71v105h-119q-61 0 -89 -21.5t-28 -68.5q0 -48 22 -75t67 -27zM405 662v-43h-287v43h287z" />
    <glyph glyph-name="Abreve" unicode="&#x102;" horiz-adv-x="622" 
d="M189 25v-25h-189v25l55 5q11 1 16 3.5t9.5 12.5t11.5 33l195 601h47l197 -601q8 -23 12 -33t9 -12.5t15 -3.5l55 -5v-25h-221v25l55 5q17 2 18 8.5t-10 40.5l-43 131h-253l-42 -131q-11 -34 -9.5 -40.5t17.5 -8.5zM178 240h234l-117 360zM311 825q49 0 74.5 26t38.5 82
l26 -7q-14 -81 -48 -117.5t-91 -36.5t-91 36.5t-48 117.5l26 7q14 -56 39 -82t74 -26z" />
    <glyph glyph-name="abreve" unicode="&#x103;" horiz-adv-x="542" 
d="M452 -5q-34 0 -56 19.5t-27 54.5q-37 -42 -80 -60.5t-85 -18.5q-70 0 -102.5 39.5t-32.5 92.5q0 59 39 92t133 33h127v81q0 80 -31 109.5t-84 29.5q-34 0 -60 -11.5t-38 -42t-6 -87.5l-58 10q-6 70 36 115.5t128 45.5q69 0 106.5 -23.5t52 -62t14.5 -83.5v-221
q0 -51 13.5 -64t29.5 -13q8 0 19 4t22 14l18 -24q-14 -13 -33 -21t-45 -8zM221 25q29 0 66.5 16t80.5 71v105h-119q-61 0 -89 -21.5t-28 -68.5q0 -48 22 -75t67 -27zM261 632q49 0 74.5 26t38.5 82l26 -7q-14 -81 -48 -117.5t-91 -36.5t-91 36.5t-48 117.5l26 7
q14 -56 39 -82t74 -26z" />
    <glyph glyph-name="Aogonek" unicode="&#x104;" horiz-adv-x="622" 
d="M622 -125q-15 -54 -50 -76t-73 -22q-46 0 -76 25t-30 71q0 51 26.5 87t66.5 52l-64 198h-254l-42 -131q-11 -34 -9.5 -40.5t17.5 -8.5l55 -5v-25h-189v25l55 5q11 1 16 3.5t9.5 12.5t11.5 33l195 601h47l197 -601q8 -23 12 -33t9 -12.5t15 -3.5l55 -5v-25h-63
q-55 0 -84.5 -35.5t-29.5 -91.5q0 -32 14 -50.5t44 -18.5q26 0 45.5 19t29.5 65zM178 240h234l-117 360z" />
    <glyph glyph-name="aogonek" unicode="&#x105;" horiz-adv-x="542" 
d="M530 -125q-15 -54 -50 -76t-73 -22q-46 0 -76 24.5t-30 67.5q0 33 18.5 57t47.5 41.5t60 30.5q-49 12 -58 71q-37 -42 -80 -60.5t-85 -18.5q-70 0 -102.5 39.5t-32.5 92.5q0 59 39 92t133 33h127v81q0 80 -31 109.5t-84 29.5q-34 0 -60 -11.5t-38 -42t-6 -87.5l-58 10
q-6 70 36 115.5t128 45.5q69 0 106.5 -23.5t52 -62t14.5 -83.5v-221q0 -51 13.5 -64t29.5 -13q8 0 19 4t22 14l18 -24q-24 -20 -54 -33.5t-58.5 -27.5t-46.5 -35t-18 -55q0 -32 14 -50.5t44 -18.5q26 0 45.5 19t29.5 65zM221 25q29 0 66.5 16t80.5 71v105h-119
q-61 0 -89 -21.5t-28 -68.5q0 -48 22 -75t67 -27z" />
    <glyph glyph-name="Cacute" unicode="&#x106;" horiz-adv-x="579" 
d="M323 -10q-121 0 -182 83.5t-61 225.5v83q0 93 28 162.5t81.5 107.5t130.5 38q74 0 121.5 -29.5t67.5 -76.5t10 -101l-65 -16q11 93 -23.5 143t-108.5 50q-83 0 -126 -53t-43 -175v-183q0 -121 44 -175t129 -54q33 0 64 11.5t53 38.5t27 74l56 -13q-22 -77 -77.5 -109
t-125.5 -32zM316 772l-19 19q27 34 42.5 65t28.5 77h76q-54 -88 -128 -161z" />
    <glyph glyph-name="cacute" unicode="&#x107;" horiz-adv-x="502" 
d="M269 467q-61 0 -95.5 -44.5t-34.5 -148.5v-60q0 -103 32.5 -148.5t107.5 -45.5q48 0 77.5 23t42.5 81l46 -13q-18 -67 -66.5 -94t-104.5 -27q-102 0 -152.5 66.5t-50.5 177.5v20q0 110 50.5 176.5t147.5 66.5q60 0 100.5 -23.5t58.5 -64t10 -91.5l-57 -9q11 77 -18 117.5
t-94 40.5zM264 579l-19 19q27 34 42.5 65t28.5 77h76q-54 -88 -128 -161z" />
    <glyph glyph-name="Ccircumflex" unicode="&#x108;" horiz-adv-x="579" 
d="M323 -10q-121 0 -182 83.5t-61 225.5v83q0 93 28 162.5t81.5 107.5t130.5 38q74 0 121.5 -29.5t67.5 -76.5t10 -101l-65 -16q11 93 -23.5 143t-108.5 50q-83 0 -126 -53t-43 -175v-183q0 -121 44 -175t129 -54q33 0 64 11.5t53 38.5t27 74l56 -13q-22 -77 -77.5 -109
t-125.5 -32zM444 791l-19 -19q-32 28 -59.5 54t-51.5 52q-22 -26 -48 -51.5t-57 -54.5l-19 19q25 26 41.5 46t30 42t29.5 54h52q16 -32 29.5 -54t30.5 -42t41 -46z" />
    <glyph glyph-name="ccircumflex" unicode="&#x109;" horiz-adv-x="502" 
d="M269 467q-61 0 -95.5 -44.5t-34.5 -148.5v-60q0 -103 32.5 -148.5t107.5 -45.5q48 0 77.5 23t42.5 81l46 -13q-18 -67 -66.5 -94t-104.5 -27q-102 0 -152.5 66.5t-50.5 177.5v20q0 110 50.5 176.5t147.5 66.5q60 0 100.5 -23.5t58.5 -64t10 -91.5l-57 -9q11 77 -18 117.5
t-94 40.5zM392 598l-19 -19q-32 28 -59.5 54t-51.5 52q-22 -26 -48 -51.5t-57 -54.5l-19 19q25 26 41.5 46t30 42t29.5 54h52q16 -32 29.5 -54t30.5 -42t41 -46z" />
    <glyph glyph-name="Cdotaccent" unicode="&#x10a;" horiz-adv-x="579" 
d="M323 -10q-121 0 -182 83.5t-61 225.5v83q0 93 28 162.5t81.5 107.5t130.5 38q74 0 121.5 -29.5t67.5 -76.5t10 -101l-65 -16q11 93 -23.5 143t-108.5 50q-83 0 -126 -53t-43 -175v-183q0 -121 44 -175t129 -54q33 0 64 11.5t53 38.5t27 74l56 -13q-22 -77 -77.5 -109
t-125.5 -32zM317 810q-19 0 -32 13t-13 33t13 32.5t32 12.5q20 0 33 -12.5t13 -32.5t-13 -33t-33 -13z" />
    <glyph glyph-name="cdotaccent" unicode="&#x10b;" horiz-adv-x="502" 
d="M269 467q-61 0 -95.5 -44.5t-34.5 -148.5v-60q0 -103 32.5 -148.5t107.5 -45.5q48 0 77.5 23t42.5 81l46 -13q-18 -67 -66.5 -94t-104.5 -27q-102 0 -152.5 66.5t-50.5 177.5v20q0 110 50.5 176.5t147.5 66.5q60 0 100.5 -23.5t58.5 -64t10 -91.5l-57 -9q11 77 -18 117.5
t-94 40.5zM265 617q-19 0 -32 13t-13 33t13 32.5t32 12.5q20 0 33 -12.5t13 -32.5t-13 -33t-33 -13z" />
    <glyph glyph-name="Ccaron" unicode="&#x10c;" horiz-adv-x="579" 
d="M323 -10q-121 0 -182 83.5t-61 225.5v83q0 93 28 162.5t81.5 107.5t130.5 38q74 0 121.5 -29.5t67.5 -76.5t10 -101l-65 -16q11 93 -23.5 143t-108.5 50q-83 0 -126 -53t-43 -175v-183q0 -121 44 -175t129 -54q33 0 64 11.5t53 38.5t27 74l56 -13q-22 -77 -77.5 -109
t-125.5 -32zM444 919q-24 -26 -41 -46t-30.5 -42t-29.5 -54h-52q-16 32 -29.5 54t-30 42t-41.5 46l19 19q32 -28 59.5 -54t51.5 -52q23 26 48.5 52t56.5 54z" />
    <glyph glyph-name="ccaron" unicode="&#x10d;" horiz-adv-x="502" 
d="M269 467q-61 0 -95.5 -44.5t-34.5 -148.5v-60q0 -103 32.5 -148.5t107.5 -45.5q48 0 77.5 23t42.5 81l46 -13q-18 -67 -66.5 -94t-104.5 -27q-102 0 -152.5 66.5t-50.5 177.5v20q0 110 50.5 176.5t147.5 66.5q60 0 100.5 -23.5t58.5 -64t10 -91.5l-57 -9q11 77 -18 117.5
t-94 40.5zM392 726q-24 -26 -41 -46t-30.5 -42t-29.5 -54h-52q-16 32 -29.5 54t-30 42t-41.5 46l19 19q32 -28 59.5 -54t51.5 -52q23 26 48.5 52t56.5 54z" />
    <glyph glyph-name="Dcaron" unicode="&#x10e;" horiz-adv-x="652" 
d="M52 655v25h277q78 0 132 -37t82.5 -104t28.5 -157v-83q0 -90 -28.5 -157.5t-82.5 -104.5t-132 -37h-277v25l55 5q16 2 19 8t3 41v522q0 35 -3 41.5t-19 7.5zM329 650h-135v-620h135q83 0 126.5 51t43.5 168v183q0 117 -43.5 167.5t-126.5 50.5zM440 919q-24 -26 -41 -46
t-30.5 -42t-29.5 -54h-52q-16 32 -29.5 54t-30 42t-41.5 46l19 19q32 -28 59.5 -54t51.5 -52q23 26 48.5 52t56.5 54z" />
    <glyph glyph-name="dcaron" unicode="&#x10f;" horiz-adv-x="632" 
d="M541 24v-24h-133v76q-31 -46 -71 -66t-85 -20q-88 0 -134 64t-46 179v20q0 112 53.5 178t149.5 66q78 0 129 -55v219q0 35 -3 41.5t-19 7.5l-55 5v25h137v-661q0 -35 3 -41t19 -8zM140 203q0 -95 30.5 -139t85.5 -44q35 0 73.5 20t74.5 80v271q-47 76 -129 76
q-70 0 -102.5 -49t-32.5 -135v-80zM575 526h-19v214h64q-9 -52 -20 -105t-25 -109z" />
    <glyph glyph-name="Dcroat" unicode="&#x110;" horiz-adv-x="655" 
d="M55 655v25h277q78 0 132 -37t82.5 -104t28.5 -157v-83q0 -90 -28.5 -157.5t-82.5 -104.5t-132 -37h-277v25l55 5q16 2 19 8t3 41v260h-77v30h77v232q0 35 -3 41.5t-19 7.5zM359 339h-162v-309h135q83 0 126.5 51t43.5 168v183q0 117 -43.5 167.5t-126.5 50.5h-135v-281
h162v-30z" />
    <glyph glyph-name="dcroat" unicode="&#x111;" horiz-adv-x="578" 
d="M541 24v-24h-133v76q-31 -46 -71 -66t-85 -20q-88 0 -134 64t-46 179v20q0 112 53.5 178t149.5 66q78 0 129 -55v145h-158v30h158v44q0 35 -3 41.5t-19 7.5l-55 5v25h137v-123h77v-30h-77v-508q0 -35 3 -41t19 -8zM140 203q0 -95 30.5 -139t85.5 -44q35 0 73.5 20
t74.5 80v271q-47 76 -129 76q-70 0 -102.5 -49t-32.5 -135v-80z" />
    <glyph glyph-name="Emacron" unicode="&#x112;" horiz-adv-x="565" 
d="M496 157h24v-157h-468v25l55 5q16 2 19 8t3 41v522q0 35 -3 41.5t-19 7.5l-55 5v25h454v-157h-24l-27 101q-4 17 -11.5 21.5t-42.5 4.5h-207v-291h148q24 0 34 1.5t13.5 7t6.5 17.5l17 71h24v-224h-24l-17 71q-3 12 -6.5 17.5t-13.5 7t-34 1.5h-148v-299h221
q35 0 42.5 4.5t11.5 21.5zM447 855v-43h-287v43h287z" />
    <glyph glyph-name="emacron" unicode="&#x113;" horiz-adv-x="523" 
d="M453 111q-18 -67 -67.5 -94t-107.5 -27q-104 0 -155.5 66.5t-51.5 177.5v20q0 110 50.5 176.5t147.5 66.5q51 0 94 -21t69 -63t26 -107q0 -28 -6 -61h-313v-31q0 -103 33.5 -148.5t110.5 -45.5q49 0 80 23t44 81zM269 467q-66 0 -98 -44.5t-32 -147.5h254q1 12 1.5 21.5
t0.5 17.5q0 82 -35 117.5t-91 35.5zM411 662v-43h-287v43h287z" />
    <glyph glyph-name="Ebreve" unicode="&#x114;" horiz-adv-x="565" 
d="M496 157h24v-157h-468v25l55 5q16 2 19 8t3 41v522q0 35 -3 41.5t-19 7.5l-55 5v25h454v-157h-24l-27 101q-4 17 -11.5 21.5t-42.5 4.5h-207v-291h148q24 0 34 1.5t13.5 7t6.5 17.5l17 71h24v-224h-24l-17 71q-3 12 -6.5 17.5t-13.5 7t-34 1.5h-148v-299h221
q35 0 42.5 4.5t11.5 21.5zM303 825q49 0 74.5 26t38.5 82l26 -7q-14 -81 -48 -117.5t-91 -36.5t-91 36.5t-48 117.5l26 7q14 -56 39 -82t74 -26z" />
    <glyph glyph-name="ebreve" unicode="&#x115;" horiz-adv-x="523" 
d="M453 111q-18 -67 -67.5 -94t-107.5 -27q-104 0 -155.5 66.5t-51.5 177.5v20q0 110 50.5 176.5t147.5 66.5q51 0 94 -21t69 -63t26 -107q0 -28 -6 -61h-313v-31q0 -103 33.5 -148.5t110.5 -45.5q49 0 80 23t44 81zM269 467q-66 0 -98 -44.5t-32 -147.5h254q1 12 1.5 21.5
t0.5 17.5q0 82 -35 117.5t-91 35.5zM267 632q49 0 74.5 26t38.5 82l26 -7q-14 -81 -48 -117.5t-91 -36.5t-91 36.5t-48 117.5l26 7q14 -56 39 -82t74 -26z" />
    <glyph glyph-name="Edotaccent" unicode="&#x116;" horiz-adv-x="565" 
d="M496 157h24v-157h-468v25l55 5q16 2 19 8t3 41v522q0 35 -3 41.5t-19 7.5l-55 5v25h454v-157h-24l-27 101q-4 17 -11.5 21.5t-42.5 4.5h-207v-291h148q24 0 34 1.5t13.5 7t6.5 17.5l17 71h24v-224h-24l-17 71q-3 12 -6.5 17.5t-13.5 7t-34 1.5h-148v-299h221
q35 0 42.5 4.5t11.5 21.5zM303 810q-19 0 -32 13t-13 33t13 32.5t32 12.5q20 0 33 -12.5t13 -32.5t-13 -33t-33 -13z" />
    <glyph glyph-name="edotaccent" unicode="&#x117;" horiz-adv-x="523" 
d="M453 111q-18 -67 -67.5 -94t-107.5 -27q-104 0 -155.5 66.5t-51.5 177.5v20q0 110 50.5 176.5t147.5 66.5q51 0 94 -21t69 -63t26 -107q0 -28 -6 -61h-313v-31q0 -103 33.5 -148.5t110.5 -45.5q49 0 80 23t44 81zM269 467q-66 0 -98 -44.5t-32 -147.5h254q1 12 1.5 21.5
t0.5 17.5q0 82 -35 117.5t-91 35.5zM267 617q-19 0 -32 13t-13 33t13 32.5t32 12.5q20 0 33 -12.5t13 -32.5t-13 -33t-33 -13z" />
    <glyph glyph-name="Eogonek" unicode="&#x118;" horiz-adv-x="565" 
d="M520 -125q-15 -54 -50 -76t-73 -22q-46 0 -76 25t-30 71q0 45 24 78t60 49h-323v25l55 5q16 2 19 8t3 41v522q0 35 -3 41.5t-19 7.5l-55 5v25h454v-157h-24l-27 101q-4 17 -11.5 21.5t-42.5 4.5h-207v-291h148q24 0 34 1.5t13.5 7t6.5 17.5l17 71h24v-224h-24l-17 71
q-3 12 -6.5 17.5t-13.5 7t-34 1.5h-148v-299h221q35 0 42.5 4.5t11.5 21.5l27 101h24v-157h-63q-55 0 -84.5 -35.5t-29.5 -91.5q0 -32 14 -50.5t44 -18.5q26 0 45.5 19t29.5 65z" />
    <glyph glyph-name="eogonek" unicode="&#x119;" horiz-adv-x="523" 
d="M453 -125q-15 -54 -49 -76t-74 -22q-47 0 -76.5 25t-29.5 65q0 44 28 72.5t64 53.5q-19 -3 -38 -3q-104 0 -155.5 66.5t-51.5 177.5v20q0 110 50.5 176.5t147.5 66.5q51 0 94 -21t69 -63t26 -107q0 -28 -6 -61h-313v-31q0 -103 33.5 -148.5t110.5 -45.5q49 0 80 23t44 81
l46 -13q-6 -23 -17 -42.5t-30 -36.5q-28 -25 -58.5 -46.5t-51 -47t-20.5 -65.5q0 -29 13.5 -49t44.5 -20q26 0 45.5 19t29.5 65zM269 467q-66 0 -98 -44.5t-32 -147.5h254v4q1 9 1.5 18t0.5 17q0 82 -35 117.5t-91 35.5z" />
    <glyph glyph-name="Ecaron" unicode="&#x11a;" horiz-adv-x="565" 
d="M496 157h24v-157h-468v25l55 5q16 2 19 8t3 41v522q0 35 -3 41.5t-19 7.5l-55 5v25h454v-157h-24l-27 101q-4 17 -11.5 21.5t-42.5 4.5h-207v-291h148q24 0 34 1.5t13.5 7t6.5 17.5l17 71h24v-224h-24l-17 71q-3 12 -6.5 17.5t-13.5 7t-34 1.5h-148v-299h221
q35 0 42.5 4.5t11.5 21.5zM430 919q-24 -26 -41 -46t-30.5 -42t-29.5 -54h-52q-16 32 -29.5 54t-30 42t-41.5 46l19 19q32 -28 59.5 -54t51.5 -52q23 26 48.5 52t56.5 54z" />
    <glyph glyph-name="ecaron" unicode="&#x11b;" horiz-adv-x="523" 
d="M453 111q-18 -67 -67.5 -94t-107.5 -27q-104 0 -155.5 66.5t-51.5 177.5v20q0 110 50.5 176.5t147.5 66.5q51 0 94 -21t69 -63t26 -107q0 -28 -6 -61h-313v-31q0 -103 33.5 -148.5t110.5 -45.5q49 0 80 23t44 81zM269 467q-66 0 -98 -44.5t-32 -147.5h254q1 12 1.5 21.5
t0.5 17.5q0 82 -35 117.5t-91 35.5zM394 726q-24 -26 -41 -46t-30.5 -42t-29.5 -54h-52q-16 32 -29.5 54t-30 42t-41.5 46l19 19q32 -28 59.5 -54t51.5 -52q23 26 48.5 52t56.5 54z" />
    <glyph glyph-name="Gcircumflex" unicode="&#x11c;" horiz-adv-x="640" 
d="M380 283v25h236v-25l-55 -5q-16 -1 -19 -7.5t-3 -41.5v-229h-22q-6 14 -15 25.5t-20 21.5q-60 -57 -158 -57q-78 0 -132.5 38.5t-83 108t-28.5 162.5v83q0 93 29 162.5t84.5 107.5t134.5 38q77 0 127 -29.5t71 -76.5t11 -101l-65 -16q11 93 -25.5 143.5t-116.5 50.5
q-87 0 -132 -53t-45 -176v-183q0 -121 44.5 -175t131.5 -54q47 0 84 16.5t64 54.5v138q0 35 -3 41.5t-19 7.5zM450 791l-19 -19q-32 28 -59.5 54t-51.5 52q-22 -26 -48 -51.5t-57 -54.5l-19 19q25 26 41.5 46t30 42t29.5 54h52q16 -32 29.5 -54t30.5 -42t41 -46z" />
    <glyph glyph-name="gcircumflex" unicode="&#x11d;" horiz-adv-x="546" 
d="M495 -63q0 -79 -57 -119.5t-158 -40.5q-112 0 -161.5 40t-48.5 101l52 15q-3 -57 32.5 -91.5t125.5 -34.5q78 0 126 28.5t48 84.5q0 41 -27.5 62.5t-89.5 21.5h-122q-58 0 -84 27t-26 62q0 55 54 99q-38 20 -61.5 55t-23.5 86q0 55 25 91.5t66.5 54.5t92.5 18h17
q56 0 98 -21l145 37l10 -59h-121q24 -20 37.5 -50.5t13.5 -70.5q0 -52 -24.5 -88.5t-66 -55t-92.5 -18.5h-17q-37 0 -67 9q-40 -28 -40 -66q0 -22 14.5 -36.5t46.5 -14.5h130q74 0 113.5 -31.5t39.5 -94.5zM275 201q31 0 57 11.5t42 40t16 80.5q0 53 -16 82t-42 40.5
t-57 11.5h-17q-31 0 -57.5 -11.5t-42.5 -40.5t-16 -82q0 -52 16 -80.5t42.5 -40t57.5 -11.5h17zM398 598l-19 -19q-32 28 -59.5 54t-51.5 52q-22 -26 -48 -51.5t-57 -54.5l-19 19q25 26 41.5 46t30 42t29.5 54h52q16 -32 29.5 -54t30.5 -42t41 -46z" />
    <glyph glyph-name="Gbreve" unicode="&#x11e;" horiz-adv-x="640" 
d="M380 283v25h236v-25l-55 -5q-16 -1 -19 -7.5t-3 -41.5v-229h-22q-6 14 -15 25.5t-20 21.5q-60 -57 -158 -57q-78 0 -132.5 38.5t-83 108t-28.5 162.5v83q0 93 29 162.5t84.5 107.5t134.5 38q77 0 127 -29.5t71 -76.5t11 -101l-65 -16q11 93 -25.5 143.5t-116.5 50.5
q-87 0 -132 -53t-45 -176v-183q0 -121 44.5 -175t131.5 -54q47 0 84 16.5t64 54.5v138q0 35 -3 41.5t-19 7.5zM323 825q49 0 74.5 26t38.5 82l26 -7q-14 -81 -48 -117.5t-91 -36.5t-91 36.5t-48 117.5l26 7q14 -56 39 -82t74 -26z" />
    <glyph glyph-name="gbreve" unicode="&#x11f;" horiz-adv-x="546" 
d="M495 -63q0 -79 -57 -119.5t-158 -40.5q-112 0 -161.5 40t-48.5 101l52 15q-3 -57 32.5 -91.5t125.5 -34.5q78 0 126 28.5t48 84.5q0 41 -27.5 62.5t-89.5 21.5h-122q-58 0 -84 27t-26 62q0 55 54 99q-38 20 -61.5 55t-23.5 86q0 55 25 91.5t66.5 54.5t92.5 18h17
q56 0 98 -21l145 37l10 -59h-121q24 -20 37.5 -50.5t13.5 -70.5q0 -52 -24.5 -88.5t-66 -55t-92.5 -18.5h-17q-37 0 -67 9q-40 -28 -40 -66q0 -22 14.5 -36.5t46.5 -14.5h130q74 0 113.5 -31.5t39.5 -94.5zM275 201q31 0 57 11.5t42 40t16 80.5q0 53 -16 82t-42 40.5
t-57 11.5h-17q-31 0 -57.5 -11.5t-42.5 -40.5t-16 -82q0 -52 16 -80.5t42.5 -40t57.5 -11.5h17zM271 632q49 0 74.5 26t38.5 82l26 -7q-14 -81 -48 -117.5t-91 -36.5t-91 36.5t-48 117.5l26 7q14 -56 39 -82t74 -26z" />
    <glyph glyph-name="Gdotaccent" unicode="&#x120;" horiz-adv-x="640" 
d="M380 283v25h236v-25l-55 -5q-16 -1 -19 -7.5t-3 -41.5v-229h-22q-6 14 -15 25.5t-20 21.5q-60 -57 -158 -57q-78 0 -132.5 38.5t-83 108t-28.5 162.5v83q0 93 29 162.5t84.5 107.5t134.5 38q77 0 127 -29.5t71 -76.5t11 -101l-65 -16q11 93 -25.5 143.5t-116.5 50.5
q-87 0 -132 -53t-45 -176v-183q0 -121 44.5 -175t131.5 -54q47 0 84 16.5t64 54.5v138q0 35 -3 41.5t-19 7.5zM323 810q-19 0 -32 13t-13 33t13 32.5t32 12.5q20 0 33 -12.5t13 -32.5t-13 -33t-33 -13z" />
    <glyph glyph-name="gdotaccent" unicode="&#x121;" horiz-adv-x="546" 
d="M495 -63q0 -79 -57 -119.5t-158 -40.5q-112 0 -161.5 40t-48.5 101l52 15q-3 -57 32.5 -91.5t125.5 -34.5q78 0 126 28.5t48 84.5q0 41 -27.5 62.5t-89.5 21.5h-122q-58 0 -84 27t-26 62q0 55 54 99q-38 20 -61.5 55t-23.5 86q0 55 25 91.5t66.5 54.5t92.5 18h17
q56 0 98 -21l145 37l10 -59h-121q24 -20 37.5 -50.5t13.5 -70.5q0 -52 -24.5 -88.5t-66 -55t-92.5 -18.5h-17q-37 0 -67 9q-40 -28 -40 -66q0 -22 14.5 -36.5t46.5 -14.5h130q74 0 113.5 -31.5t39.5 -94.5zM275 201q31 0 57 11.5t42 40t16 80.5q0 53 -16 82t-42 40.5
t-57 11.5h-17q-31 0 -57.5 -11.5t-42.5 -40.5t-16 -82q0 -52 16 -80.5t42.5 -40t57.5 -11.5h17zM271 617q-19 0 -32 13t-13 33t13 32.5t32 12.5q20 0 33 -12.5t13 -32.5t-13 -33t-33 -13z" />
    <glyph glyph-name="uni0122" unicode="&#x122;" horiz-adv-x="640" 
d="M380 283v25h236v-25l-55 -5q-16 -1 -19 -7.5t-3 -41.5v-229h-22q-6 14 -15 25.5t-20 21.5q-60 -57 -158 -57q-78 0 -132.5 38.5t-83 108t-28.5 162.5v83q0 93 29 162.5t84.5 107.5t134.5 38q77 0 127 -29.5t71 -76.5t11 -101l-65 -16q11 93 -25.5 143.5t-116.5 50.5
q-87 0 -132 -53t-45 -176v-183q0 -121 44.5 -175t131.5 -54q47 0 84 16.5t64 54.5v138q0 35 -3 41.5t-19 7.5zM294 -238l-20 14q17 36 24 69t7 78h66q-13 -52 -29.5 -87.5t-47.5 -73.5z" />
    <glyph glyph-name="uni0123" unicode="&#x123;" horiz-adv-x="546" 
d="M495 -63q0 -79 -57 -119.5t-158 -40.5q-112 0 -161.5 40t-48.5 101l52 15q-3 -57 32.5 -91.5t125.5 -34.5q78 0 126 28.5t48 84.5q0 41 -27.5 62.5t-89.5 21.5h-122q-58 0 -84 27t-26 62q0 55 54 99q-38 20 -61.5 55t-23.5 86q0 55 25 91.5t66.5 54.5t92.5 18h17
q56 0 98 -21l145 37l10 -59h-121q24 -20 37.5 -50.5t13.5 -70.5q0 -52 -24.5 -88.5t-66 -55t-92.5 -18.5h-17q-37 0 -67 9q-40 -28 -40 -66q0 -22 14.5 -36.5t46.5 -14.5h130q74 0 113.5 -31.5t39.5 -94.5zM275 201q31 0 57 11.5t42 40t16 80.5q0 53 -16 82t-42 40.5
t-57 11.5h-17q-31 0 -57.5 -11.5t-42.5 -40.5t-16 -82q0 -52 16 -80.5t42.5 -40t57.5 -11.5h17zM315 745l20 -14q-16 -36 -23.5 -69t-7.5 -78h-66q14 53 30 88t47 73z" />
    <glyph glyph-name="Hcircumflex" unicode="&#x124;" horiz-adv-x="716" 
d="M664 25v-25h-219v25l55 5q16 2 19 8t3 41v250h-328v-250q0 -35 3 -41t19 -8l55 -5v-25h-219v25l55 5q16 2 19 8t3 41v522q0 35 -3 41.5t-19 7.5l-55 5v25h219v-25l-55 -5q-16 -1 -19 -7.5t-3 -41.5v-242h328v242q0 35 -3 41.5t-19 7.5l-55 5v25h219v-25l-55 -5
q-16 -1 -19 -7.5t-3 -41.5v-522q0 -35 3 -41t19 -8zM485 791l-19 -19q-32 28 -59.5 54t-51.5 52q-22 -26 -48 -51.5t-57 -54.5l-19 19q25 26 41.5 46t30 42t29.5 54h52q16 -32 29.5 -54t30.5 -42t41 -46z" />
    <glyph glyph-name="hcircumflex" unicode="&#x125;" horiz-adv-x="607" 
d="M576 25v-25h-214v25l55 5q16 2 19 8t3 41v247q0 77 -26 107t-74 30q-38 0 -80 -19t-85 -72v-293q0 -35 3 -41t19 -8l55 -5v-25h-214v25l55 5q16 2 19 8t3 41v582q0 35 -3 41.5t-19 7.5l-55 5v25h137v-326q40 44 85 63.5t89 19.5q74 0 112.5 -44.5t38.5 -125.5v-248
q0 -35 3 -41t19 -8zM372 820l-19 -19q-32 28 -59.5 54t-51.5 52q-22 -26 -48 -51.5t-57 -54.5l-19 19q25 26 41.5 46t30 42t29.5 54h52q16 -32 29.5 -54t30.5 -42t41 -46z" />
    <glyph glyph-name="Hbar" unicode="&#x126;" horiz-adv-x="722" 
d="M274 25v-25h-219v25l55 5q16 2 19 8t3 41v415h-77v29h77v78q0 35 -3 41.5t-19 7.5l-55 5v25h219v-25l-55 -5q-16 -1 -19 -7.5t-3 -41.5v-78h328v78q0 35 -3 41.5t-19 7.5l-55 5v25h219v-25l-55 -5q-16 -1 -19 -7.5t-3 -41.5v-78h77v-29h-77v-415q0 -35 3 -41t19 -8l55 -5
v-25h-219v25l55 5q16 2 19 8t3 41v250h-328v-250q0 -35 3 -41t19 -8zM197 359h328v135h-328v-135z" />
    <glyph glyph-name="hbar" unicode="&#x127;" horiz-adv-x="607" 
d="M251 25v-25h-214v25l55 5q16 2 19 8t3 41v508h-77v30h77v44q0 35 -3 41.5t-19 7.5l-55 5v25h137v-123h158v-30h-158v-173q40 44 85 63.5t89 19.5q74 0 112.5 -44.5t38.5 -125.5v-248q0 -35 3 -41t19 -8l55 -5v-25h-214v25l55 5q16 2 19 8t3 41v247q0 77 -26 107t-74 30
q-38 0 -80 -19t-85 -72v-293q0 -35 3 -41t19 -8z" />
    <glyph glyph-name="Itilde" unicode="&#x128;" horiz-adv-x="323" 
d="M52 655v25h219v-25l-55 -5q-16 -1 -19 -7.5t-3 -41.5v-522q0 -35 3 -41t19 -8l55 -5v-25h-219v25l55 5q16 2 19 8t3 41v522q0 35 -3 41.5t-19 7.5zM233 786q-25 0 -44.5 14t-36 32.5t-32 32.5t-33.5 14t-31 -18.5t-14 -59.5h-29q2 65 24 96t56 31q26 0 45 -14t35 -32.5
t31 -32.5t33 -14t31 19t14 59h29q-1 -65 -23.5 -96t-54.5 -31z" />
    <glyph glyph-name="itilde" unicode="&#x129;" horiz-adv-x="294" 
d="M43 462v25h137v-408q0 -35 3 -41t19 -8l55 -5v-25h-214v25l55 5q16 2 19 8t3 41v329q0 35 -3 41.5t-19 7.5zM215 593q-25 0 -44.5 14t-36 32.5t-32 32.5t-33.5 14t-31 -18.5t-14 -59.5h-29q2 65 24 96t56 31q26 0 45 -14t35 -32.5t31 -32.5t33 -14t31 19t14 59h29
q-1 -65 -23.5 -96t-54.5 -31z" />
    <glyph glyph-name="Imacron" unicode="&#x12a;" horiz-adv-x="323" 
d="M52 655v25h219v-25l-55 -5q-16 -1 -19 -7.5t-3 -41.5v-522q0 -35 3 -41t19 -8l55 -5v-25h-219v25l55 5q16 2 19 8t3 41v522q0 35 -3 41.5t-19 7.5zM306 855v-43h-287v43h287z" />
    <glyph glyph-name="imacron" unicode="&#x12b;" horiz-adv-x="294" 
d="M43 462v25h137v-408q0 -35 3 -41t19 -8l55 -5v-25h-214v25l55 5q16 2 19 8t3 41v329q0 35 -3 41.5t-19 7.5zM288 662v-43h-287v43h287z" />
    <glyph glyph-name="Ibreve" unicode="&#x12c;" horiz-adv-x="323" 
d="M52 655v25h219v-25l-55 -5q-16 -1 -19 -7.5t-3 -41.5v-522q0 -35 3 -41t19 -8l55 -5v-25h-219v25l55 5q16 2 19 8t3 41v522q0 35 -3 41.5t-19 7.5zM162 825q49 0 74.5 26t38.5 82l26 -7q-14 -81 -48 -117.5t-91 -36.5t-91 36.5t-48 117.5l26 7q14 -56 39 -82t74 -26z" />
    <glyph glyph-name="ibreve" unicode="&#x12d;" horiz-adv-x="294" 
d="M43 462v25h137v-408q0 -35 3 -41t19 -8l55 -5v-25h-214v25l55 5q16 2 19 8t3 41v329q0 35 -3 41.5t-19 7.5zM144 632q49 0 74.5 26t38.5 82l26 -7q-14 -81 -48 -117.5t-91 -36.5t-91 36.5t-48 117.5l26 7q14 -56 39 -82t74 -26z" />
    <glyph glyph-name="Iogonek" unicode="&#x12e;" horiz-adv-x="319" 
d="M48 655v25h219v-25l-55 -5q-16 -1 -19 -7.5t-3 -41.5v-522q0 -35 3 -41t19 -8l55 -5v-25h-63q-55 0 -84.5 -35.5t-29.5 -91.5q0 -32 14 -50.5t44 -18.5q26 0 45.5 19t29.5 65l44 -13q-15 -54 -50 -76t-73 -22q-46 0 -76 25t-30 71q0 49 25 84t62 52v592q0 35 -3 41.5
t-19 7.5z" />
    <glyph glyph-name="iogonek" unicode="&#x12f;" horiz-adv-x="292" 
d="M147 617q-19 0 -32 13t-13 33t13 32.5t32 12.5q20 0 33 -12.5t13 -32.5t-13 -33t-33 -13zM41 462v25h137v-408q0 -35 3 -41t19 -8l55 -5v-25h-58q-55 0 -84.5 -35.5t-29.5 -91.5q0 -32 14 -50.5t44 -18.5q26 0 45.5 19t29.5 65l44 -13q-15 -54 -50 -76t-73 -22
q-46 0 -76 25t-30 71q0 49 25 84t62 52v399q0 35 -3 41.5t-19 7.5z" />
    <glyph glyph-name="Idotaccent" unicode="&#x130;" horiz-adv-x="323" 
d="M52 655v25h219v-25l-55 -5q-16 -1 -19 -7.5t-3 -41.5v-522q0 -35 3 -41t19 -8l55 -5v-25h-219v25l55 5q16 2 19 8t3 41v522q0 35 -3 41.5t-19 7.5zM162 810q-19 0 -32 13t-13 33t13 32.5t32 12.5q20 0 33 -12.5t13 -32.5t-13 -33t-33 -13z" />
    <glyph glyph-name="dotlessi" unicode="&#x131;" horiz-adv-x="294" 
d="M43 462v25h137v-408q0 -35 3 -41t19 -8l55 -5v-25h-214v25l55 5q16 2 19 8t3 41v329q0 35 -3 41.5t-19 7.5z" />
    <glyph glyph-name="IJ" unicode="&#x132;" horiz-adv-x="775" 
d="M52 655v25h219v-25l-55 -5q-16 -1 -19 -7.5t-3 -41.5v-522q0 -35 3 -41t19 -8l55 -5v-25h-219v25l55 5q16 2 19 8t3 41v522q0 35 -3 41.5t-19 7.5zM516 655v25h219v-25l-55 -5q-16 -1 -19 -7.5t-3 -41.5v-399q0 -53 -15 -102t-51.5 -79.5t-101.5 -30.5q-33 0 -66 12
t-56 42.5t-28 84.5l50 15q2 -52 17 -78.5t37 -36t44 -9.5q32 0 55.5 16t36.5 56t13 110v399q0 35 -3 41.5t-19 7.5z" />
    <glyph glyph-name="ij" unicode="&#x133;" horiz-adv-x="574" 
d="M149 617q-19 0 -32 13t-13 33t13 32.5t32 12.5q20 0 33 -12.5t13 -32.5t-13 -33t-33 -13zM43 462v25h137v-408q0 -35 3 -41t19 -8l55 -5v-25h-214v25l55 5q16 2 19 8t3 41v329q0 35 -3 41.5t-19 7.5zM436 617q-19 0 -32 13t-13 33t13 32.5t32 12.5q20 0 33 -12.5
t13 -32.5t-13 -33t-33 -13zM330 462v25h137v-551q0 -42 -13 -78t-42 -58.5t-77 -22.5q-46 0 -78.5 25.5t-42.5 86.5l49 12q4 -53 21.5 -73.5t47.5 -20.5q37 0 56 26t19 103v472q0 35 -3 41.5t-19 7.5z" />
    <glyph glyph-name="Jcircumflex" unicode="&#x134;" horiz-adv-x="452" 
d="M193 655v25h219v-25l-55 -5q-16 -1 -19 -7.5t-3 -41.5v-399q0 -53 -15 -102t-51.5 -79.5t-101.5 -30.5q-33 0 -66 12t-56 42.5t-28 84.5l50 15q2 -52 17 -78.5t37 -36t44 -9.5q32 0 55.5 16t36.5 56t13 110v399q0 35 -3 41.5t-19 7.5zM429 791l-19 -19q-32 28 -59.5 54
t-51.5 52q-22 -26 -48 -51.5t-57 -54.5l-19 19q25 26 41.5 46t30 42t29.5 54h52q16 -32 29.5 -54t30.5 -42t41 -46z" />
    <glyph glyph-name="jcircumflex" unicode="&#x135;" horiz-adv-x="280" 
d="M36 462v25h137v-551q0 -42 -13 -78t-42 -58.5t-77 -22.5q-46 0 -78.5 25.5t-42.5 86.5l49 12q4 -53 21.5 -73.5t47.5 -20.5q37 0 56 26t19 103v472q0 35 -3 41.5t-19 7.5zM251 598l-19 -19q-32 28 -59.5 54t-51.5 52q-22 -26 -48 -51.5t-57 -54.5l-19 19q25 26 41.5 46
t30 42t29.5 54h52q16 -32 29.5 -54t30.5 -42t41 -46z" />
    <glyph glyph-name="uni0136" unicode="&#x136;" horiz-adv-x="636" 
d="M52 656v24h219v-24l-55 -5q-16 -1 -19 -7.5t-3 -41.5v-312l258 322q22 27 22 32.5t-17 6.5l-49 5v24h182v-24l-49 -5q-9 -1 -14.5 -3t-12.5 -10t-22 -26l-168 -209l202 -324q15 -23 22 -33t13 -12.5t16 -3.5l50 -5v-25h-132l-213 351l-88 -109v-163q0 -35 3 -41t19 -8
l55 -5v-25h-219v25l55 5q16 2 19 8t3 41v523q0 35 -3 41.5t-19 7.5zM293 -238l-20 14q17 36 24 69t7 78h66q-13 -52 -29.5 -87.5t-47.5 -73.5z" />
    <glyph glyph-name="uni0137" unicode="&#x137;" horiz-adv-x="546" 
d="M37 715v25h137v-530l198 208q26 27 27 32.5t-16 6.5l-49 5v25h186v-25l-49 -5q-9 -1 -15 -3t-14 -10l-26 -26l-119 -124l150 -225q12 -18 18 -26t12 -10t16 -3l49 -5v-25h-123l-163 251l-82 -86v-86q0 -35 3 -41t19 -8l55 -5v-25h-214v25l55 5q16 2 19 8t3 41v582
q0 35 -3 41.5t-19 7.5zM257 -238l-20 14q17 36 24 69t7 78h66q-13 -52 -29.5 -87.5t-47.5 -73.5z" />
    <glyph glyph-name="kgreenlandic" unicode="&#x138;" horiz-adv-x="552" 
d="M43 462v25h137v-277l198 208q26 27 27 32.5t-16 6.5l-49 5v25h186v-25l-49 -5q-9 -1 -15 -3t-14 -10l-26 -26l-119 -124l150 -225q12 -18 18 -26t12 -10t16 -3l49 -5v-25h-123l-163 251l-82 -86v-86q0 -35 3 -41t19 -8l55 -5v-25h-214v25l55 5q16 2 19 8t3 41v329
q0 35 -3 41.5t-19 7.5z" />
    <glyph glyph-name="Lacute" unicode="&#x139;" horiz-adv-x="504" 
d="M468 161h25v-161h-441v25l55 5q16 2 19 8t3 41v522q0 35 -3 41.5t-19 7.5l-55 5v25h219v-25l-55 -5q-16 -1 -19 -7.5t-3 -41.5v-571h193q35 0 42.5 4.5t11.5 21.5zM171 772l-19 19q27 34 42.5 65t28.5 77h76q-54 -88 -128 -161z" />
    <glyph glyph-name="lacute" unicode="&#x13a;" horiz-adv-x="288" 
d="M37 715v25h137v-661q0 -35 3 -41t19 -8l55 -5v-25h-214v25l55 5q16 2 19 8t3 41v582q0 35 -3 41.5t-19 7.5zM146 801l-19 19q27 34 42.5 65t28.5 77h76q-54 -88 -128 -161z" />
    <glyph glyph-name="uni013B" unicode="&#x13b;" horiz-adv-x="504" 
d="M468 161h25v-161h-441v25l55 5q16 2 19 8t3 41v522q0 35 -3 41.5t-19 7.5l-55 5v25h219v-25l-55 -5q-16 -1 -19 -7.5t-3 -41.5v-571h193q35 0 42.5 4.5t11.5 21.5zM250 -238l-20 14q17 36 24 69t7 78h66q-13 -52 -29.5 -87.5t-47.5 -73.5z" />
    <glyph glyph-name="uni013C" unicode="&#x13c;" horiz-adv-x="288" 
d="M37 715v25h137v-661q0 -35 3 -41t19 -8l55 -5v-25h-214v25l55 5q16 2 19 8t3 41v582q0 35 -3 41.5t-19 7.5zM100 -238l-20 14q17 36 24 69t7 78h66q-13 -52 -29.5 -87.5t-47.5 -73.5z" />
    <glyph glyph-name="Lcaron" unicode="&#x13d;" horiz-adv-x="504" 
d="M468 161h25v-161h-441v25l55 5q16 2 19 8t3 41v522q0 35 -3 41.5t-19 7.5l-55 5v25h219v-25l-55 -5q-16 -1 -19 -7.5t-3 -41.5v-571h193q35 0 42.5 4.5t11.5 21.5zM372 466h-19v214h64q-9 -52 -20 -105t-25 -109z" />
    <glyph glyph-name="lcaron" unicode="&#x13e;" horiz-adv-x="342" 
d="M37 715v25h137v-661q0 -35 3 -41t19 -8l55 -5v-25h-214v25l55 5q16 2 19 8t3 41v582q0 35 -3 41.5t-19 7.5zM285 526h-19v214h64q-9 -52 -20 -105t-25 -109z" />
    <glyph glyph-name="Ldot" unicode="&#x13f;" horiz-adv-x="504" 
d="M468 161h25v-161h-441v25l55 5q16 2 19 8t3 41v522q0 35 -3 41.5t-19 7.5l-55 5v25h219v-25l-55 -5q-16 -1 -19 -7.5t-3 -41.5v-571h193q35 0 42.5 4.5t11.5 21.5zM413 339q-19 0 -32 13t-13 33t13 32.5t32 12.5q20 0 33 -12.5t13 -32.5t-13 -33t-33 -13z" />
    <glyph glyph-name="ldot" unicode="&#x140;" horiz-adv-x="288" 
d="M37 715v25h137v-661q0 -35 3 -41t19 -8l55 -5v-25h-214v25l55 5q16 2 19 8t3 41v582q0 35 -3 41.5t-19 7.5zM288 339q-19 0 -32 13t-13 33t13 32.5t32 12.5q20 0 33 -12.5t13 -32.5t-13 -33t-33 -13z" />
    <glyph glyph-name="Lslash" unicode="&#x141;" horiz-adv-x="507" 
d="M471 161h25v-161h-441v25l55 5q16 2 19 8t3 41v225l-79 -42l-15 28l94 50v261q0 35 -3 41.5t-19 7.5l-55 5v25h219v-25l-55 -5q-16 -1 -19 -7.5t-3 -41.5v-226l133 71l15 -28l-148 -79v-309h193q35 0 42.5 4.5t11.5 21.5z" />
    <glyph glyph-name="lslash" unicode="&#x142;" horiz-adv-x="330" 
d="M58 715v25h137v-334l100 53l15 -28l-115 -61v-291q0 -35 3 -41t19 -8l55 -5v-25h-214v25l55 5q16 2 19 8t3 41v259l-100 -53l-15 28l115 61v287q0 35 -3 41.5t-19 7.5z" />
    <glyph glyph-name="Nacute" unicode="&#x143;" horiz-adv-x="695" 
d="M459 655v25h189v-25l-55 -5q-16 -1 -19 -7.5t-3 -41.5v-601h-45l-362 630v-551q0 -34 3 -40.5t19 -8.5l55 -5v-25h-189v25l55 5q16 2 19 8.5t3 40.5v522q0 35 -3 41.5t-19 7.5l-55 5v25h154l330 -574v495q0 35 -3 41.5t-19 7.5zM351 772l-19 19q27 34 42.5 65t28.5 77h76
q-54 -88 -128 -161z" />
    <glyph glyph-name="nacute" unicode="&#x144;" horiz-adv-x="613" 
d="M582 25v-25h-214v25l55 5q16 2 19 8t3 41v247q0 77 -26 107t-74 30q-38 0 -80 -19t-85 -72v-293q0 -35 3 -41t19 -8l55 -5v-25h-214v25l55 5q16 2 19 8t3 41v329q0 35 -3 41.5t-19 7.5l-55 5v25h133v-78q41 47 86.5 67.5t91.5 20.5q74 0 112.5 -44.5t38.5 -125.5v-248
q0 -35 3 -41t19 -8zM312 579l-19 19q27 34 42.5 65t28.5 77h76q-54 -88 -128 -161z" />
    <glyph glyph-name="uni0145" unicode="&#x145;" horiz-adv-x="695" 
d="M459 655v25h189v-25l-55 -5q-16 -1 -19 -7.5t-3 -41.5v-601h-45l-362 630v-551q0 -34 3 -40.5t19 -8.5l55 -5v-25h-189v25l55 5q16 2 19 8.5t3 40.5v522q0 35 -3 41.5t-19 7.5l-55 5v25h154l330 -574v495q0 35 -3 41.5t-19 7.5zM304 -238l-20 14q17 36 24 69t7 78h66
q-13 -52 -29.5 -87.5t-47.5 -73.5z" />
    <glyph glyph-name="uni0146" unicode="&#x146;" horiz-adv-x="613" 
d="M582 25v-25h-214v25l55 5q16 2 19 8t3 41v247q0 77 -26 107t-74 30q-38 0 -80 -19t-85 -72v-293q0 -35 3 -41t19 -8l55 -5v-25h-214v25l55 5q16 2 19 8t3 41v329q0 35 -3 41.5t-19 7.5l-55 5v25h133v-78q41 47 86.5 67.5t91.5 20.5q74 0 112.5 -44.5t38.5 -125.5v-248
q0 -35 3 -41t19 -8zM269 -238l-20 14q17 36 24 69t7 78h66q-13 -52 -29.5 -87.5t-47.5 -73.5z" />
    <glyph glyph-name="Ncaron" unicode="&#x147;" horiz-adv-x="695" 
d="M459 655v25h189v-25l-55 -5q-16 -1 -19 -7.5t-3 -41.5v-601h-45l-362 630v-551q0 -34 3 -40.5t19 -8.5l55 -5v-25h-189v25l55 5q16 2 19 8.5t3 40.5v522q0 35 -3 41.5t-19 7.5l-55 5v25h154l330 -574v495q0 35 -3 41.5t-19 7.5zM479 919q-24 -26 -41 -46t-30.5 -42
t-29.5 -54h-52q-16 32 -29.5 54t-30 42t-41.5 46l19 19q32 -28 59.5 -54t51.5 -52q23 26 48.5 52t56.5 54z" />
    <glyph glyph-name="ncaron" unicode="&#x148;" horiz-adv-x="613" 
d="M582 25v-25h-214v25l55 5q16 2 19 8t3 41v247q0 77 -26 107t-74 30q-38 0 -80 -19t-85 -72v-293q0 -35 3 -41t19 -8l55 -5v-25h-214v25l55 5q16 2 19 8t3 41v329q0 35 -3 41.5t-19 7.5l-55 5v25h133v-78q41 47 86.5 67.5t91.5 20.5q74 0 112.5 -44.5t38.5 -125.5v-248
q0 -35 3 -41t19 -8zM440 726q-24 -26 -41 -46t-30.5 -42t-29.5 -54h-52q-16 32 -29.5 54t-30 42t-41.5 46l19 19q32 -28 59.5 -54t51.5 -52q23 26 48.5 52t56.5 54z" />
    <glyph glyph-name="napostrophe" unicode="&#x149;" horiz-adv-x="690" 
d="M659 25v-25h-214v25l55 5q16 2 19 8t3 41v247q0 77 -26 107t-74 30q-38 0 -80 -19t-85 -72v-293q0 -35 3 -41t19 -8l55 -5v-25h-214v25l55 5q16 2 19 8t3 41v329q0 35 -3 41.5t-19 7.5l-55 5v25h133v-78q41 47 86.5 67.5t91.5 20.5q74 0 112.5 -44.5t38.5 -125.5v-248
q0 -35 3 -41t19 -8zM87 638q0 -40 -23.5 -91t-59.5 -98l-21 18q29 41 44.5 73t17.5 63h-2q-19 0 -31 12.5t-12 31.5t12 31t31 12q20 0 32 -13t12 -39z" />
    <glyph glyph-name="Eng" unicode="&#x14a;" horiz-adv-x="695" 
d="M593 650q-16 -1 -19 -7.5t-3 -41.5v-632q0 -48 -14 -92t-48.5 -72t-95.5 -28q-31 0 -61.5 11t-52 39.5t-26.5 78.5l50 15q2 -48 15.5 -72.5t33 -33t39.5 -8.5q29 0 50 14.5t33 50t12 97.5v66l-342 595v-551q0 -34 3 -40.5t19 -8.5l55 -5v-25h-189v25l55 5q16 2 19 8.5
t3 40.5v522q0 35 -3 41.5t-19 7.5l-55 5v25h154l330 -574v495q0 35 -3 41.5t-19 7.5l-55 5v25h189v-25z" />
    <glyph glyph-name="eng" unicode="&#x14b;" horiz-adv-x="610" 
d="M43 462v25h133v-78q41 47 86.5 67.5t91.5 20.5q74 0 112.5 -44.5t38.5 -125.5v-391q0 -42 -13 -78t-42 -58.5t-77 -22.5q-46 0 -78.5 25.5t-42.5 86.5l49 12q4 -53 21.5 -73.5t47.5 -20.5q37 0 56 26t19 103v390q0 77 -26 107t-74 30q-38 0 -80 -19t-85 -72v-293
q0 -35 3 -41t19 -8l55 -5v-25h-214v25l55 5q16 2 19 8t3 41v329q0 35 -3 41.5t-19 7.5z" />
    <glyph glyph-name="Omacron" unicode="&#x14c;" horiz-adv-x="662" 
d="M582 382v-83q0 -93 -29.5 -162.5t-85.5 -108t-136 -38.5q-81 0 -137 38.5t-85 108t-29 162.5v83q0 93 29 162.5t85 107.5t137 38q80 0 136 -38t85.5 -107.5t29.5 -162.5zM509 432q0 122 -46 175t-132 53q-85 0 -131.5 -53t-46.5 -175v-183q0 -121 46.5 -175t131.5 -54
q86 0 132 54t46 175v183zM475 855v-43h-287v43h287z" />
    <glyph glyph-name="omacron" unicode="&#x14d;" horiz-adv-x="554" 
d="M485 254v-20q0 -111 -54.5 -177.5t-153.5 -66.5q-100 0 -154 66.5t-54 177.5v20q0 110 54 176.5t154 66.5t154 -66.5t54 -176.5zM417 274q0 104 -36 148.5t-104 44.5q-67 0 -103.5 -44.5t-36.5 -148.5v-60q0 -103 36.5 -148.5t103.5 -45.5q68 0 104 45.5t36 148.5v60z
M421 662v-43h-287v43h287z" />
    <glyph glyph-name="Obreve" unicode="&#x14e;" horiz-adv-x="662" 
d="M582 382v-83q0 -93 -29.5 -162.5t-85.5 -108t-136 -38.5q-81 0 -137 38.5t-85 108t-29 162.5v83q0 93 29 162.5t85 107.5t137 38q80 0 136 -38t85.5 -107.5t29.5 -162.5zM509 432q0 122 -46 175t-132 53q-85 0 -131.5 -53t-46.5 -175v-183q0 -121 46.5 -175t131.5 -54
q86 0 132 54t46 175v183zM331 825q49 0 74.5 26t38.5 82l26 -7q-14 -81 -48 -117.5t-91 -36.5t-91 36.5t-48 117.5l26 7q14 -56 39 -82t74 -26z" />
    <glyph glyph-name="obreve" unicode="&#x14f;" horiz-adv-x="554" 
d="M485 254v-20q0 -111 -54.5 -177.5t-153.5 -66.5q-100 0 -154 66.5t-54 177.5v20q0 110 54 176.5t154 66.5t154 -66.5t54 -176.5zM417 274q0 104 -36 148.5t-104 44.5q-67 0 -103.5 -44.5t-36.5 -148.5v-60q0 -103 36.5 -148.5t103.5 -45.5q68 0 104 45.5t36 148.5v60z
M277 632q49 0 74.5 26t38.5 82l26 -7q-14 -81 -48 -117.5t-91 -36.5t-91 36.5t-48 117.5l26 7q14 -56 39 -82t74 -26z" />
    <glyph glyph-name="Ohungarumlaut" unicode="&#x150;" horiz-adv-x="662" 
d="M582 382v-83q0 -93 -29.5 -162.5t-85.5 -108t-136 -38.5q-81 0 -137 38.5t-85 108t-29 162.5v83q0 93 29 162.5t85 107.5t137 38q80 0 136 -38t85.5 -107.5t29.5 -162.5zM509 432q0 122 -46 175t-132 53q-85 0 -131.5 -53t-46.5 -175v-183q0 -121 46.5 -175t131.5 -54
q86 0 132 54t46 175v183zM264 772l-21 15q17 32 30 66t25 80h71q-22 -42 -49.5 -84t-55.5 -77zM404 772l-21 15q17 32 30 66t25 80h71q-22 -42 -49.5 -84t-55.5 -77z" />
    <glyph glyph-name="ohungarumlaut" unicode="&#x151;" horiz-adv-x="554" 
d="M485 254v-20q0 -111 -54.5 -177.5t-153.5 -66.5q-100 0 -154 66.5t-54 177.5v20q0 110 54 176.5t154 66.5t154 -66.5t54 -176.5zM417 274q0 104 -36 148.5t-104 44.5q-67 0 -103.5 -44.5t-36.5 -148.5v-60q0 -103 36.5 -148.5t103.5 -45.5q68 0 104 45.5t36 148.5v60z
M210 579l-21 15q17 32 30 66t25 80h71q-22 -42 -49.5 -84t-55.5 -77zM350 579l-21 15q17 32 30 66t25 80h71q-22 -42 -49.5 -84t-55.5 -77z" />
    <glyph glyph-name="OE" unicode="&#x152;" horiz-adv-x="894" 
d="M822 157h24v-157h-523q-78 0 -132 37t-82.5 104.5t-28.5 157.5v83q0 90 28.5 157t82.5 104t132 37h513v-157h-24l-27 101q-4 17 -11.5 21.5t-42.5 4.5h-208v-291h148q24 0 34 1.5t13.5 7t6.5 17.5l17 71h24v-224h-24l-17 71q-3 12 -6.5 17.5t-13.5 7t-34 1.5h-148v-299
h218q35 0 42.5 4.5t11.5 21.5zM323 30h135v620h-135q-83 0 -126.5 -50.5t-43.5 -167.5v-183q0 -117 43.5 -168t126.5 -51z" />
    <glyph glyph-name="oe" unicode="&#x153;" horiz-adv-x="869" 
d="M799 111q-18 -67 -67.5 -94t-107.5 -27q-64 0 -107.5 28.5t-66.5 78.5q-24 -50 -67.5 -78.5t-105.5 -28.5q-100 0 -154 66.5t-54 177.5v20q0 110 54 176.5t154 66.5q62 0 105.5 -28t67.5 -78q22 50 63.5 78t101.5 28q51 0 94 -21t69 -63t26 -107q0 -28 -6 -61h-313v-31
q0 -103 33.5 -148.5t110.5 -45.5q49 0 80 23t44 81zM417 274q0 104 -36 148.5t-104 44.5q-67 0 -103.5 -44.5t-36.5 -148.5v-60q0 -103 36.5 -148.5t103.5 -45.5q68 0 104 45.5t36 148.5v60zM615 467q-66 0 -98 -44.5t-32 -147.5h254v4q1 9 1.5 18t0.5 17q0 82 -35 117.5
t-91 35.5z" />
    <glyph glyph-name="Racute" unicode="&#x154;" horiz-adv-x="608" 
d="M52 655v25h262q92 0 142.5 -45.5t50.5 -122.5v-35q0 -63 -34 -106t-98 -57l131 -235q13 -23 19.5 -33t12.5 -12.5t16 -3.5l45 -5v-25h-127l-165 308h-113v-229q0 -35 3 -41t19 -8l55 -5v-25h-219v25l55 5q16 2 19 8t3 41v522q0 35 -3 41.5t-19 7.5zM314 650h-120v-312
h120q56 0 90.5 37.5t34.5 101.5v35q0 65 -34.5 101.5t-90.5 36.5zM295 772l-19 19q27 34 42.5 65t28.5 77h76q-54 -88 -128 -161z" />
    <glyph glyph-name="racute" unicode="&#x155;" horiz-adv-x="425" 
d="M43 462v25h133v-78q38 47 73 67.5t69 20.5q69 0 106 -71l-49 -34q-16 33 -34.5 47t-44.5 14q-28 0 -54 -17.5t-62 -67.5v-289q0 -35 3 -41.5t19 -7.5l75 -5v-25h-234v25l55 5q16 2 19 8t3 41v329q0 35 -3 41.5t-19 7.5zM245 579l-19 19q27 34 42.5 65t28.5 77h76
q-54 -88 -128 -161z" />
    <glyph glyph-name="uni0156" unicode="&#x156;" horiz-adv-x="608" 
d="M52 655v25h262q92 0 142.5 -45.5t50.5 -122.5v-35q0 -63 -34 -106t-98 -57l131 -235q13 -23 19.5 -33t12.5 -12.5t16 -3.5l45 -5v-25h-127l-165 308h-113v-229q0 -35 3 -41t19 -8l55 -5v-25h-219v25l55 5q16 2 19 8t3 41v522q0 35 -3 41.5t-19 7.5zM314 650h-120v-312
h120q56 0 90.5 37.5t34.5 101.5v35q0 65 -34.5 101.5t-90.5 36.5zM296 -238l-20 14q17 36 24 69t7 78h66q-13 -52 -29.5 -87.5t-47.5 -73.5z" />
    <glyph glyph-name="uni0157" unicode="&#x157;" horiz-adv-x="425" 
d="M43 462v25h133v-78q38 47 73 67.5t69 20.5q69 0 106 -71l-49 -34q-16 33 -34.5 47t-44.5 14q-28 0 -54 -17.5t-62 -67.5v-289q0 -35 3 -41.5t19 -7.5l75 -5v-25h-234v25l55 5q16 2 19 8t3 41v329q0 35 -3 41.5t-19 7.5zM106 -238l-20 14q17 36 24 69t7 78h66
q-13 -52 -29.5 -87.5t-47.5 -73.5z" />
    <glyph glyph-name="Rcaron" unicode="&#x158;" horiz-adv-x="608" 
d="M52 655v25h262q92 0 142.5 -45.5t50.5 -122.5v-35q0 -63 -34 -106t-98 -57l131 -235q13 -23 19.5 -33t12.5 -12.5t16 -3.5l45 -5v-25h-127l-165 308h-113v-229q0 -35 3 -41t19 -8l55 -5v-25h-219v25l55 5q16 2 19 8t3 41v522q0 35 -3 41.5t-19 7.5zM314 650h-120v-312
h120q56 0 90.5 37.5t34.5 101.5v35q0 65 -34.5 101.5t-90.5 36.5zM423 919q-24 -26 -41 -46t-30.5 -42t-29.5 -54h-52q-16 32 -29.5 54t-30 42t-41.5 46l19 19q32 -28 59.5 -54t51.5 -52q23 26 48.5 52t56.5 54z" />
    <glyph glyph-name="rcaron" unicode="&#x159;" horiz-adv-x="425" 
d="M43 462v25h133v-78q38 47 73 67.5t69 20.5q69 0 106 -71l-49 -34q-16 33 -34.5 47t-44.5 14q-28 0 -54 -17.5t-62 -67.5v-289q0 -35 3 -41.5t19 -7.5l75 -5v-25h-234v25l55 5q16 2 19 8t3 41v329q0 35 -3 41.5t-19 7.5zM377 726q-24 -26 -41 -46t-30.5 -42t-29.5 -54h-52
q-16 32 -29.5 54t-30 42t-41.5 46l19 19q32 -28 59.5 -54t51.5 -52q23 26 48.5 52t56.5 54z" />
    <glyph glyph-name="Sacute" unicode="&#x15a;" horiz-adv-x="540" 
d="M267 20q71 0 114 36t43 103q0 56 -33.5 93t-116.5 59l-53 14q-82 22 -122.5 70.5t-40.5 116.5q0 46 21.5 86.5t66.5 66t116 25.5q79 0 127 -29.5t66.5 -76.5t8.5 -101l-63 -16q11 93 -22 143.5t-116 50.5q-67 0 -106 -34.5t-39 -99.5q0 -51 29 -85.5t108 -55.5l53 -14
q87 -23 131.5 -73.5t44.5 -124.5q0 -51 -23.5 -92.5t-71.5 -66.5t-122 -25q-50 0 -96 15.5t-79.5 55.5t-45.5 112l55 18q6 -67 30.5 -104.5t60.5 -52t75 -14.5zM263 772l-19 19q27 34 42.5 65t28.5 77h76q-54 -88 -128 -161z" />
    <glyph glyph-name="sacute" unicode="&#x15b;" horiz-adv-x="470" 
d="M244 211l-57 15q-57 15 -88.5 48.5t-31.5 86.5q0 34 16.5 65t52 51t90.5 20q64 0 102 -21.5t53.5 -56t9.5 -75.5l-57 -10q11 65 -17 99t-92 34q-51 0 -81 -23.5t-30 -69.5q0 -31 20 -53.5t73 -36.5l58 -15q62 -16 100 -50t38 -93q0 -61 -44 -98.5t-122 -37.5
q-70 0 -118 32t-64 89l49 16q14 -61 50.5 -84.5t84.5 -23.5q27 0 54 9t45 30t18 55t-25 58t-87 40zM236 579l-19 19q27 34 42.5 65t28.5 77h76q-54 -88 -128 -161z" />
    <glyph glyph-name="Scircumflex" unicode="&#x15c;" horiz-adv-x="540" 
d="M267 20q71 0 114 36t43 103q0 56 -33.5 93t-116.5 59l-53 14q-82 22 -122.5 70.5t-40.5 116.5q0 46 21.5 86.5t66.5 66t116 25.5q79 0 127 -29.5t66.5 -76.5t8.5 -101l-63 -16q11 93 -22 143.5t-116 50.5q-67 0 -106 -34.5t-39 -99.5q0 -51 29 -85.5t108 -55.5l53 -14
q87 -23 131.5 -73.5t44.5 -124.5q0 -51 -23.5 -92.5t-71.5 -66.5t-122 -25q-50 0 -96 15.5t-79.5 55.5t-45.5 112l55 18q6 -67 30.5 -104.5t60.5 -52t75 -14.5zM391 791l-19 -19q-32 28 -59.5 54t-51.5 52q-22 -26 -48 -51.5t-57 -54.5l-19 19q25 26 41.5 46t30 42t29.5 54
h52q16 -32 29.5 -54t30.5 -42t41 -46z" />
    <glyph glyph-name="scircumflex" unicode="&#x15d;" horiz-adv-x="470" 
d="M244 211l-57 15q-57 15 -88.5 48.5t-31.5 86.5q0 34 16.5 65t52 51t90.5 20q64 0 102 -21.5t53.5 -56t9.5 -75.5l-57 -10q11 65 -17 99t-92 34q-51 0 -81 -23.5t-30 -69.5q0 -31 20 -53.5t73 -36.5l58 -15q62 -16 100 -50t38 -93q0 -61 -44 -98.5t-122 -37.5
q-70 0 -118 32t-64 89l49 16q14 -61 50.5 -84.5t84.5 -23.5q27 0 54 9t45 30t18 55t-25 58t-87 40zM364 598l-19 -19q-32 28 -59.5 54t-51.5 52q-22 -26 -48 -51.5t-57 -54.5l-19 19q25 26 41.5 46t30 42t29.5 54h52q16 -32 29.5 -54t30.5 -42t41 -46z" />
    <glyph glyph-name="Scedilla" unicode="&#x15e;" horiz-adv-x="540" 
d="M367 -141q0 -38 -29 -60t-76 -22q-37 0 -67 17.5t-38 60.5l44 13q4 -36 19 -51t40 -15q29 0 41.5 16t12.5 41q0 24 -13 39.5t-48 15.5q-15 0 -25 -2l-9 25l22 54q-45 3 -85.5 21t-69.5 56.5t-40 104.5l55 18q6 -67 30.5 -104.5t60.5 -52t75 -14.5q71 0 114 36t43 103
q0 56 -33.5 93t-116.5 59l-53 14q-82 22 -122.5 70.5t-40.5 116.5q0 46 21.5 86.5t66.5 66t116 25.5q79 0 127 -29.5t66.5 -76.5t8.5 -101l-63 -16q11 93 -22 143.5t-116 50.5q-67 0 -106 -34.5t-39 -99.5q0 -51 29 -85.5t108 -55.5l53 -14q87 -23 131.5 -73.5t44.5 -124.5
q0 -51 -23.5 -92.5t-70 -66.5t-117.5 -25l-21 -50h4q50 0 80.5 -21.5t30.5 -59.5z" />
    <glyph glyph-name="scedilla" unicode="&#x15f;" horiz-adv-x="470" 
d="M332 -141q0 -38 -29 -60t-76 -22q-37 0 -67 17.5t-38 60.5l44 13q4 -36 19 -51t40 -15q29 0 41.5 16t12.5 41q0 24 -13 39.5t-48 15.5q-15 0 -25 -2l-9 25l23 55q-58 7 -98 38t-54 81l49 16q14 -61 50.5 -84.5t84.5 -23.5q27 0 54 9t45 30t18 55t-25 58t-87 40l-57 15
q-57 15 -88.5 48.5t-31.5 86.5q0 34 16.5 65t52 51t90.5 20q64 0 102 -21.5t53.5 -56t9.5 -75.5l-57 -10q11 65 -17 99t-92 34q-51 0 -81 -23.5t-30 -69.5q0 -31 20 -53.5t73 -36.5l58 -15q62 -16 100 -50t38 -93q0 -61 -44 -98.5t-121 -37.5l-21 -50h4q50 0 80.5 -21.5
t30.5 -59.5z" />
    <glyph glyph-name="Scaron" unicode="&#x160;" horiz-adv-x="540" 
d="M267 20q71 0 114 36t43 103q0 56 -33.5 93t-116.5 59l-53 14q-82 22 -122.5 70.5t-40.5 116.5q0 46 21.5 86.5t66.5 66t116 25.5q79 0 127 -29.5t66.5 -76.5t8.5 -101l-63 -16q11 93 -22 143.5t-116 50.5q-67 0 -106 -34.5t-39 -99.5q0 -51 29 -85.5t108 -55.5l53 -14
q87 -23 131.5 -73.5t44.5 -124.5q0 -51 -23.5 -92.5t-71.5 -66.5t-122 -25q-50 0 -96 15.5t-79.5 55.5t-45.5 112l55 18q6 -67 30.5 -104.5t60.5 -52t75 -14.5zM391 919q-24 -26 -41 -46t-30.5 -42t-29.5 -54h-52q-16 32 -29.5 54t-30 42t-41.5 46l19 19q32 -28 59.5 -54
t51.5 -52q23 26 48.5 52t56.5 54z" />
    <glyph glyph-name="scaron" unicode="&#x161;" horiz-adv-x="470" 
d="M244 211l-57 15q-57 15 -88.5 48.5t-31.5 86.5q0 34 16.5 65t52 51t90.5 20q64 0 102 -21.5t53.5 -56t9.5 -75.5l-57 -10q11 65 -17 99t-92 34q-51 0 -81 -23.5t-30 -69.5q0 -31 20 -53.5t73 -36.5l58 -15q62 -16 100 -50t38 -93q0 -61 -44 -98.5t-122 -37.5
q-70 0 -118 32t-64 89l49 16q14 -61 50.5 -84.5t84.5 -23.5q27 0 54 9t45 30t18 55t-25 58t-87 40zM364 726q-24 -26 -41 -46t-30.5 -42t-29.5 -54h-52q-16 32 -29.5 54t-30 42t-41.5 46l19 19q32 -28 59.5 -54t51.5 -52q23 26 48.5 52t56.5 54z" />
    <glyph glyph-name="uni0162" unicode="&#x162;" horiz-adv-x="549" 
d="M14 680h521v-157h-25l-27 101q-4 17 -11.5 21.5t-42.5 4.5h-122v-571q0 -35 3 -41t19 -8l55 -5v-25h-219v25l55 5q16 2 19 8t3 41v571h-122q-35 0 -42 -4.5t-12 -21.5l-27 -101h-25v157zM231 -238l-20 14q17 36 24 69t7 78h66q-13 -52 -29.5 -87.5t-47.5 -73.5z" />
    <glyph glyph-name="uni0163" unicode="&#x163;" horiz-adv-x="382" 
d="M356 102q-16 -57 -44.5 -84.5t-77.5 -27.5q-45 0 -72.5 20.5t-40 52.5t-12.5 66v279q0 35 -2.5 41.5t-19.5 7.5l-55 5v25h77v142l60 12v-154h165v-30h-165v-328q0 -62 18 -85.5t50 -23.5t48 23t24 71zM183 -238l-20 14q17 36 24 69t7 78h66q-13 -52 -29.5 -87.5
t-47.5 -73.5z" />
    <glyph glyph-name="Tcaron" unicode="&#x164;" horiz-adv-x="549" 
d="M14 680h521v-157h-25l-27 101q-4 17 -11.5 21.5t-42.5 4.5h-122v-571q0 -35 3 -41t19 -8l55 -5v-25h-219v25l55 5q16 2 19 8t3 41v571h-122q-35 0 -42 -4.5t-12 -21.5l-27 -101h-25v157zM402 919q-24 -26 -41 -46t-30.5 -42t-29.5 -54h-52q-16 32 -29.5 54t-30 42
t-41.5 46l19 19q32 -28 59.5 -54t51.5 -52q23 26 48.5 52t56.5 54z" />
    <glyph glyph-name="tcaron" unicode="&#x165;" horiz-adv-x="382" 
d="M356 102q-16 -57 -44.5 -84.5t-77.5 -27.5q-45 0 -72.5 20.5t-40 52.5t-12.5 66v279q0 35 -2.5 41.5t-19.5 7.5l-55 5v25h77v142l60 12v-154h165v-30h-165v-328q0 -62 18 -85.5t50 -23.5t48 23t24 71zM265 556h-19v214h64q-9 -52 -20 -105t-25 -109z" />
    <glyph glyph-name="Tbar" unicode="&#x166;" horiz-adv-x="549" 
d="M384 25v-25h-219v25l55 5q16 2 19 8t3 41v247h-146v29h146v295h-122q-35 0 -42 -4.5t-12 -21.5l-27 -101h-25v157h521v-157h-25l-27 101q-4 17 -11.5 21.5t-42.5 4.5h-122v-295h146v-29h-146v-247q0 -35 3 -41t19 -8z" />
    <glyph glyph-name="tbar" unicode="&#x167;" horiz-adv-x="385" 
d="M359 102q-16 -57 -44.5 -84.5t-77.5 -27.5q-45 0 -72.5 20.5t-40 52.5t-12.5 66v141h-77v30h77v108q0 35 -2.5 41.5t-19.5 7.5l-55 5v25h77v142l60 12v-154h165v-30h-165v-157h138v-30h-138v-141q0 -62 18 -85.5t50 -23.5t48 23t24 71z" />
    <glyph glyph-name="Utilde" unicode="&#x168;" horiz-adv-x="673" 
d="M446 655v25h189v-25l-55 -5q-16 -1 -19 -7.5t-3 -41.5v-370q0 -109 -53.5 -175t-163.5 -66q-115 0 -170.5 71.5t-55.5 189.5v350q0 35 -3 41.5t-19 7.5l-55 5v25h219v-25l-55 -5q-16 -1 -19 -7.5t-3 -41.5v-370q0 -104 39.5 -157t127.5 -53q92 0 134 57t42 153v370
q0 35 -3 41.5t-19 7.5zM421 786q-25 0 -44.5 14t-36 32.5t-32 32.5t-33.5 14t-31 -18.5t-14 -59.5h-29q2 65 24 96t56 31q26 0 45 -14t35 -32.5t31 -32.5t33 -14t31 19t14 59h29q-1 -65 -23.5 -96t-54.5 -31z" />
    <glyph glyph-name="utilde" unicode="&#x169;" horiz-adv-x="595" 
d="M558 25v-25h-133v78q-40 -46 -84.5 -67t-88.5 -21q-71 0 -108.5 44.5t-37.5 125.5v248q0 35 -3 41.5t-19 7.5l-55 5v25h137v-326q0 -77 24.5 -107t70.5 -30q37 0 77.5 19.5t82.5 71.5v293q0 35 -3 41.5t-19 7.5l-75 5v25h157v-408q0 -35 3 -41t19 -8zM365 593
q-25 0 -44.5 14t-36 32.5t-32 32.5t-33.5 14t-31 -18.5t-14 -59.5h-29q2 65 24 96t56 31q26 0 45 -14t35 -32.5t31 -32.5t33 -14t31 19t14 59h29q-1 -65 -23.5 -96t-54.5 -31z" />
    <glyph glyph-name="Umacron" unicode="&#x16a;" horiz-adv-x="673" 
d="M446 655v25h189v-25l-55 -5q-16 -1 -19 -7.5t-3 -41.5v-370q0 -109 -53.5 -175t-163.5 -66q-115 0 -170.5 71.5t-55.5 189.5v350q0 35 -3 41.5t-19 7.5l-55 5v25h219v-25l-55 -5q-16 -1 -19 -7.5t-3 -41.5v-370q0 -104 39.5 -157t127.5 -53q92 0 134 57t42 153v370
q0 35 -3 41.5t-19 7.5zM494 855v-43h-287v43h287z" />
    <glyph glyph-name="umacron" unicode="&#x16b;" horiz-adv-x="595" 
d="M558 25v-25h-133v78q-40 -46 -84.5 -67t-88.5 -21q-71 0 -108.5 44.5t-37.5 125.5v248q0 35 -3 41.5t-19 7.5l-55 5v25h137v-326q0 -77 24.5 -107t70.5 -30q37 0 77.5 19.5t82.5 71.5v293q0 35 -3 41.5t-19 7.5l-75 5v25h157v-408q0 -35 3 -41t19 -8zM438 662v-43h-287
v43h287z" />
    <glyph glyph-name="Ubreve" unicode="&#x16c;" horiz-adv-x="673" 
d="M446 655v25h189v-25l-55 -5q-16 -1 -19 -7.5t-3 -41.5v-370q0 -109 -53.5 -175t-163.5 -66q-115 0 -170.5 71.5t-55.5 189.5v350q0 35 -3 41.5t-19 7.5l-55 5v25h219v-25l-55 -5q-16 -1 -19 -7.5t-3 -41.5v-370q0 -104 39.5 -157t127.5 -53q92 0 134 57t42 153v370
q0 35 -3 41.5t-19 7.5zM350 825q49 0 74.5 26t38.5 82l26 -7q-14 -81 -48 -117.5t-91 -36.5t-91 36.5t-48 117.5l26 7q14 -56 39 -82t74 -26z" />
    <glyph glyph-name="ubreve" unicode="&#x16d;" horiz-adv-x="595" 
d="M558 25v-25h-133v78q-40 -46 -84.5 -67t-88.5 -21q-71 0 -108.5 44.5t-37.5 125.5v248q0 35 -3 41.5t-19 7.5l-55 5v25h137v-326q0 -77 24.5 -107t70.5 -30q37 0 77.5 19.5t82.5 71.5v293q0 35 -3 41.5t-19 7.5l-75 5v25h157v-408q0 -35 3 -41t19 -8zM294 632
q49 0 74.5 26t38.5 82l26 -7q-14 -81 -48 -117.5t-91 -36.5t-91 36.5t-48 117.5l26 7q14 -56 39 -82t74 -26z" />
    <glyph glyph-name="Uring" unicode="&#x16e;" horiz-adv-x="673" 
d="M446 655v25h189v-25l-55 -5q-16 -1 -19 -7.5t-3 -41.5v-370q0 -109 -53.5 -175t-163.5 -66q-115 0 -170.5 71.5t-55.5 189.5v350q0 35 -3 41.5t-19 7.5l-55 5v25h219v-25l-55 -5q-16 -1 -19 -7.5t-3 -41.5v-370q0 -104 39.5 -157t127.5 -53q92 0 134 57t42 153v370
q0 35 -3 41.5t-19 7.5zM468 870v-11q0 -26 -14 -50t-40.5 -39.5t-63.5 -15.5t-63.5 15.5t-40.5 39.5t-14 50v11q0 26 14 49.5t40.5 39t63.5 15.5t63.5 -15.5t40.5 -39t14 -49.5zM417 877q0 34 -17.5 53t-49.5 19q-31 0 -48.5 -19t-17.5 -53v-25q0 -34 17.5 -53.5t48.5 -19.5
q32 0 49.5 19.5t17.5 53.5v25z" />
    <glyph glyph-name="uring" unicode="&#x16f;" horiz-adv-x="595" 
d="M558 25v-25h-133v78q-40 -46 -84.5 -67t-88.5 -21q-71 0 -108.5 44.5t-37.5 125.5v248q0 35 -3 41.5t-19 7.5l-55 5v25h137v-326q0 -77 24.5 -107t70.5 -30q37 0 77.5 19.5t82.5 71.5v293q0 35 -3 41.5t-19 7.5l-75 5v25h157v-408q0 -35 3 -41t19 -8zM412 677v-11
q0 -26 -14 -50t-40.5 -39.5t-63.5 -15.5t-63.5 15.5t-40.5 39.5t-14 50v11q0 26 14 49.5t40.5 39t63.5 15.5t63.5 -15.5t40.5 -39t14 -49.5zM361 684q0 34 -17.5 53t-49.5 19q-31 0 -48.5 -19t-17.5 -53v-25q0 -34 17.5 -53.5t48.5 -19.5q32 0 49.5 19.5t17.5 53.5v25z" />
    <glyph glyph-name="Uhungarumlaut" unicode="&#x170;" horiz-adv-x="673" 
d="M446 655v25h189v-25l-55 -5q-16 -1 -19 -7.5t-3 -41.5v-370q0 -109 -53.5 -175t-163.5 -66q-115 0 -170.5 71.5t-55.5 189.5v350q0 35 -3 41.5t-19 7.5l-55 5v25h219v-25l-55 -5q-16 -1 -19 -7.5t-3 -41.5v-370q0 -104 39.5 -157t127.5 -53q92 0 134 57t42 153v370
q0 35 -3 41.5t-19 7.5zM283 772l-21 15q17 32 30 66t25 80h71q-22 -42 -49.5 -84t-55.5 -77zM423 772l-21 15q17 32 30 66t25 80h71q-22 -42 -49.5 -84t-55.5 -77z" />
    <glyph glyph-name="uhungarumlaut" unicode="&#x171;" horiz-adv-x="595" 
d="M558 25v-25h-133v78q-40 -46 -84.5 -67t-88.5 -21q-71 0 -108.5 44.5t-37.5 125.5v248q0 35 -3 41.5t-19 7.5l-55 5v25h137v-326q0 -77 24.5 -107t70.5 -30q37 0 77.5 19.5t82.5 71.5v293q0 35 -3 41.5t-19 7.5l-75 5v25h157v-408q0 -35 3 -41t19 -8zM227 579l-21 15
q17 32 30 66t25 80h71q-22 -42 -49.5 -84t-55.5 -77zM367 579l-21 15q17 32 30 66t25 80h71q-22 -42 -49.5 -84t-55.5 -77z" />
    <glyph glyph-name="Uogonek" unicode="&#x172;" horiz-adv-x="673" 
d="M446 655v25h189v-25l-55 -5q-16 -1 -19 -7.5t-3 -41.5v-370q0 -67 -18 -114t-53 -79q-29 -27 -60.5 -49t-53.5 -48.5t-22 -67.5q0 -32 14 -50.5t44 -18.5q26 0 45.5 19t29.5 65l44 -13q-15 -54 -50 -76t-73 -22q-46 0 -76 25t-30 71q0 42 29 69.5t65 51.5q-12 -2 -25 -3
t-27 -1q-115 0 -170.5 71.5t-55.5 189.5v350q0 35 -3 41.5t-19 7.5l-55 5v25h219v-25l-55 -5q-16 -1 -19 -7.5t-3 -41.5v-370q0 -104 39.5 -157t127.5 -53q92 0 134 57t42 153v370q0 35 -3 41.5t-19 7.5z" />
    <glyph glyph-name="uogonek" unicode="&#x173;" horiz-adv-x="595" 
d="M324 462v25h157v-408q0 -35 3 -41t19 -8l55 -5v-25h-63q-55 0 -84.5 -35.5t-29.5 -91.5q0 -32 14 -50.5t44 -18.5q26 0 45.5 19t29.5 65l44 -13q-15 -54 -50 -76t-73 -22q-46 0 -76 25t-30 71q0 52 28 88t68 52v65q-40 -46 -84.5 -67t-88.5 -21q-71 0 -108.5 44.5
t-37.5 125.5v248q0 35 -3 41.5t-19 7.5l-55 5v25h137v-326q0 -77 24.5 -107t70.5 -30q37 0 77.5 19.5t82.5 71.5v293q0 35 -3 41.5t-19 7.5z" />
    <glyph glyph-name="Wcircumflex" unicode="&#x174;" horiz-adv-x="911" 
d="M632 0l-174 591l-177 -591h-51l-151 611q-7 27 -11 32.5t-19 6.5l-49 5v25h205v-25l-49 -5q-16 -1 -18 -6.5t5 -32.5l129 -525l177 594h48l174 -590l128 521q7 27 5 32.5t-18 6.5l-49 5v25h174v-25l-49 -5q-13 -1 -17.5 -6t-11.5 -33l-151 -611h-50zM591 791l-19 -19
q-32 28 -59.5 54t-51.5 52q-22 -26 -48 -51.5t-57 -54.5l-19 19q25 26 41.5 46t30 42t29.5 54h52q16 -32 29.5 -54t30.5 -42t41 -46z" />
    <glyph glyph-name="wcircumflex" unicode="&#x175;" horiz-adv-x="759" 
d="M679 418l-114 -418h-48l-138 422l-137 -422h-48l-113 418q-7 27 -11.5 32.5t-20.5 6.5l-49 5v25h201v-25l-49 -5q-16 -1 -17.5 -6.5t5.5 -32.5l92 -348l135 417h49l136 -418l92 349q8 27 6 32.5t-18 6.5l-49 5v25h176v-25l-49 -5q-15 -1 -19 -6.5t-12 -32.5zM516 598
l-19 -19q-32 28 -59.5 54t-51.5 52q-22 -26 -48 -51.5t-57 -54.5l-19 19q25 26 41.5 46t30 42t29.5 54h52q16 -32 29.5 -54t30.5 -42t41 -46z" />
    <glyph glyph-name="Ycircumflex" unicode="&#x176;" horiz-adv-x="570" 
d="M395 25v-25h-219v25l55 5q16 2 19 8t3 41v211l-163 321q-13 27 -19 32.5t-22 6.5l-49 5v25h214v-25l-49 -5q-15 -1 -15.5 -6.5t12.5 -32.5l141 -283l141 283q14 27 13 32.5t-16 6.5l-49 5v25h178v-25l-49 -5q-16 -1 -21.5 -6.5t-19.5 -32.5l-162 -321v-211q0 -35 3 -41
t19 -8zM427 791l-19 -19q-32 28 -59.5 54t-51.5 52q-22 -26 -48 -51.5t-57 -54.5l-19 19q25 26 41.5 46t30 42t29.5 54h52q16 -32 29.5 -54t30.5 -42t41 -46z" />
    <glyph glyph-name="ycircumflex" unicode="&#x177;" horiz-adv-x="514" 
d="M265 -50q-32 -91 -73 -132t-115 -41v60q40 0 68.5 9.5t49.5 35.5t38 75l15 43h-14l-150 418q-9 26 -14 31t-21 7l-49 6v25h201v-25l-49 -6q-16 -2 -17 -7t8 -31l127 -356l126 356q9 26 7.5 31t-17.5 7l-49 6v25h177v-25l-49 -6q-15 -1 -19.5 -6.5t-14.5 -31.5zM396 598
l-19 -19q-32 28 -59.5 54t-51.5 52q-22 -26 -48 -51.5t-57 -54.5l-19 19q25 26 41.5 46t30 42t29.5 54h52q16 -32 29.5 -54t30.5 -42t41 -46z" />
    <glyph glyph-name="Ydieresis" unicode="&#x178;" horiz-adv-x="570" 
d="M395 25v-25h-219v25l55 5q16 2 19 8t3 41v211l-163 321q-13 27 -19 32.5t-22 6.5l-49 5v25h214v-25l-49 -5q-15 -1 -15.5 -6.5t12.5 -32.5l141 -283l141 283q14 27 13 32.5t-16 6.5l-49 5v25h178v-25l-49 -5q-16 -1 -21.5 -6.5t-19.5 -32.5l-162 -321v-211q0 -35 3 -41
t19 -8zM200 812q-19 0 -31 12.5t-12 31.5t12 31t31 12q20 0 32 -12t12 -31t-12 -31.5t-32 -12.5zM399 812q-19 0 -31 12.5t-12 31.5t12 31t31 12q20 0 32 -12t12 -31t-12 -31.5t-32 -12.5z" />
    <glyph glyph-name="Zacute" unicode="&#x179;" horiz-adv-x="522" 
d="M456 157h25v-157h-440v20l354 630h-238q-35 0 -42 -4.5t-12 -21.5l-27 -101h-25v157h420v-20l-354 -630h258q35 0 42.5 4.5t11.5 21.5zM260 772l-19 19q27 34 42.5 65t28.5 77h76q-54 -88 -128 -161z" />
    <glyph glyph-name="zacute" unicode="&#x17a;" horiz-adv-x="459" 
d="M383 137h25v-137h-357v25l278 432h-162q-23 0 -33 -1.5t-13.5 -7t-7.5 -17.5l-27 -81h-25v137h337v-25l-278 -432h182q24 0 33.5 1.5t13 7.5t7.5 17zM228 579l-19 19q27 34 42.5 65t28.5 77h76q-54 -88 -128 -161z" />
    <glyph glyph-name="Zdotaccent" unicode="&#x17b;" horiz-adv-x="522" 
d="M456 157h25v-157h-440v20l354 630h-238q-35 0 -42 -4.5t-12 -21.5l-27 -101h-25v157h420v-20l-354 -630h258q35 0 42.5 4.5t11.5 21.5zM261 810q-19 0 -32 13t-13 33t13 32.5t32 12.5q20 0 33 -12.5t13 -32.5t-13 -33t-33 -13z" />
    <glyph glyph-name="zdotaccent" unicode="&#x17c;" horiz-adv-x="459" 
d="M383 137h25v-137h-357v25l278 432h-162q-23 0 -33 -1.5t-13.5 -7t-7.5 -17.5l-27 -81h-25v137h337v-25l-278 -432h182q24 0 33.5 1.5t13 7.5t7.5 17zM229 617q-19 0 -32 13t-13 33t13 32.5t32 12.5q20 0 33 -12.5t13 -32.5t-13 -33t-33 -13z" />
    <glyph glyph-name="Zcaron" unicode="&#x17d;" horiz-adv-x="522" 
d="M456 157h25v-157h-440v20l354 630h-238q-35 0 -42 -4.5t-12 -21.5l-27 -101h-25v157h420v-20l-354 -630h258q35 0 42.5 4.5t11.5 21.5zM388 919q-24 -26 -41 -46t-30.5 -42t-29.5 -54h-52q-16 32 -29.5 54t-30 42t-41.5 46l19 19q32 -28 59.5 -54t51.5 -52q23 26 48.5 52
t56.5 54z" />
    <glyph glyph-name="zcaron" unicode="&#x17e;" horiz-adv-x="459" 
d="M383 137h25v-137h-357v25l278 432h-162q-23 0 -33 -1.5t-13.5 -7t-7.5 -17.5l-27 -81h-25v137h337v-25l-278 -432h182q24 0 33.5 1.5t13 7.5t7.5 17zM356 726q-24 -26 -41 -46t-30.5 -42t-29.5 -54h-52q-16 32 -29.5 54t-30 42t-41.5 46l19 19q32 -28 59.5 -54t51.5 -52
q23 26 48.5 52t56.5 54z" />
    <glyph glyph-name="florin" unicode="&#x192;" horiz-adv-x="411" 
d="M185 -64q-4 -42 -14.5 -78t-36.5 -58.5t-75 -22.5q-56 0 -81 29.5t-18 75.5l49 9q-6 -41 6.5 -63.5t43.5 -22.5q20 0 33 10t21 36t12 75l38 416h-127v30h129l20 219q4 42 15 78.5t36.5 58.5t74.5 22q56 0 81 -29.5t18 -75.5l-49 -9q12 86 -50 86q-30 0 -45 -23.5
t-21 -97.5l-21 -229h126v-30h-128z" />
    <glyph glyph-name="uni0218" unicode="&#x218;" horiz-adv-x="540" 
d="M267 20q71 0 114 36t43 103q0 56 -33.5 93t-116.5 59l-53 14q-82 22 -122.5 70.5t-40.5 116.5q0 46 21.5 86.5t66.5 66t116 25.5q79 0 127 -29.5t66.5 -76.5t8.5 -101l-63 -16q11 93 -22 143.5t-116 50.5q-67 0 -106 -34.5t-39 -99.5q0 -51 29 -85.5t108 -55.5l53 -14
q87 -23 131.5 -73.5t44.5 -124.5q0 -51 -23.5 -92.5t-71.5 -66.5t-122 -25q-50 0 -96 15.5t-79.5 55.5t-45.5 112l55 18q6 -67 30.5 -104.5t60.5 -52t75 -14.5zM225 -238l-20 14q17 36 24 69t7 78h66q-13 -52 -29.5 -87.5t-47.5 -73.5z" />
    <glyph glyph-name="uni0219" unicode="&#x219;" horiz-adv-x="470" 
d="M244 211l-57 15q-57 15 -88.5 48.5t-31.5 86.5q0 34 16.5 65t52 51t90.5 20q64 0 102 -21.5t53.5 -56t9.5 -75.5l-57 -10q11 65 -17 99t-92 34q-51 0 -81 -23.5t-30 -69.5q0 -31 20 -53.5t73 -36.5l58 -15q62 -16 100 -50t38 -93q0 -61 -44 -98.5t-122 -37.5
q-70 0 -118 32t-64 89l49 16q14 -61 50.5 -84.5t84.5 -23.5q27 0 54 9t45 30t18 55t-25 58t-87 40zM188 -238l-20 14q17 36 24 69t7 78h66q-13 -52 -29.5 -87.5t-47.5 -73.5z" />
    <glyph glyph-name="uni021A" unicode="&#x21a;" horiz-adv-x="549" 
d="M14 680h521v-157h-25l-27 101q-4 17 -11.5 21.5t-42.5 4.5h-122v-571q0 -35 3 -41t19 -8l55 -5v-25h-219v25l55 5q16 2 19 8t3 41v571h-122q-35 0 -42 -4.5t-12 -21.5l-27 -101h-25v157zM231 -238l-20 14q17 36 24 69t7 78h66q-13 -52 -29.5 -87.5t-47.5 -73.5z" />
    <glyph glyph-name="uni021B" unicode="&#x21b;" horiz-adv-x="382" 
d="M356 102q-16 -57 -44.5 -84.5t-77.5 -27.5q-45 0 -72.5 20.5t-40 52.5t-12.5 66v279q0 35 -2.5 41.5t-19.5 7.5l-55 5v25h77v142l60 12v-154h165v-30h-165v-328q0 -62 18 -85.5t50 -23.5t48 23t24 71zM183 -238l-20 14q17 36 24 69t7 78h66q-13 -52 -29.5 -87.5
t-47.5 -73.5z" />
    <glyph glyph-name="uni0237" unicode="&#x237;" horiz-adv-x="280" 
d="M36 462v25h137v-551q0 -42 -13 -78t-42 -58.5t-77 -22.5q-46 0 -78.5 25.5t-42.5 86.5l49 12q4 -53 21.5 -73.5t47.5 -20.5q37 0 56 26t19 103v472q0 35 -3 41.5t-19 7.5z" />
    <glyph glyph-name="circumflex" unicode="&#x2c6;" horiz-adv-x="500" 
d="M377 598l-19 -19q-32 28 -59.5 54t-51.5 52q-22 -26 -48 -51.5t-57 -54.5l-19 19q25 26 41.5 46t30 42t29.5 54h52q16 -32 29.5 -54t30.5 -42t41 -46z" />
    <glyph glyph-name="caron" unicode="&#x2c7;" horiz-adv-x="500" 
d="M377 726q-24 -26 -41 -46t-30.5 -42t-29.5 -54h-52q-16 32 -29.5 54t-30 42t-41.5 46l19 19q32 -28 59.5 -54t51.5 -52q23 26 48.5 52t56.5 54z" />
    <glyph glyph-name="breve" unicode="&#x2d8;" horiz-adv-x="500" 
d="M250 632q49 0 74.5 26t38.5 82l26 -7q-14 -81 -48 -117.5t-91 -36.5t-91 36.5t-48 117.5l26 7q14 -56 39 -82t74 -26z" />
    <glyph glyph-name="dotaccent" unicode="&#x2d9;" horiz-adv-x="500" 
d="M250 617q-19 0 -32 13t-13 33t13 32.5t32 12.5q20 0 33 -12.5t13 -32.5t-13 -33t-33 -13z" />
    <glyph glyph-name="ring" unicode="&#x2da;" horiz-adv-x="500" 
d="M368 677v-11q0 -26 -14 -50t-40.5 -39.5t-63.5 -15.5t-63.5 15.5t-40.5 39.5t-14 50v11q0 26 14 49.5t40.5 39t63.5 15.5t63.5 -15.5t40.5 -39t14 -49.5zM317 684q0 34 -17.5 53t-49.5 19q-31 0 -48.5 -19t-17.5 -53v-25q0 -34 17.5 -53.5t48.5 -19.5q32 0 49.5 19.5
t17.5 53.5v25z" />
    <glyph glyph-name="ogonek" unicode="&#x2db;" horiz-adv-x="500" 
d="M242 -223q-46 0 -76 25t-30 71q0 47 22.5 81t59 52.5t76.5 18.5l8 -25q-55 0 -84.5 -35.5t-29.5 -91.5q0 -32 14 -50.5t44 -18.5q26 0 45.5 19t29.5 65l44 -13q-15 -54 -50 -76t-73 -22z" />
    <glyph glyph-name="tilde" unicode="&#x2dc;" horiz-adv-x="500" 
d="M321 593q-25 0 -44.5 14t-36 32.5t-32 32.5t-33.5 14t-31 -18.5t-14 -59.5h-29q2 65 24 96t56 31q26 0 45 -14t35 -32.5t31 -32.5t33 -14t31 19t14 59h29q-1 -65 -23.5 -96t-54.5 -31z" />
    <glyph glyph-name="hungarumlaut" unicode="&#x2dd;" horiz-adv-x="500" 
d="M183 579l-21 15q17 32 30 66t25 80h71q-22 -42 -49.5 -84t-55.5 -77zM323 579l-21 15q17 32 30 66t25 80h71q-22 -42 -49.5 -84t-55.5 -77z" />
    <glyph glyph-name="pi" unicode="&#x3c0;" 
d="M46 462v25h495v-30h-93v-350q0 -51 13.5 -64t29.5 -13q8 0 19 4t22 14l18 -24q-14 -13 -33 -21t-45 -8q-40 0 -62 25t-22 71v366h-205v-457h-60v408q0 35 -3 41.5t-19 7.5z" />
    <glyph glyph-name="Wgrave" unicode="&#x1e80;" horiz-adv-x="911" 
d="M632 0l-174 591l-177 -591h-51l-151 611q-7 27 -11 32.5t-19 6.5l-49 5v25h205v-25l-49 -5q-16 -1 -18 -6.5t5 -32.5l129 -525l177 594h48l174 -590l128 521q7 27 5 32.5t-18 6.5l-49 5v25h174v-25l-49 -5q-13 -1 -17.5 -6t-11.5 -33l-151 -611h-50zM465 772
q-74 73 -128 161h76q13 -46 28.5 -77t42.5 -65z" />
    <glyph glyph-name="wgrave" unicode="&#x1e81;" horiz-adv-x="759" 
d="M679 418l-114 -418h-48l-138 422l-137 -422h-48l-113 418q-7 27 -11.5 32.5t-20.5 6.5l-49 5v25h201v-25l-49 -5q-16 -1 -17.5 -6.5t5.5 -32.5l92 -348l135 417h49l136 -418l92 349q8 27 6 32.5t-18 6.5l-49 5v25h176v-25l-49 -5q-15 -1 -19 -6.5t-12 -32.5zM390 579
q-74 73 -128 161h76q13 -46 28.5 -77t42.5 -65z" />
    <glyph glyph-name="Wacute" unicode="&#x1e82;" horiz-adv-x="911" 
d="M632 0l-174 591l-177 -591h-51l-151 611q-7 27 -11 32.5t-19 6.5l-49 5v25h205v-25l-49 -5q-16 -1 -18 -6.5t5 -32.5l129 -525l177 594h48l174 -590l128 521q7 27 5 32.5t-18 6.5l-49 5v25h174v-25l-49 -5q-13 -1 -17.5 -6t-11.5 -33l-151 -611h-50zM463 772l-19 19
q27 34 42.5 65t28.5 77h76q-54 -88 -128 -161z" />
    <glyph glyph-name="wacute" unicode="&#x1e83;" horiz-adv-x="759" 
d="M679 418l-114 -418h-48l-138 422l-137 -422h-48l-113 418q-7 27 -11.5 32.5t-20.5 6.5l-49 5v25h201v-25l-49 -5q-16 -1 -17.5 -6.5t5.5 -32.5l92 -348l135 417h49l136 -418l92 349q8 27 6 32.5t-18 6.5l-49 5v25h176v-25l-49 -5q-15 -1 -19 -6.5t-12 -32.5zM388 579
l-19 19q27 34 42.5 65t28.5 77h76q-54 -88 -128 -161z" />
    <glyph glyph-name="Wdieresis" unicode="&#x1e84;" horiz-adv-x="911" 
d="M632 0l-174 591l-177 -591h-51l-151 611q-7 27 -11 32.5t-19 6.5l-49 5v25h205v-25l-49 -5q-16 -1 -18 -6.5t5 -32.5l129 -525l177 594h48l174 -590l128 521q7 27 5 32.5t-18 6.5l-49 5v25h174v-25l-49 -5q-13 -1 -17.5 -6t-11.5 -33l-151 -611h-50zM364 812
q-19 0 -31 12.5t-12 31.5t12 31t31 12q20 0 32 -12t12 -31t-12 -31.5t-32 -12.5zM563 812q-19 0 -31 12.5t-12 31.5t12 31t31 12q20 0 32 -12t12 -31t-12 -31.5t-32 -12.5z" />
    <glyph glyph-name="wdieresis" unicode="&#x1e85;" horiz-adv-x="759" 
d="M679 418l-114 -418h-48l-138 422l-137 -422h-48l-113 418q-7 27 -11.5 32.5t-20.5 6.5l-49 5v25h201v-25l-49 -5q-16 -1 -17.5 -6.5t5.5 -32.5l92 -348l135 417h49l136 -418l92 349q8 27 6 32.5t-18 6.5l-49 5v25h176v-25l-49 -5q-15 -1 -19 -6.5t-12 -32.5zM289 619
q-19 0 -31 12.5t-12 31.5t12 31t31 12q20 0 32 -12t12 -31t-12 -31.5t-32 -12.5zM488 619q-19 0 -31 12.5t-12 31.5t12 31t31 12q20 0 32 -12t12 -31t-12 -31.5t-32 -12.5z" />
    <glyph glyph-name="uni1E9E" unicode="&#x1e9e;" horiz-adv-x="650" 
d="M183 491v-491h-142v25l55 5q16 2 19 8t3 41v402q0 93 50 151t157 58q68 0 124 -25.5t92 -62.5v-17l-130 -201q87 -14 138.5 -66.5t51.5 -132.5v-16q0 -81 -48 -130t-127 -49q-61 0 -106 30t-59 91l49 16q13 -64 45.5 -86t70.5 -22q53 0 80 37t27 103v36q0 76 -46 120.5
t-138 44.5h-8v24l136 210q-26 31 -64 48.5t-88 17.5q-67 0 -104.5 -40t-37.5 -129z" />
    <glyph glyph-name="Ygrave" unicode="&#x1ef2;" horiz-adv-x="570" 
d="M395 25v-25h-219v25l55 5q16 2 19 8t3 41v211l-163 321q-13 27 -19 32.5t-22 6.5l-49 5v25h214v-25l-49 -5q-15 -1 -15.5 -6.5t12.5 -32.5l141 -283l141 283q14 27 13 32.5t-16 6.5l-49 5v25h178v-25l-49 -5q-16 -1 -21.5 -6.5t-19.5 -32.5l-162 -321v-211q0 -35 3 -41
t19 -8zM301 772q-74 73 -128 161h76q13 -46 28.5 -77t42.5 -65z" />
    <glyph glyph-name="ygrave" unicode="&#x1ef3;" horiz-adv-x="514" 
d="M265 -50q-32 -91 -73 -132t-115 -41v60q40 0 68.5 9.5t49.5 35.5t38 75l15 43h-14l-150 418q-9 26 -14 31t-21 7l-49 6v25h201v-25l-49 -6q-16 -2 -17 -7t8 -31l127 -356l126 356q9 26 7.5 31t-17.5 7l-49 6v25h177v-25l-49 -6q-15 -1 -19.5 -6.5t-14.5 -31.5zM270 579
q-74 73 -128 161h76q13 -46 28.5 -77t42.5 -65z" />
    <glyph glyph-name="endash" unicode="&#x2013;" horiz-adv-x="618" 
d="M77 318v34h464v-34h-464z" />
    <glyph glyph-name="emdash" unicode="&#x2014;" horiz-adv-x="818" 
d="M77 318v34h664v-34h-664z" />
    <glyph glyph-name="quoteleft" unicode="&#x2018;" horiz-adv-x="261" 
d="M171 492q0 -19 -12 -31t-31 -12t-31.5 13.5t-12.5 38.5q0 40 23.5 91.5t59.5 97.5l21 -18q-29 -41 -44.5 -73t-17.5 -63h2q19 0 31 -12t12 -32z" />
    <glyph glyph-name="quoteright" unicode="&#x2019;" horiz-adv-x="261" 
d="M177 638q0 -40 -23.5 -91t-59.5 -98l-21 18q29 41 44.5 73t17.5 63h-2q-19 0 -31 12.5t-12 31.5t12 31t31 12q20 0 32 -13t12 -39z" />
    <glyph glyph-name="quotesinglbase" unicode="&#x201a;" horiz-adv-x="261" 
d="M174 25q0 -40 -23.5 -91t-59.5 -98l-21 18q29 41 44.5 73t17.5 63h-2q-19 0 -31 12.5t-12 31.5t12 31t31 12q20 0 32 -13t12 -39z" />
    <glyph glyph-name="quotedblleft" unicode="&#x201c;" horiz-adv-x="411" 
d="M321 492q0 -19 -12 -31t-31 -12t-31.5 13.5t-12.5 38.5q0 40 23.5 91.5t59.5 97.5l21 -18q-29 -41 -44.5 -73t-17.5 -63h2q19 0 31 -12t12 -32zM171 492q0 -19 -12 -31t-31 -12t-31.5 13.5t-12.5 38.5q0 40 23.5 91.5t59.5 97.5l21 -18q-29 -41 -44.5 -73t-17.5 -63h2
q19 0 31 -12t12 -32z" />
    <glyph glyph-name="quotedblright" unicode="&#x201d;" horiz-adv-x="411" 
d="M177 638q0 -40 -23.5 -91t-59.5 -98l-21 18q29 41 44.5 73t17.5 63h-2q-19 0 -31 12.5t-12 31.5t12 31t31 12q20 0 32 -13t12 -39zM327 638q0 -40 -23.5 -91t-59.5 -98l-21 18q29 41 44.5 73t17.5 63h-2q-19 0 -31 12.5t-12 31.5t12 31t31 12q20 0 32 -13t12 -39z" />
    <glyph glyph-name="quotedblbase" unicode="&#x201e;" horiz-adv-x="411" 
d="M174 25q0 -40 -23.5 -91t-59.5 -98l-21 18q29 41 44.5 73t17.5 63h-2q-19 0 -31 12.5t-12 31.5t12 31t31 12q20 0 32 -13t12 -39zM324 25q0 -40 -23.5 -91t-59.5 -98l-21 18q29 41 44.5 73t17.5 63h-2q-19 0 -31 12.5t-12 31.5t12 31t31 12q20 0 32 -13t12 -39z" />
    <glyph glyph-name="dagger" unicode="&#x2020;" horiz-adv-x="472" 
d="M271 680q0 -30 -3 -51.5t-7.5 -40.5t-7.5 -42.5t-3 -57.5q33 0 56 3t41.5 7.5t39 7.5t50.5 3v-68q-30 0 -50.5 3t-39 7.5t-41.5 7.5t-56 3q0 -34 3 -57.5t7.5 -42.5t7.5 -40.5t3 -51.5v-3q0 -46 -3 -83.5t-7.5 -79.5t-7.5 -100.5t-3 -146.5h-28q0 88 -3 146.5t-7.5 100.5
t-7.5 79.5t-3 83.5v3q0 30 3 51.5t7.5 40.5t7.5 42.5t3 57.5q-33 0 -56 -3t-41.5 -7.5t-39 -7.5t-50.5 -3v68q30 0 50.5 -3t39 -7.5t41.5 -7.5t56 -3q0 34 -3 57.5t-7.5 42.5t-7.5 40.5t-3 51.5h70z" />
    <glyph glyph-name="daggerdbl" unicode="&#x2021;" horiz-adv-x="492" 
d="M281 267q0 -30 -3 -51.5t-7.5 -40.5t-7.5 -42.5t-3 -57.5q33 0 56 3t41.5 7.5t39 7.5t50.5 3v-68q-30 0 -50.5 3t-39 7.5t-41.5 7.5t-56 3q0 -34 3 -57.5t7.5 -42.5t7.5 -40.5t3 -51.5h-70q0 30 3 51.5t7.5 40.5t7.5 42.5t3 57.5q-33 0 -56 -3t-41.5 -7.5t-39 -7.5
t-50.5 -3v68q30 0 50.5 -3t39 -7.5t41.5 -7.5t56 -3q0 34 -3 57.5t-7.5 42.5t-7.5 40.5t-3 51.5v3q0 30 3 51.5t7.5 40.5t7.5 42.5t3 57.5q-33 0 -56 -3t-41.5 -7.5t-39 -7.5t-50.5 -3v68q30 0 50.5 -3t39 -7.5t41.5 -7.5t56 -3q0 34 -3 57.5t-7.5 42.5t-7.5 40.5t-3 51.5
h70q0 -30 -3 -51.5t-7.5 -40.5t-7.5 -42.5t-3 -57.5q33 0 56 3t41.5 7.5t39 7.5t50.5 3v-68q-30 0 -50.5 3t-39 7.5t-41.5 7.5t-56 3q0 -34 3 -57.5t7.5 -42.5t7.5 -40.5t3 -51.5v-3z" />
    <glyph glyph-name="bullet" unicode="&#x2022;" horiz-adv-x="263" 
d="M131 267q-28 0 -47 19t-19 48t19 47.5t47 18.5q29 0 48 -18.5t19 -47.5t-19 -48t-48 -19z" />
    <glyph glyph-name="ellipsis" unicode="&#x2026;" horiz-adv-x="661" 
d="M130 -10q-20 0 -33.5 13.5t-13.5 34.5q0 20 13.5 33.5t33.5 13.5q21 0 34.5 -13.5t13.5 -33.5q0 -21 -13.5 -34.5t-34.5 -13.5zM330 -10q-20 0 -33.5 13.5t-13.5 34.5q0 20 13.5 33.5t33.5 13.5q21 0 34.5 -13.5t13.5 -33.5q0 -21 -13.5 -34.5t-34.5 -13.5zM530 -10
q-20 0 -33.5 13.5t-13.5 34.5q0 20 13.5 33.5t33.5 13.5q21 0 34.5 -13.5t13.5 -33.5q0 -21 -13.5 -34.5t-34.5 -13.5z" />
    <glyph glyph-name="perthousand" unicode="&#x2030;" horiz-adv-x="1067" 
d="M308 546v-31q0 -37 -15.5 -69t-45 -51.5t-71.5 -19.5t-71.5 19.5t-45 51.5t-15.5 69v31q0 37 15.5 68.5t45 51t71.5 19.5t71.5 -19.5t45 -51t15.5 -68.5zM533 680l25 -16l-376 -664l-25 16zM257 571q0 43 -21.5 68.5t-59.5 25.5t-59 -25.5t-21 -68.5v-81q0 -43 21 -69
t59 -26t59.5 26t21.5 69v81zM671 166v-31q0 -37 -15.5 -69t-45 -51.5t-71.5 -19.5t-71.5 19.5t-45 51.5t-15.5 69v31q0 37 15.5 68.5t45 51t71.5 19.5t71.5 -19.5t45 -51t15.5 -68.5zM1023 166v-31q0 -37 -15.5 -69t-45 -51.5t-71.5 -19.5t-71.5 19.5t-45 51.5t-15.5 69v31
q0 37 15.5 68.5t45 51t71.5 19.5t71.5 -19.5t45 -51t15.5 -68.5zM620 191q0 43 -21.5 68.5t-59.5 25.5t-59 -25.5t-21 -68.5v-81q0 -43 21 -69t59 -26t59.5 26t21.5 69v81zM972 191q0 43 -21.5 68.5t-59.5 25.5t-59 -25.5t-21 -68.5v-81q0 -43 21 -69t59 -26t59.5 26
t21.5 69v81z" />
    <glyph glyph-name="guilsinglleft" unicode="&#x2039;" horiz-adv-x="392" 
d="M333 26l-15 -16l-262 222v24l262 222l15 -16l-200 -218z" />
    <glyph glyph-name="guilsinglright" unicode="&#x203a;" horiz-adv-x="392" 
d="M59 463l15 16l262 -222v-24l-262 -222l-15 16l200 218z" />
    <glyph glyph-name="fraction" unicode="&#x2044;" horiz-adv-x="51" 
d="M201 680l25 -16l-376 -664l-25 16z" />
    <glyph glyph-name="uni2070" unicode="&#x2070;" horiz-adv-x="332" 
d="M288 631v-31q0 -73 -32 -116.5t-90 -43.5t-90 43.5t-32 116.5v31q0 72 32 115.5t90 43.5t90 -43.5t32 -115.5zM237 666q0 56 -18.5 80t-52.5 24t-52 -24t-18 -80v-101q0 -56 18 -80.5t52 -24.5t52.5 24.5t18.5 80.5v101z" />
    <glyph glyph-name="uni2074" unicode="&#x2074;" horiz-adv-x="262" 
d="M159 490v38h-152v20q34 38 58.5 72t40 73.5t23.5 91.5h55q-14 -70 -57.5 -126.5t-96.5 -110.5h129v81l47 5v-86h39v-20h-39v-38q0 -18 2 -21t9 -4l28 -2v-18h-125v18l28 2q8 1 9.5 4t1.5 21z" />
    <glyph glyph-name="uni2075" unicode="&#x2075;" horiz-adv-x="275" 
d="M220 825h13v-71h-163l-5 -105q30 18 65 18q55 0 86 -31.5t31 -84.5q0 -44 -27 -77.5t-89 -33.5q-34 0 -61.5 16.5t-40.5 54.5l30 8q6 -34 27.5 -47.5t43.5 -13.5q64 0 64 93q0 43 -15 70t-50 27q-19 0 -37.5 -7t-36.5 -24l-14 3l9 165h139q19 0 22.5 1.5t4.5 11.5z" />
    <glyph glyph-name="uni2076" unicode="&#x2076;" horiz-adv-x="316" 
d="M278 540q0 -46 -31 -73t-81 -27q-58 0 -89.5 39.5t-31.5 118.5v31q0 83 32.5 122t86.5 39q55 0 84.5 -31t22.5 -72l-48 -8q11 91 -59 91q-19 0 -34 -9t-24 -32.5t-9 -69.5v-40q28 31 73 31q50 0 79 -29t29 -76v-5zM97 568q0 -61 17.5 -84.5t51.5 -23.5q27 0 44 18.5
t17 61.5v5q0 39 -16 61.5t-46 22.5q-19 0 -36.5 -8.5t-31.5 -28.5v-24z" />
    <glyph glyph-name="uni2077" unicode="&#x2077;" horiz-adv-x="263" 
d="M47 700h-18v85h211v-27q-30 -39 -50 -79.5t-31 -95t-14 -138.5h-55q8 71 25.5 124t44.5 97t63 88h-141q-17 0 -21 -2t-6 -11z" />
    <glyph glyph-name="uni2078" unicode="&#x2078;" horiz-adv-x="305" 
d="M265 528q0 -39 -28 -63.5t-82 -24.5q-58 0 -86.5 25.5t-28.5 57.5q0 27 15.5 49t52.5 39q-28 15 -44.5 37t-16.5 53q0 36 26 62.5t77 26.5q50 0 78.5 -24.5t28.5 -58.5q0 -25 -13 -43.5t-51 -34.5q72 -33 72 -101zM148 647l20 -8q24 14 33 30t9 38q0 32 -16.5 47.5
t-42.5 15.5q-25 0 -43.5 -14t-18.5 -45q0 -24 15 -38t44 -26zM87 524q0 -29 17 -46.5t51 -17.5q32 0 49.5 15.5t17.5 44.5q0 25 -14 40.5t-46 28.5l-31 12q-44 -26 -44 -77z" />
    <glyph glyph-name="uni2079" unicode="&#x2079;" horiz-adv-x="311" 
d="M266 601q0 -82 -34 -121.5t-90 -39.5q-34 0 -61.5 16.5t-41.5 54.5l31 8q5 -33 27 -46t45 -13q19 0 35 9t26.5 33.5t10.5 69.5v32q-28 -31 -73 -31q-50 0 -79 29t-29 76v13q0 45 31.5 72t80.5 27q58 0 89.5 -39.5t31.5 -117.5v-32zM84 678q0 -39 15.5 -61.5t46.5 -22.5
q19 0 37 8.5t31 28.5v31q0 62 -18 85t-51 23q-28 0 -44.5 -17.5t-16.5 -61.5v-13z" />
    <glyph glyph-name="uni2080" unicode="&#x2080;" horiz-adv-x="332" 
d="M288 81v-31q0 -73 -32 -116.5t-90 -43.5t-90 43.5t-32 116.5v31q0 72 32 115.5t90 43.5t90 -43.5t32 -115.5zM237 116q0 56 -18.5 80t-52.5 24t-52 -24t-18 -80v-101q0 -56 18 -80.5t52 -24.5t52.5 24.5t18.5 80.5v101z" />
    <glyph glyph-name="uni2081" unicode="&#x2081;" horiz-adv-x="201" 
d="M25 196l64 39h42v-295q0 -18 2 -21t9 -4l28 -2v-18h-135v18l38 2q8 1 9.5 4t1.5 21v268l-48 -29z" />
    <glyph glyph-name="uni2082" unicode="&#x2082;" horiz-adv-x="285" 
d="M225 -20h18v-85h-211v23q0 39 10 62t31 39.5t54 35.5q25 14 44.5 33t19.5 56q0 40 -15 58t-41 18q-34 0 -47 -23.5t-9 -67.5l-48 8q-7 40 19 71.5t85 31.5t83.5 -28.5t24.5 -65.5q0 -35 -17.5 -56.5t-43 -35t-50.5 -26.5q-39 -19 -54.5 -42t-17.5 -59h130q17 0 21.5 2
t5.5 11z" />
    <glyph glyph-name="uni2083" unicode="&#x2083;" horiz-adv-x="291" 
d="M116 60h-14v20h14q42 0 59.5 20.5t17.5 52.5q0 67 -58 67q-35 0 -48 -23.5t-9 -67.5l-48 8q-7 40 19 71.5t87 31.5q59 0 84 -26t25 -61q0 -64 -71 -83q38 -9 58 -31t20 -59q0 -35 -26 -62.5t-88 -27.5q-36 0 -65 15.5t-43 54.5l30 10q6 -34 29 -47t48 -13q63 0 63 70
q0 35 -19 57.5t-65 22.5z" />
    <glyph glyph-name="uni2084" unicode="&#x2084;" horiz-adv-x="262" 
d="M159 -60v38h-152v20q34 38 58.5 72t40 73.5t23.5 91.5h55q-14 -70 -57.5 -126.5t-96.5 -110.5h129v81l47 5v-86h39v-20h-39v-38q0 -18 2 -21t9 -4l28 -2v-18h-125v18l28 2q8 1 9.5 4t1.5 21z" />
    <glyph glyph-name="uni2085" unicode="&#x2085;" horiz-adv-x="275" 
d="M220 275h13v-71h-163l-5 -105q30 18 65 18q55 0 86 -31.5t31 -84.5q0 -44 -27 -77.5t-89 -33.5q-34 0 -61.5 16.5t-40.5 54.5l30 8q6 -34 27.5 -47.5t43.5 -13.5q64 0 64 93q0 43 -15 70t-50 27q-19 0 -37.5 -7t-36.5 -24l-14 3l9 165h139q19 0 22.5 1.5t4.5 11.5z" />
    <glyph glyph-name="uni2086" unicode="&#x2086;" horiz-adv-x="316" 
d="M278 -10q0 -46 -31 -73t-81 -27q-58 0 -89.5 39.5t-31.5 118.5v31q0 83 32.5 122t86.5 39q55 0 84.5 -31t22.5 -72l-48 -8q11 91 -59 91q-19 0 -34 -9t-24 -32.5t-9 -69.5v-40q28 31 73 31q50 0 79 -29t29 -76v-5zM97 18q0 -61 17.5 -84.5t51.5 -23.5q27 0 44 18.5
t17 61.5v5q0 39 -16 61.5t-46 22.5q-19 0 -36.5 -8.5t-31.5 -28.5v-24z" />
    <glyph glyph-name="uni2087" unicode="&#x2087;" horiz-adv-x="263" 
d="M47 150h-18v85h211v-27q-30 -39 -50 -79.5t-31 -95t-14 -138.5h-55q8 71 25.5 124t44.5 97t63 88h-141q-17 0 -21 -2t-6 -11z" />
    <glyph glyph-name="uni2088" unicode="&#x2088;" horiz-adv-x="305" 
d="M265 -22q0 -39 -28 -63.5t-82 -24.5q-58 0 -86.5 25.5t-28.5 57.5q0 27 15.5 49t52.5 39q-28 15 -44.5 37t-16.5 53q0 36 26 62.5t77 26.5q50 0 78.5 -24.5t28.5 -58.5q0 -25 -13 -43.5t-51 -34.5q72 -33 72 -101zM148 97l20 -8q24 14 33 30t9 38q0 32 -16.5 47.5
t-42.5 15.5q-25 0 -43.5 -14t-18.5 -45q0 -24 15 -38t44 -26zM87 -26q0 -29 17 -46.5t51 -17.5q32 0 49.5 15.5t17.5 44.5q0 25 -14 40.5t-46 28.5l-31 12q-44 -26 -44 -77z" />
    <glyph glyph-name="uni2089" unicode="&#x2089;" horiz-adv-x="311" 
d="M266 51q0 -82 -34 -121.5t-90 -39.5q-34 0 -61.5 16.5t-41.5 54.5l31 8q5 -33 27 -46t45 -13q19 0 35 9t26.5 33.5t10.5 69.5v32q-28 -31 -73 -31q-50 0 -79 29t-29 76v13q0 45 31.5 72t80.5 27q58 0 89.5 -39.5t31.5 -117.5v-32zM84 128q0 -39 15.5 -61.5t46.5 -22.5
q19 0 37 8.5t31 28.5v31q0 62 -18 85t-51 23q-28 0 -44.5 -17.5t-16.5 -61.5v-13z" />
    <glyph glyph-name="Euro" unicode="&#x20ac;" horiz-adv-x="603" 
d="M550 131q-22 -77 -77.5 -109t-125.5 -32q-109 0 -169 68t-71 186h-80v30h78q-1 6 -1 12v13v85h-77v30h78q7 126 68.5 201t170.5 75q74 0 121.5 -29.5t67.5 -76.5t10 -101l-65 -16q11 93 -23.5 143t-108.5 50q-83 0 -126 -53t-43 -175v-18h241l-6 -30h-235v-110h213
l-6 -30h-207q2 -119 45 -171.5t128 -52.5q33 0 64 11.5t53 38.5t27 74z" />
    <glyph glyph-name="uni20B9" unicode="&#x20b9;" horiz-adv-x="530" 
d="M497 0h-127l-314 308v30h156q56 0 90.5 37.5t34.5 101.5v2h-281v30h281v3q0 65 -34.5 101.5t-90.5 36.5h-156v30h426v-30h-149q72 -44 72 -138v-3h77v-30h-77v-2q0 -76 -50.5 -122.5t-142.5 -46.5h-67l238 -229q28 -27 40.5 -37t28.5 -12l45 -5v-25z" />
    <glyph glyph-name="uni2113" unicode="&#x2113;" horiz-adv-x="409" 
d="M331 34q-19 -17 -46.5 -28t-62.5 -11q-59 0 -92 33t-33 93v390q0 47 11.5 88t41.5 66t84 25q65 0 100 -37t35 -99q0 -38 -16.5 -87t-62.5 -112.5t-133 -146.5v-71q0 -49 11 -72.5t28.5 -31t35.5 -7.5q20 0 39.5 6.5t41.5 25.5zM157 521v-271q89 84 120 160.5t31 142.5
q0 107 -74 107q-37 0 -57 -30t-20 -109z" />
    <glyph glyph-name="uni2116" unicode="&#x2116;" horiz-adv-x="1086" 
d="M1046 512v-20q0 -79 -42.5 -126.5t-119.5 -47.5t-119.5 47.5t-42.5 126.5v20q0 79 41.5 126t120.5 47q78 0 120 -47t42 -126zM459 655v25h189v-25l-55 -5q-16 -1 -19 -7.5t-3 -41.5v-601h-45l-362 630v-551q0 -34 3 -40.5t19 -8.5l55 -5v-25h-189v25l55 5q16 2 19 8.5
t3 40.5v522q0 35 -3 41.5t-19 7.5l-55 5v25h154l330 -574v495q0 35 -3 41.5t-19 7.5zM980 532q0 66 -24.5 95.5t-71.5 29.5q-46 0 -71 -29.5t-25 -95.5v-60q0 -67 25 -96.5t71 -29.5t71 29.5t25 96.5v60zM747 184v30h274v-30h-274z" />
    <glyph glyph-name="trademark" unicode="&#x2122;" horiz-adv-x="776" 
d="M32 680h274v-76h-20l-10 40q-2 9 -5.5 11t-21.5 2h-57v-269q0 -18 2 -21t9 -4l28 -2v-21h-124v21l28 2q8 1 9.5 4t1.5 21v269h-57q-18 0 -21.5 -2t-5.5 -11l-10 -40h-20v76zM733 361v-21h-124v21l28 2q8 1 9.5 4.5t1.5 20.5v252l-105 -260h-29l-106 261v-253
q0 -17 2 -20.5t9 -4.5l28 -2v-21h-103v21l28 2q8 1 9.5 4.5t1.5 20.5v245q0 17 -1.5 20t-9.5 4l-28 3v20h96l101 -246l98 246h94v-20l-28 -3q-7 -1 -9 -4t-2 -20v-245q0 -17 2 -20.5t9 -4.5z" />
    <glyph glyph-name="uni2126" unicode="&#x2126;" horiz-adv-x="668" 
d="M593 0h-209v156q64 25 97.5 76t33.5 137v93q0 92 -47 145t-134 53t-134 -53t-47 -145v-93q0 -86 33.5 -137t97.5 -76v-156h-209v160h25l17 -81q4 -18 11.5 -22t42.5 -4h78v83q-82 35 -125.5 104t-43.5 159v33q0 69 29.5 127.5t86.5 94.5t138 36t138 -36t86.5 -94.5
t29.5 -127.5v-33q0 -90 -43.5 -159t-125.5 -103v-84h78q35 0 42.5 4t11.5 22l17 81h25v-160z" />
    <glyph glyph-name="estimated" unicode="&#x212e;" horiz-adv-x="833" 
d="M784 305h-583q-5 0 -5 -4v-176q0 -12 8 -20q42 -44 99 -70t122 -26q70 0 129.5 29t102.5 78h52q-49 -57 -123.5 -91.5t-161.5 -34.5q-75 0 -140 25t-114.5 69.5t-77.5 103.5t-28 126t28 126t77.5 103.5t114.5 69.5t140 25t140 -25t114.5 -69.5t77.5 -103.5t28 -126v-9z
M652 328v178q0 12 -9 21q-42 42 -98 67t-120 25t-121 -25.5t-99 -69.5q-9 -9 -9 -22v-174q0 -5 5 -5h447q4 0 4 5z" />
    <glyph glyph-name="uni2153" unicode="&#x2153;" horiz-adv-x="573" 
d="M25 641l64 39h42v-295q0 -18 2 -21t9 -4l28 -2v-18h-135v18l38 2q8 1 9.5 4t1.5 21v268l-48 -29zM432 680l25 -16l-376 -664l-25 16zM398 165h-14v20h14q42 0 59.5 20.5t17.5 52.5q0 67 -58 67q-35 0 -48 -23.5t-9 -67.5l-48 8q-7 40 19 71.5t87 31.5q59 0 84 -26t25 -61
q0 -64 -71 -83q38 -9 58 -31t20 -59q0 -35 -26 -62.5t-88 -27.5q-36 0 -65 15.5t-43 54.5l30 10q6 -34 29 -47t48 -13q63 0 63 70q0 35 -19 57.5t-65 22.5z" />
    <glyph glyph-name="uni2154" unicode="&#x2154;" horiz-adv-x="647" 
d="M225 425h18v-85h-211v23q0 39 10 62t31 39.5t54 35.5q25 14 44.5 33t19.5 56q0 40 -15 58t-41 18q-34 0 -47 -23.5t-9 -67.5l-48 8q-7 40 19 71.5t85 31.5t83.5 -28.5t24.5 -65.5q0 -35 -17.5 -56.5t-43 -35t-50.5 -26.5q-39 -19 -54.5 -42t-17.5 -59h130q17 0 21.5 2
t5.5 11zM506 680l25 -16l-376 -664l-25 16zM472 165h-14v20h14q42 0 59.5 20.5t17.5 52.5q0 67 -58 67q-35 0 -48 -23.5t-9 -67.5l-48 8q-7 40 19 71.5t87 31.5q59 0 84 -26t25 -61q0 -64 -71 -83q38 -9 58 -31t20 -59q0 -35 -26 -62.5t-88 -27.5q-36 0 -65 15.5t-43 54.5
l30 10q6 -34 29 -47t48 -13q63 0 63 70q0 35 -19 57.5t-65 22.5z" />
    <glyph glyph-name="oneeighth" unicode="&#x215b;" horiz-adv-x="587" 
d="M25 641l64 39h42v-295q0 -18 2 -21t9 -4l28 -2v-18h-135v18l38 2q8 1 9.5 4t1.5 21v268l-48 -29zM432 680l25 -16l-376 -664l-25 16zM547 83q0 -39 -28 -63.5t-82 -24.5q-58 0 -86.5 25.5t-28.5 57.5q0 27 15.5 49t52.5 39q-28 15 -44.5 37t-16.5 53q0 36 26 62.5
t77 26.5q50 0 78.5 -24.5t28.5 -58.5q0 -25 -13 -43.5t-51 -34.5q72 -33 72 -101zM430 202l20 -8q24 14 33 30t9 38q0 32 -16.5 47.5t-42.5 15.5q-25 0 -43.5 -14t-18.5 -45q0 -24 15 -38t44 -26zM369 79q0 -29 17 -46.5t51 -17.5q32 0 49.5 15.5t17.5 44.5q0 25 -14 40.5
t-46 28.5l-31 12q-44 -26 -44 -77z" />
    <glyph glyph-name="threeeighths" unicode="&#x215c;" horiz-adv-x="647" 
d="M116 505h-14v20h14q42 0 59.5 20.5t17.5 52.5q0 67 -58 67q-35 0 -48 -23.5t-9 -67.5l-48 8q-7 40 19 71.5t87 31.5q59 0 84 -26t25 -61q0 -64 -71 -83q38 -9 58 -31t20 -59q0 -35 -26 -62.5t-88 -27.5q-36 0 -65 15.5t-43 54.5l30 10q6 -34 29 -47t48 -13q63 0 63 70
q0 35 -19 57.5t-65 22.5zM492 680l25 -16l-376 -664l-25 16zM607 83q0 -39 -28 -63.5t-82 -24.5q-58 0 -86.5 25.5t-28.5 57.5q0 27 15.5 49t52.5 39q-28 15 -44.5 37t-16.5 53q0 36 26 62.5t77 26.5q50 0 78.5 -24.5t28.5 -58.5q0 -25 -13 -43.5t-51 -34.5q72 -33 72 -101z
M490 202l20 -8q24 14 33 30t9 38q0 32 -16.5 47.5t-42.5 15.5q-25 0 -43.5 -14t-18.5 -45q0 -24 15 -38t44 -26zM429 79q0 -29 17 -46.5t51 -17.5q32 0 49.5 15.5t17.5 44.5q0 25 -14 40.5t-46 28.5l-31 12q-44 -26 -44 -77z" />
    <glyph glyph-name="fiveeighths" unicode="&#x215d;" horiz-adv-x="641" 
d="M220 720h13v-71h-163l-5 -105q30 18 65 18q55 0 86 -31.5t31 -84.5q0 -44 -27 -77.5t-89 -33.5q-34 0 -61.5 16.5t-40.5 54.5l30 8q6 -34 27.5 -47.5t43.5 -13.5q64 0 64 93q0 43 -15 70t-50 27q-19 0 -37.5 -7t-36.5 -24l-14 3l9 165h139q19 0 22.5 1.5t4.5 11.5z
M486 680l25 -16l-376 -664l-25 16zM601 83q0 -39 -28 -63.5t-82 -24.5q-58 0 -86.5 25.5t-28.5 57.5q0 27 15.5 49t52.5 39q-28 15 -44.5 37t-16.5 53q0 36 26 62.5t77 26.5q50 0 78.5 -24.5t28.5 -58.5q0 -25 -13 -43.5t-51 -34.5q72 -33 72 -101zM484 202l20 -8
q24 14 33 30t9 38q0 32 -16.5 47.5t-42.5 15.5q-25 0 -43.5 -14t-18.5 -45q0 -24 15 -38t44 -26zM423 79q0 -29 17 -46.5t51 -17.5q32 0 49.5 15.5t17.5 44.5q0 25 -14 40.5t-46 28.5l-31 12q-44 -26 -44 -77z" />
    <glyph glyph-name="seveneighths" unicode="&#x215e;" horiz-adv-x="609" 
d="M47 595h-18v85h211v-27q-30 -39 -50 -79.5t-31 -95t-14 -138.5h-55q8 71 25.5 124t44.5 97t63 88h-141q-17 0 -21 -2t-6 -11zM454 680l25 -16l-376 -664l-25 16zM569 83q0 -39 -28 -63.5t-82 -24.5q-58 0 -86.5 25.5t-28.5 57.5q0 27 15.5 49t52.5 39q-28 15 -44.5 37
t-16.5 53q0 36 26 62.5t77 26.5q50 0 78.5 -24.5t28.5 -58.5q0 -25 -13 -43.5t-51 -34.5q72 -33 72 -101zM452 202l20 -8q24 14 33 30t9 38q0 32 -16.5 47.5t-42.5 15.5q-25 0 -43.5 -14t-18.5 -45q0 -24 15 -38t44 -26zM391 79q0 -29 17 -46.5t51 -17.5q32 0 49.5 15.5
t17.5 44.5q0 25 -14 40.5t-46 28.5l-31 12q-44 -26 -44 -77z" />
    <glyph glyph-name="arrowleft" unicode="&#x2190;" horiz-adv-x="651" 
d="M279 183l-15 -15l-214 178v24l214 178l15 -15l-149 -161h139q70 0 115.5 2.5t77.5 5.5t61.5 5.5t67.5 2.5l-10 -30l10 -30q-38 0 -67.5 2.5t-61.5 5.5t-77.5 5.5t-115.5 2.5h-139z" />
    <glyph glyph-name="arrowup" unicode="&#x2191;" horiz-adv-x="651" 
d="M340 410q0 -70 2.5 -115.5t5.5 -77.5t5.5 -61.5t2.5 -67.5l-30 10l-30 -10q0 38 2.5 67.5t5.5 61.5t5.5 77.5t2.5 115.5v139l-161 -149l-15 15l178 214h24l178 -214l-15 -15l-161 149v-139z" />
    <glyph glyph-name="arrowright" unicode="&#x2192;" horiz-adv-x="651" 
d="M591 347l-214 -178l-15 15l149 161h-139q-70 0 -115.5 -2.5t-77.5 -5.5t-61.5 -5.5t-67.5 -2.5l10 30l-10 30q38 0 67.5 -2.5t61.5 -5.5t77.5 -5.5t115.5 -2.5h139l-149 161l15 15l214 -178v-24z" />
    <glyph glyph-name="arrowdown" unicode="&#x2193;" horiz-adv-x="651" 
d="M515 303l-178 -214h-24l-178 214l15 15l161 -149v139q0 70 -2.5 115.5t-5.5 77.5t-5.5 61.5t-2.5 67.5l30 -10l30 10q0 -38 -2.5 -67.5t-5.5 -61.5t-5.5 -77.5t-2.5 -115.5v-139l161 149z" />
    <glyph glyph-name="arrowboth" unicode="&#x2194;" horiz-adv-x="754" 
d="M279 183l-15 -15l-214 178v24l214 178l15 -15l-149 -161h76q44 0 69.5 2.5t40.5 6.5t28.5 6.5t33.5 2.5h3q20 0 33.5 -2.5t29 -6.5t40.5 -6.5t69 -2.5h72l-150 162l15 15l214 -178v-24l-214 -178l-15 15l148 160h-70q-44 0 -69 -2.5t-40.5 -6.5t-29 -6.5t-33.5 -2.5h-3
q-20 0 -33.5 2.5t-28.5 6.5t-40.5 6.5t-69.5 2.5h-76z" />
    <glyph glyph-name="arrowupdn" unicode="&#x2195;" horiz-adv-x="651" 
d="M516 246l-178 -214h-24l-178 214l15 15l160 -148v70q0 44 -2.5 69t-6.5 40.5t-6.5 29t-2.5 33.5v3q0 20 2.5 33.5t6.5 28.5t6.5 40.5t2.5 69.5v76l-161 -149l-15 15l178 214h24l178 -214l-15 -15l-161 149v-76q0 -44 2.5 -69.5t6.5 -40.5t6.5 -28.5t2.5 -33.5v-3
q0 -20 -2.5 -33.5t-6.5 -29t-6.5 -40.5t-2.5 -69v-72l162 150z" />
    <glyph glyph-name="uni2196" unicode="&#x2196;" horiz-adv-x="651" 
d="M505 174l-14 -28q-27 27 -46 49.5t-39.5 47.5t-51 59t-80.5 83l-98 98l-8 -219h-22l-25 277l17 17l277 -25v-22l-219 -8l98 -98q50 -50 83.5 -80.5t58.5 -51t47.5 -39.5t49.5 -46z" />
    <glyph glyph-name="uni2197" unicode="&#x2197;" horiz-adv-x="651" 
d="M367 385q-49 -49 -79.5 -83t-51 -59t-39.5 -47.5t-46 -49.5l-15 28l-28 15q27 27 49.5 46t47.5 39.5t59 51t83 79.5l99 99l-220 8v21l277 25l17 -17l-25 -277h-21l-8 220z" />
    <glyph glyph-name="uni2198" unicode="&#x2198;" horiz-adv-x="651" 
d="M520 177l-17 -17l-277 25v21l220 8l-99 99q-49 50 -83 80t-59 50.5t-47.5 39.5t-49.5 46l28 15l15 28q27 -27 46 -49.5t39.5 -47.5t51 -58.5t79.5 -83.5l99 -99l8 220h21z" />
    <glyph glyph-name="uni2199" unicode="&#x2199;" horiz-adv-x="651" 
d="M415 185l-277 -25l-17 17l25 277h22l8 -219l98 98q50 50 80.5 83.5t51 58.5t39.5 47.5t46 49.5l14 -28l28 -14q-27 -27 -49.5 -46t-47.5 -39.5t-58.5 -51t-83.5 -80.5l-98 -98l219 -8v-22z" />
    <glyph glyph-name="partialdiff" unicode="&#x2202;" horiz-adv-x="563" 
d="M488 258q-7 -87 -38.5 -147t-81 -90.5t-110.5 -30.5q-66 0 -110 30t-63.5 83t-12.5 120l2 20q7 67 35.5 112.5t72.5 68.5t95 23q40 0 79.5 -15.5t67.5 -52.5q-3 86 -30.5 153t-71.5 115.5t-97 78.5l14 24q91 -47 149.5 -119.5t84 -161t17.5 -186.5zM137 213
q-9 -91 21.5 -142t101.5 -51q38 0 70.5 19.5t55.5 66t30 127.5l6 65q1 7 1 13t1 12q-17 38 -42 58t-52 28t-51 8q-34 0 -63 -14t-49 -48.5t-26 -98.5z" />
    <glyph glyph-name="uni2206" unicode="&#x2206;" horiz-adv-x="559" 
d="M529 20v-20h-499v20l225 660h47zM65 30h391l-195 570z" />
    <glyph glyph-name="product" unicode="&#x220f;" horiz-adv-x="708" 
d="M660 -118v-25h-219v25l55 5q16 2 19 8t3 41v714h-328v-714q0 -35 3 -41t19 -8l55 -5v-25h-219v25l55 5q16 2 19 8t3 41v665q0 35 -3 41.5t-19 7.5l-55 5v25h612v-25l-55 -5q-16 -1 -19 -7.5t-3 -41.5v-665q0 -35 3 -41t19 -8z" />
    <glyph glyph-name="summation" unicode="&#x2211;" horiz-adv-x="555" 
d="M474 17h25v-160h-472v45l285 352l-280 406v20h450v-137h-25l-27 81q-4 12 -7.5 17.5t-13 7t-33.5 1.5h-259l250 -362v-16l-293 -362h319q24 0 33.5 1.5t13 7.5t7.5 17z" />
    <glyph glyph-name="minus" unicode="&#x2212;" 
d="M87 318v32h414v-32h-414z" />
    <glyph glyph-name="uni2215" unicode="&#x2215;" horiz-adv-x="51" 
d="M201 680l25 -16l-376 -664l-25 16z" />
    <glyph glyph-name="radical" unicode="&#x221a;" 
d="M57 317v32h118l120 -301l251 632l29 -12l-267 -668h-28l-127 317h-96z" />
    <glyph glyph-name="infinity" unicode="&#x221e;" horiz-adv-x="782" 
d="M732 339q0 -64 -24 -107.5t-63.5 -65t-84.5 -21.5q-61 0 -106 38.5t-74 107.5q-34 -76 -78.5 -110.5t-94.5 -34.5q-42 0 -78 24t-57.5 67.5t-21.5 103.5q0 65 24 108t63.5 64.5t83.5 21.5q62 0 107.5 -39t73.5 -107q35 77 79.5 111t93.5 34q43 0 78.5 -23.5t57 -67.5
t21.5 -104zM80 340q0 -64 31.5 -104t94.5 -40q47 0 86.5 27t74.5 100l-11 26q-28 66 -64 101t-89 35q-61 0 -92 -42.5t-31 -102.5zM426 331q28 -66 64 -101t88 -35q62 0 93 42.5t31 102.5q0 64 -31.5 104t-94.5 40q-46 0 -86 -27t-75 -100z" />
    <glyph glyph-name="integral" unicode="&#x222b;" horiz-adv-x="411" 
d="M311 722q-30 0 -45 -23.5t-21 -97.5l-60 -665q-4 -42 -14.5 -78t-36.5 -58.5t-75 -22.5q-56 0 -81 29.5t-18 75.5l49 9q-6 -41 6.5 -63.5t43.5 -22.5q20 0 33 10t21 36t12 75l60 665q4 42 15 78.5t36.5 58.5t74.5 22q56 0 81 -29.5t18 -75.5l-49 -9q12 86 -50 86z" />
    <glyph glyph-name="approxequal" unicode="&#x2248;" 
d="M390 358q-36 0 -60.5 17.5t-43.5 40.5t-39 40.5t-49 17.5q-25 0 -44.5 -18.5t-36.5 -71.5l-30 14q24 65 51.5 87.5t59.5 22.5q36 0 60 -17.5t43 -40.5t39.5 -40.5t49.5 -17.5q25 0 44.5 18.5t36.5 71.5l30 -14q-24 -65 -51.5 -87.5t-59.5 -22.5zM390 158
q-36 0 -60.5 17.5t-43.5 40.5t-39 40.5t-49 17.5q-25 0 -44.5 -18.5t-36.5 -71.5l-30 14q24 65 51.5 87.5t59.5 22.5q36 0 60 -17.5t43 -40.5t39.5 -40.5t49.5 -17.5q25 0 44.5 18.5t36.5 71.5l30 -14q-24 -65 -51.5 -87.5t-59.5 -22.5z" />
    <glyph glyph-name="notequal" unicode="&#x2260;" 
d="M501 218h-257l-80 -134l-27 17l70 117h-120v32h139l99 168h-238v32h257l80 134l27 -17l-70 -117h120v-32h-139l-99 -168h238v-32z" />
    <glyph glyph-name="lessequal" unicode="&#x2264;" 
d="M501 188l-12 -30l-402 161v28l402 161l12 -29l-366 -145zM87 0v32h414v-32h-414z" />
    <glyph glyph-name="greaterequal" unicode="&#x2265;" 
d="M501 319l-402 -161l-12 29l366 146l-366 145l12 30l402 -161v-28zM87 0v32h414v-32h-414z" />
    <glyph glyph-name="lozenge" unicode="&#x25ca;" 
d="M119 340l161 340h28l161 -340l-161 -340h-28zM154 341l141 -299l139 297l-140 299z" />
    <glyph glyph-name="uniF6C3" unicode="&#xf6c3;" horiz-adv-x="500" 
d="M206 -238l-20 14q17 36 24 69t7 78h66q-13 -52 -29.5 -87.5t-47.5 -73.5z" />
    <glyph glyph-name="A.alt" horiz-adv-x="713" 
d="M43 433q-11 64 9 120.5t73.5 91.5t142.5 35h157l197 -601q8 -23 12 -33t9 -12.5t15 -3.5l55 -5v-25h-221v25l55 5q17 2 18 8.5t-10 40.5l-43 131h-253l-18 -57q-45 -142 -94 -224.5t-100 -117t-103 -34.5v68q35 0 68 12.5t65.5 45.5t64.5 95t65 162l161 490h-102
q-98 0 -136.5 -60.5t-25.5 -172.5zM269 240h234l-118 363z" />
    <glyph glyph-name="Aacute.alt" horiz-adv-x="713" 
d="M43 433q-11 64 9 120.5t73.5 91.5t142.5 35h157l197 -601q8 -23 12 -33t9 -12.5t15 -3.5l55 -5v-25h-221v25l55 5q17 2 18 8.5t-10 40.5l-43 131h-253l-18 -57q-45 -142 -94 -224.5t-100 -117t-103 -34.5v68q35 0 68 12.5t65.5 45.5t64.5 95t65 162l161 490h-102
q-98 0 -136.5 -60.5t-25.5 -172.5zM269 240h234l-118 363zM401 772l-19 19q27 34 42.5 65t28.5 77h76q-54 -88 -128 -161z" />
    <glyph glyph-name="Abreve.alt" horiz-adv-x="713" 
d="M43 433q-11 64 9 120.5t73.5 91.5t142.5 35h157l197 -601q8 -23 12 -33t9 -12.5t15 -3.5l55 -5v-25h-221v25l55 5q17 2 18 8.5t-10 40.5l-43 131h-253l-18 -57q-45 -142 -94 -224.5t-100 -117t-103 -34.5v68q35 0 68 12.5t65.5 45.5t64.5 95t65 162l161 490h-102
q-98 0 -136.5 -60.5t-25.5 -172.5zM269 240h234l-118 363zM402 825q49 0 74.5 26t38.5 82l26 -7q-14 -81 -48 -117.5t-91 -36.5t-91 36.5t-48 117.5l26 7q14 -56 39 -82t74 -26z" />
    <glyph glyph-name="Acircumflex.alt" horiz-adv-x="713" 
d="M43 433q-11 64 9 120.5t73.5 91.5t142.5 35h157l197 -601q8 -23 12 -33t9 -12.5t15 -3.5l55 -5v-25h-221v25l55 5q17 2 18 8.5t-10 40.5l-43 131h-253l-18 -57q-45 -142 -94 -224.5t-100 -117t-103 -34.5v68q35 0 68 12.5t65.5 45.5t64.5 95t65 162l161 490h-102
q-98 0 -136.5 -60.5t-25.5 -172.5zM269 240h234l-118 363zM529 791l-19 -19q-32 28 -59.5 54t-51.5 52q-22 -26 -48 -51.5t-57 -54.5l-19 19q25 26 41.5 46t30 42t29.5 54h52q16 -32 29.5 -54t30.5 -42t41 -46z" />
    <glyph glyph-name="Adieresis.alt" horiz-adv-x="713" 
d="M43 433q-11 64 9 120.5t73.5 91.5t142.5 35h157l197 -601q8 -23 12 -33t9 -12.5t15 -3.5l55 -5v-25h-221v25l55 5q17 2 18 8.5t-10 40.5l-43 131h-253l-18 -57q-45 -142 -94 -224.5t-100 -117t-103 -34.5v68q35 0 68 12.5t65.5 45.5t64.5 95t65 162l161 490h-102
q-98 0 -136.5 -60.5t-25.5 -172.5zM269 240h234l-118 363zM298 812q-19 0 -31 12.5t-12 31.5t12 31t31 12q20 0 32 -12t12 -31t-12 -31.5t-32 -12.5zM497 812q-19 0 -31 12.5t-12 31.5t12 31t31 12q20 0 32 -12t12 -31t-12 -31.5t-32 -12.5z" />
    <glyph glyph-name="Agrave.alt" horiz-adv-x="713" 
d="M43 433q-11 64 9 120.5t73.5 91.5t142.5 35h157l197 -601q8 -23 12 -33t9 -12.5t15 -3.5l55 -5v-25h-221v25l55 5q17 2 18 8.5t-10 40.5l-43 131h-253l-18 -57q-45 -142 -94 -224.5t-100 -117t-103 -34.5v68q35 0 68 12.5t65.5 45.5t64.5 95t65 162l161 490h-102
q-98 0 -136.5 -60.5t-25.5 -172.5zM269 240h234l-118 363zM403 772q-74 73 -128 161h76q13 -46 28.5 -77t42.5 -65z" />
    <glyph glyph-name="Amacron.alt" horiz-adv-x="713" 
d="M43 433q-11 64 9 120.5t73.5 91.5t142.5 35h157l197 -601q8 -23 12 -33t9 -12.5t15 -3.5l55 -5v-25h-221v25l55 5q17 2 18 8.5t-10 40.5l-43 131h-253l-18 -57q-45 -142 -94 -224.5t-100 -117t-103 -34.5v68q35 0 68 12.5t65.5 45.5t64.5 95t65 162l161 490h-102
q-98 0 -136.5 -60.5t-25.5 -172.5zM269 240h234l-118 363zM546 855v-43h-287v43h287z" />
    <glyph glyph-name="Aogonek.alt" horiz-adv-x="713" 
d="M43 433q-11 64 9 120.5t73.5 91.5t142.5 35h157l197 -601q8 -23 12 -33t9 -12.5t15 -3.5l55 -5v-25h-63q-55 0 -84.5 -35.5t-29.5 -91.5q0 -32 14 -50.5t44 -18.5q26 0 45.5 19t29.5 65l44 -13q-15 -54 -50 -76t-73 -22q-46 0 -76 25t-30 71q0 51 26.5 87t65.5 52
l-64 198h-253l-18 -57q-45 -142 -94 -224.5t-100 -117t-103 -34.5v68q35 0 68 12.5t65.5 45.5t64.5 95t65 162l161 490h-102q-98 0 -136.5 -60.5t-25.5 -172.5zM269 240h233l-117 363z" />
    <glyph glyph-name="Aring.alt" horiz-adv-x="630" 
d="M158 153q-45 -142 -94 -224.5t-100 -117t-103 -34.5v68q35 0 68 12.5t65.5 45.5t64.5 95t65 162l164 498q-42 9 -65 38.5t-23 63.5v11q0 26 14 49.5t40.5 39t63.5 15.5t63.5 -15.5t40.5 -39t14 -49.5v-11q0 -33 -23 -62.5t-64 -39.5l190 -579q8 -23 12 -33t9 -12.5
t15 -3.5l55 -5v-25h-221v25l55 5q17 2 18 8.5t-10 40.5l-43 131h-253zM385 778q0 34 -17.5 53t-49.5 19q-31 0 -48.5 -19t-17.5 -53v-25q0 -34 17.5 -53.5t48.5 -19.5q32 0 49.5 19.5t17.5 53.5v25zM186 240h234l-118 363z" />
    <glyph glyph-name="Atilde.alt" horiz-adv-x="713" 
d="M43 433q-11 64 9 120.5t73.5 91.5t142.5 35h157l197 -601q8 -23 12 -33t9 -12.5t15 -3.5l55 -5v-25h-221v25l55 5q17 2 18 8.5t-10 40.5l-43 131h-253l-18 -57q-45 -142 -94 -224.5t-100 -117t-103 -34.5v68q35 0 68 12.5t65.5 45.5t64.5 95t65 162l161 490h-102
q-98 0 -136.5 -60.5t-25.5 -172.5zM269 240h234l-118 363zM473 786q-25 0 -44.5 14t-36 32.5t-32 32.5t-33.5 14t-31 -18.5t-14 -59.5h-29q2 65 24 96t56 31q26 0 45 -14t35 -32.5t31 -32.5t33 -14t31 19t14 59h29q-1 -65 -23.5 -96t-54.5 -31z" />
    <glyph glyph-name="B.alt" horiz-adv-x="752" 
d="M24 433q-12 64 8.5 120.5t74 91.5t142.5 35h227q83 0 133 -44.5t50 -118.5v-26q0 -52 -29.5 -88.5t-81.5 -52.5q65 -11 103 -52t38 -103v-26q0 -76 -51.5 -122.5t-136.5 -46.5h-295v25l55 5q16 2 19 8t3 41v571h-36q-98 0 -136.5 -60.5t-25.5 -172.5zM476 650h-128v-290
h128q57 0 86 31.5t29 89.5v46q0 58 -29 90.5t-86 32.5zM501 330h-153v-300h153q59 0 89.5 34t30.5 95v46q0 58 -30.5 91.5t-89.5 33.5z" />
    <glyph glyph-name="D.alt" horiz-adv-x="806" 
d="M24 433q-12 64 8.5 120.5t74 91.5t142.5 35h234q78 0 132 -37t82.5 -104t28.5 -157v-83q0 -90 -28.5 -157.5t-82.5 -104.5t-132 -37h-277v25l55 5q16 2 19 8t3 41v571h-36q-98 0 -136.5 -60.5t-25.5 -172.5zM483 650h-135v-620h135q83 0 126.5 51t43.5 168v183
q0 117 -43.5 167.5t-126.5 50.5z" />
    <glyph glyph-name="Dcaron.alt" horiz-adv-x="806" 
d="M24 433q-12 64 8.5 120.5t74 91.5t142.5 35h234q78 0 132 -37t82.5 -104t28.5 -157v-83q0 -90 -28.5 -157.5t-82.5 -104.5t-132 -37h-277v25l55 5q16 2 19 8t3 41v571h-36q-98 0 -136.5 -60.5t-25.5 -172.5zM483 650h-135v-620h135q83 0 126.5 51t43.5 168v183
q0 117 -43.5 167.5t-126.5 50.5zM594 919q-24 -26 -41 -46t-30.5 -42t-29.5 -54h-52q-16 32 -29.5 54t-30 42t-41.5 46l19 19q32 -28 59.5 -54t51.5 -52q23 26 48.5 52t56.5 54z" />
    <glyph glyph-name="E.alt" horiz-adv-x="719" 
d="M650 157h24v-157h-468v25l55 5q16 2 19 8t3 41v571h-36q-98 0 -136.5 -60.5t-25.5 -172.5l-61 16q-12 64 8.5 120.5t74 91.5t142.5 35h411v-157h-24l-27 101q-4 17 -11.5 21.5t-42.5 4.5h-207v-291h148q24 0 34 1.5t13.5 7t6.5 17.5l17 71h24v-224h-24l-17 71
q-3 12 -6.5 17.5t-13.5 7t-34 1.5h-148v-299h221q35 0 42.5 4.5t11.5 21.5z" />
    <glyph glyph-name="Eacute.alt" horiz-adv-x="719" 
d="M650 157h24v-157h-468v25l55 5q16 2 19 8t3 41v571h-36q-98 0 -136.5 -60.5t-25.5 -172.5l-61 16q-12 64 8.5 120.5t74 91.5t142.5 35h411v-157h-24l-27 101q-4 17 -11.5 21.5t-42.5 4.5h-207v-291h148q24 0 34 1.5t13.5 7t6.5 17.5l17 71h24v-224h-24l-17 71
q-3 12 -6.5 17.5t-13.5 7t-34 1.5h-148v-299h221q35 0 42.5 4.5t11.5 21.5zM456 772l-19 19q27 34 42.5 65t28.5 77h76q-54 -88 -128 -161z" />
    <glyph glyph-name="Ebreve.alt" horiz-adv-x="719" 
d="M650 157h24v-157h-468v25l55 5q16 2 19 8t3 41v571h-36q-98 0 -136.5 -60.5t-25.5 -172.5l-61 16q-12 64 8.5 120.5t74 91.5t142.5 35h411v-157h-24l-27 101q-4 17 -11.5 21.5t-42.5 4.5h-207v-291h148q24 0 34 1.5t13.5 7t6.5 17.5l17 71h24v-224h-24l-17 71
q-3 12 -6.5 17.5t-13.5 7t-34 1.5h-148v-299h221q35 0 42.5 4.5t11.5 21.5zM457 825q49 0 74.5 26t38.5 82l26 -7q-14 -81 -48 -117.5t-91 -36.5t-91 36.5t-48 117.5l26 7q14 -56 39 -82t74 -26z" />
    <glyph glyph-name="Ecaron.alt" horiz-adv-x="719" 
d="M650 157h24v-157h-468v25l55 5q16 2 19 8t3 41v571h-36q-98 0 -136.5 -60.5t-25.5 -172.5l-61 16q-12 64 8.5 120.5t74 91.5t142.5 35h411v-157h-24l-27 101q-4 17 -11.5 21.5t-42.5 4.5h-207v-291h148q24 0 34 1.5t13.5 7t6.5 17.5l17 71h24v-224h-24l-17 71
q-3 12 -6.5 17.5t-13.5 7t-34 1.5h-148v-299h221q35 0 42.5 4.5t11.5 21.5zM584 919q-24 -26 -41 -46t-30.5 -42t-29.5 -54h-52q-16 32 -29.5 54t-30 42t-41.5 46l19 19q32 -28 59.5 -54t51.5 -52q23 26 48.5 52t56.5 54z" />
    <glyph glyph-name="Ecircumflex.alt" horiz-adv-x="719" 
d="M650 157h24v-157h-468v25l55 5q16 2 19 8t3 41v571h-36q-98 0 -136.5 -60.5t-25.5 -172.5l-61 16q-12 64 8.5 120.5t74 91.5t142.5 35h411v-157h-24l-27 101q-4 17 -11.5 21.5t-42.5 4.5h-207v-291h148q24 0 34 1.5t13.5 7t6.5 17.5l17 71h24v-224h-24l-17 71
q-3 12 -6.5 17.5t-13.5 7t-34 1.5h-148v-299h221q35 0 42.5 4.5t11.5 21.5zM584 791l-19 -19q-32 28 -59.5 54t-51.5 52q-22 -26 -48 -51.5t-57 -54.5l-19 19q25 26 41.5 46t30 42t29.5 54h52q16 -32 29.5 -54t30.5 -42t41 -46z" />
    <glyph glyph-name="Edieresis.alt" horiz-adv-x="719" 
d="M650 157h24v-157h-468v25l55 5q16 2 19 8t3 41v571h-36q-98 0 -136.5 -60.5t-25.5 -172.5l-61 16q-12 64 8.5 120.5t74 91.5t142.5 35h411v-157h-24l-27 101q-4 17 -11.5 21.5t-42.5 4.5h-207v-291h148q24 0 34 1.5t13.5 7t6.5 17.5l17 71h24v-224h-24l-17 71
q-3 12 -6.5 17.5t-13.5 7t-34 1.5h-148v-299h221q35 0 42.5 4.5t11.5 21.5zM357 812q-19 0 -31 12.5t-12 31.5t12 31t31 12q20 0 32 -12t12 -31t-12 -31.5t-32 -12.5zM556 812q-19 0 -31 12.5t-12 31.5t12 31t31 12q20 0 32 -12t12 -31t-12 -31.5t-32 -12.5z" />
    <glyph glyph-name="Edotaccent.alt" horiz-adv-x="719" 
d="M650 157h24v-157h-468v25l55 5q16 2 19 8t3 41v571h-36q-98 0 -136.5 -60.5t-25.5 -172.5l-61 16q-12 64 8.5 120.5t74 91.5t142.5 35h411v-157h-24l-27 101q-4 17 -11.5 21.5t-42.5 4.5h-207v-291h148q24 0 34 1.5t13.5 7t6.5 17.5l17 71h24v-224h-24l-17 71
q-3 12 -6.5 17.5t-13.5 7t-34 1.5h-148v-299h221q35 0 42.5 4.5t11.5 21.5zM457 810q-19 0 -32 13t-13 33t13 32.5t32 12.5q20 0 33 -12.5t13 -32.5t-13 -33t-33 -13z" />
    <glyph glyph-name="Egrave.alt" horiz-adv-x="719" 
d="M650 157h24v-157h-468v25l55 5q16 2 19 8t3 41v571h-36q-98 0 -136.5 -60.5t-25.5 -172.5l-61 16q-12 64 8.5 120.5t74 91.5t142.5 35h411v-157h-24l-27 101q-4 17 -11.5 21.5t-42.5 4.5h-207v-291h148q24 0 34 1.5t13.5 7t6.5 17.5l17 71h24v-224h-24l-17 71
q-3 12 -6.5 17.5t-13.5 7t-34 1.5h-148v-299h221q35 0 42.5 4.5t11.5 21.5zM458 772q-74 73 -128 161h76q13 -46 28.5 -77t42.5 -65z" />
    <glyph glyph-name="Emacron.alt" horiz-adv-x="719" 
d="M650 157h24v-157h-468v25l55 5q16 2 19 8t3 41v571h-36q-98 0 -136.5 -60.5t-25.5 -172.5l-61 16q-12 64 8.5 120.5t74 91.5t142.5 35h411v-157h-24l-27 101q-4 17 -11.5 21.5t-42.5 4.5h-207v-291h148q24 0 34 1.5t13.5 7t6.5 17.5l17 71h24v-224h-24l-17 71
q-3 12 -6.5 17.5t-13.5 7t-34 1.5h-148v-299h221q35 0 42.5 4.5t11.5 21.5zM601 855v-43h-287v43h287z" />
    <glyph glyph-name="Eogonek.alt" horiz-adv-x="719" 
d="M650 157h24v-157h-63q-55 0 -84 -35.5t-29 -91.5q0 -32 14 -50.5t43 -18.5q26 0 45.5 19t29.5 65l44 -13q-15 -54 -50 -76t-73 -22q-46 0 -76 25t-30 71q0 45 24 78t60 49h-323v25l55 5q16 2 19 8t3 41v571h-36q-98 0 -136.5 -60.5t-25.5 -172.5l-61 16q-12 64 8.5 120.5
t74 91.5t142.5 35h411v-157h-24l-27 101q-4 17 -11.5 21.5t-42.5 4.5h-207v-291h148q24 0 34 1.5t13.5 7t6.5 17.5l17 71h24v-224h-24l-17 71q-3 12 -6.5 17.5t-13.5 7t-34 1.5h-148v-299h221q35 0 42.5 4.5t11.5 21.5z" />
    <glyph glyph-name="F.alt" horiz-adv-x="691" 
d="M557 445h25v-224h-25l-17 71q-3 12 -6.5 17.5t-13.5 7t-34 1.5h-138v-239q0 -35 3 -41.5t19 -7.5l75 -5v-25h-239v25l55 5q16 2 19 8t3 41v571h-36q-98 0 -136.5 -60.5t-25.5 -172.5l-61 16q-12 64 8.5 120.5t74 91.5t142.5 35h403v-157h-25l-27 101q-4 17 -11.5 21.5
t-42.5 4.5h-198v-302h138q24 0 34 1.5t13.5 7t6.5 17.5z" />
    <glyph glyph-name="G.alt" horiz-adv-x="640" 
d="M380 283v25h236v-25l-55 -5q-16 -1 -19 -7.5t-3 -41.5v-240q0 -53 -13.5 -102t-46 -79.5t-90.5 -30.5q-27 0 -54 7.5t-46 27t-23 54.5l50 15q1 -32 12 -48.5t27 -22t32 -5.5q28 0 48 16t31 56.5t11 111.5v53q-59 -52 -153 -52q-78 0 -132.5 38.5t-83 108t-28.5 162.5v83
q0 93 29 162.5t84.5 107.5t134.5 38q77 0 127 -29.5t71 -76.5t11 -101l-65 -16q11 93 -25.5 143.5t-116.5 50.5q-87 0 -132 -53t-45 -176v-183q0 -121 44.5 -175t131.5 -54q47 0 84 16.5t64 54.5v138q0 35 -3 41.5t-19 7.5z" />
    <glyph glyph-name="Gbreve.alt" horiz-adv-x="640" 
d="M380 283v25h236v-25l-55 -5q-16 -1 -19 -7.5t-3 -41.5v-240q0 -53 -13.5 -102t-46 -79.5t-90.5 -30.5q-27 0 -54 7.5t-46 27t-23 54.5l50 15q1 -32 12 -48.5t27 -22t32 -5.5q28 0 48 16t31 56.5t11 111.5v53q-59 -52 -153 -52q-78 0 -132.5 38.5t-83 108t-28.5 162.5v83
q0 93 29 162.5t84.5 107.5t134.5 38q77 0 127 -29.5t71 -76.5t11 -101l-65 -16q11 93 -25.5 143.5t-116.5 50.5q-87 0 -132 -53t-45 -176v-183q0 -121 44.5 -175t131.5 -54q47 0 84 16.5t64 54.5v138q0 35 -3 41.5t-19 7.5zM323 825q49 0 74.5 26t38.5 82l26 -7
q-14 -81 -48 -117.5t-91 -36.5t-91 36.5t-48 117.5l26 7q14 -56 39 -82t74 -26z" />
    <glyph glyph-name="Gcircumflex.alt" horiz-adv-x="640" 
d="M380 283v25h236v-25l-55 -5q-16 -1 -19 -7.5t-3 -41.5v-240q0 -53 -13.5 -102t-46 -79.5t-90.5 -30.5q-27 0 -54 7.5t-46 27t-23 54.5l50 15q1 -32 12 -48.5t27 -22t32 -5.5q28 0 48 16t31 56.5t11 111.5v53q-59 -52 -153 -52q-78 0 -132.5 38.5t-83 108t-28.5 162.5v83
q0 93 29 162.5t84.5 107.5t134.5 38q77 0 127 -29.5t71 -76.5t11 -101l-65 -16q11 93 -25.5 143.5t-116.5 50.5q-87 0 -132 -53t-45 -176v-183q0 -121 44.5 -175t131.5 -54q47 0 84 16.5t64 54.5v138q0 35 -3 41.5t-19 7.5zM450 791l-19 -19q-32 28 -59.5 54t-51.5 52
q-22 -26 -48 -51.5t-57 -54.5l-19 19q25 26 41.5 46t30 42t29.5 54h52q16 -32 29.5 -54t30.5 -42t41 -46z" />
    <glyph glyph-name="Gdotaccent.alt" horiz-adv-x="640" 
d="M380 283v25h236v-25l-55 -5q-16 -1 -19 -7.5t-3 -41.5v-240q0 -53 -13.5 -102t-46 -79.5t-90.5 -30.5q-27 0 -54 7.5t-46 27t-23 54.5l50 15q1 -32 12 -48.5t27 -22t32 -5.5q28 0 48 16t31 56.5t11 111.5v53q-59 -52 -153 -52q-78 0 -132.5 38.5t-83 108t-28.5 162.5v83
q0 93 29 162.5t84.5 107.5t134.5 38q77 0 127 -29.5t71 -76.5t11 -101l-65 -16q11 93 -25.5 143.5t-116.5 50.5q-87 0 -132 -53t-45 -176v-183q0 -121 44.5 -175t131.5 -54q47 0 84 16.5t64 54.5v138q0 35 -3 41.5t-19 7.5zM323 810q-19 0 -32 13t-13 33t13 32.5t32 12.5
q20 0 33 -12.5t13 -32.5t-13 -33t-33 -13z" />
    <glyph glyph-name="H.alt" horiz-adv-x="870" 
d="M818 25v-25h-219v25l55 5q16 2 19 8t3 41v250h-328v-250q0 -35 3 -41t19 -8l55 -5v-25h-219v25l55 5q16 2 19 8t3 41v571h-36q-98 0 -136.5 -60.5t-25.5 -172.5l-61 16q-12 64 8.5 120.5t74 91.5t142.5 35h176v-25l-55 -5q-16 -1 -19 -7.5t-3 -41.5v-242h328v242
q0 35 -3 41.5t-19 7.5l-55 5v25h219v-25l-55 -5q-16 -1 -19 -7.5t-3 -41.5v-522q0 -35 3 -41t19 -8z" />
    <glyph glyph-name="Hcircumflex.alt" horiz-adv-x="870" 
d="M818 25v-25h-219v25l55 5q16 2 19 8t3 41v250h-328v-250q0 -35 3 -41t19 -8l55 -5v-25h-219v25l55 5q16 2 19 8t3 41v571h-36q-98 0 -136.5 -60.5t-25.5 -172.5l-61 16q-12 64 8.5 120.5t74 91.5t142.5 35h176v-25l-55 -5q-16 -1 -19 -7.5t-3 -41.5v-242h328v242
q0 35 -3 41.5t-19 7.5l-55 5v25h219v-25l-55 -5q-16 -1 -19 -7.5t-3 -41.5v-522q0 -35 3 -41t19 -8zM639 791l-19 -19q-32 28 -59.5 54t-51.5 52q-22 -26 -48 -51.5t-57 -54.5l-19 19q25 26 41.5 46t30 42t29.5 54h52q16 -32 29.5 -54t30.5 -42t41 -46z" />
    <glyph glyph-name="J.alt" horiz-adv-x="505" 
d="M47 433q-11 64 9 120.5t73.5 91.5t142.5 35h193v-25l-55 -5q-16 -1 -19 -7.5t-3 -41.5v-399q0 -53 -15 -102t-51.5 -79.5t-101.5 -30.5q-33 0 -66 12t-56 42.5t-28 84.5l50 15q2 -52 17 -78.5t37 -36t44 -9.5q32 0 55.5 16t36.5 56t13 110v448h-53q-98 0 -136.5 -60.5
t-25.5 -172.5z" />
    <glyph glyph-name="Jcircumflex.alt" horiz-adv-x="505" 
d="M47 433q-11 64 9 120.5t73.5 91.5t142.5 35h193v-25l-55 -5q-16 -1 -19 -7.5t-3 -41.5v-399q0 -53 -15 -102t-51.5 -79.5t-101.5 -30.5q-33 0 -66 12t-56 42.5t-28 84.5l50 15q2 -52 17 -78.5t37 -36t44 -9.5q32 0 55.5 16t36.5 56t13 110v448h-53q-98 0 -136.5 -60.5
t-25.5 -172.5zM482 791l-19 -19q-32 28 -59.5 54t-51.5 52q-22 -26 -48 -51.5t-57 -54.5l-19 19q25 26 41.5 46t30 42t29.5 54h52q16 -32 29.5 -54t30.5 -42t41 -46z" />
    <glyph glyph-name="K.alt" horiz-adv-x="790" 
d="M24 433q-12 64 8.5 120.5t74 91.5t142.5 35h176v-24l-55 -5q-16 -1 -19 -7.5t-3 -41.5v-308l255 318q22 27 22 32.5t-17 6.5l-49 5v24h185v-24l-49 -5q-9 -1 -14.5 -3t-12.5 -10t-22 -26l-168 -209l202 -324q15 -23 22 -33t13 -12.5t16 -3.5l50 -5v-25h-132l-213 351
l-88 -109v-163q0 -35 3 -41t19 -8l55 -5v-25h-219v25l55 5q16 2 19 8t3 41v571h-36q-98 0 -136.5 -60.5t-25.5 -172.5z" />
    <glyph glyph-name="uni0136.alt" horiz-adv-x="790" 
d="M24 433q-12 64 8.5 120.5t74 91.5t142.5 35h176v-24l-55 -5q-16 -1 -19 -7.5t-3 -41.5v-308l255 318q22 27 22 32.5t-17 6.5l-49 5v24h185v-24l-49 -5q-9 -1 -14.5 -3t-12.5 -10t-22 -26l-168 -209l202 -324q15 -23 22 -33t13 -12.5t16 -3.5l50 -5v-25h-132l-213 351
l-88 -109v-163q0 -35 3 -41t19 -8l55 -5v-25h-219v25l55 5q16 2 19 8t3 41v571h-36q-98 0 -136.5 -60.5t-25.5 -172.5zM447 -238l-20 14q17 36 24 69t7 78h66q-13 -52 -29.5 -87.5t-47.5 -73.5z" />
    <glyph glyph-name="L.alt" horiz-adv-x="658" 
d="M622 161h25v-161h-441v25l55 5q16 2 19 8t3 41v571h-36q-98 0 -136.5 -60.5t-25.5 -172.5l-61 16q-12 64 8.5 120.5t74 91.5t142.5 35h176v-25l-55 -5q-16 -1 -19 -7.5t-3 -41.5v-571h193q35 0 42.5 4.5t11.5 21.5z" />
    <glyph glyph-name="Lacute.alt" horiz-adv-x="658" 
d="M622 161h25v-161h-441v25l55 5q16 2 19 8t3 41v571h-36q-98 0 -136.5 -60.5t-25.5 -172.5l-61 16q-12 64 8.5 120.5t74 91.5t142.5 35h176v-25l-55 -5q-16 -1 -19 -7.5t-3 -41.5v-571h193q35 0 42.5 4.5t11.5 21.5zM325 772l-19 19q27 34 42.5 65t28.5 77h76
q-54 -88 -128 -161z" />
    <glyph glyph-name="Lcaron.alt" horiz-adv-x="658" 
d="M622 161h25v-161h-441v25l55 5q16 2 19 8t3 41v571h-36q-98 0 -136.5 -60.5t-25.5 -172.5l-61 16q-12 64 8.5 120.5t74 91.5t142.5 35h176v-25l-55 -5q-16 -1 -19 -7.5t-3 -41.5v-571h193q35 0 42.5 4.5t11.5 21.5zM526 466h-19v214h64q-9 -52 -20 -105t-25 -109z" />
    <glyph glyph-name="uni013B.alt" horiz-adv-x="658" 
d="M622 161h25v-161h-441v25l55 5q16 2 19 8t3 41v571h-36q-98 0 -136.5 -60.5t-25.5 -172.5l-61 16q-12 64 8.5 120.5t74 91.5t142.5 35h176v-25l-55 -5q-16 -1 -19 -7.5t-3 -41.5v-571h193q35 0 42.5 4.5t11.5 21.5zM404 -238l-20 14q17 36 24 69t7 78h66
q-13 -52 -29.5 -87.5t-47.5 -73.5z" />
    <glyph glyph-name="M.alt" horiz-adv-x="1007" 
d="M955 25v-25h-219v25l55 5q16 2 19 8.5t3 40.5v559l-225 -558h-42l-228 558v-559q0 -34 3 -40.5t19 -8.5l55 -5v-25h-189v25l55 5q16 2 19 8.5t3 40.5v571h-36q-98 0 -136.5 -60.5t-25.5 -172.5l-61 16q-12 64 8.5 120.5t74 91.5t142.5 35h121l215 -526l210 526h160v-25
l-55 -5q-16 -1 -19 -7.5t-3 -41.5v-522q0 -34 3 -40.5t19 -8.5z" />
    <glyph glyph-name="N.alt" horiz-adv-x="849" 
d="M613 655v25h189v-25l-55 -5q-16 -1 -19 -7.5t-3 -41.5v-601h-45l-362 630v-551q0 -34 3 -40.5t19 -8.5l55 -5v-25h-189v25l55 5q16 2 19 8.5t3 40.5v571h-36q-98 0 -136.5 -60.5t-25.5 -172.5l-61 16q-12 64 8.5 120.5t74 91.5t142.5 35h111l330 -574v495q0 35 -3 41.5
t-19 7.5z" />
    <glyph glyph-name="Nacute.alt" horiz-adv-x="849" 
d="M613 655v25h189v-25l-55 -5q-16 -1 -19 -7.5t-3 -41.5v-601h-45l-362 630v-551q0 -34 3 -40.5t19 -8.5l55 -5v-25h-189v25l55 5q16 2 19 8.5t3 40.5v571h-36q-98 0 -136.5 -60.5t-25.5 -172.5l-61 16q-12 64 8.5 120.5t74 91.5t142.5 35h111l330 -574v495q0 35 -3 41.5
t-19 7.5zM505 772l-19 19q27 34 42.5 65t28.5 77h76q-54 -88 -128 -161z" />
    <glyph glyph-name="Ncaron.alt" horiz-adv-x="849" 
d="M613 655v25h189v-25l-55 -5q-16 -1 -19 -7.5t-3 -41.5v-601h-45l-362 630v-551q0 -34 3 -40.5t19 -8.5l55 -5v-25h-189v25l55 5q16 2 19 8.5t3 40.5v571h-36q-98 0 -136.5 -60.5t-25.5 -172.5l-61 16q-12 64 8.5 120.5t74 91.5t142.5 35h111l330 -574v495q0 35 -3 41.5
t-19 7.5zM633 919q-24 -26 -41 -46t-30.5 -42t-29.5 -54h-52q-16 32 -29.5 54t-30 42t-41.5 46l19 19q32 -28 59.5 -54t51.5 -52q23 26 48.5 52t56.5 54z" />
    <glyph glyph-name="uni0145.alt" horiz-adv-x="849" 
d="M613 655v25h189v-25l-55 -5q-16 -1 -19 -7.5t-3 -41.5v-601h-45l-362 630v-551q0 -34 3 -40.5t19 -8.5l55 -5v-25h-189v25l55 5q16 2 19 8.5t3 40.5v571h-36q-98 0 -136.5 -60.5t-25.5 -172.5l-61 16q-12 64 8.5 120.5t74 91.5t142.5 35h111l330 -574v495q0 35 -3 41.5
t-19 7.5zM458 -238l-20 14q17 36 24 69t7 78h66q-13 -52 -29.5 -87.5t-47.5 -73.5z" />
    <glyph glyph-name="Eng.alt" horiz-adv-x="849" 
d="M747 650q-16 -1 -19 -7.5t-3 -41.5v-632q0 -48 -14 -92t-48.5 -72t-95.5 -28q-31 0 -61.5 11t-52 39.5t-26.5 78.5l50 15q2 -48 15.5 -72.5t33 -33t39.5 -8.5q29 0 50 14.5t33 50t12 97.5v66l-342 595v-551q0 -34 3 -40.5t19 -8.5l55 -5v-25h-189v25l55 5q16 2 19 8.5
t3 40.5v571h-36q-98 0 -136.5 -60.5t-25.5 -172.5l-61 16q-12 64 8.5 120.5t74 91.5t142.5 35h111l330 -574v495q0 35 -3 41.5t-19 7.5l-55 5v25h189v-25z" />
    <glyph glyph-name="Ntilde.alt" horiz-adv-x="849" 
d="M613 655v25h189v-25l-55 -5q-16 -1 -19 -7.5t-3 -41.5v-601h-45l-362 630v-551q0 -34 3 -40.5t19 -8.5l55 -5v-25h-189v25l55 5q16 2 19 8.5t3 40.5v571h-36q-98 0 -136.5 -60.5t-25.5 -172.5l-61 16q-12 64 8.5 120.5t74 91.5t142.5 35h111l330 -574v495q0 35 -3 41.5
t-19 7.5zM577 786q-25 0 -44.5 14t-36 32.5t-32 32.5t-33.5 14t-31 -18.5t-14 -59.5h-29q2 65 24 96t56 31q26 0 45 -14t35 -32.5t31 -32.5t33 -14t31 19t14 59h29q-1 -65 -23.5 -96t-54.5 -31z" />
    <glyph glyph-name="P.alt" horiz-adv-x="712" 
d="M24 433q-12 64 8.5 120.5t74 91.5t142.5 35h229q92 0 142.5 -48.5t50.5 -129.5v-33q0 -81 -50.5 -130t-142.5 -49h-130v-211q0 -35 3 -41.5t19 -7.5l75 -5v-25h-239v25l55 5q16 2 19 8t3 41v571h-36q-98 0 -136.5 -60.5t-25.5 -172.5zM478 650h-130v-330h130
q62 0 93.5 33t31.5 106v53q0 72 -31.5 105t-93.5 33z" />
    <glyph glyph-name="R.alt" horiz-adv-x="762" 
d="M24 433q-12 64 8.5 120.5t74 91.5t142.5 35h219q92 0 142.5 -45.5t50.5 -122.5v-35q0 -63 -34 -106t-98 -57l131 -235q13 -23 19.5 -33t12.5 -12.5t16 -3.5l45 -5v-25h-127l-165 308h-113v-229q0 -35 3 -41t19 -8l55 -5v-25h-219v25l55 5q16 2 19 8t3 41v571h-36
q-98 0 -136.5 -60.5t-25.5 -172.5zM468 650h-120v-312h120q56 0 90.5 37.5t34.5 101.5v35q0 65 -34.5 101.5t-90.5 36.5z" />
    <glyph glyph-name="Racute.alt" horiz-adv-x="762" 
d="M24 433q-12 64 8.5 120.5t74 91.5t142.5 35h219q92 0 142.5 -45.5t50.5 -122.5v-35q0 -63 -34 -106t-98 -57l131 -235q13 -23 19.5 -33t12.5 -12.5t16 -3.5l45 -5v-25h-127l-165 308h-113v-229q0 -35 3 -41t19 -8l55 -5v-25h-219v25l55 5q16 2 19 8t3 41v571h-36
q-98 0 -136.5 -60.5t-25.5 -172.5zM468 650h-120v-312h120q56 0 90.5 37.5t34.5 101.5v35q0 65 -34.5 101.5t-90.5 36.5zM449 772l-19 19q27 34 42.5 65t28.5 77h76q-54 -88 -128 -161z" />
    <glyph glyph-name="Rcaron.alt" horiz-adv-x="762" 
d="M24 433q-12 64 8.5 120.5t74 91.5t142.5 35h219q92 0 142.5 -45.5t50.5 -122.5v-35q0 -63 -34 -106t-98 -57l131 -235q13 -23 19.5 -33t12.5 -12.5t16 -3.5l45 -5v-25h-127l-165 308h-113v-229q0 -35 3 -41t19 -8l55 -5v-25h-219v25l55 5q16 2 19 8t3 41v571h-36
q-98 0 -136.5 -60.5t-25.5 -172.5zM468 650h-120v-312h120q56 0 90.5 37.5t34.5 101.5v35q0 65 -34.5 101.5t-90.5 36.5zM577 919q-24 -26 -41 -46t-30.5 -42t-29.5 -54h-52q-16 32 -29.5 54t-30 42t-41.5 46l19 19q32 -28 59.5 -54t51.5 -52q23 26 48.5 52t56.5 54z" />
    <glyph glyph-name="uni0156.alt" horiz-adv-x="762" 
d="M24 433q-12 64 8.5 120.5t74 91.5t142.5 35h219q92 0 142.5 -45.5t50.5 -122.5v-35q0 -63 -34 -106t-98 -57l131 -235q13 -23 19.5 -33t12.5 -12.5t16 -3.5l45 -5v-25h-127l-165 308h-113v-229q0 -35 3 -41t19 -8l55 -5v-25h-219v25l55 5q16 2 19 8t3 41v571h-36
q-98 0 -136.5 -60.5t-25.5 -172.5zM468 650h-120v-312h120q56 0 90.5 37.5t34.5 101.5v35q0 65 -34.5 101.5t-90.5 36.5zM449 -238l-20 14q17 36 24 69t7 78h66q-13 -52 -29.5 -87.5t-47.5 -73.5z" />
    <glyph glyph-name="S.alt" horiz-adv-x="725" 
d="M24 -16q-9 54 10 101t66 76.5t119 29.5h67q6 -67 30.5 -104.5t60.5 -52t75 -14.5q71 0 114 36t43 103q0 56 -33.5 93t-116.5 59l-53 14q-82 22 -122.5 70.5t-40.5 116.5q0 46 21.5 86.5t66.5 66t116 25.5q79 0 127 -29.5t66.5 -76.5t8.5 -101l-63 -16q11 93 -22 143.5
t-116 50.5q-67 0 -106 -34.5t-39 -99.5q0 -51 29 -85.5t108 -55.5l53 -14q87 -23 131.5 -73.5t44.5 -124.5q0 -51 -23.5 -92.5t-71.5 -66.5t-122 -25q-48 0 -93 14.5t-78.5 52t-47.5 104.5h-16q-73 0 -107.5 -50t-24.5 -143z" />
    <glyph glyph-name="Sacute.alt" horiz-adv-x="725" 
d="M24 -16q-9 54 10 101t66 76.5t119 29.5h67q6 -67 30.5 -104.5t60.5 -52t75 -14.5q71 0 114 36t43 103q0 56 -33.5 93t-116.5 59l-53 14q-82 22 -122.5 70.5t-40.5 116.5q0 46 21.5 86.5t66.5 66t116 25.5q79 0 127 -29.5t66.5 -76.5t8.5 -101l-63 -16q11 93 -22 143.5
t-116 50.5q-67 0 -106 -34.5t-39 -99.5q0 -51 29 -85.5t108 -55.5l53 -14q87 -23 131.5 -73.5t44.5 -124.5q0 -51 -23.5 -92.5t-71.5 -66.5t-122 -25q-48 0 -93 14.5t-78.5 52t-47.5 104.5h-16q-73 0 -107.5 -50t-24.5 -143zM448 772l-19 19q27 34 42.5 65t28.5 77h76
q-54 -88 -128 -161z" />
    <glyph glyph-name="Scaron.alt" horiz-adv-x="725" 
d="M24 -16q-9 54 10 101t66 76.5t119 29.5h67q6 -67 30.5 -104.5t60.5 -52t75 -14.5q71 0 114 36t43 103q0 56 -33.5 93t-116.5 59l-53 14q-82 22 -122.5 70.5t-40.5 116.5q0 46 21.5 86.5t66.5 66t116 25.5q79 0 127 -29.5t66.5 -76.5t8.5 -101l-63 -16q11 93 -22 143.5
t-116 50.5q-67 0 -106 -34.5t-39 -99.5q0 -51 29 -85.5t108 -55.5l53 -14q87 -23 131.5 -73.5t44.5 -124.5q0 -51 -23.5 -92.5t-71.5 -66.5t-122 -25q-48 0 -93 14.5t-78.5 52t-47.5 104.5h-16q-73 0 -107.5 -50t-24.5 -143zM576 919q-24 -26 -41 -46t-30.5 -42t-29.5 -54
h-52q-16 32 -29.5 54t-30 42t-41.5 46l19 19q32 -28 59.5 -54t51.5 -52q23 26 48.5 52t56.5 54z" />
    <glyph glyph-name="Scedilla.alt" horiz-adv-x="725" 
d="M552 -141q0 -38 -29 -60t-76 -22q-37 0 -67 17.5t-38 60.5l44 13q4 -36 19 -51t40 -15q29 0 41.5 16t12.5 41q0 24 -13 39.5t-48 15.5q-15 0 -25 -2l-9 25l22 54q-43 3 -82.5 19.5t-68.5 53t-42 97.5h-16q-73 0 -107.5 -50t-24.5 -143l-61 16q-9 54 10 101t66 76.5
t119 29.5h67q6 -67 30.5 -104.5t60.5 -52t75 -14.5q71 0 114 36t43 103q0 56 -33.5 93t-116.5 59l-53 14q-82 22 -122.5 70.5t-40.5 116.5q0 46 21.5 86.5t66.5 66t116 25.5q79 0 127 -29.5t66.5 -76.5t8.5 -101l-63 -16q11 93 -22 143.5t-116 50.5q-67 0 -106 -34.5
t-39 -99.5q0 -51 29 -85.5t108 -55.5l53 -14q87 -23 131.5 -73.5t44.5 -124.5q0 -51 -23.5 -92.5t-70 -66.5t-117.5 -25l-21 -50h4q50 0 80.5 -21.5t30.5 -59.5z" />
    <glyph glyph-name="Scircumflex.alt" horiz-adv-x="725" 
d="M24 -16q-9 54 10 101t66 76.5t119 29.5h67q6 -67 30.5 -104.5t60.5 -52t75 -14.5q71 0 114 36t43 103q0 56 -33.5 93t-116.5 59l-53 14q-82 22 -122.5 70.5t-40.5 116.5q0 46 21.5 86.5t66.5 66t116 25.5q79 0 127 -29.5t66.5 -76.5t8.5 -101l-63 -16q11 93 -22 143.5
t-116 50.5q-67 0 -106 -34.5t-39 -99.5q0 -51 29 -85.5t108 -55.5l53 -14q87 -23 131.5 -73.5t44.5 -124.5q0 -51 -23.5 -92.5t-71.5 -66.5t-122 -25q-48 0 -93 14.5t-78.5 52t-47.5 104.5h-16q-73 0 -107.5 -50t-24.5 -143zM576 791l-19 -19q-32 28 -59.5 54t-51.5 52
q-22 -26 -48 -51.5t-57 -54.5l-19 19q25 26 41.5 46t30 42t29.5 54h52q16 -32 29.5 -54t30.5 -42t41 -46z" />
    <glyph glyph-name="uni0218.alt" horiz-adv-x="725" 
d="M24 -16q-9 54 10 101t66 76.5t119 29.5h67q6 -67 30.5 -104.5t60.5 -52t75 -14.5q71 0 114 36t43 103q0 56 -33.5 93t-116.5 59l-53 14q-82 22 -122.5 70.5t-40.5 116.5q0 46 21.5 86.5t66.5 66t116 25.5q79 0 127 -29.5t66.5 -76.5t8.5 -101l-63 -16q11 93 -22 143.5
t-116 50.5q-67 0 -106 -34.5t-39 -99.5q0 -51 29 -85.5t108 -55.5l53 -14q87 -23 131.5 -73.5t44.5 -124.5q0 -51 -23.5 -92.5t-71.5 -66.5t-122 -25q-48 0 -93 14.5t-78.5 52t-47.5 104.5h-16q-73 0 -107.5 -50t-24.5 -143zM410 -238l-20 14q17 36 24 69t7 78h66
q-13 -52 -29.5 -87.5t-47.5 -73.5z" />
    <glyph glyph-name="T.alt" horiz-adv-x="628" 
d="M244 680h370v-157h-25l-27 101q-4 17 -11.5 21.5t-42.5 4.5h-122v-571q0 -35 3 -41t19 -8l55 -5v-25h-219v25l55 5q16 2 19 8t3 41v571h-79q-98 0 -136.5 -60.5t-25.5 -172.5l-61 16q-11 64 9 120.5t73.5 91.5t142.5 35z" />
    <glyph glyph-name="Tbar.alt" horiz-adv-x="628" 
d="M463 25v-25h-219v25l55 5q16 2 19 8t3 41v247h-146v29h146v295h-79q-98 0 -136.5 -60.5t-25.5 -172.5l-61 16q-11 64 9 120.5t73.5 91.5t142.5 35h370v-157h-25l-27 101q-4 17 -11.5 21.5t-42.5 4.5h-122v-295h146v-29h-146v-247q0 -35 3 -41t19 -8z" />
    <glyph glyph-name="Tcaron.alt" horiz-adv-x="628" 
d="M244 680h370v-157h-25l-27 101q-4 17 -11.5 21.5t-42.5 4.5h-122v-571q0 -35 3 -41t19 -8l55 -5v-25h-219v25l55 5q16 2 19 8t3 41v571h-79q-98 0 -136.5 -60.5t-25.5 -172.5l-61 16q-11 64 9 120.5t73.5 91.5t142.5 35zM481 919q-24 -26 -41 -46t-30.5 -42t-29.5 -54
h-52q-16 32 -29.5 54t-30 42t-41.5 46l19 19q32 -28 59.5 -54t51.5 -52q23 26 48.5 52t56.5 54z" />
    <glyph glyph-name="uni0162.alt" horiz-adv-x="628" 
d="M244 680h370v-157h-25l-27 101q-4 17 -11.5 21.5t-42.5 4.5h-122v-571q0 -35 3 -41t19 -8l55 -5v-25h-219v25l55 5q16 2 19 8t3 41v571h-79q-98 0 -136.5 -60.5t-25.5 -172.5l-61 16q-11 64 9 120.5t73.5 91.5t142.5 35zM310 -238l-20 14q17 36 24 69t7 78h66
q-13 -52 -29.5 -87.5t-47.5 -73.5z" />
    <glyph glyph-name="uni021A.alt" horiz-adv-x="628" 
d="M244 680h370v-157h-25l-27 101q-4 17 -11.5 21.5t-42.5 4.5h-122v-571q0 -35 3 -41t19 -8l55 -5v-25h-219v25l55 5q16 2 19 8t3 41v571h-79q-98 0 -136.5 -60.5t-25.5 -172.5l-61 16q-11 64 9 120.5t73.5 91.5t142.5 35zM310 -238l-20 14q17 36 24 69t7 78h66
q-13 -52 -29.5 -87.5t-47.5 -73.5z" />
    <glyph glyph-name="U.alt" horiz-adv-x="830" 
d="M603 655v25h189v-25l-55 -5q-16 -1 -19 -7.5t-3 -41.5v-370q0 -109 -53.5 -175t-163.5 -66q-115 0 -170.5 71.5t-55.5 189.5v399h-36q-98 0 -136.5 -60.5t-25.5 -172.5l-61 16q-11 64 9 120.5t73.5 91.5t142.5 35h176v-25l-55 -5q-16 -1 -19 -7.5t-3 -41.5v-370
q0 -104 39.5 -157t127.5 -53q92 0 134 57t42 153v370q0 35 -3 41.5t-19 7.5z" />
    <glyph glyph-name="Uacute.alt" horiz-adv-x="830" 
d="M603 655v25h189v-25l-55 -5q-16 -1 -19 -7.5t-3 -41.5v-370q0 -109 -53.5 -175t-163.5 -66q-115 0 -170.5 71.5t-55.5 189.5v399h-36q-98 0 -136.5 -60.5t-25.5 -172.5l-61 16q-11 64 9 120.5t73.5 91.5t142.5 35h176v-25l-55 -5q-16 -1 -19 -7.5t-3 -41.5v-370
q0 -104 39.5 -157t127.5 -53q92 0 134 57t42 153v370q0 35 -3 41.5t-19 7.5zM506 772l-19 19q27 34 42.5 65t28.5 77h76q-54 -88 -128 -161z" />
    <glyph glyph-name="Ubreve.alt" horiz-adv-x="830" 
d="M603 655v25h189v-25l-55 -5q-16 -1 -19 -7.5t-3 -41.5v-370q0 -109 -53.5 -175t-163.5 -66q-115 0 -170.5 71.5t-55.5 189.5v399h-36q-98 0 -136.5 -60.5t-25.5 -172.5l-61 16q-11 64 9 120.5t73.5 91.5t142.5 35h176v-25l-55 -5q-16 -1 -19 -7.5t-3 -41.5v-370
q0 -104 39.5 -157t127.5 -53q92 0 134 57t42 153v370q0 35 -3 41.5t-19 7.5zM507 825q49 0 74.5 26t38.5 82l26 -7q-14 -81 -48 -117.5t-91 -36.5t-91 36.5t-48 117.5l26 7q14 -56 39 -82t74 -26z" />
    <glyph glyph-name="Ucircumflex.alt" horiz-adv-x="830" 
d="M603 655v25h189v-25l-55 -5q-16 -1 -19 -7.5t-3 -41.5v-370q0 -109 -53.5 -175t-163.5 -66q-115 0 -170.5 71.5t-55.5 189.5v399h-36q-98 0 -136.5 -60.5t-25.5 -172.5l-61 16q-11 64 9 120.5t73.5 91.5t142.5 35h176v-25l-55 -5q-16 -1 -19 -7.5t-3 -41.5v-370
q0 -104 39.5 -157t127.5 -53q92 0 134 57t42 153v370q0 35 -3 41.5t-19 7.5zM634 791l-19 -19q-32 28 -59.5 54t-51.5 52q-22 -26 -48 -51.5t-57 -54.5l-19 19q25 26 41.5 46t30 42t29.5 54h52q16 -32 29.5 -54t30.5 -42t41 -46z" />
    <glyph glyph-name="Udieresis.alt" horiz-adv-x="830" 
d="M603 655v25h189v-25l-55 -5q-16 -1 -19 -7.5t-3 -41.5v-370q0 -109 -53.5 -175t-163.5 -66q-115 0 -170.5 71.5t-55.5 189.5v399h-36q-98 0 -136.5 -60.5t-25.5 -172.5l-61 16q-11 64 9 120.5t73.5 91.5t142.5 35h176v-25l-55 -5q-16 -1 -19 -7.5t-3 -41.5v-370
q0 -104 39.5 -157t127.5 -53q92 0 134 57t42 153v370q0 35 -3 41.5t-19 7.5zM407 812q-19 0 -31 12.5t-12 31.5t12 31t31 12q20 0 32 -12t12 -31t-12 -31.5t-32 -12.5zM606 812q-19 0 -31 12.5t-12 31.5t12 31t31 12q20 0 32 -12t12 -31t-12 -31.5t-32 -12.5z" />
    <glyph glyph-name="Ugrave.alt" horiz-adv-x="830" 
d="M603 655v25h189v-25l-55 -5q-16 -1 -19 -7.5t-3 -41.5v-370q0 -109 -53.5 -175t-163.5 -66q-115 0 -170.5 71.5t-55.5 189.5v399h-36q-98 0 -136.5 -60.5t-25.5 -172.5l-61 16q-11 64 9 120.5t73.5 91.5t142.5 35h176v-25l-55 -5q-16 -1 -19 -7.5t-3 -41.5v-370
q0 -104 39.5 -157t127.5 -53q92 0 134 57t42 153v370q0 35 -3 41.5t-19 7.5zM508 772q-74 73 -128 161h76q13 -46 28.5 -77t42.5 -65z" />
    <glyph glyph-name="Uhungarumlaut.alt" horiz-adv-x="830" 
d="M603 655v25h189v-25l-55 -5q-16 -1 -19 -7.5t-3 -41.5v-370q0 -109 -53.5 -175t-163.5 -66q-115 0 -170.5 71.5t-55.5 189.5v399h-36q-98 0 -136.5 -60.5t-25.5 -172.5l-61 16q-11 64 9 120.5t73.5 91.5t142.5 35h176v-25l-55 -5q-16 -1 -19 -7.5t-3 -41.5v-370
q0 -104 39.5 -157t127.5 -53q92 0 134 57t42 153v370q0 35 -3 41.5t-19 7.5zM440 772l-21 15q17 32 30 66t25 80h71q-22 -42 -49.5 -84t-55.5 -77zM580 772l-21 15q17 32 30 66t25 80h71q-22 -42 -49.5 -84t-55.5 -77z" />
    <glyph glyph-name="Umacron.alt" horiz-adv-x="830" 
d="M603 655v25h189v-25l-55 -5q-16 -1 -19 -7.5t-3 -41.5v-370q0 -109 -53.5 -175t-163.5 -66q-115 0 -170.5 71.5t-55.5 189.5v399h-36q-98 0 -136.5 -60.5t-25.5 -172.5l-61 16q-11 64 9 120.5t73.5 91.5t142.5 35h176v-25l-55 -5q-16 -1 -19 -7.5t-3 -41.5v-370
q0 -104 39.5 -157t127.5 -53q92 0 134 57t42 153v370q0 35 -3 41.5t-19 7.5zM651 855v-43h-287v43h287z" />
    <glyph glyph-name="Uogonek.alt" horiz-adv-x="830" 
d="M603 655v25h189v-25l-55 -5q-16 -1 -19 -7.5t-3 -41.5v-370q0 -67 -18 -114t-53 -79q-29 -27 -60.5 -49t-53.5 -48.5t-22 -67.5q0 -32 14 -50.5t44 -18.5q26 0 45.5 19t29.5 65l44 -13q-15 -54 -50 -76t-73 -22q-46 0 -76 25t-30 71q0 42 29 69.5t65 51.5q-12 -2 -25 -3
t-27 -1q-115 0 -170.5 71.5t-55.5 189.5v399h-36q-98 0 -136.5 -60.5t-25.5 -172.5l-61 16q-11 64 9 120.5t73.5 91.5t142.5 35h176v-25l-55 -5q-16 -1 -19 -7.5t-3 -41.5v-370q0 -104 39.5 -157t127.5 -53q92 0 134 57t42 153v370q0 35 -3 41.5t-19 7.5z" />
    <glyph glyph-name="Uring.alt" horiz-adv-x="830" 
d="M603 655v25h189v-25l-55 -5q-16 -1 -19 -7.5t-3 -41.5v-370q0 -109 -53.5 -175t-163.5 -66q-115 0 -170.5 71.5t-55.5 189.5v399h-36q-98 0 -136.5 -60.5t-25.5 -172.5l-61 16q-11 64 9 120.5t73.5 91.5t142.5 35h176v-25l-55 -5q-16 -1 -19 -7.5t-3 -41.5v-370
q0 -104 39.5 -157t127.5 -53q92 0 134 57t42 153v370q0 35 -3 41.5t-19 7.5zM625 870v-11q0 -26 -14 -50t-40.5 -39.5t-63.5 -15.5t-63.5 15.5t-40.5 39.5t-14 50v11q0 26 14 49.5t40.5 39t63.5 15.5t63.5 -15.5t40.5 -39t14 -49.5zM574 877q0 34 -17.5 53t-49.5 19
q-31 0 -48.5 -19t-17.5 -53v-25q0 -34 17.5 -53.5t48.5 -19.5q32 0 49.5 19.5t17.5 53.5v25z" />
    <glyph glyph-name="Utilde.alt" horiz-adv-x="830" 
d="M603 655v25h189v-25l-55 -5q-16 -1 -19 -7.5t-3 -41.5v-370q0 -109 -53.5 -175t-163.5 -66q-115 0 -170.5 71.5t-55.5 189.5v399h-36q-98 0 -136.5 -60.5t-25.5 -172.5l-61 16q-11 64 9 120.5t73.5 91.5t142.5 35h176v-25l-55 -5q-16 -1 -19 -7.5t-3 -41.5v-370
q0 -104 39.5 -157t127.5 -53q92 0 134 57t42 153v370q0 35 -3 41.5t-19 7.5zM578 786q-25 0 -44.5 14t-36 32.5t-32 32.5t-33.5 14t-31 -18.5t-14 -59.5h-29q2 65 24 96t56 31q26 0 45 -14t35 -32.5t31 -32.5t33 -14t31 19t14 59h29q-1 -65 -23.5 -96t-54.5 -31z" />
    <glyph glyph-name="V.alt" horiz-adv-x="783" 
d="M11 433q-11 64 9 120.5t73.5 91.5t142.5 35h151v-25l-55 -5q-16 -1 -17 -8t9 -41l170 -535l158 497q42 131 88 205t95.5 104.5t99.5 30.5v-68q-34 0 -67.5 -12t-66.5 -45.5t-65 -95.5t-64 -162l-167 -520h-55l-208 650h-8q-98 0 -136.5 -60.5t-25.5 -172.5z" />
    <glyph glyph-name="W.alt" horiz-adv-x="1089" 
d="M11 433q-11 64 9 120.5t73.5 91.5t142.5 35h147v-25l-49 -5q-16 -1 -18 -6.5t5 -32.5l129 -525l177 594h48l174 -590l121 492q31 126 76 195.5t98 97.5t108 28v-68q-38 0 -74.5 -11.5t-70 -44.5t-63.5 -95.5t-55 -163.5l-129 -520h-50l-174 591l-177 -591h-51l-161 650
h-13q-98 0 -136.5 -60.5t-25.5 -172.5z" />
    <glyph glyph-name="Wacute.alt" horiz-adv-x="1089" 
d="M11 433q-11 64 9 120.5t73.5 91.5t142.5 35h147v-25l-49 -5q-16 -1 -18 -6.5t5 -32.5l129 -525l177 594h48l174 -590l121 492q31 126 76 195.5t98 97.5t108 28v-68q-38 0 -74.5 -11.5t-70 -44.5t-63.5 -95.5t-55 -163.5l-129 -520h-50l-174 591l-177 -591h-51l-161 650
h-13q-98 0 -136.5 -60.5t-25.5 -172.5zM641 772l-19 19q27 34 42.5 65t28.5 77h76q-54 -88 -128 -161z" />
    <glyph glyph-name="Wcircumflex.alt" horiz-adv-x="1089" 
d="M11 433q-11 64 9 120.5t73.5 91.5t142.5 35h147v-25l-49 -5q-16 -1 -18 -6.5t5 -32.5l129 -525l177 594h48l174 -590l121 492q31 126 76 195.5t98 97.5t108 28v-68q-38 0 -74.5 -11.5t-70 -44.5t-63.5 -95.5t-55 -163.5l-129 -520h-50l-174 591l-177 -591h-51l-161 650
h-13q-98 0 -136.5 -60.5t-25.5 -172.5zM769 791l-19 -19q-32 28 -59.5 54t-51.5 52q-22 -26 -48 -51.5t-57 -54.5l-19 19q25 26 41.5 46t30 42t29.5 54h52q16 -32 29.5 -54t30.5 -42t41 -46z" />
    <glyph glyph-name="Wdieresis.alt" horiz-adv-x="1089" 
d="M11 433q-11 64 9 120.5t73.5 91.5t142.5 35h147v-25l-49 -5q-16 -1 -18 -6.5t5 -32.5l129 -525l177 594h48l174 -590l121 492q31 126 76 195.5t98 97.5t108 28v-68q-38 0 -74.5 -11.5t-70 -44.5t-63.5 -95.5t-55 -163.5l-129 -520h-50l-174 591l-177 -591h-51l-161 650
h-13q-98 0 -136.5 -60.5t-25.5 -172.5zM542 812q-19 0 -31 12.5t-12 31.5t12 31t31 12q20 0 32 -12t12 -31t-12 -31.5t-32 -12.5zM741 812q-19 0 -31 12.5t-12 31.5t12 31t31 12q20 0 32 -12t12 -31t-12 -31.5t-32 -12.5z" />
    <glyph glyph-name="Wgrave.alt" horiz-adv-x="1089" 
d="M11 433q-11 64 9 120.5t73.5 91.5t142.5 35h147v-25l-49 -5q-16 -1 -18 -6.5t5 -32.5l129 -525l177 594h48l174 -590l121 492q31 126 76 195.5t98 97.5t108 28v-68q-38 0 -74.5 -11.5t-70 -44.5t-63.5 -95.5t-55 -163.5l-129 -520h-50l-174 591l-177 -591h-51l-161 650
h-13q-98 0 -136.5 -60.5t-25.5 -172.5zM643 772q-74 73 -128 161h76q13 -46 28.5 -77t42.5 -65z" />
    <glyph glyph-name="X.alt" horiz-adv-x="741" 
d="M11 433q-11 64 9 120.5t73.5 91.5t142.5 35h148v-25l-49 -5q-16 -1 -17 -6.5t15 -32.5l129 -222l135 222q17 26 16.5 32t-16.5 7l-49 5v25h179v-25l-49 -5q-14 -1 -20 -6t-23 -33l-155 -253l167 -289q16 -27 21.5 -32t20.5 -7l49 -5v-25h-214v25l49 5q16 2 17 7t-15 32
l-138 238l-146 -238q-16 -26 -16 -31.5t16 -7.5l49 -5v-25h-179v25l49 5q14 2 20.5 6.5t22.5 32.5l165 270l-181 311h-3q-98 0 -136.5 -60.5t-25.5 -172.5z" />
    <glyph glyph-name="Y.alt" horiz-adv-x="728" 
d="M11 433q-11 64 9 120.5t73.5 91.5t142.5 35h136v-25l-49 -5q-15 -1 -15.5 -6.5t12.5 -32.5l141 -283l141 283q14 27 13 32.5t-16 6.5l-49 5v25h178v-25l-49 -5q-16 -1 -21.5 -6.5t-19.5 -32.5l-162 -321v-211q0 -35 3 -41t19 -8l55 -5v-25h-219v25l55 5q16 2 19 8t3 41
v211l-183 360q-94 -2 -131.5 -62.5t-24.5 -170.5z" />
    </font>
</defs>
</svg>
