<?xml version="1.0" standalone="no"?>
<!DOCTYPE svg PUBLIC "-//W3C//DTD SVG 1.1//EN" "http://www.w3.org/Graphics/SVG/1.1/DTD/svg11.dtd" >
<svg xmlns="http://www.w3.org/2000/svg" xmlns:xlink="http://www.w3.org/1999/xlink" version="1.1">
<metadata>
Created by FontForge 20201107 at Fri Sep 27 16:04:36 2024
 By 
Silverdav Studio
</metadata>
<defs>
<font id="RamadhanMubarok-Regular" horiz-adv-x="647" >
  <font-face 
    font-family="Ramadhan Mubarok "
    font-weight="400"
    font-stretch="normal"
    units-per-em="2048"
    panose-1="0 0 0 0 0 0 0 0 0 0"
    ascent="1638"
    descent="-410"
    x-height="1073"
    cap-height="1571"
    bbox="-102 -479 13122 2310"
    underline-thickness="102"
    underline-position="-255"
    unicode-range="U+0020-1EF9"
  />
<missing-glyph horiz-adv-x="1024" 
d="M840 1638v-2048h-650v2048h650zM342 -268h340v67h-209l143 97h66v67h-340v-67h143l-143 -97v-67zM342 10h340v232h-340v-232zM342 365h340v231h-205v-115h70v47h67v-96h-204v164h-68v-231zM342 641h340v205h-68v-135h-272v-70zM342 758h205v143h135v68h-340v-68h135v-76
h-135v-67zM342 1024h340v70h-135v143h-205v-213zM342 1290h340v68h-135v76h135v67h-338v-67h133v-76h-135v-68zM410 78v96h204v-96h-204zM410 1094v73h67v-73h-67z" />
    <glyph glyph-name="ramadhan" unicode="RAMADHAN&#x20;MUBARAK" horiz-adv-x="13019" 
d="M4436 -197q-7 26 -76 35.5t-227 9.5h-705q-238 0 -375 97.5t-137 298.5v647q0 38 -28 73t-70 35q-11 0 -19.5 -1.5t-14.5 -6.5t-10.5 -8.5t-7 -12t-4.5 -13t-2.5 -16t-0.5 -16v-17.5v-17v-762h-185v762q0 38 -27.5 73t-66.5 35q-65 0 -65 -73v-797h-181v944
q26 0 39.5 -0.5t35 -3.5t34 -9t26 -17.5t21.5 -28.5q41 90 152 90q123 0 178 -105q45 105 170 105q100 0 152.5 -75.5t52.5 -201.5v-458q0 -167 1 -188q9 -132 73 -178q58 -42 171 -34l1024 70q42 1 65 -23.5t25.5 -59t-1 -69.5t-10.5 -59zM55 178q-40 91 -32 177t49 161.5
t87.5 132t84.5 89.5l37 32q-81 -117 -97 -240.5t33 -203.5q36 -62 102.5 -100t140 -47t145 0t127 38t77.5 70q55 91 55 325v777q72 16 109 16q43 0 88 -10v-594q0 -21 -1 -52t-1 -42q38 8 72 23t69.5 42.5t56.5 74.5t21 109v162q0 320 -305 320q-66 0 -114 -17.5t-72 -46
t-35 -56.5t-11 -56v-62q-53 35 -80.5 82.5t-28 96t23 96t66.5 83t108.5 56t142.5 16.5q230 -8 363.5 -144.5t133.5 -367.5v-166q0 -63 -24 -111.5t-56 -74t-75 -42.5t-69 -21.5t-50 -6.5q32 -4 62.5 -13t70.5 -31t69.5 -53t50.5 -85.5t21 -122.5v-414q0 -75 17 -130
t41 -80.5t48 -40t41 -16.5l17 -1h-198q-6 0 -17 1.5t-38 16t-48 40t-38 80.5t-17 130v420q0 67 -20 119.5t-55 85t-69.5 51.5t-74.5 31q-3 -108 -17.5 -193.5t-48 -173t-97 -158t-155.5 -120.5q-103 -56 -241 -64t-265 44.5t-180 158.5zM428 754l104 90l-104 123l135 110
l109 -129l-101 -90l101 -127l-129 -115zM1593 397l6 430q1 121 87.5 199t216.5 78q103 0 155.5 -75t52.5 -202v-698q-33 0 -56 3.5t-47 14t-39.5 33.5t-22.5 58q-19 -50 -71.5 -79.5t-105.5 -29.5q-78 -4 -128 72t-48 196zM1774 367q0 -44 24 -75.5t76 -31.5q61 0 61 107
v524q0 42 -24.5 75t-75.5 33q-30 0 -39.5 -29.5t-9.5 -78.5q-12 -414 -12 -524zM2421 1346l137 108l111 -131l-134 -115zM2564 1501l133 111l111 -129l-135 -115zM2703 1346l138 108l108 -131l-137 -115zM3217 397l7 430q1 121 87 199t216 78q104 0 156.5 -75t52.5 -202
v-698q-45 0 -74 6t-56 31.5t-36 71.5q-19 -50 -71 -79.5t-105 -29.5q-78 -4 -128.5 72t-48.5 196zM3398 367q0 -44 24 -75.5t76 -31.5q61 0 61 107v524q0 42 -24.5 75t-75.5 33q-30 0 -39.5 -29.5t-9.5 -78.5q-12 -414 -12 -524zM3858 397v430q0 120 89 198.5t219 78.5
q5 0 16 -3t16 -3v159q0 75 -16.5 130.5t-40 80.5t-47.5 40t-40 16l-17 2h184q6 0 17 -1.5t38 -16.5t48 -40t38 -80.5t17 -130.5v-1128q-54 0 -89 9.5t-55 39.5q-64 -49 -164 -49q-106 0 -159.5 72t-53.5 196zM4039 336q0 -40 27.5 -74.5t68.5 -34.5q63 0 63 72v592
q0 40 -28.5 74t-65.5 34q-14 0 -24 -3t-17 -6.5t-12 -12t-7.5 -13t-3.5 -17t-1 -17.5v-20v-19v-555zM4502 129v1128q0 72 16.5 125.5t40 78t46.5 38.5t39 15l17 2h183q-7 0 -17.5 -1.5t-38 -15.5t-48.5 -38.5t-38.5 -78t-17.5 -125.5v-200q58 47 129 47q103 0 157 -75.5
t54 -201.5v-583q0 -54 9 -97.5t23 -70.5t31 -46.5t33.5 -28.5t30.5 -14.5t23 -6.5h9h-182q-6 0 -17 1.5t-38 16t-47.5 39t-37.5 79t-17 128.5v647q0 38 -28.5 73t-70.5 35q-36 0 -48.5 -19t-12.5 -54v-797h-182zM4594 -55l151 88l90 -152l-157 -90zM5143 397l6 430
q1 121 87 199t216 78q104 0 156.5 -75t52.5 -202v-698q-45 0 -74 6t-56 31.5t-36 71.5q-19 -50 -71 -79.5t-105 -29.5q-78 -4 -128 72t-48 196zM5323 367q0 -44 24 -75.5t76 -31.5q62 0 62 107v524q0 42 -25 75t-76 33q-30 0 -39.5 -29.5t-9.5 -78.5q-12 -414 -12 -524z
M5786 127v946q54 0 91 -11t58 -46q41 84 158 84q101 0 155 -76t54 -203v-665q0 -43 30 -80t70 -37q11 0 19.5 2t14.5 7t10.5 9t7 13t4.5 14t2.5 17.5t0.5 17.5v19v18q0 70 7 112t29 75t61 50.5t104 26.5v-205q0 -119 -97 -197.5t-235 -78.5q-101 0 -155 75t-54 201v678
q0 36 -29 72t-69 36q-63 0 -63 -81v-793h-174zM6445 686l137 111l115 -135l-135 -113zM7266 182q-40 90 -32 175t49 159.5t87.5 130.5t83.5 89l38 32q-81 -112 -97 -236.5t35 -203.5q44 -78 133.5 -118.5t180 -38.5t170 33t106.5 83q55 112 55 438v846l199 -82l-2 -100
q21 36 56 71t76.5 63t85 38.5t79.5 2t61 -52t29 -118.5q27 45 73 87t99 66t100 22t78 -53.5t31 -152.5v-1268q0 -77 16 -133.5t38 -82t44.5 -40.5t38.5 -16l16 -2h-192q-7 0 -17.5 1.5t-38.5 16.5t-49.5 40.5t-39 82t-17.5 133.5v1223q0 66 -46 69q-44 3 -90 -46
q-32 -34 -44 -78v-1168h-201v1223q0 56 -42 53q-44 -2 -96 -55q-48 -48 -48 -86l2 -430q1 -84 -3 -151t-15 -144t-33.5 -139.5t-57 -124t-88.5 -112.5t-125 -89q-77 -41 -178.5 -55.5t-200 -1t-183.5 65t-124 134.5zM7639 752l100 88l-100 125l133 116l111 -137l-103 -88
l103 -127l-135 -108zM9161 377v696h184v-758q0 -39 26.5 -74.5t65.5 -35.5q37 0 50.5 19t13.5 52v797h184v-944q-63 0 -100.5 11t-59.5 48q-45 -88 -153 -88q-102 0 -156.5 76t-54.5 201zM9808 129v1128q0 75 16.5 130.5t40.5 80.5t48 40t41 16l16 2h178q-6 0 -16.5 -1.5
t-37.5 -16.5t-47.5 -40t-37.5 -80.5t-17 -130.5v-200q47 47 125 47q103 0 159 -76t56 -201v-430q0 -109 -76.5 -188.5t-175.5 -79.5q-70 0 -119 55q-22 -35 -58.5 -45t-94.5 -10zM9992 336q0 -41 27.5 -75t64.5 -34q10 0 18.5 2t15 4t11.5 8t8 9t5 12t3.5 12.5t2 15
t0.5 14.5v16.5v15.5v555q0 39 -26 73.5t-66 34.5q-38 0 -51 -19.5t-13 -53.5v-590zM10455 397l6 430q1 121 87 199t216 78q104 0 156.5 -75t52.5 -202v-698q-45 0 -74 6t-56 31.5t-36 71.5q-19 -50 -71 -79.5t-105 -29.5q-78 -4 -128 72t-48 196zM10635 367
q0 -44 24.5 -75.5t76.5 -31.5q61 0 61 107v524q0 42 -24.5 75t-75.5 33q-30 0 -39.5 -29.5t-9.5 -78.5q-13 -448 -13 -524zM11098 129v944q36 0 57 -2.5t46.5 -11.5t41.5 -30t25 -56q17 59 60.5 86.5t117.5 27.5q23 0 39 -6v-159h-127q-36 0 -57 -33t-21 -78v-682h-182z
M11565 397v430q0 121 88 199t219 78q102 0 157.5 -76t55.5 -201v-430q0 -118 -88 -193t-219 -75q-104 0 -158.5 72t-54.5 196zM11575 1346l131 108l119 -131l-135 -115zM11745 336q0 -39 27.5 -74t66.5 -35q10 0 18 2t14.5 4t11 8t7.5 9t5.5 12t3.5 12.5t1.5 15t0.5 14.5v16
v16v555q0 40 -27.5 74t-64.5 34q-10 0 -18.5 -2t-15 -4t-11.5 -8t-8 -9t-5 -12t-3.5 -12.5t-2 -15t-0.5 -14.5v-16v-15v-555zM11833 1346l138 108l114 -131l-135 -115zM12208 127v1130q0 52 8.5 94.5t22.5 68.5t31 45t34 28t31 14t23 5l8 1h182q-7 0 -17.5 -1.5t-38 -15.5
t-48.5 -38t-38.5 -76.5t-17.5 -124.5v-530q51 -15 99 -4q22 7 35.5 17t18.5 26.5t6 27.5t1 34v10v235h182v-170q0 -133 -104 -211q104 -61 104 -246v-290q0 -43 29 -80t66 -37q19 0 32 7t19.5 15t9.5 25.5t3.5 27.5t0.5 32v10q0 56 4 92.5t15.5 68t34 50.5t57 32t86.5 21
v-205q0 -119 -96.5 -197.5t-227.5 -78.5q-107 0 -161 74.5t-54 201.5v299q0 40 -28.5 74.5t-65.5 34.5h-66v-496h-180zM12878 686l133 111l111 -135l-134 -113z" />
    <glyph glyph-name=".notdef" horiz-adv-x="1024" 
d="M840 1638v-2048h-650v2048h650zM342 -268h340v67h-209l143 97h66v67h-340v-67h143l-143 -97v-67zM342 10h340v232h-340v-232zM342 365h340v231h-205v-115h70v47h67v-96h-204v164h-68v-231zM342 641h340v205h-68v-135h-272v-70zM342 758h205v143h135v68h-340v-68h135v-76
h-135v-67zM342 1024h340v70h-135v143h-205v-213zM342 1290h340v68h-135v76h135v67h-338v-67h133v-76h-135v-68zM410 78v96h204v-96h-204zM410 1094v73h67v-73h-67z" />
    <glyph glyph-name=".null" horiz-adv-x="0" 
 />
    <glyph glyph-name="nonmarkingreturn" horiz-adv-x="682" 
 />
    <glyph glyph-name="space" unicode=" " horiz-adv-x="307" 
 />
    <glyph glyph-name="space" unicode="&#xa0;" horiz-adv-x="307" 
 />
    <glyph glyph-name="ampersand" unicode="&#x26;" horiz-adv-x="1642" 
d="M141 586q-54 -12 -81 32t-17 74q7 15 14 15t11 -7q27 -43 65 -43q38 -3 62 21q20 19 -2 29l-35 12q-34 12 -55.5 31.5t-22.5 50.5q-3 37 16.5 75.5t50.5 66t67 48.5t65.5 22t46.5 -12q11 -12 15.5 -19t8.5 -23t-2 -33q-4 -24 -32 -67.5t-46 -61.5q-19 -9 -24 -9t-19 9
q-30 30 -16 39q35 19 80 90q11 20 10.5 32.5t-9.5 13.5t-22 -5q-25 -17 -59 -50.5t-49 -64.5q-17 -40 -15 -55t21 -31q8 -6 32.5 -14.5t40.5 -20t17 -29.5q0 -33 -30 -66t-87 -50zM158 535q-4 26 8 27q3 1 6 -3q5 -5 19 -7t40 -1.5t43 1t53 2.5t46 3q41 54 99 82.5t85 5.5
q13 -18 15.5 -26.5t-1.5 -36.5q-3 -21 -20 -48.5t-33 -41.5q-13 -10 -18 -9t-15 9l-2 2l-6 6q-12 18 -50.5 18.5t-77.5 -9t-83 -20.5t-57 -12q-26 0 -38.5 22.5t-12.5 35.5zM283 739q6 16 26 62q19 29 25 39q11 26 17.5 30t25.5 -6q13 -9 14 -15.5t-10 -19.5
q-23 -28 -43 -79q-16 -31 -12 -35q1 0 55 51l35 47q6 13 25 55.5t34 73.5q3 9 4.5 15.5t1.5 9t0.5 4t3.5 2.5q6 6 18 -8t15 -27q2 -15 -16 -59q-18 -26 -55 -105.5t-27 -89.5q7 -3 40.5 48t41.5 69l14 22q0 2 1 5.5t1 5.5q16 36 28 42.5t21 -4.5q27 -26 21 -32
q-20 -20 -31 -62q-5 -17 -5 -36.5t2 -30.5l3 -11q15 55 58 121t63 82q23 21 59 -8q9 -12 2 -16q-28 -20 -43 -35q16 13 29.5 20.5t19.5 10t7 4.5q2 2 1 5.5t-3 7.5l-2 3q20 4 51 -27q16 -16 4 -47q-6 -20 -17.5 -36t-21.5 -19q-11 0 -24.5 7.5t-18.5 19.5q-11 -36 -4 -62
q3 -13 19.5 -15.5t31.5 11.5q8 7 18 20.5t25.5 38t17.5 27.5l13 25q-17 11 -17 41q0 12 4 16q2 2 4.5 0t9 -5t15.5 -3q14 0 36 7.5t34 16.5q15 4 15.5 4t12.5 -8q10 -8 11 -12t-9 -23q-6 -14 -22 -43t-21 -38q-10 -33 -10 -41q5 -2 15.5 10.5t19.5 30.5q4 7 14.5 20.5
t12.5 17.5l10 17q20 34 41 61q30 34 59 27q14 -7 27 -23q15 28 39 82q4 9 6 15.5t2 9t0.5 5t3.5 5.5q6 3 17 -11.5t14 -27.5q1 -4 1.5 -6.5t-1 -7.5t-3.5 -9t-7 -15t-9 -21q-1 -3 -12.5 -25.5t-23.5 -47.5t-24 -52t-18 -46.5t-2 -23.5q1 -1 3 0t5 4t6 6.5t7 9t7 10t8 11.5
t8 12.5t8 13t8 11.5l18 33q22 46 49 76q31 38 62 28q11 -4 23 -15.5t12 -23.5v-4l4 8q4 4 8 0q1 -1 4 -3.5t4 -4t3.5 -4.5t3.5 -5t1.5 -4.5t-1 -5.5t-3.5 -5q-19 -22 -35 -70q-11 -22 -4 -22q2 0 4 2q10 8 28 30t30 45l12 19q1 1 2 4t2 4q11 28 20 39.5t15.5 11t15.5 -7.5
q23 -27 19 -31q-17 -17 -31 -63q-5 -17 -5 -36.5t2 -30.5l3 -11q18 55 61 122t60 81q16 11 27.5 9.5t31.5 -15.5q9 -10 9 -12t-11 -9q-25 -17 -45 -39q-33 -33 -58 -75.5t-32 -69.5q-3 -8 -4.5 -16t-1.5 -11t-1 -6.5t-3 -2.5t-8 1q-28 0 -52 31q-2 2 -20 43q0 7 11.5 36
t13.5 35q0 2 -2 0q-18 -51 -54 -94q-1 -2 -4 -5q-9 -12 -15 -18t-16 -14t-19 -6.5t-17 12.5q-12 20 -19 48q-26 -47 -43 -64q-10 -11 -20.5 -5.5t-18.5 21.5q-6 6 17 62l-21 -39q-23 -50 -47 -74q-23 -28 -55 4q-23 23 -23 58q-20 -30 -33 -43q-11 -12 -24 -1.5t-21 33.5
q-7 7 21 62q-17 -27 -19 -35q-40 -69 -57 -74h-4q-10 0 -25 11q-17 21 -17.5 35t11.5 40l39 82q-30 -26 -53 -28q4 -2 14 -2q-9 -27 -12 -33q-35 -78 -72 -113q-13 -16 -30 -16q-18 3 -49 24t-37 35q-7 12 -2.5 41t18.5 53q-31 -33 -54 -72t-28 -61q-4 -10 -5.5 -20
t-1.5 -11.5t-3 -4.5t-10 1q-27 0 -52 31q-12 12 -18 47q0 25 18 66v2q-5 -14 -43 -88q-11 -21 -31 -47t-20 -27q-14 -14 -22.5 -13t-24.5 17q-12 14 -18 39q-4 11 30 66q2 2 2 6l-2 -2q-16 -25 -37 -51t-24 -31q-12 -9 -20.5 -8.5t-18.5 12.5q-17 17 -20 26.5t4 36.5z
M322 379q4 8 9 10.5t8.5 1t4.5 -3.5q29 -29 41 -29q36 -8 56 10q16 16 -7 27q-1 0 -13.5 4.5t-22.5 9t-22.5 13t-21 21.5t-10.5 30q0 23 4 35q47 6 68 -4q-15 -37 12 -64q6 -4 23 -11t27.5 -15.5t10.5 -22.5q3 -30 -19.5 -59.5t-61.5 -38.5q-46 -13 -70.5 25.5t-15.5 60.5z
M369 911q16 28 16 56q2 16 35 -4q10 -16 11.5 -20.5t-3.5 -22.5q-12 -24 -29 -41q-6 -9 -22 0q-9 9 -10 11.5t2 20.5zM446 557q23 -9 33 -25q25 11 45 50q17 24 9 32.5t-27 -0.5q-39 -33 -60 -57zM455 178q5 32 21 46.5t44 25.5q57 15 232.5 27t261.5 12q94 3 116 0.5
t25 -17.5q6 -13 5 -14.5t-12 -0.5q-12 1 -20 1q-47 6 -217 -12q-184 -15 -297 -43q-55 -9 -120 -43q-21 -18 -33 -15.5t-6 33.5zM485 453q2 2 7.5 0t9.5 0q29 7 55 28q50 32 55 47l2 2q-30 0 -30 37q0 21 8 28q3 2 4 -1q12 -20 51 -12l2 4q21 44 21 51q-2 12 1.5 15t9 -0.5
t9.5 -10.5q14 -27 10 -35v-4q8 3 49 19.5t72 27t47 10.5q25 0 40.5 -12t15.5 -31q4 -22 -11 -27q-3 -1 -4 1q-16 16 -59 16q-17 0 -55 -12.5t-86 -31.5t-60 -23q21 3 20 -6q0 -4 -3 -5q-16 -24 -19 -36q-14 -24 -30 -59t-13 -42q8 -22 45 40q2 3 4 7l17 25q37 59 43 76
q3 18 7.5 19.5t16.5 -11.5q23 -26 19 -39q-1 -6 -19 -33.5t-32 -60.5q-17 -41 -9 -39q9 0 47 51q9 16 19.5 33.5t17 28t13 21.5t10 17.5t7 12.5t4.5 9.5t1 6.5q0 8 7 9q7 0 16 -13q11 -11 16 -21q0 -2 -16 -34q0 -1 -9 -20q-42 -81 -32 -82q2 0 6 3q48 63 59 80l8 15
q17 36 45 67q33 35 56 27q20 -7 30 -23q6 11 19.5 38.5t21.5 43.5q2 9 3 16.5t1.5 10t2.5 4.5q14 9 36 -35q3 -15 -20 -59q-17 -26 -54 -107.5t-24 -87.5q2 -2 17 18q8 11 40 60l23 41l6 14q9 12 23 39q4 5 8.5 12t6.5 9.5t5 6t6 3t7 -2t10 -5.5q12 -5 15 -9.5t1 -9
t-12 -16.5q-2 -2 -43 -82q-14 -29 -13 -31q8 0 56 51q8 10 21 28t18 24q20 38 32 30q40 61 78 15q10 -15 9 -33t-7 -33l-6 -16q63 38 64 105q2 45 -22 61q-9 6 -19 2q-12 -4 -12 5q1 16 26 31q7 4 14 7q18 5 32 0.5t20 -15.5q18 -50 5.5 -100t-53.5 -89.5t-90 -45.5
q14 0 17.5 -4.5t-2.5 -18.5q-21 -43 -43 -59q-13 -20 -43 0q-13 9 -18 12.5t-12 13t-9 21.5q0 4 7 17t16.5 29t11.5 20l-7 -9q-6 -6 -8 -10q-45 -67 -63 -82q-19 -16 -39 4q-4 2 16 62q-4 -8 -11.5 -22.5t-8.5 -16.5q-11 -21 -29 -47t-18 -27q-27 -30 -58 4q-25 29 -20 58
q-9 -10 -18.5 -25.5t-12.5 -18.5q-12 -12 -26.5 -0.5t-20.5 35.5q-3 11 16 49l-20 -32q-2 -2 -6.5 -9t-8.5 -12.5t-10.5 -13.5t-11 -12.5t-11.5 -9.5t-11.5 -5t-10.5 2q-32 16 -32 43q-13 -25 -43 -65q-16 -19 -31 -4q-21 21 -25 26q-1 4 4.5 16.5t15 33t13.5 30.5l-20 -33
q-21 -39 -35.5 -59t-30.5 -23q-11 0 -25 20.5t-18 35.5v12q0 18 5 31t19.5 32.5t18.5 26.5l-64 -67q-17 -17 -38 12q-16 24 -9 31zM737 801q4 -5 12 2t19 22q9 10 13 23t-1 16q-10 5 -32 -24q-19 -35 -11 -39zM897 414q2 -2 10.5 6t20.5 23.5t24 33.5q46 67 35 78
q-6 6 -21 -10t-38 -49q-13 -22 -21 -41t-10 -29t0 -12zM999 762q4 -3 20 16t38 51q12 17 20.5 34t10.5 27t-1 13q-2 10 -25 -18q-14 -17 -28 -41q-14 -22 -23 -41t-11.5 -29t-0.5 -12zM1130 625q5 9 9.5 20.5t7.5 24t4 14.5q0 18 20 3q6 -5 11 -11q21 -21 8 -39
q-12 -24 -27 -39q-4 -13 -24 0q-8 8 -9.5 11t0.5 16zM1186 440q0 -30 20 -10q5 4 11 14t9 18l3 7q-11 9 -23 27q-20 -36 -20 -56zM1202 778q3 -3 22 22q4 5 33 44q17 25 27.5 49t7.5 27q-4 3 -12 -2.5t-20.5 -20t-26.5 -37.5q-44 -76 -31 -82zM1229 520q0 -9 4 -15t8 -7
l4 -2q14 29 19.5 52t-0.5 25q-7 3 -19.5 -17.5t-15.5 -35.5z" />
    <glyph glyph-name="parenright" unicode=")" horiz-adv-x="1642" 
d="M141 586q-54 -12 -81 32t-17 74q7 15 14 15t11 -7q27 -43 65 -43q38 -3 62 21q20 19 -2 29l-35 12q-34 12 -55.5 31.5t-22.5 50.5q-3 37 16.5 75.5t50.5 66t67 48.5t65.5 22t46.5 -12q11 -12 15.5 -19t8.5 -23t-2 -33q-4 -24 -32 -67.5t-46 -61.5q-19 -9 -24 -9t-19 9
q-30 30 -16 39q35 19 80 90q11 20 10.5 32.5t-9.5 13.5t-22 -5q-25 -17 -59 -50.5t-49 -64.5q-17 -40 -15 -55t21 -31q8 -6 32.5 -14.5t40.5 -20t17 -29.5q0 -33 -30 -66t-87 -50zM158 535q-4 26 8 27q3 1 6 -3q5 -5 19 -7t40 -1.5t43 1t53 2.5t46 3q41 54 99 82.5t85 5.5
q13 -18 15.5 -26.5t-1.5 -36.5q-3 -21 -20 -48.5t-33 -41.5q-13 -10 -18 -9t-15 9l-2 2l-6 6q-12 18 -50.5 18.5t-77.5 -9t-83 -20.5t-57 -12q-26 0 -38.5 22.5t-12.5 35.5zM283 739q6 16 26 62q19 29 25 39q11 26 17.5 30t25.5 -6q13 -9 14 -15.5t-10 -19.5
q-23 -28 -43 -79q-16 -31 -12 -35q1 0 55 51l35 47q6 13 25 55.5t34 73.5q3 9 4.5 15.5t1.5 9t0.5 4t3.5 2.5q6 6 18 -8t15 -27q2 -15 -16 -59q-18 -26 -55 -105.5t-27 -89.5q7 -3 40.5 48t41.5 69l14 22q0 2 1 5.5t1 5.5q16 36 28 42.5t21 -4.5q27 -26 21 -32
q-20 -20 -31 -62q-5 -17 -5 -36.5t2 -30.5l3 -11q15 55 58 121t63 82q23 21 59 -8q9 -12 2 -16q-28 -20 -43 -35q16 13 29.5 20.5t19.5 10t7 4.5q2 2 1 5.5t-3 7.5l-2 3q20 4 51 -27q16 -16 4 -47q-6 -20 -17.5 -36t-21.5 -19q-11 0 -24.5 7.5t-18.5 19.5q-11 -36 -4 -62
q3 -13 19.5 -15.5t31.5 11.5q8 7 18 20.5t25.5 38t17.5 27.5l13 25q-17 11 -17 41q0 12 4 16q2 2 4.5 0t9 -5t15.5 -3q14 0 36 7.5t34 16.5q15 4 15.5 4t12.5 -8q10 -8 11 -12t-9 -23q-6 -14 -22 -43t-21 -38q-10 -33 -10 -41q5 -2 15.5 10.5t19.5 30.5q4 7 14.5 20.5
t12.5 17.5l10 17q20 34 41 61q30 34 59 27q14 -7 27 -23q15 28 39 82q4 9 6 15.5t2 9t0.5 5t3.5 5.5q6 3 17 -11.5t14 -27.5q1 -4 1.5 -6.5t-1 -7.5t-3.5 -9t-7 -15t-9 -21q-1 -3 -12.5 -25.5t-23.5 -47.5t-24 -52t-18 -46.5t-2 -23.5q1 -1 3 0t5 4t6 6.5t7 9t7 10t8 11.5
t8 12.5t8 13t8 11.5l18 33q22 46 49 76q31 38 62 28q11 -4 23 -15.5t12 -23.5v-4l4 8q4 4 8 0q1 -1 4 -3.5t4 -4t3.5 -4.5t3.5 -5t1.5 -4.5t-1 -5.5t-3.5 -5q-19 -22 -35 -70q-11 -22 -4 -22q2 0 4 2q10 8 28 30t30 45l12 19q1 1 2 4t2 4q11 28 20 39.5t15.5 11t15.5 -7.5
q23 -27 19 -31q-17 -17 -31 -63q-5 -17 -5 -36.5t2 -30.5l3 -11q18 55 61 122t60 81q16 11 27.5 9.5t31.5 -15.5q9 -10 9 -12t-11 -9q-25 -17 -45 -39q-33 -33 -58 -75.5t-32 -69.5q-3 -8 -4.5 -16t-1.5 -11t-1 -6.5t-3 -2.5t-8 1q-28 0 -52 31q-2 2 -20 43q0 7 11.5 36
t13.5 35q0 2 -2 0q-18 -51 -54 -94q-1 -2 -4 -5q-9 -12 -15 -18t-16 -14t-19 -6.5t-17 12.5q-12 20 -19 48q-26 -47 -43 -64q-10 -11 -20.5 -5.5t-18.5 21.5q-6 6 17 62l-21 -39q-23 -50 -47 -74q-23 -28 -55 4q-23 23 -23 58q-20 -30 -33 -43q-11 -12 -24 -1.5t-21 33.5
q-7 7 21 62q-17 -27 -19 -35q-40 -69 -57 -74h-4q-10 0 -25 11q-17 21 -17.5 35t11.5 40l39 82q-30 -26 -53 -28q4 -2 14 -2q-9 -27 -12 -33q-35 -78 -72 -113q-13 -16 -30 -16q-18 3 -49 24t-37 35q-7 12 -2.5 41t18.5 53q-31 -33 -54 -72t-28 -61q-4 -10 -5.5 -20
t-1.5 -11.5t-3 -4.5t-10 1q-27 0 -52 31q-12 12 -18 47q0 25 18 66v2q-5 -14 -43 -88q-11 -21 -31 -47t-20 -27q-14 -14 -22.5 -13t-24.5 17q-12 14 -18 39q-4 11 30 66q2 2 2 6l-2 -2q-16 -25 -37 -51t-24 -31q-12 -9 -20.5 -8.5t-18.5 12.5q-17 17 -20 26.5t4 36.5z
M322 379q4 8 9 10.5t8.5 1t4.5 -3.5q29 -29 41 -29q36 -8 56 10q16 16 -7 27q-1 0 -13.5 4.5t-22.5 9t-22.5 13t-21 21.5t-10.5 30q0 23 4 35q47 6 68 -4q-15 -37 12 -64q6 -4 23 -11t27.5 -15.5t10.5 -22.5q3 -30 -19.5 -59.5t-61.5 -38.5q-46 -13 -70.5 25.5t-15.5 60.5z
M369 911q16 28 16 56q2 16 35 -4q10 -16 11.5 -20.5t-3.5 -22.5q-12 -24 -29 -41q-6 -9 -22 0q-9 9 -10 11.5t2 20.5zM446 557q23 -9 33 -25q25 11 45 50q17 24 9 32.5t-27 -0.5q-39 -33 -60 -57zM455 178q5 32 21 46.5t44 25.5q57 15 232.5 27t261.5 12q94 3 116 0.5
t25 -17.5q6 -13 5 -14.5t-12 -0.5q-12 1 -20 1q-47 6 -217 -12q-184 -15 -297 -43q-55 -9 -120 -43q-21 -18 -33 -15.5t-6 33.5zM485 453q2 2 7.5 0t9.5 0q29 7 55 28q50 32 55 47l2 2q-30 0 -30 37q0 21 8 28q3 2 4 -1q12 -20 51 -12l2 4q21 44 21 51q-2 12 1.5 15t9 -0.5
t9.5 -10.5q14 -27 10 -35v-4q8 3 49 19.5t72 27t47 10.5q25 0 40.5 -12t15.5 -31q4 -22 -11 -27q-3 -1 -4 1q-16 16 -59 16q-17 0 -55 -12.5t-86 -31.5t-60 -23q21 3 20 -6q0 -4 -3 -5q-16 -24 -19 -36q-14 -24 -30 -59t-13 -42q8 -22 45 40q2 3 4 7l17 25q37 59 43 76
q3 18 7.5 19.5t16.5 -11.5q23 -26 19 -39q-1 -6 -19 -33.5t-32 -60.5q-17 -41 -9 -39q9 0 47 51q9 16 19.5 33.5t17 28t13 21.5t10 17.5t7 12.5t4.5 9.5t1 6.5q0 8 7 9q7 0 16 -13q11 -11 16 -21q0 -2 -16 -34q0 -1 -9 -20q-42 -81 -32 -82q2 0 6 3q48 63 59 80l8 15
q17 36 45 67q33 35 56 27q20 -7 30 -23q6 11 19.5 38.5t21.5 43.5q2 9 3 16.5t1.5 10t2.5 4.5q14 9 36 -35q3 -15 -20 -59q-17 -26 -54 -107.5t-24 -87.5q2 -2 17 18q8 11 40 60l23 41l6 14q9 12 23 39q4 5 8.5 12t6.5 9.5t5 6t6 3t7 -2t10 -5.5q12 -5 15 -9.5t1 -9
t-12 -16.5q-2 -2 -43 -82q-14 -29 -13 -31q8 0 56 51q8 10 21 28t18 24q20 38 32 30q40 61 78 15q10 -15 9 -33t-7 -33l-6 -16q63 38 64 105q2 45 -22 61q-9 6 -19 2q-12 -4 -12 5q1 16 26 31q7 4 14 7q18 5 32 0.5t20 -15.5q18 -50 5.5 -100t-53.5 -89.5t-90 -45.5
q14 0 17.5 -4.5t-2.5 -18.5q-21 -43 -43 -59q-13 -20 -43 0q-13 9 -18 12.5t-12 13t-9 21.5q0 4 7 17t16.5 29t11.5 20l-7 -9q-6 -6 -8 -10q-45 -67 -63 -82q-19 -16 -39 4q-4 2 16 62q-4 -8 -11.5 -22.5t-8.5 -16.5q-11 -21 -29 -47t-18 -27q-27 -30 -58 4q-25 29 -20 58
q-9 -10 -18.5 -25.5t-12.5 -18.5q-12 -12 -26.5 -0.5t-20.5 35.5q-3 11 16 49l-20 -32q-2 -2 -6.5 -9t-8.5 -12.5t-10.5 -13.5t-11 -12.5t-11.5 -9.5t-11.5 -5t-10.5 2q-32 16 -32 43q-13 -25 -43 -65q-16 -19 -31 -4q-21 21 -25 26q-1 4 4.5 16.5t15 33t13.5 30.5l-20 -33
q-21 -39 -35.5 -59t-30.5 -23q-11 0 -25 20.5t-18 35.5v12q0 18 5 31t19.5 32.5t18.5 26.5l-64 -67q-17 -17 -38 12q-16 24 -9 31zM737 801q4 -5 12 2t19 22q9 10 13 23t-1 16q-10 5 -32 -24q-19 -35 -11 -39zM897 414q2 -2 10.5 6t20.5 23.5t24 33.5q46 67 35 78
q-6 6 -21 -10t-38 -49q-13 -22 -21 -41t-10 -29t0 -12zM999 762q4 -3 20 16t38 51q12 17 20.5 34t10.5 27t-1 13q-2 10 -25 -18q-14 -17 -28 -41q-14 -22 -23 -41t-11.5 -29t-0.5 -12zM1130 625q5 9 9.5 20.5t7.5 24t4 14.5q0 18 20 3q6 -5 11 -11q21 -21 8 -39
q-12 -24 -27 -39q-4 -13 -24 0q-8 8 -9.5 11t0.5 16zM1186 440q0 -30 20 -10q5 4 11 14t9 18l3 7q-11 9 -23 27q-20 -36 -20 -56zM1202 778q3 -3 22 22q4 5 33 44q17 25 27.5 49t7.5 27q-4 3 -12 -2.5t-20.5 -20t-26.5 -37.5q-44 -76 -31 -82zM1229 520q0 -9 4 -15t8 -7
l4 -2q14 29 19.5 52t-0.5 25q-7 3 -19.5 -17.5t-15.5 -35.5z" />
    <glyph glyph-name="hyphen" unicode="-" horiz-adv-x="1642" 
d="M141 586q-54 -12 -81 32t-17 74q7 15 14 15t11 -7q27 -43 65 -43q38 -3 62 21q20 19 -2 29l-35 12q-34 12 -55.5 31.5t-22.5 50.5q-3 37 16.5 75.5t50.5 66t67 48.5t65.5 22t46.5 -12q11 -12 15.5 -19t8.5 -23t-2 -33q-4 -24 -32 -67.5t-46 -61.5q-19 -9 -24 -9t-19 9
q-30 30 -16 39q35 19 80 90q11 20 10.5 32.5t-9.5 13.5t-22 -5q-25 -17 -59 -50.5t-49 -64.5q-17 -40 -15 -55t21 -31q8 -6 32.5 -14.5t40.5 -20t17 -29.5q0 -33 -30 -66t-87 -50zM158 535q-4 26 8 27q3 1 6 -3q5 -5 19 -7t40 -1.5t43 1t53 2.5t46 3q41 54 99 82.5t85 5.5
q13 -18 15.5 -26.5t-1.5 -36.5q-3 -21 -20 -48.5t-33 -41.5q-13 -10 -18 -9t-15 9l-2 2l-6 6q-12 18 -50.5 18.5t-77.5 -9t-83 -20.5t-57 -12q-26 0 -38.5 22.5t-12.5 35.5zM283 739q6 16 26 62q19 29 25 39q11 26 17.5 30t25.5 -6q13 -9 14 -15.5t-10 -19.5
q-23 -28 -43 -79q-16 -31 -12 -35q1 0 55 51l35 47q6 13 25 55.5t34 73.5q3 9 4.5 15.5t1.5 9t0.5 4t3.5 2.5q6 6 18 -8t15 -27q2 -15 -16 -59q-18 -26 -55 -105.5t-27 -89.5q7 -3 40.5 48t41.5 69l14 22q0 2 1 5.5t1 5.5q16 36 28 42.5t21 -4.5q27 -26 21 -32
q-20 -20 -31 -62q-5 -17 -5 -36.5t2 -30.5l3 -11q15 55 58 121t63 82q23 21 59 -8q9 -12 2 -16q-28 -20 -43 -35q16 13 29.5 20.5t19.5 10t7 4.5q2 2 1 5.5t-3 7.5l-2 3q20 4 51 -27q16 -16 4 -47q-6 -20 -17.5 -36t-21.5 -19q-11 0 -24.5 7.5t-18.5 19.5q-11 -36 -4 -62
q3 -13 19.5 -15.5t31.5 11.5q8 7 18 20.5t25.5 38t17.5 27.5l13 25q-17 11 -17 41q0 12 4 16q2 2 4.5 0t9 -5t15.5 -3q14 0 36 7.5t34 16.5q15 4 15.5 4t12.5 -8q10 -8 11 -12t-9 -23q-6 -14 -22 -43t-21 -38q-10 -33 -10 -41q5 -2 15.5 10.5t19.5 30.5q4 7 14.5 20.5
t12.5 17.5l10 17q20 34 41 61q30 34 59 27q14 -7 27 -23q15 28 39 82q4 9 6 15.5t2 9t0.5 5t3.5 5.5q6 3 17 -11.5t14 -27.5q1 -4 1.5 -6.5t-1 -7.5t-3.5 -9t-7 -15t-9 -21q-1 -3 -12.5 -25.5t-23.5 -47.5t-24 -52t-18 -46.5t-2 -23.5q1 -1 3 0t5 4t6 6.5t7 9t7 10t8 11.5
t8 12.5t8 13t8 11.5l18 33q22 46 49 76q31 38 62 28q11 -4 23 -15.5t12 -23.5v-4l4 8q4 4 8 0q1 -1 4 -3.5t4 -4t3.5 -4.5t3.5 -5t1.5 -4.5t-1 -5.5t-3.5 -5q-19 -22 -35 -70q-11 -22 -4 -22q2 0 4 2q10 8 28 30t30 45l12 19q1 1 2 4t2 4q11 28 20 39.5t15.5 11t15.5 -7.5
q23 -27 19 -31q-17 -17 -31 -63q-5 -17 -5 -36.5t2 -30.5l3 -11q18 55 61 122t60 81q16 11 27.5 9.5t31.5 -15.5q9 -10 9 -12t-11 -9q-25 -17 -45 -39q-33 -33 -58 -75.5t-32 -69.5q-3 -8 -4.5 -16t-1.5 -11t-1 -6.5t-3 -2.5t-8 1q-28 0 -52 31q-2 2 -20 43q0 7 11.5 36
t13.5 35q0 2 -2 0q-18 -51 -54 -94q-1 -2 -4 -5q-9 -12 -15 -18t-16 -14t-19 -6.5t-17 12.5q-12 20 -19 48q-26 -47 -43 -64q-10 -11 -20.5 -5.5t-18.5 21.5q-6 6 17 62l-21 -39q-23 -50 -47 -74q-23 -28 -55 4q-23 23 -23 58q-20 -30 -33 -43q-11 -12 -24 -1.5t-21 33.5
q-7 7 21 62q-17 -27 -19 -35q-40 -69 -57 -74h-4q-10 0 -25 11q-17 21 -17.5 35t11.5 40l39 82q-30 -26 -53 -28q4 -2 14 -2q-9 -27 -12 -33q-35 -78 -72 -113q-13 -16 -30 -16q-18 3 -49 24t-37 35q-7 12 -2.5 41t18.5 53q-31 -33 -54 -72t-28 -61q-4 -10 -5.5 -20
t-1.5 -11.5t-3 -4.5t-10 1q-27 0 -52 31q-12 12 -18 47q0 25 18 66v2q-5 -14 -43 -88q-11 -21 -31 -47t-20 -27q-14 -14 -22.5 -13t-24.5 17q-12 14 -18 39q-4 11 30 66q2 2 2 6l-2 -2q-16 -25 -37 -51t-24 -31q-12 -9 -20.5 -8.5t-18.5 12.5q-17 17 -20 26.5t4 36.5z
M322 379q4 8 9 10.5t8.5 1t4.5 -3.5q29 -29 41 -29q36 -8 56 10q16 16 -7 27q-1 0 -13.5 4.5t-22.5 9t-22.5 13t-21 21.5t-10.5 30q0 23 4 35q47 6 68 -4q-15 -37 12 -64q6 -4 23 -11t27.5 -15.5t10.5 -22.5q3 -30 -19.5 -59.5t-61.5 -38.5q-46 -13 -70.5 25.5t-15.5 60.5z
M369 911q16 28 16 56q2 16 35 -4q10 -16 11.5 -20.5t-3.5 -22.5q-12 -24 -29 -41q-6 -9 -22 0q-9 9 -10 11.5t2 20.5zM446 557q23 -9 33 -25q25 11 45 50q17 24 9 32.5t-27 -0.5q-39 -33 -60 -57zM455 178q5 32 21 46.5t44 25.5q57 15 232.5 27t261.5 12q94 3 116 0.5
t25 -17.5q6 -13 5 -14.5t-12 -0.5q-12 1 -20 1q-47 6 -217 -12q-184 -15 -297 -43q-55 -9 -120 -43q-21 -18 -33 -15.5t-6 33.5zM485 453q2 2 7.5 0t9.5 0q29 7 55 28q50 32 55 47l2 2q-30 0 -30 37q0 21 8 28q3 2 4 -1q12 -20 51 -12l2 4q21 44 21 51q-2 12 1.5 15t9 -0.5
t9.5 -10.5q14 -27 10 -35v-4q8 3 49 19.5t72 27t47 10.5q25 0 40.5 -12t15.5 -31q4 -22 -11 -27q-3 -1 -4 1q-16 16 -59 16q-17 0 -55 -12.5t-86 -31.5t-60 -23q21 3 20 -6q0 -4 -3 -5q-16 -24 -19 -36q-14 -24 -30 -59t-13 -42q8 -22 45 40q2 3 4 7l17 25q37 59 43 76
q3 18 7.5 19.5t16.5 -11.5q23 -26 19 -39q-1 -6 -19 -33.5t-32 -60.5q-17 -41 -9 -39q9 0 47 51q9 16 19.5 33.5t17 28t13 21.5t10 17.5t7 12.5t4.5 9.5t1 6.5q0 8 7 9q7 0 16 -13q11 -11 16 -21q0 -2 -16 -34q0 -1 -9 -20q-42 -81 -32 -82q2 0 6 3q48 63 59 80l8 15
q17 36 45 67q33 35 56 27q20 -7 30 -23q6 11 19.5 38.5t21.5 43.5q2 9 3 16.5t1.5 10t2.5 4.5q14 9 36 -35q3 -15 -20 -59q-17 -26 -54 -107.5t-24 -87.5q2 -2 17 18q8 11 40 60l23 41l6 14q9 12 23 39q4 5 8.5 12t6.5 9.5t5 6t6 3t7 -2t10 -5.5q12 -5 15 -9.5t1 -9
t-12 -16.5q-2 -2 -43 -82q-14 -29 -13 -31q8 0 56 51q8 10 21 28t18 24q20 38 32 30q40 61 78 15q10 -15 9 -33t-7 -33l-6 -16q63 38 64 105q2 45 -22 61q-9 6 -19 2q-12 -4 -12 5q1 16 26 31q7 4 14 7q18 5 32 0.5t20 -15.5q18 -50 5.5 -100t-53.5 -89.5t-90 -45.5
q14 0 17.5 -4.5t-2.5 -18.5q-21 -43 -43 -59q-13 -20 -43 0q-13 9 -18 12.5t-12 13t-9 21.5q0 4 7 17t16.5 29t11.5 20l-7 -9q-6 -6 -8 -10q-45 -67 -63 -82q-19 -16 -39 4q-4 2 16 62q-4 -8 -11.5 -22.5t-8.5 -16.5q-11 -21 -29 -47t-18 -27q-27 -30 -58 4q-25 29 -20 58
q-9 -10 -18.5 -25.5t-12.5 -18.5q-12 -12 -26.5 -0.5t-20.5 35.5q-3 11 16 49l-20 -32q-2 -2 -6.5 -9t-8.5 -12.5t-10.5 -13.5t-11 -12.5t-11.5 -9.5t-11.5 -5t-10.5 2q-32 16 -32 43q-13 -25 -43 -65q-16 -19 -31 -4q-21 21 -25 26q-1 4 4.5 16.5t15 33t13.5 30.5l-20 -33
q-21 -39 -35.5 -59t-30.5 -23q-11 0 -25 20.5t-18 35.5v12q0 18 5 31t19.5 32.5t18.5 26.5l-64 -67q-17 -17 -38 12q-16 24 -9 31zM737 801q4 -5 12 2t19 22q9 10 13 23t-1 16q-10 5 -32 -24q-19 -35 -11 -39zM897 414q2 -2 10.5 6t20.5 23.5t24 33.5q46 67 35 78
q-6 6 -21 -10t-38 -49q-13 -22 -21 -41t-10 -29t0 -12zM999 762q4 -3 20 16t38 51q12 17 20.5 34t10.5 27t-1 13q-2 10 -25 -18q-14 -17 -28 -41q-14 -22 -23 -41t-11.5 -29t-0.5 -12zM1130 625q5 9 9.5 20.5t7.5 24t4 14.5q0 18 20 3q6 -5 11 -11q21 -21 8 -39
q-12 -24 -27 -39q-4 -13 -24 0q-8 8 -9.5 11t0.5 16zM1186 440q0 -30 20 -10q5 4 11 14t9 18l3 7q-11 9 -23 27q-20 -36 -20 -56zM1202 778q3 -3 22 22q4 5 33 44q17 25 27.5 49t7.5 27q-4 3 -12 -2.5t-20.5 -20t-26.5 -37.5q-44 -76 -31 -82zM1229 520q0 -9 4 -15t8 -7
l4 -2q14 29 19.5 52t-0.5 25q-7 3 -19.5 -17.5t-15.5 -35.5z" />
    <glyph glyph-name="period" unicode="." horiz-adv-x="581" 
d="M291 193q-34 0 -60 -26.5t-26 -60.5q0 -36 26 -61t60 -25q37 0 61.5 24.5t24.5 61.5q0 35 -25 61t-61 26z" />
    <glyph glyph-name="zero" unicode="0" horiz-adv-x="1642" 
d="M141 586q-54 -12 -81 32t-17 74q7 15 14 15t11 -7q27 -43 65 -43q38 -3 62 21q20 19 -2 29l-35 12q-34 12 -55.5 31.5t-22.5 50.5q-3 37 16.5 75.5t50.5 66t67 48.5t65.5 22t46.5 -12q11 -12 15.5 -19t8.5 -23t-2 -33q-4 -24 -32 -67.5t-46 -61.5q-19 -9 -24 -9t-19 9
q-30 30 -16 39q35 19 80 90q11 20 10.5 32.5t-9.5 13.5t-22 -5q-25 -17 -59 -50.5t-49 -64.5q-17 -40 -15 -55t21 -31q8 -6 32.5 -14.5t40.5 -20t17 -29.5q0 -33 -30 -66t-87 -50zM158 535q-4 26 8 27q3 1 6 -3q5 -5 19 -7t40 -1.5t43 1t53 2.5t46 3q41 54 99 82.5t85 5.5
q13 -18 15.5 -26.5t-1.5 -36.5q-3 -21 -20 -48.5t-33 -41.5q-13 -10 -18 -9t-15 9l-2 2l-6 6q-12 18 -50.5 18.5t-77.5 -9t-83 -20.5t-57 -12q-26 0 -38.5 22.5t-12.5 35.5zM283 739q6 16 26 62q19 29 25 39q11 26 17.5 30t25.5 -6q13 -9 14 -15.5t-10 -19.5
q-23 -28 -43 -79q-16 -31 -12 -35q1 0 55 51l35 47q6 13 25 55.5t34 73.5q3 9 4.5 15.5t1.5 9t0.5 4t3.5 2.5q6 6 18 -8t15 -27q2 -15 -16 -59q-18 -26 -55 -105.5t-27 -89.5q7 -3 40.5 48t41.5 69l14 22q0 2 1 5.5t1 5.5q16 36 28 42.5t21 -4.5q27 -26 21 -32
q-20 -20 -31 -62q-5 -17 -5 -36.5t2 -30.5l3 -11q15 55 58 121t63 82q23 21 59 -8q9 -12 2 -16q-28 -20 -43 -35q16 13 29.5 20.5t19.5 10t7 4.5q2 2 1 5.5t-3 7.5l-2 3q20 4 51 -27q16 -16 4 -47q-6 -20 -17.5 -36t-21.5 -19q-11 0 -24.5 7.5t-18.5 19.5q-11 -36 -4 -62
q3 -13 19.5 -15.5t31.5 11.5q8 7 18 20.5t25.5 38t17.5 27.5l13 25q-17 11 -17 41q0 12 4 16q2 2 4.5 0t9 -5t15.5 -3q14 0 36 7.5t34 16.5q15 4 15.5 4t12.5 -8q10 -8 11 -12t-9 -23q-6 -14 -22 -43t-21 -38q-10 -33 -10 -41q5 -2 15.5 10.5t19.5 30.5q4 7 14.5 20.5
t12.5 17.5l10 17q20 34 41 61q30 34 59 27q14 -7 27 -23q15 28 39 82q4 9 6 15.5t2 9t0.5 5t3.5 5.5q6 3 17 -11.5t14 -27.5q1 -4 1.5 -6.5t-1 -7.5t-3.5 -9t-7 -15t-9 -21q-1 -3 -12.5 -25.5t-23.5 -47.5t-24 -52t-18 -46.5t-2 -23.5q1 -1 3 0t5 4t6 6.5t7 9t7 10t8 11.5
t8 12.5t8 13t8 11.5l18 33q22 46 49 76q31 38 62 28q11 -4 23 -15.5t12 -23.5v-4l4 8q4 4 8 0q1 -1 4 -3.5t4 -4t3.5 -4.5t3.5 -5t1.5 -4.5t-1 -5.5t-3.5 -5q-19 -22 -35 -70q-11 -22 -4 -22q2 0 4 2q10 8 28 30t30 45l12 19q1 1 2 4t2 4q11 28 20 39.5t15.5 11t15.5 -7.5
q23 -27 19 -31q-17 -17 -31 -63q-5 -17 -5 -36.5t2 -30.5l3 -11q18 55 61 122t60 81q16 11 27.5 9.5t31.5 -15.5q9 -10 9 -12t-11 -9q-25 -17 -45 -39q-33 -33 -58 -75.5t-32 -69.5q-3 -8 -4.5 -16t-1.5 -11t-1 -6.5t-3 -2.5t-8 1q-28 0 -52 31q-2 2 -20 43q0 7 11.5 36
t13.5 35q0 2 -2 0q-18 -51 -54 -94q-1 -2 -4 -5q-9 -12 -15 -18t-16 -14t-19 -6.5t-17 12.5q-12 20 -19 48q-26 -47 -43 -64q-10 -11 -20.5 -5.5t-18.5 21.5q-6 6 17 62l-21 -39q-23 -50 -47 -74q-23 -28 -55 4q-23 23 -23 58q-20 -30 -33 -43q-11 -12 -24 -1.5t-21 33.5
q-7 7 21 62q-17 -27 -19 -35q-40 -69 -57 -74h-4q-10 0 -25 11q-17 21 -17.5 35t11.5 40l39 82q-30 -26 -53 -28q4 -2 14 -2q-9 -27 -12 -33q-35 -78 -72 -113q-13 -16 -30 -16q-18 3 -49 24t-37 35q-7 12 -2.5 41t18.5 53q-31 -33 -54 -72t-28 -61q-4 -10 -5.5 -20
t-1.5 -11.5t-3 -4.5t-10 1q-27 0 -52 31q-12 12 -18 47q0 25 18 66v2q-5 -14 -43 -88q-11 -21 -31 -47t-20 -27q-14 -14 -22.5 -13t-24.5 17q-12 14 -18 39q-4 11 30 66q2 2 2 6l-2 -2q-16 -25 -37 -51t-24 -31q-12 -9 -20.5 -8.5t-18.5 12.5q-17 17 -20 26.5t4 36.5z
M322 379q4 8 9 10.5t8.5 1t4.5 -3.5q29 -29 41 -29q36 -8 56 10q16 16 -7 27q-1 0 -13.5 4.5t-22.5 9t-22.5 13t-21 21.5t-10.5 30q0 23 4 35q47 6 68 -4q-15 -37 12 -64q6 -4 23 -11t27.5 -15.5t10.5 -22.5q3 -30 -19.5 -59.5t-61.5 -38.5q-46 -13 -70.5 25.5t-15.5 60.5z
M369 911q16 28 16 56q2 16 35 -4q10 -16 11.5 -20.5t-3.5 -22.5q-12 -24 -29 -41q-6 -9 -22 0q-9 9 -10 11.5t2 20.5zM446 557q23 -9 33 -25q25 11 45 50q17 24 9 32.5t-27 -0.5q-39 -33 -60 -57zM455 178q5 32 21 46.5t44 25.5q57 15 232.5 27t261.5 12q94 3 116 0.5
t25 -17.5q6 -13 5 -14.5t-12 -0.5q-12 1 -20 1q-47 6 -217 -12q-184 -15 -297 -43q-55 -9 -120 -43q-21 -18 -33 -15.5t-6 33.5zM485 453q2 2 7.5 0t9.5 0q29 7 55 28q50 32 55 47l2 2q-30 0 -30 37q0 21 8 28q3 2 4 -1q12 -20 51 -12l2 4q21 44 21 51q-2 12 1.5 15t9 -0.5
t9.5 -10.5q14 -27 10 -35v-4q8 3 49 19.5t72 27t47 10.5q25 0 40.5 -12t15.5 -31q4 -22 -11 -27q-3 -1 -4 1q-16 16 -59 16q-17 0 -55 -12.5t-86 -31.5t-60 -23q21 3 20 -6q0 -4 -3 -5q-16 -24 -19 -36q-14 -24 -30 -59t-13 -42q8 -22 45 40q2 3 4 7l17 25q37 59 43 76
q3 18 7.5 19.5t16.5 -11.5q23 -26 19 -39q-1 -6 -19 -33.5t-32 -60.5q-17 -41 -9 -39q9 0 47 51q9 16 19.5 33.5t17 28t13 21.5t10 17.5t7 12.5t4.5 9.5t1 6.5q0 8 7 9q7 0 16 -13q11 -11 16 -21q0 -2 -16 -34q0 -1 -9 -20q-42 -81 -32 -82q2 0 6 3q48 63 59 80l8 15
q17 36 45 67q33 35 56 27q20 -7 30 -23q6 11 19.5 38.5t21.5 43.5q2 9 3 16.5t1.5 10t2.5 4.5q14 9 36 -35q3 -15 -20 -59q-17 -26 -54 -107.5t-24 -87.5q2 -2 17 18q8 11 40 60l23 41l6 14q9 12 23 39q4 5 8.5 12t6.5 9.5t5 6t6 3t7 -2t10 -5.5q12 -5 15 -9.5t1 -9
t-12 -16.5q-2 -2 -43 -82q-14 -29 -13 -31q8 0 56 51q8 10 21 28t18 24q20 38 32 30q40 61 78 15q10 -15 9 -33t-7 -33l-6 -16q63 38 64 105q2 45 -22 61q-9 6 -19 2q-12 -4 -12 5q1 16 26 31q7 4 14 7q18 5 32 0.5t20 -15.5q18 -50 5.5 -100t-53.5 -89.5t-90 -45.5
q14 0 17.5 -4.5t-2.5 -18.5q-21 -43 -43 -59q-13 -20 -43 0q-13 9 -18 12.5t-12 13t-9 21.5q0 4 7 17t16.5 29t11.5 20l-7 -9q-6 -6 -8 -10q-45 -67 -63 -82q-19 -16 -39 4q-4 2 16 62q-4 -8 -11.5 -22.5t-8.5 -16.5q-11 -21 -29 -47t-18 -27q-27 -30 -58 4q-25 29 -20 58
q-9 -10 -18.5 -25.5t-12.5 -18.5q-12 -12 -26.5 -0.5t-20.5 35.5q-3 11 16 49l-20 -32q-2 -2 -6.5 -9t-8.5 -12.5t-10.5 -13.5t-11 -12.5t-11.5 -9.5t-11.5 -5t-10.5 2q-32 16 -32 43q-13 -25 -43 -65q-16 -19 -31 -4q-21 21 -25 26q-1 4 4.5 16.5t15 33t13.5 30.5l-20 -33
q-21 -39 -35.5 -59t-30.5 -23q-11 0 -25 20.5t-18 35.5v12q0 18 5 31t19.5 32.5t18.5 26.5l-64 -67q-17 -17 -38 12q-16 24 -9 31zM737 801q4 -5 12 2t19 22q9 10 13 23t-1 16q-10 5 -32 -24q-19 -35 -11 -39zM897 414q2 -2 10.5 6t20.5 23.5t24 33.5q46 67 35 78
q-6 6 -21 -10t-38 -49q-13 -22 -21 -41t-10 -29t0 -12zM999 762q4 -3 20 16t38 51q12 17 20.5 34t10.5 27t-1 13q-2 10 -25 -18q-14 -17 -28 -41q-14 -22 -23 -41t-11.5 -29t-0.5 -12zM1130 625q5 9 9.5 20.5t7.5 24t4 14.5q0 18 20 3q6 -5 11 -11q21 -21 8 -39
q-12 -24 -27 -39q-4 -13 -24 0q-8 8 -9.5 11t0.5 16zM1186 440q0 -30 20 -10q5 4 11 14t9 18l3 7q-11 9 -23 27q-20 -36 -20 -56zM1202 778q3 -3 22 22q4 5 33 44q17 25 27.5 49t7.5 27q-4 3 -12 -2.5t-20.5 -20t-26.5 -37.5q-44 -76 -31 -82zM1229 520q0 -9 4 -15t8 -7
l4 -2q14 29 19.5 52t-0.5 25q-7 3 -19.5 -17.5t-15.5 -35.5z" />
    <glyph glyph-name="one" unicode="1" horiz-adv-x="1642" 
d="M141 586q-54 -12 -81 32t-17 74q7 15 14 15t11 -7q27 -43 65 -43q38 -3 62 21q20 19 -2 29l-35 12q-34 12 -55.5 31.5t-22.5 50.5q-3 37 16.5 75.5t50.5 66t67 48.5t65.5 22t46.5 -12q11 -12 15.5 -19t8.5 -23t-2 -33q-4 -24 -32 -67.5t-46 -61.5q-19 -9 -24 -9t-19 9
q-30 30 -16 39q35 19 80 90q11 20 10.5 32.5t-9.5 13.5t-22 -5q-25 -17 -59 -50.5t-49 -64.5q-17 -40 -15 -55t21 -31q8 -6 32.5 -14.5t40.5 -20t17 -29.5q0 -33 -30 -66t-87 -50zM158 535q-4 26 8 27q3 1 6 -3q5 -5 19 -7t40 -1.5t43 1t53 2.5t46 3q41 54 99 82.5t85 5.5
q13 -18 15.5 -26.5t-1.5 -36.5q-3 -21 -20 -48.5t-33 -41.5q-13 -10 -18 -9t-15 9l-2 2l-6 6q-12 18 -50.5 18.5t-77.5 -9t-83 -20.5t-57 -12q-26 0 -38.5 22.5t-12.5 35.5zM283 739q6 16 26 62q19 29 25 39q11 26 17.5 30t25.5 -6q13 -9 14 -15.5t-10 -19.5
q-23 -28 -43 -79q-16 -31 -12 -35q1 0 55 51l35 47q6 13 25 55.5t34 73.5q3 9 4.5 15.5t1.5 9t0.5 4t3.5 2.5q6 6 18 -8t15 -27q2 -15 -16 -59q-18 -26 -55 -105.5t-27 -89.5q7 -3 40.5 48t41.5 69l14 22q0 2 1 5.5t1 5.5q16 36 28 42.5t21 -4.5q27 -26 21 -32
q-20 -20 -31 -62q-5 -17 -5 -36.5t2 -30.5l3 -11q15 55 58 121t63 82q23 21 59 -8q9 -12 2 -16q-28 -20 -43 -35q16 13 29.5 20.5t19.5 10t7 4.5q2 2 1 5.5t-3 7.5l-2 3q20 4 51 -27q16 -16 4 -47q-6 -20 -17.5 -36t-21.5 -19q-11 0 -24.5 7.5t-18.5 19.5q-11 -36 -4 -62
q3 -13 19.5 -15.5t31.5 11.5q8 7 18 20.5t25.5 38t17.5 27.5l13 25q-17 11 -17 41q0 12 4 16q2 2 4.5 0t9 -5t15.5 -3q14 0 36 7.5t34 16.5q15 4 15.5 4t12.5 -8q10 -8 11 -12t-9 -23q-6 -14 -22 -43t-21 -38q-10 -33 -10 -41q5 -2 15.5 10.5t19.5 30.5q4 7 14.5 20.5
t12.5 17.5l10 17q20 34 41 61q30 34 59 27q14 -7 27 -23q15 28 39 82q4 9 6 15.5t2 9t0.5 5t3.5 5.5q6 3 17 -11.5t14 -27.5q1 -4 1.5 -6.5t-1 -7.5t-3.5 -9t-7 -15t-9 -21q-1 -3 -12.5 -25.5t-23.5 -47.5t-24 -52t-18 -46.5t-2 -23.5q1 -1 3 0t5 4t6 6.5t7 9t7 10t8 11.5
t8 12.5t8 13t8 11.5l18 33q22 46 49 76q31 38 62 28q11 -4 23 -15.5t12 -23.5v-4l4 8q4 4 8 0q1 -1 4 -3.5t4 -4t3.5 -4.5t3.5 -5t1.5 -4.5t-1 -5.5t-3.5 -5q-19 -22 -35 -70q-11 -22 -4 -22q2 0 4 2q10 8 28 30t30 45l12 19q1 1 2 4t2 4q11 28 20 39.5t15.5 11t15.5 -7.5
q23 -27 19 -31q-17 -17 -31 -63q-5 -17 -5 -36.5t2 -30.5l3 -11q18 55 61 122t60 81q16 11 27.5 9.5t31.5 -15.5q9 -10 9 -12t-11 -9q-25 -17 -45 -39q-33 -33 -58 -75.5t-32 -69.5q-3 -8 -4.5 -16t-1.5 -11t-1 -6.5t-3 -2.5t-8 1q-28 0 -52 31q-2 2 -20 43q0 7 11.5 36
t13.5 35q0 2 -2 0q-18 -51 -54 -94q-1 -2 -4 -5q-9 -12 -15 -18t-16 -14t-19 -6.5t-17 12.5q-12 20 -19 48q-26 -47 -43 -64q-10 -11 -20.5 -5.5t-18.5 21.5q-6 6 17 62l-21 -39q-23 -50 -47 -74q-23 -28 -55 4q-23 23 -23 58q-20 -30 -33 -43q-11 -12 -24 -1.5t-21 33.5
q-7 7 21 62q-17 -27 -19 -35q-40 -69 -57 -74h-4q-10 0 -25 11q-17 21 -17.5 35t11.5 40l39 82q-30 -26 -53 -28q4 -2 14 -2q-9 -27 -12 -33q-35 -78 -72 -113q-13 -16 -30 -16q-18 3 -49 24t-37 35q-7 12 -2.5 41t18.5 53q-31 -33 -54 -72t-28 -61q-4 -10 -5.5 -20
t-1.5 -11.5t-3 -4.5t-10 1q-27 0 -52 31q-12 12 -18 47q0 25 18 66v2q-5 -14 -43 -88q-11 -21 -31 -47t-20 -27q-14 -14 -22.5 -13t-24.5 17q-12 14 -18 39q-4 11 30 66q2 2 2 6l-2 -2q-16 -25 -37 -51t-24 -31q-12 -9 -20.5 -8.5t-18.5 12.5q-17 17 -20 26.5t4 36.5z
M322 379q4 8 9 10.5t8.5 1t4.5 -3.5q29 -29 41 -29q36 -8 56 10q16 16 -7 27q-1 0 -13.5 4.5t-22.5 9t-22.5 13t-21 21.5t-10.5 30q0 23 4 35q47 6 68 -4q-15 -37 12 -64q6 -4 23 -11t27.5 -15.5t10.5 -22.5q3 -30 -19.5 -59.5t-61.5 -38.5q-46 -13 -70.5 25.5t-15.5 60.5z
M369 911q16 28 16 56q2 16 35 -4q10 -16 11.5 -20.5t-3.5 -22.5q-12 -24 -29 -41q-6 -9 -22 0q-9 9 -10 11.5t2 20.5zM446 557q23 -9 33 -25q25 11 45 50q17 24 9 32.5t-27 -0.5q-39 -33 -60 -57zM455 178q5 32 21 46.5t44 25.5q57 15 232.5 27t261.5 12q94 3 116 0.5
t25 -17.5q6 -13 5 -14.5t-12 -0.5q-12 1 -20 1q-47 6 -217 -12q-184 -15 -297 -43q-55 -9 -120 -43q-21 -18 -33 -15.5t-6 33.5zM485 453q2 2 7.5 0t9.5 0q29 7 55 28q50 32 55 47l2 2q-30 0 -30 37q0 21 8 28q3 2 4 -1q12 -20 51 -12l2 4q21 44 21 51q-2 12 1.5 15t9 -0.5
t9.5 -10.5q14 -27 10 -35v-4q8 3 49 19.5t72 27t47 10.5q25 0 40.5 -12t15.5 -31q4 -22 -11 -27q-3 -1 -4 1q-16 16 -59 16q-17 0 -55 -12.5t-86 -31.5t-60 -23q21 3 20 -6q0 -4 -3 -5q-16 -24 -19 -36q-14 -24 -30 -59t-13 -42q8 -22 45 40q2 3 4 7l17 25q37 59 43 76
q3 18 7.5 19.5t16.5 -11.5q23 -26 19 -39q-1 -6 -19 -33.5t-32 -60.5q-17 -41 -9 -39q9 0 47 51q9 16 19.5 33.5t17 28t13 21.5t10 17.5t7 12.5t4.5 9.5t1 6.5q0 8 7 9q7 0 16 -13q11 -11 16 -21q0 -2 -16 -34q0 -1 -9 -20q-42 -81 -32 -82q2 0 6 3q48 63 59 80l8 15
q17 36 45 67q33 35 56 27q20 -7 30 -23q6 11 19.5 38.5t21.5 43.5q2 9 3 16.5t1.5 10t2.5 4.5q14 9 36 -35q3 -15 -20 -59q-17 -26 -54 -107.5t-24 -87.5q2 -2 17 18q8 11 40 60l23 41l6 14q9 12 23 39q4 5 8.5 12t6.5 9.5t5 6t6 3t7 -2t10 -5.5q12 -5 15 -9.5t1 -9
t-12 -16.5q-2 -2 -43 -82q-14 -29 -13 -31q8 0 56 51q8 10 21 28t18 24q20 38 32 30q40 61 78 15q10 -15 9 -33t-7 -33l-6 -16q63 38 64 105q2 45 -22 61q-9 6 -19 2q-12 -4 -12 5q1 16 26 31q7 4 14 7q18 5 32 0.5t20 -15.5q18 -50 5.5 -100t-53.5 -89.5t-90 -45.5
q14 0 17.5 -4.5t-2.5 -18.5q-21 -43 -43 -59q-13 -20 -43 0q-13 9 -18 12.5t-12 13t-9 21.5q0 4 7 17t16.5 29t11.5 20l-7 -9q-6 -6 -8 -10q-45 -67 -63 -82q-19 -16 -39 4q-4 2 16 62q-4 -8 -11.5 -22.5t-8.5 -16.5q-11 -21 -29 -47t-18 -27q-27 -30 -58 4q-25 29 -20 58
q-9 -10 -18.5 -25.5t-12.5 -18.5q-12 -12 -26.5 -0.5t-20.5 35.5q-3 11 16 49l-20 -32q-2 -2 -6.5 -9t-8.5 -12.5t-10.5 -13.5t-11 -12.5t-11.5 -9.5t-11.5 -5t-10.5 2q-32 16 -32 43q-13 -25 -43 -65q-16 -19 -31 -4q-21 21 -25 26q-1 4 4.5 16.5t15 33t13.5 30.5l-20 -33
q-21 -39 -35.5 -59t-30.5 -23q-11 0 -25 20.5t-18 35.5v12q0 18 5 31t19.5 32.5t18.5 26.5l-64 -67q-17 -17 -38 12q-16 24 -9 31zM737 801q4 -5 12 2t19 22q9 10 13 23t-1 16q-10 5 -32 -24q-19 -35 -11 -39zM897 414q2 -2 10.5 6t20.5 23.5t24 33.5q46 67 35 78
q-6 6 -21 -10t-38 -49q-13 -22 -21 -41t-10 -29t0 -12zM999 762q4 -3 20 16t38 51q12 17 20.5 34t10.5 27t-1 13q-2 10 -25 -18q-14 -17 -28 -41q-14 -22 -23 -41t-11.5 -29t-0.5 -12zM1130 625q5 9 9.5 20.5t7.5 24t4 14.5q0 18 20 3q6 -5 11 -11q21 -21 8 -39
q-12 -24 -27 -39q-4 -13 -24 0q-8 8 -9.5 11t0.5 16zM1186 440q0 -30 20 -10q5 4 11 14t9 18l3 7q-11 9 -23 27q-20 -36 -20 -56zM1202 778q3 -3 22 22q4 5 33 44q17 25 27.5 49t7.5 27q-4 3 -12 -2.5t-20.5 -20t-26.5 -37.5q-44 -76 -31 -82zM1229 520q0 -9 4 -15t8 -7
l4 -2q14 29 19.5 52t-0.5 25q-7 3 -19.5 -17.5t-15.5 -35.5z" />
    <glyph glyph-name="two" unicode="2" horiz-adv-x="1642" 
d="M141 586q-54 -12 -81 32t-17 74q7 15 14 15t11 -7q27 -43 65 -43q38 -3 62 21q20 19 -2 29l-35 12q-34 12 -55.5 31.5t-22.5 50.5q-3 37 16.5 75.5t50.5 66t67 48.5t65.5 22t46.5 -12q11 -12 15.5 -19t8.5 -23t-2 -33q-4 -24 -32 -67.5t-46 -61.5q-19 -9 -24 -9t-19 9
q-30 30 -16 39q35 19 80 90q11 20 10.5 32.5t-9.5 13.5t-22 -5q-25 -17 -59 -50.5t-49 -64.5q-17 -40 -15 -55t21 -31q8 -6 32.5 -14.5t40.5 -20t17 -29.5q0 -33 -30 -66t-87 -50zM158 535q-4 26 8 27q3 1 6 -3q5 -5 19 -7t40 -1.5t43 1t53 2.5t46 3q41 54 99 82.5t85 5.5
q13 -18 15.5 -26.5t-1.5 -36.5q-3 -21 -20 -48.5t-33 -41.5q-13 -10 -18 -9t-15 9l-2 2l-6 6q-12 18 -50.5 18.5t-77.5 -9t-83 -20.5t-57 -12q-26 0 -38.5 22.5t-12.5 35.5zM283 739q6 16 26 62q19 29 25 39q11 26 17.5 30t25.5 -6q13 -9 14 -15.5t-10 -19.5
q-23 -28 -43 -79q-16 -31 -12 -35q1 0 55 51l35 47q6 13 25 55.5t34 73.5q3 9 4.5 15.5t1.5 9t0.5 4t3.5 2.5q6 6 18 -8t15 -27q2 -15 -16 -59q-18 -26 -55 -105.5t-27 -89.5q7 -3 40.5 48t41.5 69l14 22q0 2 1 5.5t1 5.5q16 36 28 42.5t21 -4.5q27 -26 21 -32
q-20 -20 -31 -62q-5 -17 -5 -36.5t2 -30.5l3 -11q15 55 58 121t63 82q23 21 59 -8q9 -12 2 -16q-28 -20 -43 -35q16 13 29.5 20.5t19.5 10t7 4.5q2 2 1 5.5t-3 7.5l-2 3q20 4 51 -27q16 -16 4 -47q-6 -20 -17.5 -36t-21.5 -19q-11 0 -24.5 7.5t-18.5 19.5q-11 -36 -4 -62
q3 -13 19.5 -15.5t31.5 11.5q8 7 18 20.5t25.5 38t17.5 27.5l13 25q-17 11 -17 41q0 12 4 16q2 2 4.5 0t9 -5t15.5 -3q14 0 36 7.5t34 16.5q15 4 15.5 4t12.5 -8q10 -8 11 -12t-9 -23q-6 -14 -22 -43t-21 -38q-10 -33 -10 -41q5 -2 15.5 10.5t19.5 30.5q4 7 14.5 20.5
t12.5 17.5l10 17q20 34 41 61q30 34 59 27q14 -7 27 -23q15 28 39 82q4 9 6 15.5t2 9t0.5 5t3.5 5.5q6 3 17 -11.5t14 -27.5q1 -4 1.5 -6.5t-1 -7.5t-3.5 -9t-7 -15t-9 -21q-1 -3 -12.5 -25.5t-23.5 -47.5t-24 -52t-18 -46.5t-2 -23.5q1 -1 3 0t5 4t6 6.5t7 9t7 10t8 11.5
t8 12.5t8 13t8 11.5l18 33q22 46 49 76q31 38 62 28q11 -4 23 -15.5t12 -23.5v-4l4 8q4 4 8 0q1 -1 4 -3.5t4 -4t3.5 -4.5t3.5 -5t1.5 -4.5t-1 -5.5t-3.5 -5q-19 -22 -35 -70q-11 -22 -4 -22q2 0 4 2q10 8 28 30t30 45l12 19q1 1 2 4t2 4q11 28 20 39.5t15.5 11t15.5 -7.5
q23 -27 19 -31q-17 -17 -31 -63q-5 -17 -5 -36.5t2 -30.5l3 -11q18 55 61 122t60 81q16 11 27.5 9.5t31.5 -15.5q9 -10 9 -12t-11 -9q-25 -17 -45 -39q-33 -33 -58 -75.5t-32 -69.5q-3 -8 -4.5 -16t-1.5 -11t-1 -6.5t-3 -2.5t-8 1q-28 0 -52 31q-2 2 -20 43q0 7 11.5 36
t13.5 35q0 2 -2 0q-18 -51 -54 -94q-1 -2 -4 -5q-9 -12 -15 -18t-16 -14t-19 -6.5t-17 12.5q-12 20 -19 48q-26 -47 -43 -64q-10 -11 -20.5 -5.5t-18.5 21.5q-6 6 17 62l-21 -39q-23 -50 -47 -74q-23 -28 -55 4q-23 23 -23 58q-20 -30 -33 -43q-11 -12 -24 -1.5t-21 33.5
q-7 7 21 62q-17 -27 -19 -35q-40 -69 -57 -74h-4q-10 0 -25 11q-17 21 -17.5 35t11.5 40l39 82q-30 -26 -53 -28q4 -2 14 -2q-9 -27 -12 -33q-35 -78 -72 -113q-13 -16 -30 -16q-18 3 -49 24t-37 35q-7 12 -2.5 41t18.5 53q-31 -33 -54 -72t-28 -61q-4 -10 -5.5 -20
t-1.5 -11.5t-3 -4.5t-10 1q-27 0 -52 31q-12 12 -18 47q0 25 18 66v2q-5 -14 -43 -88q-11 -21 -31 -47t-20 -27q-14 -14 -22.5 -13t-24.5 17q-12 14 -18 39q-4 11 30 66q2 2 2 6l-2 -2q-16 -25 -37 -51t-24 -31q-12 -9 -20.5 -8.5t-18.5 12.5q-17 17 -20 26.5t4 36.5z
M322 379q4 8 9 10.5t8.5 1t4.5 -3.5q29 -29 41 -29q36 -8 56 10q16 16 -7 27q-1 0 -13.5 4.5t-22.5 9t-22.5 13t-21 21.5t-10.5 30q0 23 4 35q47 6 68 -4q-15 -37 12 -64q6 -4 23 -11t27.5 -15.5t10.5 -22.5q3 -30 -19.5 -59.5t-61.5 -38.5q-46 -13 -70.5 25.5t-15.5 60.5z
M369 911q16 28 16 56q2 16 35 -4q10 -16 11.5 -20.5t-3.5 -22.5q-12 -24 -29 -41q-6 -9 -22 0q-9 9 -10 11.5t2 20.5zM446 557q23 -9 33 -25q25 11 45 50q17 24 9 32.5t-27 -0.5q-39 -33 -60 -57zM455 178q5 32 21 46.5t44 25.5q57 15 232.5 27t261.5 12q94 3 116 0.5
t25 -17.5q6 -13 5 -14.5t-12 -0.5q-12 1 -20 1q-47 6 -217 -12q-184 -15 -297 -43q-55 -9 -120 -43q-21 -18 -33 -15.5t-6 33.5zM485 453q2 2 7.5 0t9.5 0q29 7 55 28q50 32 55 47l2 2q-30 0 -30 37q0 21 8 28q3 2 4 -1q12 -20 51 -12l2 4q21 44 21 51q-2 12 1.5 15t9 -0.5
t9.5 -10.5q14 -27 10 -35v-4q8 3 49 19.5t72 27t47 10.5q25 0 40.5 -12t15.5 -31q4 -22 -11 -27q-3 -1 -4 1q-16 16 -59 16q-17 0 -55 -12.5t-86 -31.5t-60 -23q21 3 20 -6q0 -4 -3 -5q-16 -24 -19 -36q-14 -24 -30 -59t-13 -42q8 -22 45 40q2 3 4 7l17 25q37 59 43 76
q3 18 7.5 19.5t16.5 -11.5q23 -26 19 -39q-1 -6 -19 -33.5t-32 -60.5q-17 -41 -9 -39q9 0 47 51q9 16 19.5 33.5t17 28t13 21.5t10 17.5t7 12.5t4.5 9.5t1 6.5q0 8 7 9q7 0 16 -13q11 -11 16 -21q0 -2 -16 -34q0 -1 -9 -20q-42 -81 -32 -82q2 0 6 3q48 63 59 80l8 15
q17 36 45 67q33 35 56 27q20 -7 30 -23q6 11 19.5 38.5t21.5 43.5q2 9 3 16.5t1.5 10t2.5 4.5q14 9 36 -35q3 -15 -20 -59q-17 -26 -54 -107.5t-24 -87.5q2 -2 17 18q8 11 40 60l23 41l6 14q9 12 23 39q4 5 8.5 12t6.5 9.5t5 6t6 3t7 -2t10 -5.5q12 -5 15 -9.5t1 -9
t-12 -16.5q-2 -2 -43 -82q-14 -29 -13 -31q8 0 56 51q8 10 21 28t18 24q20 38 32 30q40 61 78 15q10 -15 9 -33t-7 -33l-6 -16q63 38 64 105q2 45 -22 61q-9 6 -19 2q-12 -4 -12 5q1 16 26 31q7 4 14 7q18 5 32 0.5t20 -15.5q18 -50 5.5 -100t-53.5 -89.5t-90 -45.5
q14 0 17.5 -4.5t-2.5 -18.5q-21 -43 -43 -59q-13 -20 -43 0q-13 9 -18 12.5t-12 13t-9 21.5q0 4 7 17t16.5 29t11.5 20l-7 -9q-6 -6 -8 -10q-45 -67 -63 -82q-19 -16 -39 4q-4 2 16 62q-4 -8 -11.5 -22.5t-8.5 -16.5q-11 -21 -29 -47t-18 -27q-27 -30 -58 4q-25 29 -20 58
q-9 -10 -18.5 -25.5t-12.5 -18.5q-12 -12 -26.5 -0.5t-20.5 35.5q-3 11 16 49l-20 -32q-2 -2 -6.5 -9t-8.5 -12.5t-10.5 -13.5t-11 -12.5t-11.5 -9.5t-11.5 -5t-10.5 2q-32 16 -32 43q-13 -25 -43 -65q-16 -19 -31 -4q-21 21 -25 26q-1 4 4.5 16.5t15 33t13.5 30.5l-20 -33
q-21 -39 -35.5 -59t-30.5 -23q-11 0 -25 20.5t-18 35.5v12q0 18 5 31t19.5 32.5t18.5 26.5l-64 -67q-17 -17 -38 12q-16 24 -9 31zM737 801q4 -5 12 2t19 22q9 10 13 23t-1 16q-10 5 -32 -24q-19 -35 -11 -39zM897 414q2 -2 10.5 6t20.5 23.5t24 33.5q46 67 35 78
q-6 6 -21 -10t-38 -49q-13 -22 -21 -41t-10 -29t0 -12zM999 762q4 -3 20 16t38 51q12 17 20.5 34t10.5 27t-1 13q-2 10 -25 -18q-14 -17 -28 -41q-14 -22 -23 -41t-11.5 -29t-0.5 -12zM1130 625q5 9 9.5 20.5t7.5 24t4 14.5q0 18 20 3q6 -5 11 -11q21 -21 8 -39
q-12 -24 -27 -39q-4 -13 -24 0q-8 8 -9.5 11t0.5 16zM1186 440q0 -30 20 -10q5 4 11 14t9 18l3 7q-11 9 -23 27q-20 -36 -20 -56zM1202 778q3 -3 22 22q4 5 33 44q17 25 27.5 49t7.5 27q-4 3 -12 -2.5t-20.5 -20t-26.5 -37.5q-44 -76 -31 -82zM1229 520q0 -9 4 -15t8 -7
l4 -2q14 29 19.5 52t-0.5 25q-7 3 -19.5 -17.5t-15.5 -35.5z" />
    <glyph glyph-name="three" unicode="3" horiz-adv-x="1642" 
d="M141 586q-54 -12 -81 32t-17 74q7 15 14 15t11 -7q27 -43 65 -43q38 -3 62 21q20 19 -2 29l-35 12q-34 12 -55.5 31.5t-22.5 50.5q-3 37 16.5 75.5t50.5 66t67 48.5t65.5 22t46.5 -12q11 -12 15.5 -19t8.5 -23t-2 -33q-4 -24 -32 -67.5t-46 -61.5q-19 -9 -24 -9t-19 9
q-30 30 -16 39q35 19 80 90q11 20 10.5 32.5t-9.5 13.5t-22 -5q-25 -17 -59 -50.5t-49 -64.5q-17 -40 -15 -55t21 -31q8 -6 32.5 -14.5t40.5 -20t17 -29.5q0 -33 -30 -66t-87 -50zM158 535q-4 26 8 27q3 1 6 -3q5 -5 19 -7t40 -1.5t43 1t53 2.5t46 3q41 54 99 82.5t85 5.5
q13 -18 15.5 -26.5t-1.5 -36.5q-3 -21 -20 -48.5t-33 -41.5q-13 -10 -18 -9t-15 9l-2 2l-6 6q-12 18 -50.5 18.5t-77.5 -9t-83 -20.5t-57 -12q-26 0 -38.5 22.5t-12.5 35.5zM283 739q6 16 26 62q19 29 25 39q11 26 17.5 30t25.5 -6q13 -9 14 -15.5t-10 -19.5
q-23 -28 -43 -79q-16 -31 -12 -35q1 0 55 51l35 47q6 13 25 55.5t34 73.5q3 9 4.5 15.5t1.5 9t0.5 4t3.5 2.5q6 6 18 -8t15 -27q2 -15 -16 -59q-18 -26 -55 -105.5t-27 -89.5q7 -3 40.5 48t41.5 69l14 22q0 2 1 5.5t1 5.5q16 36 28 42.5t21 -4.5q27 -26 21 -32
q-20 -20 -31 -62q-5 -17 -5 -36.5t2 -30.5l3 -11q15 55 58 121t63 82q23 21 59 -8q9 -12 2 -16q-28 -20 -43 -35q16 13 29.5 20.5t19.5 10t7 4.5q2 2 1 5.5t-3 7.5l-2 3q20 4 51 -27q16 -16 4 -47q-6 -20 -17.5 -36t-21.5 -19q-11 0 -24.5 7.5t-18.5 19.5q-11 -36 -4 -62
q3 -13 19.5 -15.5t31.5 11.5q8 7 18 20.5t25.5 38t17.5 27.5l13 25q-17 11 -17 41q0 12 4 16q2 2 4.5 0t9 -5t15.5 -3q14 0 36 7.5t34 16.5q15 4 15.5 4t12.5 -8q10 -8 11 -12t-9 -23q-6 -14 -22 -43t-21 -38q-10 -33 -10 -41q5 -2 15.5 10.5t19.5 30.5q4 7 14.5 20.5
t12.5 17.5l10 17q20 34 41 61q30 34 59 27q14 -7 27 -23q15 28 39 82q4 9 6 15.5t2 9t0.5 5t3.5 5.5q6 3 17 -11.5t14 -27.5q1 -4 1.5 -6.5t-1 -7.5t-3.5 -9t-7 -15t-9 -21q-1 -3 -12.5 -25.5t-23.5 -47.5t-24 -52t-18 -46.5t-2 -23.5q1 -1 3 0t5 4t6 6.5t7 9t7 10t8 11.5
t8 12.5t8 13t8 11.5l18 33q22 46 49 76q31 38 62 28q11 -4 23 -15.5t12 -23.5v-4l4 8q4 4 8 0q1 -1 4 -3.5t4 -4t3.5 -4.5t3.5 -5t1.5 -4.5t-1 -5.5t-3.5 -5q-19 -22 -35 -70q-11 -22 -4 -22q2 0 4 2q10 8 28 30t30 45l12 19q1 1 2 4t2 4q11 28 20 39.5t15.5 11t15.5 -7.5
q23 -27 19 -31q-17 -17 -31 -63q-5 -17 -5 -36.5t2 -30.5l3 -11q18 55 61 122t60 81q16 11 27.5 9.5t31.5 -15.5q9 -10 9 -12t-11 -9q-25 -17 -45 -39q-33 -33 -58 -75.5t-32 -69.5q-3 -8 -4.5 -16t-1.5 -11t-1 -6.5t-3 -2.5t-8 1q-28 0 -52 31q-2 2 -20 43q0 7 11.5 36
t13.5 35q0 2 -2 0q-18 -51 -54 -94q-1 -2 -4 -5q-9 -12 -15 -18t-16 -14t-19 -6.5t-17 12.5q-12 20 -19 48q-26 -47 -43 -64q-10 -11 -20.5 -5.5t-18.5 21.5q-6 6 17 62l-21 -39q-23 -50 -47 -74q-23 -28 -55 4q-23 23 -23 58q-20 -30 -33 -43q-11 -12 -24 -1.5t-21 33.5
q-7 7 21 62q-17 -27 -19 -35q-40 -69 -57 -74h-4q-10 0 -25 11q-17 21 -17.5 35t11.5 40l39 82q-30 -26 -53 -28q4 -2 14 -2q-9 -27 -12 -33q-35 -78 -72 -113q-13 -16 -30 -16q-18 3 -49 24t-37 35q-7 12 -2.5 41t18.5 53q-31 -33 -54 -72t-28 -61q-4 -10 -5.5 -20
t-1.5 -11.5t-3 -4.5t-10 1q-27 0 -52 31q-12 12 -18 47q0 25 18 66v2q-5 -14 -43 -88q-11 -21 -31 -47t-20 -27q-14 -14 -22.5 -13t-24.5 17q-12 14 -18 39q-4 11 30 66q2 2 2 6l-2 -2q-16 -25 -37 -51t-24 -31q-12 -9 -20.5 -8.5t-18.5 12.5q-17 17 -20 26.5t4 36.5z
M322 379q4 8 9 10.5t8.5 1t4.5 -3.5q29 -29 41 -29q36 -8 56 10q16 16 -7 27q-1 0 -13.5 4.5t-22.5 9t-22.5 13t-21 21.5t-10.5 30q0 23 4 35q47 6 68 -4q-15 -37 12 -64q6 -4 23 -11t27.5 -15.5t10.5 -22.5q3 -30 -19.5 -59.5t-61.5 -38.5q-46 -13 -70.5 25.5t-15.5 60.5z
M369 911q16 28 16 56q2 16 35 -4q10 -16 11.5 -20.5t-3.5 -22.5q-12 -24 -29 -41q-6 -9 -22 0q-9 9 -10 11.5t2 20.5zM446 557q23 -9 33 -25q25 11 45 50q17 24 9 32.5t-27 -0.5q-39 -33 -60 -57zM455 178q5 32 21 46.5t44 25.5q57 15 232.5 27t261.5 12q94 3 116 0.5
t25 -17.5q6 -13 5 -14.5t-12 -0.5q-12 1 -20 1q-47 6 -217 -12q-184 -15 -297 -43q-55 -9 -120 -43q-21 -18 -33 -15.5t-6 33.5zM485 453q2 2 7.5 0t9.5 0q29 7 55 28q50 32 55 47l2 2q-30 0 -30 37q0 21 8 28q3 2 4 -1q12 -20 51 -12l2 4q21 44 21 51q-2 12 1.5 15t9 -0.5
t9.5 -10.5q14 -27 10 -35v-4q8 3 49 19.5t72 27t47 10.5q25 0 40.5 -12t15.5 -31q4 -22 -11 -27q-3 -1 -4 1q-16 16 -59 16q-17 0 -55 -12.5t-86 -31.5t-60 -23q21 3 20 -6q0 -4 -3 -5q-16 -24 -19 -36q-14 -24 -30 -59t-13 -42q8 -22 45 40q2 3 4 7l17 25q37 59 43 76
q3 18 7.5 19.5t16.5 -11.5q23 -26 19 -39q-1 -6 -19 -33.5t-32 -60.5q-17 -41 -9 -39q9 0 47 51q9 16 19.5 33.5t17 28t13 21.5t10 17.5t7 12.5t4.5 9.5t1 6.5q0 8 7 9q7 0 16 -13q11 -11 16 -21q0 -2 -16 -34q0 -1 -9 -20q-42 -81 -32 -82q2 0 6 3q48 63 59 80l8 15
q17 36 45 67q33 35 56 27q20 -7 30 -23q6 11 19.5 38.5t21.5 43.5q2 9 3 16.5t1.5 10t2.5 4.5q14 9 36 -35q3 -15 -20 -59q-17 -26 -54 -107.5t-24 -87.5q2 -2 17 18q8 11 40 60l23 41l6 14q9 12 23 39q4 5 8.5 12t6.5 9.5t5 6t6 3t7 -2t10 -5.5q12 -5 15 -9.5t1 -9
t-12 -16.5q-2 -2 -43 -82q-14 -29 -13 -31q8 0 56 51q8 10 21 28t18 24q20 38 32 30q40 61 78 15q10 -15 9 -33t-7 -33l-6 -16q63 38 64 105q2 45 -22 61q-9 6 -19 2q-12 -4 -12 5q1 16 26 31q7 4 14 7q18 5 32 0.5t20 -15.5q18 -50 5.5 -100t-53.5 -89.5t-90 -45.5
q14 0 17.5 -4.5t-2.5 -18.5q-21 -43 -43 -59q-13 -20 -43 0q-13 9 -18 12.5t-12 13t-9 21.5q0 4 7 17t16.5 29t11.5 20l-7 -9q-6 -6 -8 -10q-45 -67 -63 -82q-19 -16 -39 4q-4 2 16 62q-4 -8 -11.5 -22.5t-8.5 -16.5q-11 -21 -29 -47t-18 -27q-27 -30 -58 4q-25 29 -20 58
q-9 -10 -18.5 -25.5t-12.5 -18.5q-12 -12 -26.5 -0.5t-20.5 35.5q-3 11 16 49l-20 -32q-2 -2 -6.5 -9t-8.5 -12.5t-10.5 -13.5t-11 -12.5t-11.5 -9.5t-11.5 -5t-10.5 2q-32 16 -32 43q-13 -25 -43 -65q-16 -19 -31 -4q-21 21 -25 26q-1 4 4.5 16.5t15 33t13.5 30.5l-20 -33
q-21 -39 -35.5 -59t-30.5 -23q-11 0 -25 20.5t-18 35.5v12q0 18 5 31t19.5 32.5t18.5 26.5l-64 -67q-17 -17 -38 12q-16 24 -9 31zM737 801q4 -5 12 2t19 22q9 10 13 23t-1 16q-10 5 -32 -24q-19 -35 -11 -39zM897 414q2 -2 10.5 6t20.5 23.5t24 33.5q46 67 35 78
q-6 6 -21 -10t-38 -49q-13 -22 -21 -41t-10 -29t0 -12zM999 762q4 -3 20 16t38 51q12 17 20.5 34t10.5 27t-1 13q-2 10 -25 -18q-14 -17 -28 -41q-14 -22 -23 -41t-11.5 -29t-0.5 -12zM1130 625q5 9 9.5 20.5t7.5 24t4 14.5q0 18 20 3q6 -5 11 -11q21 -21 8 -39
q-12 -24 -27 -39q-4 -13 -24 0q-8 8 -9.5 11t0.5 16zM1186 440q0 -30 20 -10q5 4 11 14t9 18l3 7q-11 9 -23 27q-20 -36 -20 -56zM1202 778q3 -3 22 22q4 5 33 44q17 25 27.5 49t7.5 27q-4 3 -12 -2.5t-20.5 -20t-26.5 -37.5q-44 -76 -31 -82zM1229 520q0 -9 4 -15t8 -7
l4 -2q14 29 19.5 52t-0.5 25q-7 3 -19.5 -17.5t-15.5 -35.5z" />
    <glyph glyph-name="four" unicode="4" horiz-adv-x="1642" 
d="M141 586q-54 -12 -81 32t-17 74q7 15 14 15t11 -7q27 -43 65 -43q38 -3 62 21q20 19 -2 29l-35 12q-34 12 -55.5 31.5t-22.5 50.5q-3 37 16.5 75.5t50.5 66t67 48.5t65.5 22t46.5 -12q11 -12 15.5 -19t8.5 -23t-2 -33q-4 -24 -32 -67.5t-46 -61.5q-19 -9 -24 -9t-19 9
q-30 30 -16 39q35 19 80 90q11 20 10.5 32.5t-9.5 13.5t-22 -5q-25 -17 -59 -50.5t-49 -64.5q-17 -40 -15 -55t21 -31q8 -6 32.5 -14.5t40.5 -20t17 -29.5q0 -33 -30 -66t-87 -50zM158 535q-4 26 8 27q3 1 6 -3q5 -5 19 -7t40 -1.5t43 1t53 2.5t46 3q41 54 99 82.5t85 5.5
q13 -18 15.5 -26.5t-1.5 -36.5q-3 -21 -20 -48.5t-33 -41.5q-13 -10 -18 -9t-15 9l-2 2l-6 6q-12 18 -50.5 18.5t-77.5 -9t-83 -20.5t-57 -12q-26 0 -38.5 22.5t-12.5 35.5zM283 739q6 16 26 62q19 29 25 39q11 26 17.5 30t25.5 -6q13 -9 14 -15.5t-10 -19.5
q-23 -28 -43 -79q-16 -31 -12 -35q1 0 55 51l35 47q6 13 25 55.5t34 73.5q3 9 4.5 15.5t1.5 9t0.5 4t3.5 2.5q6 6 18 -8t15 -27q2 -15 -16 -59q-18 -26 -55 -105.5t-27 -89.5q7 -3 40.5 48t41.5 69l14 22q0 2 1 5.5t1 5.5q16 36 28 42.5t21 -4.5q27 -26 21 -32
q-20 -20 -31 -62q-5 -17 -5 -36.5t2 -30.5l3 -11q15 55 58 121t63 82q23 21 59 -8q9 -12 2 -16q-28 -20 -43 -35q16 13 29.5 20.5t19.5 10t7 4.5q2 2 1 5.5t-3 7.5l-2 3q20 4 51 -27q16 -16 4 -47q-6 -20 -17.5 -36t-21.5 -19q-11 0 -24.5 7.5t-18.5 19.5q-11 -36 -4 -62
q3 -13 19.5 -15.5t31.5 11.5q8 7 18 20.5t25.5 38t17.5 27.5l13 25q-17 11 -17 41q0 12 4 16q2 2 4.5 0t9 -5t15.5 -3q14 0 36 7.5t34 16.5q15 4 15.5 4t12.5 -8q10 -8 11 -12t-9 -23q-6 -14 -22 -43t-21 -38q-10 -33 -10 -41q5 -2 15.5 10.5t19.5 30.5q4 7 14.5 20.5
t12.5 17.5l10 17q20 34 41 61q30 34 59 27q14 -7 27 -23q15 28 39 82q4 9 6 15.5t2 9t0.5 5t3.5 5.5q6 3 17 -11.5t14 -27.5q1 -4 1.5 -6.5t-1 -7.5t-3.5 -9t-7 -15t-9 -21q-1 -3 -12.5 -25.5t-23.5 -47.5t-24 -52t-18 -46.5t-2 -23.5q1 -1 3 0t5 4t6 6.5t7 9t7 10t8 11.5
t8 12.5t8 13t8 11.5l18 33q22 46 49 76q31 38 62 28q11 -4 23 -15.5t12 -23.5v-4l4 8q4 4 8 0q1 -1 4 -3.5t4 -4t3.5 -4.5t3.5 -5t1.5 -4.5t-1 -5.5t-3.5 -5q-19 -22 -35 -70q-11 -22 -4 -22q2 0 4 2q10 8 28 30t30 45l12 19q1 1 2 4t2 4q11 28 20 39.5t15.5 11t15.5 -7.5
q23 -27 19 -31q-17 -17 -31 -63q-5 -17 -5 -36.5t2 -30.5l3 -11q18 55 61 122t60 81q16 11 27.5 9.5t31.5 -15.5q9 -10 9 -12t-11 -9q-25 -17 -45 -39q-33 -33 -58 -75.5t-32 -69.5q-3 -8 -4.5 -16t-1.5 -11t-1 -6.5t-3 -2.5t-8 1q-28 0 -52 31q-2 2 -20 43q0 7 11.5 36
t13.5 35q0 2 -2 0q-18 -51 -54 -94q-1 -2 -4 -5q-9 -12 -15 -18t-16 -14t-19 -6.5t-17 12.5q-12 20 -19 48q-26 -47 -43 -64q-10 -11 -20.5 -5.5t-18.5 21.5q-6 6 17 62l-21 -39q-23 -50 -47 -74q-23 -28 -55 4q-23 23 -23 58q-20 -30 -33 -43q-11 -12 -24 -1.5t-21 33.5
q-7 7 21 62q-17 -27 -19 -35q-40 -69 -57 -74h-4q-10 0 -25 11q-17 21 -17.5 35t11.5 40l39 82q-30 -26 -53 -28q4 -2 14 -2q-9 -27 -12 -33q-35 -78 -72 -113q-13 -16 -30 -16q-18 3 -49 24t-37 35q-7 12 -2.5 41t18.5 53q-31 -33 -54 -72t-28 -61q-4 -10 -5.5 -20
t-1.5 -11.5t-3 -4.5t-10 1q-27 0 -52 31q-12 12 -18 47q0 25 18 66v2q-5 -14 -43 -88q-11 -21 -31 -47t-20 -27q-14 -14 -22.5 -13t-24.5 17q-12 14 -18 39q-4 11 30 66q2 2 2 6l-2 -2q-16 -25 -37 -51t-24 -31q-12 -9 -20.5 -8.5t-18.5 12.5q-17 17 -20 26.5t4 36.5z
M322 379q4 8 9 10.5t8.5 1t4.5 -3.5q29 -29 41 -29q36 -8 56 10q16 16 -7 27q-1 0 -13.5 4.5t-22.5 9t-22.5 13t-21 21.5t-10.5 30q0 23 4 35q47 6 68 -4q-15 -37 12 -64q6 -4 23 -11t27.5 -15.5t10.5 -22.5q3 -30 -19.5 -59.5t-61.5 -38.5q-46 -13 -70.5 25.5t-15.5 60.5z
M369 911q16 28 16 56q2 16 35 -4q10 -16 11.5 -20.5t-3.5 -22.5q-12 -24 -29 -41q-6 -9 -22 0q-9 9 -10 11.5t2 20.5zM446 557q23 -9 33 -25q25 11 45 50q17 24 9 32.5t-27 -0.5q-39 -33 -60 -57zM455 178q5 32 21 46.5t44 25.5q57 15 232.5 27t261.5 12q94 3 116 0.5
t25 -17.5q6 -13 5 -14.5t-12 -0.5q-12 1 -20 1q-47 6 -217 -12q-184 -15 -297 -43q-55 -9 -120 -43q-21 -18 -33 -15.5t-6 33.5zM485 453q2 2 7.5 0t9.5 0q29 7 55 28q50 32 55 47l2 2q-30 0 -30 37q0 21 8 28q3 2 4 -1q12 -20 51 -12l2 4q21 44 21 51q-2 12 1.5 15t9 -0.5
t9.5 -10.5q14 -27 10 -35v-4q8 3 49 19.5t72 27t47 10.5q25 0 40.5 -12t15.5 -31q4 -22 -11 -27q-3 -1 -4 1q-16 16 -59 16q-17 0 -55 -12.5t-86 -31.5t-60 -23q21 3 20 -6q0 -4 -3 -5q-16 -24 -19 -36q-14 -24 -30 -59t-13 -42q8 -22 45 40q2 3 4 7l17 25q37 59 43 76
q3 18 7.5 19.5t16.5 -11.5q23 -26 19 -39q-1 -6 -19 -33.5t-32 -60.5q-17 -41 -9 -39q9 0 47 51q9 16 19.5 33.5t17 28t13 21.5t10 17.5t7 12.5t4.5 9.5t1 6.5q0 8 7 9q7 0 16 -13q11 -11 16 -21q0 -2 -16 -34q0 -1 -9 -20q-42 -81 -32 -82q2 0 6 3q48 63 59 80l8 15
q17 36 45 67q33 35 56 27q20 -7 30 -23q6 11 19.5 38.5t21.5 43.5q2 9 3 16.5t1.5 10t2.5 4.5q14 9 36 -35q3 -15 -20 -59q-17 -26 -54 -107.5t-24 -87.5q2 -2 17 18q8 11 40 60l23 41l6 14q9 12 23 39q4 5 8.5 12t6.5 9.5t5 6t6 3t7 -2t10 -5.5q12 -5 15 -9.5t1 -9
t-12 -16.5q-2 -2 -43 -82q-14 -29 -13 -31q8 0 56 51q8 10 21 28t18 24q20 38 32 30q40 61 78 15q10 -15 9 -33t-7 -33l-6 -16q63 38 64 105q2 45 -22 61q-9 6 -19 2q-12 -4 -12 5q1 16 26 31q7 4 14 7q18 5 32 0.5t20 -15.5q18 -50 5.5 -100t-53.5 -89.5t-90 -45.5
q14 0 17.5 -4.5t-2.5 -18.5q-21 -43 -43 -59q-13 -20 -43 0q-13 9 -18 12.5t-12 13t-9 21.5q0 4 7 17t16.5 29t11.5 20l-7 -9q-6 -6 -8 -10q-45 -67 -63 -82q-19 -16 -39 4q-4 2 16 62q-4 -8 -11.5 -22.5t-8.5 -16.5q-11 -21 -29 -47t-18 -27q-27 -30 -58 4q-25 29 -20 58
q-9 -10 -18.5 -25.5t-12.5 -18.5q-12 -12 -26.5 -0.5t-20.5 35.5q-3 11 16 49l-20 -32q-2 -2 -6.5 -9t-8.5 -12.5t-10.5 -13.5t-11 -12.5t-11.5 -9.5t-11.5 -5t-10.5 2q-32 16 -32 43q-13 -25 -43 -65q-16 -19 -31 -4q-21 21 -25 26q-1 4 4.5 16.5t15 33t13.5 30.5l-20 -33
q-21 -39 -35.5 -59t-30.5 -23q-11 0 -25 20.5t-18 35.5v12q0 18 5 31t19.5 32.5t18.5 26.5l-64 -67q-17 -17 -38 12q-16 24 -9 31zM737 801q4 -5 12 2t19 22q9 10 13 23t-1 16q-10 5 -32 -24q-19 -35 -11 -39zM897 414q2 -2 10.5 6t20.5 23.5t24 33.5q46 67 35 78
q-6 6 -21 -10t-38 -49q-13 -22 -21 -41t-10 -29t0 -12zM999 762q4 -3 20 16t38 51q12 17 20.5 34t10.5 27t-1 13q-2 10 -25 -18q-14 -17 -28 -41q-14 -22 -23 -41t-11.5 -29t-0.5 -12zM1130 625q5 9 9.5 20.5t7.5 24t4 14.5q0 18 20 3q6 -5 11 -11q21 -21 8 -39
q-12 -24 -27 -39q-4 -13 -24 0q-8 8 -9.5 11t0.5 16zM1186 440q0 -30 20 -10q5 4 11 14t9 18l3 7q-11 9 -23 27q-20 -36 -20 -56zM1202 778q3 -3 22 22q4 5 33 44q17 25 27.5 49t7.5 27q-4 3 -12 -2.5t-20.5 -20t-26.5 -37.5q-44 -76 -31 -82zM1229 520q0 -9 4 -15t8 -7
l4 -2q14 29 19.5 52t-0.5 25q-7 3 -19.5 -17.5t-15.5 -35.5z" />
    <glyph glyph-name="five" unicode="5" horiz-adv-x="1642" 
d="M141 586q-54 -12 -81 32t-17 74q7 15 14 15t11 -7q27 -43 65 -43q38 -3 62 21q20 19 -2 29l-35 12q-34 12 -55.5 31.5t-22.5 50.5q-3 37 16.5 75.5t50.5 66t67 48.5t65.5 22t46.5 -12q11 -12 15.5 -19t8.5 -23t-2 -33q-4 -24 -32 -67.5t-46 -61.5q-19 -9 -24 -9t-19 9
q-30 30 -16 39q35 19 80 90q11 20 10.5 32.5t-9.5 13.5t-22 -5q-25 -17 -59 -50.5t-49 -64.5q-17 -40 -15 -55t21 -31q8 -6 32.5 -14.5t40.5 -20t17 -29.5q0 -33 -30 -66t-87 -50zM158 535q-4 26 8 27q3 1 6 -3q5 -5 19 -7t40 -1.5t43 1t53 2.5t46 3q41 54 99 82.5t85 5.5
q13 -18 15.5 -26.5t-1.5 -36.5q-3 -21 -20 -48.5t-33 -41.5q-13 -10 -18 -9t-15 9l-2 2l-6 6q-12 18 -50.5 18.5t-77.5 -9t-83 -20.5t-57 -12q-26 0 -38.5 22.5t-12.5 35.5zM283 739q6 16 26 62q19 29 25 39q11 26 17.5 30t25.5 -6q13 -9 14 -15.5t-10 -19.5
q-23 -28 -43 -79q-16 -31 -12 -35q1 0 55 51l35 47q6 13 25 55.5t34 73.5q3 9 4.5 15.5t1.5 9t0.5 4t3.5 2.5q6 6 18 -8t15 -27q2 -15 -16 -59q-18 -26 -55 -105.5t-27 -89.5q7 -3 40.5 48t41.5 69l14 22q0 2 1 5.5t1 5.5q16 36 28 42.5t21 -4.5q27 -26 21 -32
q-20 -20 -31 -62q-5 -17 -5 -36.5t2 -30.5l3 -11q15 55 58 121t63 82q23 21 59 -8q9 -12 2 -16q-28 -20 -43 -35q16 13 29.5 20.5t19.5 10t7 4.5q2 2 1 5.5t-3 7.5l-2 3q20 4 51 -27q16 -16 4 -47q-6 -20 -17.5 -36t-21.5 -19q-11 0 -24.5 7.5t-18.5 19.5q-11 -36 -4 -62
q3 -13 19.5 -15.5t31.5 11.5q8 7 18 20.5t25.5 38t17.5 27.5l13 25q-17 11 -17 41q0 12 4 16q2 2 4.5 0t9 -5t15.5 -3q14 0 36 7.5t34 16.5q15 4 15.5 4t12.5 -8q10 -8 11 -12t-9 -23q-6 -14 -22 -43t-21 -38q-10 -33 -10 -41q5 -2 15.5 10.5t19.5 30.5q4 7 14.5 20.5
t12.5 17.5l10 17q20 34 41 61q30 34 59 27q14 -7 27 -23q15 28 39 82q4 9 6 15.5t2 9t0.5 5t3.5 5.5q6 3 17 -11.5t14 -27.5q1 -4 1.5 -6.5t-1 -7.5t-3.5 -9t-7 -15t-9 -21q-1 -3 -12.5 -25.5t-23.5 -47.5t-24 -52t-18 -46.5t-2 -23.5q1 -1 3 0t5 4t6 6.5t7 9t7 10t8 11.5
t8 12.5t8 13t8 11.5l18 33q22 46 49 76q31 38 62 28q11 -4 23 -15.5t12 -23.5v-4l4 8q4 4 8 0q1 -1 4 -3.5t4 -4t3.5 -4.5t3.5 -5t1.5 -4.5t-1 -5.5t-3.5 -5q-19 -22 -35 -70q-11 -22 -4 -22q2 0 4 2q10 8 28 30t30 45l12 19q1 1 2 4t2 4q11 28 20 39.5t15.5 11t15.5 -7.5
q23 -27 19 -31q-17 -17 -31 -63q-5 -17 -5 -36.5t2 -30.5l3 -11q18 55 61 122t60 81q16 11 27.5 9.5t31.5 -15.5q9 -10 9 -12t-11 -9q-25 -17 -45 -39q-33 -33 -58 -75.5t-32 -69.5q-3 -8 -4.5 -16t-1.5 -11t-1 -6.5t-3 -2.5t-8 1q-28 0 -52 31q-2 2 -20 43q0 7 11.5 36
t13.5 35q0 2 -2 0q-18 -51 -54 -94q-1 -2 -4 -5q-9 -12 -15 -18t-16 -14t-19 -6.5t-17 12.5q-12 20 -19 48q-26 -47 -43 -64q-10 -11 -20.5 -5.5t-18.5 21.5q-6 6 17 62l-21 -39q-23 -50 -47 -74q-23 -28 -55 4q-23 23 -23 58q-20 -30 -33 -43q-11 -12 -24 -1.5t-21 33.5
q-7 7 21 62q-17 -27 -19 -35q-40 -69 -57 -74h-4q-10 0 -25 11q-17 21 -17.5 35t11.5 40l39 82q-30 -26 -53 -28q4 -2 14 -2q-9 -27 -12 -33q-35 -78 -72 -113q-13 -16 -30 -16q-18 3 -49 24t-37 35q-7 12 -2.5 41t18.5 53q-31 -33 -54 -72t-28 -61q-4 -10 -5.5 -20
t-1.5 -11.5t-3 -4.5t-10 1q-27 0 -52 31q-12 12 -18 47q0 25 18 66v2q-5 -14 -43 -88q-11 -21 -31 -47t-20 -27q-14 -14 -22.5 -13t-24.5 17q-12 14 -18 39q-4 11 30 66q2 2 2 6l-2 -2q-16 -25 -37 -51t-24 -31q-12 -9 -20.5 -8.5t-18.5 12.5q-17 17 -20 26.5t4 36.5z
M322 379q4 8 9 10.5t8.5 1t4.5 -3.5q29 -29 41 -29q36 -8 56 10q16 16 -7 27q-1 0 -13.5 4.5t-22.5 9t-22.5 13t-21 21.5t-10.5 30q0 23 4 35q47 6 68 -4q-15 -37 12 -64q6 -4 23 -11t27.5 -15.5t10.5 -22.5q3 -30 -19.5 -59.5t-61.5 -38.5q-46 -13 -70.5 25.5t-15.5 60.5z
M369 911q16 28 16 56q2 16 35 -4q10 -16 11.5 -20.5t-3.5 -22.5q-12 -24 -29 -41q-6 -9 -22 0q-9 9 -10 11.5t2 20.5zM446 557q23 -9 33 -25q25 11 45 50q17 24 9 32.5t-27 -0.5q-39 -33 -60 -57zM455 178q5 32 21 46.5t44 25.5q57 15 232.5 27t261.5 12q94 3 116 0.5
t25 -17.5q6 -13 5 -14.5t-12 -0.5q-12 1 -20 1q-47 6 -217 -12q-184 -15 -297 -43q-55 -9 -120 -43q-21 -18 -33 -15.5t-6 33.5zM485 453q2 2 7.5 0t9.5 0q29 7 55 28q50 32 55 47l2 2q-30 0 -30 37q0 21 8 28q3 2 4 -1q12 -20 51 -12l2 4q21 44 21 51q-2 12 1.5 15t9 -0.5
t9.5 -10.5q14 -27 10 -35v-4q8 3 49 19.5t72 27t47 10.5q25 0 40.5 -12t15.5 -31q4 -22 -11 -27q-3 -1 -4 1q-16 16 -59 16q-17 0 -55 -12.5t-86 -31.5t-60 -23q21 3 20 -6q0 -4 -3 -5q-16 -24 -19 -36q-14 -24 -30 -59t-13 -42q8 -22 45 40q2 3 4 7l17 25q37 59 43 76
q3 18 7.5 19.5t16.5 -11.5q23 -26 19 -39q-1 -6 -19 -33.5t-32 -60.5q-17 -41 -9 -39q9 0 47 51q9 16 19.5 33.5t17 28t13 21.5t10 17.5t7 12.5t4.5 9.5t1 6.5q0 8 7 9q7 0 16 -13q11 -11 16 -21q0 -2 -16 -34q0 -1 -9 -20q-42 -81 -32 -82q2 0 6 3q48 63 59 80l8 15
q17 36 45 67q33 35 56 27q20 -7 30 -23q6 11 19.5 38.5t21.5 43.5q2 9 3 16.5t1.5 10t2.5 4.5q14 9 36 -35q3 -15 -20 -59q-17 -26 -54 -107.5t-24 -87.5q2 -2 17 18q8 11 40 60l23 41l6 14q9 12 23 39q4 5 8.5 12t6.5 9.5t5 6t6 3t7 -2t10 -5.5q12 -5 15 -9.5t1 -9
t-12 -16.5q-2 -2 -43 -82q-14 -29 -13 -31q8 0 56 51q8 10 21 28t18 24q20 38 32 30q40 61 78 15q10 -15 9 -33t-7 -33l-6 -16q63 38 64 105q2 45 -22 61q-9 6 -19 2q-12 -4 -12 5q1 16 26 31q7 4 14 7q18 5 32 0.5t20 -15.5q18 -50 5.5 -100t-53.5 -89.5t-90 -45.5
q14 0 17.5 -4.5t-2.5 -18.5q-21 -43 -43 -59q-13 -20 -43 0q-13 9 -18 12.5t-12 13t-9 21.5q0 4 7 17t16.5 29t11.5 20l-7 -9q-6 -6 -8 -10q-45 -67 -63 -82q-19 -16 -39 4q-4 2 16 62q-4 -8 -11.5 -22.5t-8.5 -16.5q-11 -21 -29 -47t-18 -27q-27 -30 -58 4q-25 29 -20 58
q-9 -10 -18.5 -25.5t-12.5 -18.5q-12 -12 -26.5 -0.5t-20.5 35.5q-3 11 16 49l-20 -32q-2 -2 -6.5 -9t-8.5 -12.5t-10.5 -13.5t-11 -12.5t-11.5 -9.5t-11.5 -5t-10.5 2q-32 16 -32 43q-13 -25 -43 -65q-16 -19 -31 -4q-21 21 -25 26q-1 4 4.5 16.5t15 33t13.5 30.5l-20 -33
q-21 -39 -35.5 -59t-30.5 -23q-11 0 -25 20.5t-18 35.5v12q0 18 5 31t19.5 32.5t18.5 26.5l-64 -67q-17 -17 -38 12q-16 24 -9 31zM737 801q4 -5 12 2t19 22q9 10 13 23t-1 16q-10 5 -32 -24q-19 -35 -11 -39zM897 414q2 -2 10.5 6t20.5 23.5t24 33.5q46 67 35 78
q-6 6 -21 -10t-38 -49q-13 -22 -21 -41t-10 -29t0 -12zM999 762q4 -3 20 16t38 51q12 17 20.5 34t10.5 27t-1 13q-2 10 -25 -18q-14 -17 -28 -41q-14 -22 -23 -41t-11.5 -29t-0.5 -12zM1130 625q5 9 9.5 20.5t7.5 24t4 14.5q0 18 20 3q6 -5 11 -11q21 -21 8 -39
q-12 -24 -27 -39q-4 -13 -24 0q-8 8 -9.5 11t0.5 16zM1186 440q0 -30 20 -10q5 4 11 14t9 18l3 7q-11 9 -23 27q-20 -36 -20 -56zM1202 778q3 -3 22 22q4 5 33 44q17 25 27.5 49t7.5 27q-4 3 -12 -2.5t-20.5 -20t-26.5 -37.5q-44 -76 -31 -82zM1229 520q0 -9 4 -15t8 -7
l4 -2q14 29 19.5 52t-0.5 25q-7 3 -19.5 -17.5t-15.5 -35.5z" />
    <glyph glyph-name="six" unicode="6" horiz-adv-x="1642" 
d="M141 586q-54 -12 -81 32t-17 74q7 15 14 15t11 -7q27 -43 65 -43q38 -3 62 21q20 19 -2 29l-35 12q-34 12 -55.5 31.5t-22.5 50.5q-3 37 16.5 75.5t50.5 66t67 48.5t65.5 22t46.5 -12q11 -12 15.5 -19t8.5 -23t-2 -33q-4 -24 -32 -67.5t-46 -61.5q-19 -9 -24 -9t-19 9
q-30 30 -16 39q35 19 80 90q11 20 10.5 32.5t-9.5 13.5t-22 -5q-25 -17 -59 -50.5t-49 -64.5q-17 -40 -15 -55t21 -31q8 -6 32.5 -14.5t40.5 -20t17 -29.5q0 -33 -30 -66t-87 -50zM158 535q-4 26 8 27q3 1 6 -3q5 -5 19 -7t40 -1.5t43 1t53 2.5t46 3q41 54 99 82.5t85 5.5
q13 -18 15.5 -26.5t-1.5 -36.5q-3 -21 -20 -48.5t-33 -41.5q-13 -10 -18 -9t-15 9l-2 2l-6 6q-12 18 -50.5 18.5t-77.5 -9t-83 -20.5t-57 -12q-26 0 -38.5 22.5t-12.5 35.5zM283 739q6 16 26 62q19 29 25 39q11 26 17.5 30t25.5 -6q13 -9 14 -15.5t-10 -19.5
q-23 -28 -43 -79q-16 -31 -12 -35q1 0 55 51l35 47q6 13 25 55.5t34 73.5q3 9 4.5 15.5t1.5 9t0.5 4t3.5 2.5q6 6 18 -8t15 -27q2 -15 -16 -59q-18 -26 -55 -105.5t-27 -89.5q7 -3 40.5 48t41.5 69l14 22q0 2 1 5.5t1 5.5q16 36 28 42.5t21 -4.5q27 -26 21 -32
q-20 -20 -31 -62q-5 -17 -5 -36.5t2 -30.5l3 -11q15 55 58 121t63 82q23 21 59 -8q9 -12 2 -16q-28 -20 -43 -35q16 13 29.5 20.5t19.5 10t7 4.5q2 2 1 5.5t-3 7.5l-2 3q20 4 51 -27q16 -16 4 -47q-6 -20 -17.5 -36t-21.5 -19q-11 0 -24.5 7.5t-18.5 19.5q-11 -36 -4 -62
q3 -13 19.5 -15.5t31.5 11.5q8 7 18 20.5t25.5 38t17.5 27.5l13 25q-17 11 -17 41q0 12 4 16q2 2 4.5 0t9 -5t15.5 -3q14 0 36 7.5t34 16.5q15 4 15.5 4t12.5 -8q10 -8 11 -12t-9 -23q-6 -14 -22 -43t-21 -38q-10 -33 -10 -41q5 -2 15.5 10.5t19.5 30.5q4 7 14.5 20.5
t12.5 17.5l10 17q20 34 41 61q30 34 59 27q14 -7 27 -23q15 28 39 82q4 9 6 15.5t2 9t0.5 5t3.5 5.5q6 3 17 -11.5t14 -27.5q1 -4 1.5 -6.5t-1 -7.5t-3.5 -9t-7 -15t-9 -21q-1 -3 -12.5 -25.5t-23.5 -47.5t-24 -52t-18 -46.5t-2 -23.5q1 -1 3 0t5 4t6 6.5t7 9t7 10t8 11.5
t8 12.5t8 13t8 11.5l18 33q22 46 49 76q31 38 62 28q11 -4 23 -15.5t12 -23.5v-4l4 8q4 4 8 0q1 -1 4 -3.5t4 -4t3.5 -4.5t3.5 -5t1.5 -4.5t-1 -5.5t-3.5 -5q-19 -22 -35 -70q-11 -22 -4 -22q2 0 4 2q10 8 28 30t30 45l12 19q1 1 2 4t2 4q11 28 20 39.5t15.5 11t15.5 -7.5
q23 -27 19 -31q-17 -17 -31 -63q-5 -17 -5 -36.5t2 -30.5l3 -11q18 55 61 122t60 81q16 11 27.5 9.5t31.5 -15.5q9 -10 9 -12t-11 -9q-25 -17 -45 -39q-33 -33 -58 -75.5t-32 -69.5q-3 -8 -4.5 -16t-1.5 -11t-1 -6.5t-3 -2.5t-8 1q-28 0 -52 31q-2 2 -20 43q0 7 11.5 36
t13.5 35q0 2 -2 0q-18 -51 -54 -94q-1 -2 -4 -5q-9 -12 -15 -18t-16 -14t-19 -6.5t-17 12.5q-12 20 -19 48q-26 -47 -43 -64q-10 -11 -20.5 -5.5t-18.5 21.5q-6 6 17 62l-21 -39q-23 -50 -47 -74q-23 -28 -55 4q-23 23 -23 58q-20 -30 -33 -43q-11 -12 -24 -1.5t-21 33.5
q-7 7 21 62q-17 -27 -19 -35q-40 -69 -57 -74h-4q-10 0 -25 11q-17 21 -17.5 35t11.5 40l39 82q-30 -26 -53 -28q4 -2 14 -2q-9 -27 -12 -33q-35 -78 -72 -113q-13 -16 -30 -16q-18 3 -49 24t-37 35q-7 12 -2.5 41t18.5 53q-31 -33 -54 -72t-28 -61q-4 -10 -5.5 -20
t-1.5 -11.5t-3 -4.5t-10 1q-27 0 -52 31q-12 12 -18 47q0 25 18 66v2q-5 -14 -43 -88q-11 -21 -31 -47t-20 -27q-14 -14 -22.5 -13t-24.5 17q-12 14 -18 39q-4 11 30 66q2 2 2 6l-2 -2q-16 -25 -37 -51t-24 -31q-12 -9 -20.5 -8.5t-18.5 12.5q-17 17 -20 26.5t4 36.5z
M322 379q4 8 9 10.5t8.5 1t4.5 -3.5q29 -29 41 -29q36 -8 56 10q16 16 -7 27q-1 0 -13.5 4.5t-22.5 9t-22.5 13t-21 21.5t-10.5 30q0 23 4 35q47 6 68 -4q-15 -37 12 -64q6 -4 23 -11t27.5 -15.5t10.5 -22.5q3 -30 -19.5 -59.5t-61.5 -38.5q-46 -13 -70.5 25.5t-15.5 60.5z
M369 911q16 28 16 56q2 16 35 -4q10 -16 11.5 -20.5t-3.5 -22.5q-12 -24 -29 -41q-6 -9 -22 0q-9 9 -10 11.5t2 20.5zM446 557q23 -9 33 -25q25 11 45 50q17 24 9 32.5t-27 -0.5q-39 -33 -60 -57zM455 178q5 32 21 46.5t44 25.5q57 15 232.5 27t261.5 12q94 3 116 0.5
t25 -17.5q6 -13 5 -14.5t-12 -0.5q-12 1 -20 1q-47 6 -217 -12q-184 -15 -297 -43q-55 -9 -120 -43q-21 -18 -33 -15.5t-6 33.5zM485 453q2 2 7.5 0t9.5 0q29 7 55 28q50 32 55 47l2 2q-30 0 -30 37q0 21 8 28q3 2 4 -1q12 -20 51 -12l2 4q21 44 21 51q-2 12 1.5 15t9 -0.5
t9.5 -10.5q14 -27 10 -35v-4q8 3 49 19.5t72 27t47 10.5q25 0 40.5 -12t15.5 -31q4 -22 -11 -27q-3 -1 -4 1q-16 16 -59 16q-17 0 -55 -12.5t-86 -31.5t-60 -23q21 3 20 -6q0 -4 -3 -5q-16 -24 -19 -36q-14 -24 -30 -59t-13 -42q8 -22 45 40q2 3 4 7l17 25q37 59 43 76
q3 18 7.5 19.5t16.5 -11.5q23 -26 19 -39q-1 -6 -19 -33.5t-32 -60.5q-17 -41 -9 -39q9 0 47 51q9 16 19.5 33.5t17 28t13 21.5t10 17.5t7 12.5t4.5 9.5t1 6.5q0 8 7 9q7 0 16 -13q11 -11 16 -21q0 -2 -16 -34q0 -1 -9 -20q-42 -81 -32 -82q2 0 6 3q48 63 59 80l8 15
q17 36 45 67q33 35 56 27q20 -7 30 -23q6 11 19.5 38.5t21.5 43.5q2 9 3 16.5t1.5 10t2.5 4.5q14 9 36 -35q3 -15 -20 -59q-17 -26 -54 -107.5t-24 -87.5q2 -2 17 18q8 11 40 60l23 41l6 14q9 12 23 39q4 5 8.5 12t6.5 9.5t5 6t6 3t7 -2t10 -5.5q12 -5 15 -9.5t1 -9
t-12 -16.5q-2 -2 -43 -82q-14 -29 -13 -31q8 0 56 51q8 10 21 28t18 24q20 38 32 30q40 61 78 15q10 -15 9 -33t-7 -33l-6 -16q63 38 64 105q2 45 -22 61q-9 6 -19 2q-12 -4 -12 5q1 16 26 31q7 4 14 7q18 5 32 0.5t20 -15.5q18 -50 5.5 -100t-53.5 -89.5t-90 -45.5
q14 0 17.5 -4.5t-2.5 -18.5q-21 -43 -43 -59q-13 -20 -43 0q-13 9 -18 12.5t-12 13t-9 21.5q0 4 7 17t16.5 29t11.5 20l-7 -9q-6 -6 -8 -10q-45 -67 -63 -82q-19 -16 -39 4q-4 2 16 62q-4 -8 -11.5 -22.5t-8.5 -16.5q-11 -21 -29 -47t-18 -27q-27 -30 -58 4q-25 29 -20 58
q-9 -10 -18.5 -25.5t-12.5 -18.5q-12 -12 -26.5 -0.5t-20.5 35.5q-3 11 16 49l-20 -32q-2 -2 -6.5 -9t-8.5 -12.5t-10.5 -13.5t-11 -12.5t-11.5 -9.5t-11.5 -5t-10.5 2q-32 16 -32 43q-13 -25 -43 -65q-16 -19 -31 -4q-21 21 -25 26q-1 4 4.5 16.5t15 33t13.5 30.5l-20 -33
q-21 -39 -35.5 -59t-30.5 -23q-11 0 -25 20.5t-18 35.5v12q0 18 5 31t19.5 32.5t18.5 26.5l-64 -67q-17 -17 -38 12q-16 24 -9 31zM737 801q4 -5 12 2t19 22q9 10 13 23t-1 16q-10 5 -32 -24q-19 -35 -11 -39zM897 414q2 -2 10.5 6t20.5 23.5t24 33.5q46 67 35 78
q-6 6 -21 -10t-38 -49q-13 -22 -21 -41t-10 -29t0 -12zM999 762q4 -3 20 16t38 51q12 17 20.5 34t10.5 27t-1 13q-2 10 -25 -18q-14 -17 -28 -41q-14 -22 -23 -41t-11.5 -29t-0.5 -12zM1130 625q5 9 9.5 20.5t7.5 24t4 14.5q0 18 20 3q6 -5 11 -11q21 -21 8 -39
q-12 -24 -27 -39q-4 -13 -24 0q-8 8 -9.5 11t0.5 16zM1186 440q0 -30 20 -10q5 4 11 14t9 18l3 7q-11 9 -23 27q-20 -36 -20 -56zM1202 778q3 -3 22 22q4 5 33 44q17 25 27.5 49t7.5 27q-4 3 -12 -2.5t-20.5 -20t-26.5 -37.5q-44 -76 -31 -82zM1229 520q0 -9 4 -15t8 -7
l4 -2q14 29 19.5 52t-0.5 25q-7 3 -19.5 -17.5t-15.5 -35.5z" />
    <glyph glyph-name="seven" unicode="7" horiz-adv-x="1642" 
d="M141 586q-54 -12 -81 32t-17 74q7 15 14 15t11 -7q27 -43 65 -43q38 -3 62 21q20 19 -2 29l-35 12q-34 12 -55.5 31.5t-22.5 50.5q-3 37 16.5 75.5t50.5 66t67 48.5t65.5 22t46.5 -12q11 -12 15.5 -19t8.5 -23t-2 -33q-4 -24 -32 -67.5t-46 -61.5q-19 -9 -24 -9t-19 9
q-30 30 -16 39q35 19 80 90q11 20 10.5 32.5t-9.5 13.5t-22 -5q-25 -17 -59 -50.5t-49 -64.5q-17 -40 -15 -55t21 -31q8 -6 32.5 -14.5t40.5 -20t17 -29.5q0 -33 -30 -66t-87 -50zM158 535q-4 26 8 27q3 1 6 -3q5 -5 19 -7t40 -1.5t43 1t53 2.5t46 3q41 54 99 82.5t85 5.5
q13 -18 15.5 -26.5t-1.5 -36.5q-3 -21 -20 -48.5t-33 -41.5q-13 -10 -18 -9t-15 9l-2 2l-6 6q-12 18 -50.5 18.5t-77.5 -9t-83 -20.5t-57 -12q-26 0 -38.5 22.5t-12.5 35.5zM283 739q6 16 26 62q19 29 25 39q11 26 17.5 30t25.5 -6q13 -9 14 -15.5t-10 -19.5
q-23 -28 -43 -79q-16 -31 -12 -35q1 0 55 51l35 47q6 13 25 55.5t34 73.5q3 9 4.5 15.5t1.5 9t0.5 4t3.5 2.5q6 6 18 -8t15 -27q2 -15 -16 -59q-18 -26 -55 -105.5t-27 -89.5q7 -3 40.5 48t41.5 69l14 22q0 2 1 5.5t1 5.5q16 36 28 42.5t21 -4.5q27 -26 21 -32
q-20 -20 -31 -62q-5 -17 -5 -36.5t2 -30.5l3 -11q15 55 58 121t63 82q23 21 59 -8q9 -12 2 -16q-28 -20 -43 -35q16 13 29.5 20.5t19.5 10t7 4.5q2 2 1 5.5t-3 7.5l-2 3q20 4 51 -27q16 -16 4 -47q-6 -20 -17.5 -36t-21.5 -19q-11 0 -24.5 7.5t-18.5 19.5q-11 -36 -4 -62
q3 -13 19.5 -15.5t31.5 11.5q8 7 18 20.5t25.5 38t17.5 27.5l13 25q-17 11 -17 41q0 12 4 16q2 2 4.5 0t9 -5t15.5 -3q14 0 36 7.5t34 16.5q15 4 15.5 4t12.5 -8q10 -8 11 -12t-9 -23q-6 -14 -22 -43t-21 -38q-10 -33 -10 -41q5 -2 15.5 10.5t19.5 30.5q4 7 14.5 20.5
t12.5 17.5l10 17q20 34 41 61q30 34 59 27q14 -7 27 -23q15 28 39 82q4 9 6 15.5t2 9t0.5 5t3.5 5.5q6 3 17 -11.5t14 -27.5q1 -4 1.5 -6.5t-1 -7.5t-3.5 -9t-7 -15t-9 -21q-1 -3 -12.5 -25.5t-23.5 -47.5t-24 -52t-18 -46.5t-2 -23.5q1 -1 3 0t5 4t6 6.5t7 9t7 10t8 11.5
t8 12.5t8 13t8 11.5l18 33q22 46 49 76q31 38 62 28q11 -4 23 -15.5t12 -23.5v-4l4 8q4 4 8 0q1 -1 4 -3.5t4 -4t3.5 -4.5t3.5 -5t1.5 -4.5t-1 -5.5t-3.5 -5q-19 -22 -35 -70q-11 -22 -4 -22q2 0 4 2q10 8 28 30t30 45l12 19q1 1 2 4t2 4q11 28 20 39.5t15.5 11t15.5 -7.5
q23 -27 19 -31q-17 -17 -31 -63q-5 -17 -5 -36.5t2 -30.5l3 -11q18 55 61 122t60 81q16 11 27.5 9.5t31.5 -15.5q9 -10 9 -12t-11 -9q-25 -17 -45 -39q-33 -33 -58 -75.5t-32 -69.5q-3 -8 -4.5 -16t-1.5 -11t-1 -6.5t-3 -2.5t-8 1q-28 0 -52 31q-2 2 -20 43q0 7 11.5 36
t13.5 35q0 2 -2 0q-18 -51 -54 -94q-1 -2 -4 -5q-9 -12 -15 -18t-16 -14t-19 -6.5t-17 12.5q-12 20 -19 48q-26 -47 -43 -64q-10 -11 -20.5 -5.5t-18.5 21.5q-6 6 17 62l-21 -39q-23 -50 -47 -74q-23 -28 -55 4q-23 23 -23 58q-20 -30 -33 -43q-11 -12 -24 -1.5t-21 33.5
q-7 7 21 62q-17 -27 -19 -35q-40 -69 -57 -74h-4q-10 0 -25 11q-17 21 -17.5 35t11.5 40l39 82q-30 -26 -53 -28q4 -2 14 -2q-9 -27 -12 -33q-35 -78 -72 -113q-13 -16 -30 -16q-18 3 -49 24t-37 35q-7 12 -2.5 41t18.5 53q-31 -33 -54 -72t-28 -61q-4 -10 -5.5 -20
t-1.5 -11.5t-3 -4.5t-10 1q-27 0 -52 31q-12 12 -18 47q0 25 18 66v2q-5 -14 -43 -88q-11 -21 -31 -47t-20 -27q-14 -14 -22.5 -13t-24.5 17q-12 14 -18 39q-4 11 30 66q2 2 2 6l-2 -2q-16 -25 -37 -51t-24 -31q-12 -9 -20.5 -8.5t-18.5 12.5q-17 17 -20 26.5t4 36.5z
M322 379q4 8 9 10.5t8.5 1t4.5 -3.5q29 -29 41 -29q36 -8 56 10q16 16 -7 27q-1 0 -13.5 4.5t-22.5 9t-22.5 13t-21 21.5t-10.5 30q0 23 4 35q47 6 68 -4q-15 -37 12 -64q6 -4 23 -11t27.5 -15.5t10.5 -22.5q3 -30 -19.5 -59.5t-61.5 -38.5q-46 -13 -70.5 25.5t-15.5 60.5z
M369 911q16 28 16 56q2 16 35 -4q10 -16 11.5 -20.5t-3.5 -22.5q-12 -24 -29 -41q-6 -9 -22 0q-9 9 -10 11.5t2 20.5zM446 557q23 -9 33 -25q25 11 45 50q17 24 9 32.5t-27 -0.5q-39 -33 -60 -57zM455 178q5 32 21 46.5t44 25.5q57 15 232.5 27t261.5 12q94 3 116 0.5
t25 -17.5q6 -13 5 -14.5t-12 -0.5q-12 1 -20 1q-47 6 -217 -12q-184 -15 -297 -43q-55 -9 -120 -43q-21 -18 -33 -15.5t-6 33.5zM485 453q2 2 7.5 0t9.5 0q29 7 55 28q50 32 55 47l2 2q-30 0 -30 37q0 21 8 28q3 2 4 -1q12 -20 51 -12l2 4q21 44 21 51q-2 12 1.5 15t9 -0.5
t9.5 -10.5q14 -27 10 -35v-4q8 3 49 19.5t72 27t47 10.5q25 0 40.5 -12t15.5 -31q4 -22 -11 -27q-3 -1 -4 1q-16 16 -59 16q-17 0 -55 -12.5t-86 -31.5t-60 -23q21 3 20 -6q0 -4 -3 -5q-16 -24 -19 -36q-14 -24 -30 -59t-13 -42q8 -22 45 40q2 3 4 7l17 25q37 59 43 76
q3 18 7.5 19.5t16.5 -11.5q23 -26 19 -39q-1 -6 -19 -33.5t-32 -60.5q-17 -41 -9 -39q9 0 47 51q9 16 19.5 33.5t17 28t13 21.5t10 17.5t7 12.5t4.5 9.5t1 6.5q0 8 7 9q7 0 16 -13q11 -11 16 -21q0 -2 -16 -34q0 -1 -9 -20q-42 -81 -32 -82q2 0 6 3q48 63 59 80l8 15
q17 36 45 67q33 35 56 27q20 -7 30 -23q6 11 19.5 38.5t21.5 43.5q2 9 3 16.5t1.5 10t2.5 4.5q14 9 36 -35q3 -15 -20 -59q-17 -26 -54 -107.5t-24 -87.5q2 -2 17 18q8 11 40 60l23 41l6 14q9 12 23 39q4 5 8.5 12t6.5 9.5t5 6t6 3t7 -2t10 -5.5q12 -5 15 -9.5t1 -9
t-12 -16.5q-2 -2 -43 -82q-14 -29 -13 -31q8 0 56 51q8 10 21 28t18 24q20 38 32 30q40 61 78 15q10 -15 9 -33t-7 -33l-6 -16q63 38 64 105q2 45 -22 61q-9 6 -19 2q-12 -4 -12 5q1 16 26 31q7 4 14 7q18 5 32 0.5t20 -15.5q18 -50 5.5 -100t-53.5 -89.5t-90 -45.5
q14 0 17.5 -4.5t-2.5 -18.5q-21 -43 -43 -59q-13 -20 -43 0q-13 9 -18 12.5t-12 13t-9 21.5q0 4 7 17t16.5 29t11.5 20l-7 -9q-6 -6 -8 -10q-45 -67 -63 -82q-19 -16 -39 4q-4 2 16 62q-4 -8 -11.5 -22.5t-8.5 -16.5q-11 -21 -29 -47t-18 -27q-27 -30 -58 4q-25 29 -20 58
q-9 -10 -18.5 -25.5t-12.5 -18.5q-12 -12 -26.5 -0.5t-20.5 35.5q-3 11 16 49l-20 -32q-2 -2 -6.5 -9t-8.5 -12.5t-10.5 -13.5t-11 -12.5t-11.5 -9.5t-11.5 -5t-10.5 2q-32 16 -32 43q-13 -25 -43 -65q-16 -19 -31 -4q-21 21 -25 26q-1 4 4.5 16.5t15 33t13.5 30.5l-20 -33
q-21 -39 -35.5 -59t-30.5 -23q-11 0 -25 20.5t-18 35.5v12q0 18 5 31t19.5 32.5t18.5 26.5l-64 -67q-17 -17 -38 12q-16 24 -9 31zM737 801q4 -5 12 2t19 22q9 10 13 23t-1 16q-10 5 -32 -24q-19 -35 -11 -39zM897 414q2 -2 10.5 6t20.5 23.5t24 33.5q46 67 35 78
q-6 6 -21 -10t-38 -49q-13 -22 -21 -41t-10 -29t0 -12zM999 762q4 -3 20 16t38 51q12 17 20.5 34t10.5 27t-1 13q-2 10 -25 -18q-14 -17 -28 -41q-14 -22 -23 -41t-11.5 -29t-0.5 -12zM1130 625q5 9 9.5 20.5t7.5 24t4 14.5q0 18 20 3q6 -5 11 -11q21 -21 8 -39
q-12 -24 -27 -39q-4 -13 -24 0q-8 8 -9.5 11t0.5 16zM1186 440q0 -30 20 -10q5 4 11 14t9 18l3 7q-11 9 -23 27q-20 -36 -20 -56zM1202 778q3 -3 22 22q4 5 33 44q17 25 27.5 49t7.5 27q-4 3 -12 -2.5t-20.5 -20t-26.5 -37.5q-44 -76 -31 -82zM1229 520q0 -9 4 -15t8 -7
l4 -2q14 29 19.5 52t-0.5 25q-7 3 -19.5 -17.5t-15.5 -35.5z" />
    <glyph glyph-name="eight" unicode="8" horiz-adv-x="1642" 
d="M141 586q-54 -12 -81 32t-17 74q7 15 14 15t11 -7q27 -43 65 -43q38 -3 62 21q20 19 -2 29l-35 12q-34 12 -55.5 31.5t-22.5 50.5q-3 37 16.5 75.5t50.5 66t67 48.5t65.5 22t46.5 -12q11 -12 15.5 -19t8.5 -23t-2 -33q-4 -24 -32 -67.5t-46 -61.5q-19 -9 -24 -9t-19 9
q-30 30 -16 39q35 19 80 90q11 20 10.5 32.5t-9.5 13.5t-22 -5q-25 -17 -59 -50.5t-49 -64.5q-17 -40 -15 -55t21 -31q8 -6 32.5 -14.5t40.5 -20t17 -29.5q0 -33 -30 -66t-87 -50zM158 535q-4 26 8 27q3 1 6 -3q5 -5 19 -7t40 -1.5t43 1t53 2.5t46 3q41 54 99 82.5t85 5.5
q13 -18 15.5 -26.5t-1.5 -36.5q-3 -21 -20 -48.5t-33 -41.5q-13 -10 -18 -9t-15 9l-2 2l-6 6q-12 18 -50.5 18.5t-77.5 -9t-83 -20.5t-57 -12q-26 0 -38.5 22.5t-12.5 35.5zM283 739q6 16 26 62q19 29 25 39q11 26 17.5 30t25.5 -6q13 -9 14 -15.5t-10 -19.5
q-23 -28 -43 -79q-16 -31 -12 -35q1 0 55 51l35 47q6 13 25 55.5t34 73.5q3 9 4.5 15.5t1.5 9t0.5 4t3.5 2.5q6 6 18 -8t15 -27q2 -15 -16 -59q-18 -26 -55 -105.5t-27 -89.5q7 -3 40.5 48t41.5 69l14 22q0 2 1 5.5t1 5.5q16 36 28 42.5t21 -4.5q27 -26 21 -32
q-20 -20 -31 -62q-5 -17 -5 -36.5t2 -30.5l3 -11q15 55 58 121t63 82q23 21 59 -8q9 -12 2 -16q-28 -20 -43 -35q16 13 29.5 20.5t19.5 10t7 4.5q2 2 1 5.5t-3 7.5l-2 3q20 4 51 -27q16 -16 4 -47q-6 -20 -17.5 -36t-21.5 -19q-11 0 -24.5 7.5t-18.5 19.5q-11 -36 -4 -62
q3 -13 19.5 -15.5t31.5 11.5q8 7 18 20.5t25.5 38t17.5 27.5l13 25q-17 11 -17 41q0 12 4 16q2 2 4.5 0t9 -5t15.5 -3q14 0 36 7.5t34 16.5q15 4 15.5 4t12.5 -8q10 -8 11 -12t-9 -23q-6 -14 -22 -43t-21 -38q-10 -33 -10 -41q5 -2 15.5 10.5t19.5 30.5q4 7 14.5 20.5
t12.5 17.5l10 17q20 34 41 61q30 34 59 27q14 -7 27 -23q15 28 39 82q4 9 6 15.5t2 9t0.5 5t3.5 5.5q6 3 17 -11.5t14 -27.5q1 -4 1.5 -6.5t-1 -7.5t-3.5 -9t-7 -15t-9 -21q-1 -3 -12.5 -25.5t-23.5 -47.5t-24 -52t-18 -46.5t-2 -23.5q1 -1 3 0t5 4t6 6.5t7 9t7 10t8 11.5
t8 12.5t8 13t8 11.5l18 33q22 46 49 76q31 38 62 28q11 -4 23 -15.5t12 -23.5v-4l4 8q4 4 8 0q1 -1 4 -3.5t4 -4t3.5 -4.5t3.5 -5t1.5 -4.5t-1 -5.5t-3.5 -5q-19 -22 -35 -70q-11 -22 -4 -22q2 0 4 2q10 8 28 30t30 45l12 19q1 1 2 4t2 4q11 28 20 39.5t15.5 11t15.5 -7.5
q23 -27 19 -31q-17 -17 -31 -63q-5 -17 -5 -36.5t2 -30.5l3 -11q18 55 61 122t60 81q16 11 27.5 9.5t31.5 -15.5q9 -10 9 -12t-11 -9q-25 -17 -45 -39q-33 -33 -58 -75.5t-32 -69.5q-3 -8 -4.5 -16t-1.5 -11t-1 -6.5t-3 -2.5t-8 1q-28 0 -52 31q-2 2 -20 43q0 7 11.5 36
t13.5 35q0 2 -2 0q-18 -51 -54 -94q-1 -2 -4 -5q-9 -12 -15 -18t-16 -14t-19 -6.5t-17 12.5q-12 20 -19 48q-26 -47 -43 -64q-10 -11 -20.5 -5.5t-18.5 21.5q-6 6 17 62l-21 -39q-23 -50 -47 -74q-23 -28 -55 4q-23 23 -23 58q-20 -30 -33 -43q-11 -12 -24 -1.5t-21 33.5
q-7 7 21 62q-17 -27 -19 -35q-40 -69 -57 -74h-4q-10 0 -25 11q-17 21 -17.5 35t11.5 40l39 82q-30 -26 -53 -28q4 -2 14 -2q-9 -27 -12 -33q-35 -78 -72 -113q-13 -16 -30 -16q-18 3 -49 24t-37 35q-7 12 -2.5 41t18.5 53q-31 -33 -54 -72t-28 -61q-4 -10 -5.5 -20
t-1.5 -11.5t-3 -4.5t-10 1q-27 0 -52 31q-12 12 -18 47q0 25 18 66v2q-5 -14 -43 -88q-11 -21 -31 -47t-20 -27q-14 -14 -22.5 -13t-24.5 17q-12 14 -18 39q-4 11 30 66q2 2 2 6l-2 -2q-16 -25 -37 -51t-24 -31q-12 -9 -20.5 -8.5t-18.5 12.5q-17 17 -20 26.5t4 36.5z
M322 379q4 8 9 10.5t8.5 1t4.5 -3.5q29 -29 41 -29q36 -8 56 10q16 16 -7 27q-1 0 -13.5 4.5t-22.5 9t-22.5 13t-21 21.5t-10.5 30q0 23 4 35q47 6 68 -4q-15 -37 12 -64q6 -4 23 -11t27.5 -15.5t10.5 -22.5q3 -30 -19.5 -59.5t-61.5 -38.5q-46 -13 -70.5 25.5t-15.5 60.5z
M369 911q16 28 16 56q2 16 35 -4q10 -16 11.5 -20.5t-3.5 -22.5q-12 -24 -29 -41q-6 -9 -22 0q-9 9 -10 11.5t2 20.5zM446 557q23 -9 33 -25q25 11 45 50q17 24 9 32.5t-27 -0.5q-39 -33 -60 -57zM455 178q5 32 21 46.5t44 25.5q57 15 232.5 27t261.5 12q94 3 116 0.5
t25 -17.5q6 -13 5 -14.5t-12 -0.5q-12 1 -20 1q-47 6 -217 -12q-184 -15 -297 -43q-55 -9 -120 -43q-21 -18 -33 -15.5t-6 33.5zM485 453q2 2 7.5 0t9.5 0q29 7 55 28q50 32 55 47l2 2q-30 0 -30 37q0 21 8 28q3 2 4 -1q12 -20 51 -12l2 4q21 44 21 51q-2 12 1.5 15t9 -0.5
t9.5 -10.5q14 -27 10 -35v-4q8 3 49 19.5t72 27t47 10.5q25 0 40.5 -12t15.5 -31q4 -22 -11 -27q-3 -1 -4 1q-16 16 -59 16q-17 0 -55 -12.5t-86 -31.5t-60 -23q21 3 20 -6q0 -4 -3 -5q-16 -24 -19 -36q-14 -24 -30 -59t-13 -42q8 -22 45 40q2 3 4 7l17 25q37 59 43 76
q3 18 7.5 19.5t16.5 -11.5q23 -26 19 -39q-1 -6 -19 -33.5t-32 -60.5q-17 -41 -9 -39q9 0 47 51q9 16 19.5 33.5t17 28t13 21.5t10 17.5t7 12.5t4.5 9.5t1 6.5q0 8 7 9q7 0 16 -13q11 -11 16 -21q0 -2 -16 -34q0 -1 -9 -20q-42 -81 -32 -82q2 0 6 3q48 63 59 80l8 15
q17 36 45 67q33 35 56 27q20 -7 30 -23q6 11 19.5 38.5t21.5 43.5q2 9 3 16.5t1.5 10t2.5 4.5q14 9 36 -35q3 -15 -20 -59q-17 -26 -54 -107.5t-24 -87.5q2 -2 17 18q8 11 40 60l23 41l6 14q9 12 23 39q4 5 8.5 12t6.5 9.5t5 6t6 3t7 -2t10 -5.5q12 -5 15 -9.5t1 -9
t-12 -16.5q-2 -2 -43 -82q-14 -29 -13 -31q8 0 56 51q8 10 21 28t18 24q20 38 32 30q40 61 78 15q10 -15 9 -33t-7 -33l-6 -16q63 38 64 105q2 45 -22 61q-9 6 -19 2q-12 -4 -12 5q1 16 26 31q7 4 14 7q18 5 32 0.5t20 -15.5q18 -50 5.5 -100t-53.5 -89.5t-90 -45.5
q14 0 17.5 -4.5t-2.5 -18.5q-21 -43 -43 -59q-13 -20 -43 0q-13 9 -18 12.5t-12 13t-9 21.5q0 4 7 17t16.5 29t11.5 20l-7 -9q-6 -6 -8 -10q-45 -67 -63 -82q-19 -16 -39 4q-4 2 16 62q-4 -8 -11.5 -22.5t-8.5 -16.5q-11 -21 -29 -47t-18 -27q-27 -30 -58 4q-25 29 -20 58
q-9 -10 -18.5 -25.5t-12.5 -18.5q-12 -12 -26.5 -0.5t-20.5 35.5q-3 11 16 49l-20 -32q-2 -2 -6.5 -9t-8.5 -12.5t-10.5 -13.5t-11 -12.5t-11.5 -9.5t-11.5 -5t-10.5 2q-32 16 -32 43q-13 -25 -43 -65q-16 -19 -31 -4q-21 21 -25 26q-1 4 4.5 16.5t15 33t13.5 30.5l-20 -33
q-21 -39 -35.5 -59t-30.5 -23q-11 0 -25 20.5t-18 35.5v12q0 18 5 31t19.5 32.5t18.5 26.5l-64 -67q-17 -17 -38 12q-16 24 -9 31zM737 801q4 -5 12 2t19 22q9 10 13 23t-1 16q-10 5 -32 -24q-19 -35 -11 -39zM897 414q2 -2 10.5 6t20.5 23.5t24 33.5q46 67 35 78
q-6 6 -21 -10t-38 -49q-13 -22 -21 -41t-10 -29t0 -12zM999 762q4 -3 20 16t38 51q12 17 20.5 34t10.5 27t-1 13q-2 10 -25 -18q-14 -17 -28 -41q-14 -22 -23 -41t-11.5 -29t-0.5 -12zM1130 625q5 9 9.5 20.5t7.5 24t4 14.5q0 18 20 3q6 -5 11 -11q21 -21 8 -39
q-12 -24 -27 -39q-4 -13 -24 0q-8 8 -9.5 11t0.5 16zM1186 440q0 -30 20 -10q5 4 11 14t9 18l3 7q-11 9 -23 27q-20 -36 -20 -56zM1202 778q3 -3 22 22q4 5 33 44q17 25 27.5 49t7.5 27q-4 3 -12 -2.5t-20.5 -20t-26.5 -37.5q-44 -76 -31 -82zM1229 520q0 -9 4 -15t8 -7
l4 -2q14 29 19.5 52t-0.5 25q-7 3 -19.5 -17.5t-15.5 -35.5z" />
    <glyph glyph-name="nine" unicode="9" horiz-adv-x="1642" 
d="M141 586q-54 -12 -81 32t-17 74q7 15 14 15t11 -7q27 -43 65 -43q38 -3 62 21q20 19 -2 29l-35 12q-34 12 -55.5 31.5t-22.5 50.5q-3 37 16.5 75.5t50.5 66t67 48.5t65.5 22t46.5 -12q11 -12 15.5 -19t8.5 -23t-2 -33q-4 -24 -32 -67.5t-46 -61.5q-19 -9 -24 -9t-19 9
q-30 30 -16 39q35 19 80 90q11 20 10.5 32.5t-9.5 13.5t-22 -5q-25 -17 -59 -50.5t-49 -64.5q-17 -40 -15 -55t21 -31q8 -6 32.5 -14.5t40.5 -20t17 -29.5q0 -33 -30 -66t-87 -50zM158 535q-4 26 8 27q3 1 6 -3q5 -5 19 -7t40 -1.5t43 1t53 2.5t46 3q41 54 99 82.5t85 5.5
q13 -18 15.5 -26.5t-1.5 -36.5q-3 -21 -20 -48.5t-33 -41.5q-13 -10 -18 -9t-15 9l-2 2l-6 6q-12 18 -50.5 18.5t-77.5 -9t-83 -20.5t-57 -12q-26 0 -38.5 22.5t-12.5 35.5zM283 739q6 16 26 62q19 29 25 39q11 26 17.5 30t25.5 -6q13 -9 14 -15.5t-10 -19.5
q-23 -28 -43 -79q-16 -31 -12 -35q1 0 55 51l35 47q6 13 25 55.5t34 73.5q3 9 4.5 15.5t1.5 9t0.5 4t3.5 2.5q6 6 18 -8t15 -27q2 -15 -16 -59q-18 -26 -55 -105.5t-27 -89.5q7 -3 40.5 48t41.5 69l14 22q0 2 1 5.5t1 5.5q16 36 28 42.5t21 -4.5q27 -26 21 -32
q-20 -20 -31 -62q-5 -17 -5 -36.5t2 -30.5l3 -11q15 55 58 121t63 82q23 21 59 -8q9 -12 2 -16q-28 -20 -43 -35q16 13 29.5 20.5t19.5 10t7 4.5q2 2 1 5.5t-3 7.5l-2 3q20 4 51 -27q16 -16 4 -47q-6 -20 -17.5 -36t-21.5 -19q-11 0 -24.5 7.5t-18.5 19.5q-11 -36 -4 -62
q3 -13 19.5 -15.5t31.5 11.5q8 7 18 20.5t25.5 38t17.5 27.5l13 25q-17 11 -17 41q0 12 4 16q2 2 4.5 0t9 -5t15.5 -3q14 0 36 7.5t34 16.5q15 4 15.5 4t12.5 -8q10 -8 11 -12t-9 -23q-6 -14 -22 -43t-21 -38q-10 -33 -10 -41q5 -2 15.5 10.5t19.5 30.5q4 7 14.5 20.5
t12.5 17.5l10 17q20 34 41 61q30 34 59 27q14 -7 27 -23q15 28 39 82q4 9 6 15.5t2 9t0.5 5t3.5 5.5q6 3 17 -11.5t14 -27.5q1 -4 1.5 -6.5t-1 -7.5t-3.5 -9t-7 -15t-9 -21q-1 -3 -12.5 -25.5t-23.5 -47.5t-24 -52t-18 -46.5t-2 -23.5q1 -1 3 0t5 4t6 6.5t7 9t7 10t8 11.5
t8 12.5t8 13t8 11.5l18 33q22 46 49 76q31 38 62 28q11 -4 23 -15.5t12 -23.5v-4l4 8q4 4 8 0q1 -1 4 -3.5t4 -4t3.5 -4.5t3.5 -5t1.5 -4.5t-1 -5.5t-3.5 -5q-19 -22 -35 -70q-11 -22 -4 -22q2 0 4 2q10 8 28 30t30 45l12 19q1 1 2 4t2 4q11 28 20 39.5t15.5 11t15.5 -7.5
q23 -27 19 -31q-17 -17 -31 -63q-5 -17 -5 -36.5t2 -30.5l3 -11q18 55 61 122t60 81q16 11 27.5 9.5t31.5 -15.5q9 -10 9 -12t-11 -9q-25 -17 -45 -39q-33 -33 -58 -75.5t-32 -69.5q-3 -8 -4.5 -16t-1.5 -11t-1 -6.5t-3 -2.5t-8 1q-28 0 -52 31q-2 2 -20 43q0 7 11.5 36
t13.5 35q0 2 -2 0q-18 -51 -54 -94q-1 -2 -4 -5q-9 -12 -15 -18t-16 -14t-19 -6.5t-17 12.5q-12 20 -19 48q-26 -47 -43 -64q-10 -11 -20.5 -5.5t-18.5 21.5q-6 6 17 62l-21 -39q-23 -50 -47 -74q-23 -28 -55 4q-23 23 -23 58q-20 -30 -33 -43q-11 -12 -24 -1.5t-21 33.5
q-7 7 21 62q-17 -27 -19 -35q-40 -69 -57 -74h-4q-10 0 -25 11q-17 21 -17.5 35t11.5 40l39 82q-30 -26 -53 -28q4 -2 14 -2q-9 -27 -12 -33q-35 -78 -72 -113q-13 -16 -30 -16q-18 3 -49 24t-37 35q-7 12 -2.5 41t18.5 53q-31 -33 -54 -72t-28 -61q-4 -10 -5.5 -20
t-1.5 -11.5t-3 -4.5t-10 1q-27 0 -52 31q-12 12 -18 47q0 25 18 66v2q-5 -14 -43 -88q-11 -21 -31 -47t-20 -27q-14 -14 -22.5 -13t-24.5 17q-12 14 -18 39q-4 11 30 66q2 2 2 6l-2 -2q-16 -25 -37 -51t-24 -31q-12 -9 -20.5 -8.5t-18.5 12.5q-17 17 -20 26.5t4 36.5z
M322 379q4 8 9 10.5t8.5 1t4.5 -3.5q29 -29 41 -29q36 -8 56 10q16 16 -7 27q-1 0 -13.5 4.5t-22.5 9t-22.5 13t-21 21.5t-10.5 30q0 23 4 35q47 6 68 -4q-15 -37 12 -64q6 -4 23 -11t27.5 -15.5t10.5 -22.5q3 -30 -19.5 -59.5t-61.5 -38.5q-46 -13 -70.5 25.5t-15.5 60.5z
M369 911q16 28 16 56q2 16 35 -4q10 -16 11.5 -20.5t-3.5 -22.5q-12 -24 -29 -41q-6 -9 -22 0q-9 9 -10 11.5t2 20.5zM446 557q23 -9 33 -25q25 11 45 50q17 24 9 32.5t-27 -0.5q-39 -33 -60 -57zM455 178q5 32 21 46.5t44 25.5q57 15 232.5 27t261.5 12q94 3 116 0.5
t25 -17.5q6 -13 5 -14.5t-12 -0.5q-12 1 -20 1q-47 6 -217 -12q-184 -15 -297 -43q-55 -9 -120 -43q-21 -18 -33 -15.5t-6 33.5zM485 453q2 2 7.5 0t9.5 0q29 7 55 28q50 32 55 47l2 2q-30 0 -30 37q0 21 8 28q3 2 4 -1q12 -20 51 -12l2 4q21 44 21 51q-2 12 1.5 15t9 -0.5
t9.5 -10.5q14 -27 10 -35v-4q8 3 49 19.5t72 27t47 10.5q25 0 40.5 -12t15.5 -31q4 -22 -11 -27q-3 -1 -4 1q-16 16 -59 16q-17 0 -55 -12.5t-86 -31.5t-60 -23q21 3 20 -6q0 -4 -3 -5q-16 -24 -19 -36q-14 -24 -30 -59t-13 -42q8 -22 45 40q2 3 4 7l17 25q37 59 43 76
q3 18 7.5 19.5t16.5 -11.5q23 -26 19 -39q-1 -6 -19 -33.5t-32 -60.5q-17 -41 -9 -39q9 0 47 51q9 16 19.5 33.5t17 28t13 21.5t10 17.5t7 12.5t4.5 9.5t1 6.5q0 8 7 9q7 0 16 -13q11 -11 16 -21q0 -2 -16 -34q0 -1 -9 -20q-42 -81 -32 -82q2 0 6 3q48 63 59 80l8 15
q17 36 45 67q33 35 56 27q20 -7 30 -23q6 11 19.5 38.5t21.5 43.5q2 9 3 16.5t1.5 10t2.5 4.5q14 9 36 -35q3 -15 -20 -59q-17 -26 -54 -107.5t-24 -87.5q2 -2 17 18q8 11 40 60l23 41l6 14q9 12 23 39q4 5 8.5 12t6.5 9.5t5 6t6 3t7 -2t10 -5.5q12 -5 15 -9.5t1 -9
t-12 -16.5q-2 -2 -43 -82q-14 -29 -13 -31q8 0 56 51q8 10 21 28t18 24q20 38 32 30q40 61 78 15q10 -15 9 -33t-7 -33l-6 -16q63 38 64 105q2 45 -22 61q-9 6 -19 2q-12 -4 -12 5q1 16 26 31q7 4 14 7q18 5 32 0.5t20 -15.5q18 -50 5.5 -100t-53.5 -89.5t-90 -45.5
q14 0 17.5 -4.5t-2.5 -18.5q-21 -43 -43 -59q-13 -20 -43 0q-13 9 -18 12.5t-12 13t-9 21.5q0 4 7 17t16.5 29t11.5 20l-7 -9q-6 -6 -8 -10q-45 -67 -63 -82q-19 -16 -39 4q-4 2 16 62q-4 -8 -11.5 -22.5t-8.5 -16.5q-11 -21 -29 -47t-18 -27q-27 -30 -58 4q-25 29 -20 58
q-9 -10 -18.5 -25.5t-12.5 -18.5q-12 -12 -26.5 -0.5t-20.5 35.5q-3 11 16 49l-20 -32q-2 -2 -6.5 -9t-8.5 -12.5t-10.5 -13.5t-11 -12.5t-11.5 -9.5t-11.5 -5t-10.5 2q-32 16 -32 43q-13 -25 -43 -65q-16 -19 -31 -4q-21 21 -25 26q-1 4 4.5 16.5t15 33t13.5 30.5l-20 -33
q-21 -39 -35.5 -59t-30.5 -23q-11 0 -25 20.5t-18 35.5v12q0 18 5 31t19.5 32.5t18.5 26.5l-64 -67q-17 -17 -38 12q-16 24 -9 31zM737 801q4 -5 12 2t19 22q9 10 13 23t-1 16q-10 5 -32 -24q-19 -35 -11 -39zM897 414q2 -2 10.5 6t20.5 23.5t24 33.5q46 67 35 78
q-6 6 -21 -10t-38 -49q-13 -22 -21 -41t-10 -29t0 -12zM999 762q4 -3 20 16t38 51q12 17 20.5 34t10.5 27t-1 13q-2 10 -25 -18q-14 -17 -28 -41q-14 -22 -23 -41t-11.5 -29t-0.5 -12zM1130 625q5 9 9.5 20.5t7.5 24t4 14.5q0 18 20 3q6 -5 11 -11q21 -21 8 -39
q-12 -24 -27 -39q-4 -13 -24 0q-8 8 -9.5 11t0.5 16zM1186 440q0 -30 20 -10q5 4 11 14t9 18l3 7q-11 9 -23 27q-20 -36 -20 -56zM1202 778q3 -3 22 22q4 5 33 44q17 25 27.5 49t7.5 27q-4 3 -12 -2.5t-20.5 -20t-26.5 -37.5q-44 -76 -31 -82zM1229 520q0 -9 4 -15t8 -7
l4 -2q14 29 19.5 52t-0.5 25q-7 3 -19.5 -17.5t-15.5 -35.5z" />
    <glyph glyph-name="question" unicode="?" horiz-adv-x="1642" 
d="M141 586q-54 -12 -81 32t-17 74q7 15 14 15t11 -7q27 -43 65 -43q38 -3 62 21q20 19 -2 29l-35 12q-34 12 -55.5 31.5t-22.5 50.5q-3 37 16.5 75.5t50.5 66t67 48.5t65.5 22t46.5 -12q11 -12 15.5 -19t8.5 -23t-2 -33q-4 -24 -32 -67.5t-46 -61.5q-19 -9 -24 -9t-19 9
q-30 30 -16 39q35 19 80 90q11 20 10.5 32.5t-9.5 13.5t-22 -5q-25 -17 -59 -50.5t-49 -64.5q-17 -40 -15 -55t21 -31q8 -6 32.5 -14.5t40.5 -20t17 -29.5q0 -33 -30 -66t-87 -50zM158 535q-4 26 8 27q3 1 6 -3q5 -5 19 -7t40 -1.5t43 1t53 2.5t46 3q41 54 99 82.5t85 5.5
q13 -18 15.5 -26.5t-1.5 -36.5q-3 -21 -20 -48.5t-33 -41.5q-13 -10 -18 -9t-15 9l-2 2l-6 6q-12 18 -50.5 18.5t-77.5 -9t-83 -20.5t-57 -12q-26 0 -38.5 22.5t-12.5 35.5zM283 739q6 16 26 62q19 29 25 39q11 26 17.5 30t25.5 -6q13 -9 14 -15.5t-10 -19.5
q-23 -28 -43 -79q-16 -31 -12 -35q1 0 55 51l35 47q6 13 25 55.5t34 73.5q3 9 4.5 15.5t1.5 9t0.5 4t3.5 2.5q6 6 18 -8t15 -27q2 -15 -16 -59q-18 -26 -55 -105.5t-27 -89.5q7 -3 40.5 48t41.5 69l14 22q0 2 1 5.5t1 5.5q16 36 28 42.5t21 -4.5q27 -26 21 -32
q-20 -20 -31 -62q-5 -17 -5 -36.5t2 -30.5l3 -11q15 55 58 121t63 82q23 21 59 -8q9 -12 2 -16q-28 -20 -43 -35q16 13 29.5 20.5t19.5 10t7 4.5q2 2 1 5.5t-3 7.5l-2 3q20 4 51 -27q16 -16 4 -47q-6 -20 -17.5 -36t-21.5 -19q-11 0 -24.5 7.5t-18.5 19.5q-11 -36 -4 -62
q3 -13 19.5 -15.5t31.5 11.5q8 7 18 20.5t25.5 38t17.5 27.5l13 25q-17 11 -17 41q0 12 4 16q2 2 4.5 0t9 -5t15.5 -3q14 0 36 7.5t34 16.5q15 4 15.5 4t12.5 -8q10 -8 11 -12t-9 -23q-6 -14 -22 -43t-21 -38q-10 -33 -10 -41q5 -2 15.5 10.5t19.5 30.5q4 7 14.5 20.5
t12.5 17.5l10 17q20 34 41 61q30 34 59 27q14 -7 27 -23q15 28 39 82q4 9 6 15.5t2 9t0.5 5t3.5 5.5q6 3 17 -11.5t14 -27.5q1 -4 1.5 -6.5t-1 -7.5t-3.5 -9t-7 -15t-9 -21q-1 -3 -12.5 -25.5t-23.5 -47.5t-24 -52t-18 -46.5t-2 -23.5q1 -1 3 0t5 4t6 6.5t7 9t7 10t8 11.5
t8 12.5t8 13t8 11.5l18 33q22 46 49 76q31 38 62 28q11 -4 23 -15.5t12 -23.5v-4l4 8q4 4 8 0q1 -1 4 -3.5t4 -4t3.5 -4.5t3.5 -5t1.5 -4.5t-1 -5.5t-3.5 -5q-19 -22 -35 -70q-11 -22 -4 -22q2 0 4 2q10 8 28 30t30 45l12 19q1 1 2 4t2 4q11 28 20 39.5t15.5 11t15.5 -7.5
q23 -27 19 -31q-17 -17 -31 -63q-5 -17 -5 -36.5t2 -30.5l3 -11q18 55 61 122t60 81q16 11 27.5 9.5t31.5 -15.5q9 -10 9 -12t-11 -9q-25 -17 -45 -39q-33 -33 -58 -75.5t-32 -69.5q-3 -8 -4.5 -16t-1.5 -11t-1 -6.5t-3 -2.5t-8 1q-28 0 -52 31q-2 2 -20 43q0 7 11.5 36
t13.5 35q0 2 -2 0q-18 -51 -54 -94q-1 -2 -4 -5q-9 -12 -15 -18t-16 -14t-19 -6.5t-17 12.5q-12 20 -19 48q-26 -47 -43 -64q-10 -11 -20.5 -5.5t-18.5 21.5q-6 6 17 62l-21 -39q-23 -50 -47 -74q-23 -28 -55 4q-23 23 -23 58q-20 -30 -33 -43q-11 -12 -24 -1.5t-21 33.5
q-7 7 21 62q-17 -27 -19 -35q-40 -69 -57 -74h-4q-10 0 -25 11q-17 21 -17.5 35t11.5 40l39 82q-30 -26 -53 -28q4 -2 14 -2q-9 -27 -12 -33q-35 -78 -72 -113q-13 -16 -30 -16q-18 3 -49 24t-37 35q-7 12 -2.5 41t18.5 53q-31 -33 -54 -72t-28 -61q-4 -10 -5.5 -20
t-1.5 -11.5t-3 -4.5t-10 1q-27 0 -52 31q-12 12 -18 47q0 25 18 66v2q-5 -14 -43 -88q-11 -21 -31 -47t-20 -27q-14 -14 -22.5 -13t-24.5 17q-12 14 -18 39q-4 11 30 66q2 2 2 6l-2 -2q-16 -25 -37 -51t-24 -31q-12 -9 -20.5 -8.5t-18.5 12.5q-17 17 -20 26.5t4 36.5z
M322 379q4 8 9 10.5t8.5 1t4.5 -3.5q29 -29 41 -29q36 -8 56 10q16 16 -7 27q-1 0 -13.5 4.5t-22.5 9t-22.5 13t-21 21.5t-10.5 30q0 23 4 35q47 6 68 -4q-15 -37 12 -64q6 -4 23 -11t27.5 -15.5t10.5 -22.5q3 -30 -19.5 -59.5t-61.5 -38.5q-46 -13 -70.5 25.5t-15.5 60.5z
M369 911q16 28 16 56q2 16 35 -4q10 -16 11.5 -20.5t-3.5 -22.5q-12 -24 -29 -41q-6 -9 -22 0q-9 9 -10 11.5t2 20.5zM446 557q23 -9 33 -25q25 11 45 50q17 24 9 32.5t-27 -0.5q-39 -33 -60 -57zM455 178q5 32 21 46.5t44 25.5q57 15 232.5 27t261.5 12q94 3 116 0.5
t25 -17.5q6 -13 5 -14.5t-12 -0.5q-12 1 -20 1q-47 6 -217 -12q-184 -15 -297 -43q-55 -9 -120 -43q-21 -18 -33 -15.5t-6 33.5zM485 453q2 2 7.5 0t9.5 0q29 7 55 28q50 32 55 47l2 2q-30 0 -30 37q0 21 8 28q3 2 4 -1q12 -20 51 -12l2 4q21 44 21 51q-2 12 1.5 15t9 -0.5
t9.5 -10.5q14 -27 10 -35v-4q8 3 49 19.5t72 27t47 10.5q25 0 40.5 -12t15.5 -31q4 -22 -11 -27q-3 -1 -4 1q-16 16 -59 16q-17 0 -55 -12.5t-86 -31.5t-60 -23q21 3 20 -6q0 -4 -3 -5q-16 -24 -19 -36q-14 -24 -30 -59t-13 -42q8 -22 45 40q2 3 4 7l17 25q37 59 43 76
q3 18 7.5 19.5t16.5 -11.5q23 -26 19 -39q-1 -6 -19 -33.5t-32 -60.5q-17 -41 -9 -39q9 0 47 51q9 16 19.5 33.5t17 28t13 21.5t10 17.5t7 12.5t4.5 9.5t1 6.5q0 8 7 9q7 0 16 -13q11 -11 16 -21q0 -2 -16 -34q0 -1 -9 -20q-42 -81 -32 -82q2 0 6 3q48 63 59 80l8 15
q17 36 45 67q33 35 56 27q20 -7 30 -23q6 11 19.5 38.5t21.5 43.5q2 9 3 16.5t1.5 10t2.5 4.5q14 9 36 -35q3 -15 -20 -59q-17 -26 -54 -107.5t-24 -87.5q2 -2 17 18q8 11 40 60l23 41l6 14q9 12 23 39q4 5 8.5 12t6.5 9.5t5 6t6 3t7 -2t10 -5.5q12 -5 15 -9.5t1 -9
t-12 -16.5q-2 -2 -43 -82q-14 -29 -13 -31q8 0 56 51q8 10 21 28t18 24q20 38 32 30q40 61 78 15q10 -15 9 -33t-7 -33l-6 -16q63 38 64 105q2 45 -22 61q-9 6 -19 2q-12 -4 -12 5q1 16 26 31q7 4 14 7q18 5 32 0.5t20 -15.5q18 -50 5.5 -100t-53.5 -89.5t-90 -45.5
q14 0 17.5 -4.5t-2.5 -18.5q-21 -43 -43 -59q-13 -20 -43 0q-13 9 -18 12.5t-12 13t-9 21.5q0 4 7 17t16.5 29t11.5 20l-7 -9q-6 -6 -8 -10q-45 -67 -63 -82q-19 -16 -39 4q-4 2 16 62q-4 -8 -11.5 -22.5t-8.5 -16.5q-11 -21 -29 -47t-18 -27q-27 -30 -58 4q-25 29 -20 58
q-9 -10 -18.5 -25.5t-12.5 -18.5q-12 -12 -26.5 -0.5t-20.5 35.5q-3 11 16 49l-20 -32q-2 -2 -6.5 -9t-8.5 -12.5t-10.5 -13.5t-11 -12.5t-11.5 -9.5t-11.5 -5t-10.5 2q-32 16 -32 43q-13 -25 -43 -65q-16 -19 -31 -4q-21 21 -25 26q-1 4 4.5 16.5t15 33t13.5 30.5l-20 -33
q-21 -39 -35.5 -59t-30.5 -23q-11 0 -25 20.5t-18 35.5v12q0 18 5 31t19.5 32.5t18.5 26.5l-64 -67q-17 -17 -38 12q-16 24 -9 31zM737 801q4 -5 12 2t19 22q9 10 13 23t-1 16q-10 5 -32 -24q-19 -35 -11 -39zM897 414q2 -2 10.5 6t20.5 23.5t24 33.5q46 67 35 78
q-6 6 -21 -10t-38 -49q-13 -22 -21 -41t-10 -29t0 -12zM999 762q4 -3 20 16t38 51q12 17 20.5 34t10.5 27t-1 13q-2 10 -25 -18q-14 -17 -28 -41q-14 -22 -23 -41t-11.5 -29t-0.5 -12zM1130 625q5 9 9.5 20.5t7.5 24t4 14.5q0 18 20 3q6 -5 11 -11q21 -21 8 -39
q-12 -24 -27 -39q-4 -13 -24 0q-8 8 -9.5 11t0.5 16zM1186 440q0 -30 20 -10q5 4 11 14t9 18l3 7q-11 9 -23 27q-20 -36 -20 -56zM1202 778q3 -3 22 22q4 5 33 44q17 25 27.5 49t7.5 27q-4 3 -12 -2.5t-20.5 -20t-26.5 -37.5q-44 -76 -31 -82zM1229 520q0 -9 4 -15t8 -7
l4 -2q14 29 19.5 52t-0.5 25q-7 3 -19.5 -17.5t-15.5 -35.5z" />
    <glyph glyph-name="at" unicode="@" horiz-adv-x="1642" 
d="M141 586q-54 -12 -81 32t-17 74q7 15 14 15t11 -7q27 -43 65 -43q38 -3 62 21q20 19 -2 29l-35 12q-34 12 -55.5 31.5t-22.5 50.5q-3 37 16.5 75.5t50.5 66t67 48.5t65.5 22t46.5 -12q11 -12 15.5 -19t8.5 -23t-2 -33q-4 -24 -32 -67.5t-46 -61.5q-19 -9 -24 -9t-19 9
q-30 30 -16 39q35 19 80 90q11 20 10.5 32.5t-9.5 13.5t-22 -5q-25 -17 -59 -50.5t-49 -64.5q-17 -40 -15 -55t21 -31q8 -6 32.5 -14.5t40.5 -20t17 -29.5q0 -33 -30 -66t-87 -50zM158 535q-4 26 8 27q3 1 6 -3q5 -5 19 -7t40 -1.5t43 1t53 2.5t46 3q41 54 99 82.5t85 5.5
q13 -18 15.5 -26.5t-1.5 -36.5q-3 -21 -20 -48.5t-33 -41.5q-13 -10 -18 -9t-15 9l-2 2l-6 6q-12 18 -50.5 18.5t-77.5 -9t-83 -20.5t-57 -12q-26 0 -38.5 22.5t-12.5 35.5zM283 739q6 16 26 62q19 29 25 39q11 26 17.5 30t25.5 -6q13 -9 14 -15.5t-10 -19.5
q-23 -28 -43 -79q-16 -31 -12 -35q1 0 55 51l35 47q6 13 25 55.5t34 73.5q3 9 4.5 15.5t1.5 9t0.5 4t3.5 2.5q6 6 18 -8t15 -27q2 -15 -16 -59q-18 -26 -55 -105.5t-27 -89.5q7 -3 40.5 48t41.5 69l14 22q0 2 1 5.5t1 5.5q16 36 28 42.5t21 -4.5q27 -26 21 -32
q-20 -20 -31 -62q-5 -17 -5 -36.5t2 -30.5l3 -11q15 55 58 121t63 82q23 21 59 -8q9 -12 2 -16q-28 -20 -43 -35q16 13 29.5 20.5t19.5 10t7 4.5q2 2 1 5.5t-3 7.5l-2 3q20 4 51 -27q16 -16 4 -47q-6 -20 -17.5 -36t-21.5 -19q-11 0 -24.5 7.5t-18.5 19.5q-11 -36 -4 -62
q3 -13 19.5 -15.5t31.5 11.5q8 7 18 20.5t25.5 38t17.5 27.5l13 25q-17 11 -17 41q0 12 4 16q2 2 4.5 0t9 -5t15.5 -3q14 0 36 7.5t34 16.5q15 4 15.5 4t12.5 -8q10 -8 11 -12t-9 -23q-6 -14 -22 -43t-21 -38q-10 -33 -10 -41q5 -2 15.5 10.5t19.5 30.5q4 7 14.5 20.5
t12.5 17.5l10 17q20 34 41 61q30 34 59 27q14 -7 27 -23q15 28 39 82q4 9 6 15.5t2 9t0.5 5t3.5 5.5q6 3 17 -11.5t14 -27.5q1 -4 1.5 -6.5t-1 -7.5t-3.5 -9t-7 -15t-9 -21q-1 -3 -12.5 -25.5t-23.5 -47.5t-24 -52t-18 -46.5t-2 -23.5q1 -1 3 0t5 4t6 6.5t7 9t7 10t8 11.5
t8 12.5t8 13t8 11.5l18 33q22 46 49 76q31 38 62 28q11 -4 23 -15.5t12 -23.5v-4l4 8q4 4 8 0q1 -1 4 -3.5t4 -4t3.5 -4.5t3.5 -5t1.5 -4.5t-1 -5.5t-3.5 -5q-19 -22 -35 -70q-11 -22 -4 -22q2 0 4 2q10 8 28 30t30 45l12 19q1 1 2 4t2 4q11 28 20 39.5t15.5 11t15.5 -7.5
q23 -27 19 -31q-17 -17 -31 -63q-5 -17 -5 -36.5t2 -30.5l3 -11q18 55 61 122t60 81q16 11 27.5 9.5t31.5 -15.5q9 -10 9 -12t-11 -9q-25 -17 -45 -39q-33 -33 -58 -75.5t-32 -69.5q-3 -8 -4.5 -16t-1.5 -11t-1 -6.5t-3 -2.5t-8 1q-28 0 -52 31q-2 2 -20 43q0 7 11.5 36
t13.5 35q0 2 -2 0q-18 -51 -54 -94q-1 -2 -4 -5q-9 -12 -15 -18t-16 -14t-19 -6.5t-17 12.5q-12 20 -19 48q-26 -47 -43 -64q-10 -11 -20.5 -5.5t-18.5 21.5q-6 6 17 62l-21 -39q-23 -50 -47 -74q-23 -28 -55 4q-23 23 -23 58q-20 -30 -33 -43q-11 -12 -24 -1.5t-21 33.5
q-7 7 21 62q-17 -27 -19 -35q-40 -69 -57 -74h-4q-10 0 -25 11q-17 21 -17.5 35t11.5 40l39 82q-30 -26 -53 -28q4 -2 14 -2q-9 -27 -12 -33q-35 -78 -72 -113q-13 -16 -30 -16q-18 3 -49 24t-37 35q-7 12 -2.5 41t18.5 53q-31 -33 -54 -72t-28 -61q-4 -10 -5.5 -20
t-1.5 -11.5t-3 -4.5t-10 1q-27 0 -52 31q-12 12 -18 47q0 25 18 66v2q-5 -14 -43 -88q-11 -21 -31 -47t-20 -27q-14 -14 -22.5 -13t-24.5 17q-12 14 -18 39q-4 11 30 66q2 2 2 6l-2 -2q-16 -25 -37 -51t-24 -31q-12 -9 -20.5 -8.5t-18.5 12.5q-17 17 -20 26.5t4 36.5z
M322 379q4 8 9 10.5t8.5 1t4.5 -3.5q29 -29 41 -29q36 -8 56 10q16 16 -7 27q-1 0 -13.5 4.5t-22.5 9t-22.5 13t-21 21.5t-10.5 30q0 23 4 35q47 6 68 -4q-15 -37 12 -64q6 -4 23 -11t27.5 -15.5t10.5 -22.5q3 -30 -19.5 -59.5t-61.5 -38.5q-46 -13 -70.5 25.5t-15.5 60.5z
M369 911q16 28 16 56q2 16 35 -4q10 -16 11.5 -20.5t-3.5 -22.5q-12 -24 -29 -41q-6 -9 -22 0q-9 9 -10 11.5t2 20.5zM446 557q23 -9 33 -25q25 11 45 50q17 24 9 32.5t-27 -0.5q-39 -33 -60 -57zM455 178q5 32 21 46.5t44 25.5q57 15 232.5 27t261.5 12q94 3 116 0.5
t25 -17.5q6 -13 5 -14.5t-12 -0.5q-12 1 -20 1q-47 6 -217 -12q-184 -15 -297 -43q-55 -9 -120 -43q-21 -18 -33 -15.5t-6 33.5zM485 453q2 2 7.5 0t9.5 0q29 7 55 28q50 32 55 47l2 2q-30 0 -30 37q0 21 8 28q3 2 4 -1q12 -20 51 -12l2 4q21 44 21 51q-2 12 1.5 15t9 -0.5
t9.5 -10.5q14 -27 10 -35v-4q8 3 49 19.5t72 27t47 10.5q25 0 40.5 -12t15.5 -31q4 -22 -11 -27q-3 -1 -4 1q-16 16 -59 16q-17 0 -55 -12.5t-86 -31.5t-60 -23q21 3 20 -6q0 -4 -3 -5q-16 -24 -19 -36q-14 -24 -30 -59t-13 -42q8 -22 45 40q2 3 4 7l17 25q37 59 43 76
q3 18 7.5 19.5t16.5 -11.5q23 -26 19 -39q-1 -6 -19 -33.5t-32 -60.5q-17 -41 -9 -39q9 0 47 51q9 16 19.5 33.5t17 28t13 21.5t10 17.5t7 12.5t4.5 9.5t1 6.5q0 8 7 9q7 0 16 -13q11 -11 16 -21q0 -2 -16 -34q0 -1 -9 -20q-42 -81 -32 -82q2 0 6 3q48 63 59 80l8 15
q17 36 45 67q33 35 56 27q20 -7 30 -23q6 11 19.5 38.5t21.5 43.5q2 9 3 16.5t1.5 10t2.5 4.5q14 9 36 -35q3 -15 -20 -59q-17 -26 -54 -107.5t-24 -87.5q2 -2 17 18q8 11 40 60l23 41l6 14q9 12 23 39q4 5 8.5 12t6.5 9.5t5 6t6 3t7 -2t10 -5.5q12 -5 15 -9.5t1 -9
t-12 -16.5q-2 -2 -43 -82q-14 -29 -13 -31q8 0 56 51q8 10 21 28t18 24q20 38 32 30q40 61 78 15q10 -15 9 -33t-7 -33l-6 -16q63 38 64 105q2 45 -22 61q-9 6 -19 2q-12 -4 -12 5q1 16 26 31q7 4 14 7q18 5 32 0.5t20 -15.5q18 -50 5.5 -100t-53.5 -89.5t-90 -45.5
q14 0 17.5 -4.5t-2.5 -18.5q-21 -43 -43 -59q-13 -20 -43 0q-13 9 -18 12.5t-12 13t-9 21.5q0 4 7 17t16.5 29t11.5 20l-7 -9q-6 -6 -8 -10q-45 -67 -63 -82q-19 -16 -39 4q-4 2 16 62q-4 -8 -11.5 -22.5t-8.5 -16.5q-11 -21 -29 -47t-18 -27q-27 -30 -58 4q-25 29 -20 58
q-9 -10 -18.5 -25.5t-12.5 -18.5q-12 -12 -26.5 -0.5t-20.5 35.5q-3 11 16 49l-20 -32q-2 -2 -6.5 -9t-8.5 -12.5t-10.5 -13.5t-11 -12.5t-11.5 -9.5t-11.5 -5t-10.5 2q-32 16 -32 43q-13 -25 -43 -65q-16 -19 -31 -4q-21 21 -25 26q-1 4 4.5 16.5t15 33t13.5 30.5l-20 -33
q-21 -39 -35.5 -59t-30.5 -23q-11 0 -25 20.5t-18 35.5v12q0 18 5 31t19.5 32.5t18.5 26.5l-64 -67q-17 -17 -38 12q-16 24 -9 31zM737 801q4 -5 12 2t19 22q9 10 13 23t-1 16q-10 5 -32 -24q-19 -35 -11 -39zM897 414q2 -2 10.5 6t20.5 23.5t24 33.5q46 67 35 78
q-6 6 -21 -10t-38 -49q-13 -22 -21 -41t-10 -29t0 -12zM999 762q4 -3 20 16t38 51q12 17 20.5 34t10.5 27t-1 13q-2 10 -25 -18q-14 -17 -28 -41q-14 -22 -23 -41t-11.5 -29t-0.5 -12zM1130 625q5 9 9.5 20.5t7.5 24t4 14.5q0 18 20 3q6 -5 11 -11q21 -21 8 -39
q-12 -24 -27 -39q-4 -13 -24 0q-8 8 -9.5 11t0.5 16zM1186 440q0 -30 20 -10q5 4 11 14t9 18l3 7q-11 9 -23 27q-20 -36 -20 -56zM1202 778q3 -3 22 22q4 5 33 44q17 25 27.5 49t7.5 27q-4 3 -12 -2.5t-20.5 -20t-26.5 -37.5q-44 -76 -31 -82zM1229 520q0 -9 4 -15t8 -7
l4 -2q14 29 19.5 52t-0.5 25q-7 3 -19.5 -17.5t-15.5 -35.5z" />
    <glyph glyph-name="A" unicode="A" horiz-adv-x="1529" 
d="M741 39q-77 -41 -178.5 -55.5t-200 -1t-183.5 65t-124 134.5q-40 90 -32.5 175t48.5 159.5t87.5 130.5t83.5 89l37 32q-81 -114 -97.5 -236.5t37.5 -203.5q43 -78 132 -117.5t179.5 -37t170 33t108.5 80.5q51 102 51 356v748q54 14 109 14q63 0 92 -6v-275v-319v-6v-80
q-4 -99 -10 -146h225v551q0 143 -74.5 226.5t-232.5 83.5q-66 0 -114 -17t-71 -45t-33 -54.5t-10 -53.5v-62q-54 34 -81.5 81t-28.5 95t22.5 95.5t66 84t107.5 58t142 20.5q230 -7 365.5 -146.5t135.5 -365.5v-1140q0 -56 9 -101.5t23 -73t31.5 -48.5t35 -30.5t31.5 -15
t23 -5.5l9 -1h-196q-7 0 -17.5 1.5t-38 16.5t-48.5 41t-38.5 82.5t-17.5 133.5v428h-254q-66 -256 -281 -373zM422 752l104 90l-104 123l133 116l117 -137l-107 -90l107 -125l-135 -108z" />
    <glyph glyph-name="B" unicode="B" horiz-adv-x="1564" 
d="M741 39q-78 -41 -179.5 -55.5t-199.5 -1t-182.5 65t-124.5 134.5q-41 90 -33 175t49 159.5t88 130.5t85 89l37 32q-82 -112 -98.5 -236t34.5 -204q43 -78 132 -117.5t179.5 -37t170 33t108.5 80.5q49 89 53 327v777q58 14 111 14q61 0 88 -6v-545q37 8 70 23t67.5 42.5
t55 74.5t20.5 108v22q0 144 -72.5 227t-228.5 83q-66 0 -114.5 -17t-72 -45t-33.5 -54.5t-10 -53.5l-6 -62q-53 34 -80 81t-27.5 95t24 95.5t67.5 84t109 58t143 20.5q230 -7 366 -146.5t136 -365.5v-26q0 -71 -30 -122.5t-72.5 -75.5t-84.5 -37.5t-72 -14.5l-30 -2
q7 0 20 -0.5t49 -7t69 -18t73.5 -36.5t69.5 -58t49 -88t20 -122v-151q0 -170 -99 -275.5t-282 -105.5q-102 0 -165 55t-66 156q-70 -95 -181 -156zM420 752l106 88l-106 125l137 116l115 -137l-107 -88l107 -127l-137 -108zM926 199q24 -28 72.5 -46t105.5 -16.5t109 21
t87 73.5t35 134v61v16v74q-1 65 -21 118.5t-48.5 87t-67.5 58.5t-72 37t-67 19v-31q0 -201 -26 -347t-107 -259z" />
    <glyph glyph-name="C" unicode="C" horiz-adv-x="901" 
d="M416 -16q-201 0 -288.5 219.5t-59.5 630.5q10 183 35 313t61 212.5t92 129.5t119 64.5t151 17.5q120 0 191 -77t71 -200v-92l-192 -63v219q0 39 -40.5 73.5t-90.5 34.5q-26 0 -47 -11.5t-45 -50t-41.5 -103.5t-32.5 -181t-23 -274q-4 -113 -4.5 -221.5t13.5 -207
t38 -172.5t69 -117.5t106 -43.5q72 0 107.5 41.5t35.5 150.5v156l199 64v-158q0 -93 -32.5 -162t-91 -110.5t-133.5 -61.5t-167 -20zM573 711l107 88l-107 123l138 114l112 -133l-104 -88l104 -127l-135 -115z" />
    <glyph glyph-name="D" unicode="D" horiz-adv-x="1638" 
d="M1157 -16q-103 0 -165 57.5t-62 161.5q19 -28 64.5 -46.5t101.5 -21.5q70 0 124 59.5t85.5 158.5t47 219t13.5 251q0 54 -1 94.5t-5.5 94.5t-12.5 94t-22.5 86t-34.5 79.5t-50 66t-68 52.5t-89 32t-112 12q-66 0 -114.5 -17t-72.5 -45t-34.5 -54.5t-10.5 -53.5v-62
q-53 34 -80.5 81t-28.5 95t22.5 95.5t66 84t108.5 58t144 20.5q137 -5 243.5 -55t173 -127t109.5 -184.5t60.5 -215.5t19.5 -231q1 -126 -14 -245.5t-48.5 -227.5t-82 -189t-119.5 -129t-156 -48zM55 182q-40 90 -32 175t49 159.5t87.5 130.5t84.5 89l37 32
q-81 -111 -97 -236t33 -204q44 -78 133.5 -117.5t180 -37t169.5 33t109 80.5q47 85 51 297v141v666q54 14 111 14q59 0 88 -6v-275v-319v-86q-3 -115 -17 -204t-47 -182t-97.5 -167.5t-158.5 -126.5q-77 -41 -178.5 -55.5t-199.5 -1t-182.5 65t-123.5 134.5zM420 752l106 88
l-106 125l137 116l115 -137l-107 -88l107 -127l-137 -108z" />
    <glyph glyph-name="E" unicode="E" horiz-adv-x="823" 
d="M387 -16q-60 0 -117 19.5t-104.5 56t-76 96.5t-28.5 135v309q0 53 13.5 96t34.5 69.5t47 46t52 28.5t47 14t35 6h13q-4 0 -11.5 0.5t-29.5 5t-41.5 12t-44 24t-41.5 39t-29 59t-12 81.5v213q0 119 107 198t256 79q116 0 188 -77.5t72 -199.5v-47l-197 -61v172
q0 40 -39 74t-94 34q-30 0 -50 -9t-29 -26.5t-12 -34t-3 -38.5v-273q0 -46 11.5 -83t30 -60t41 -40t45.5 -24.5t41.5 -12t29.5 -5.5h12q-5 0 -13.5 -0.5t-34 -5.5t-48 -14t-50.5 -28.5t-48 -46t-34 -69.5t-14 -96v-377q0 -58 47.5 -98.5t114.5 -40.5q69 0 98 31t29 78v172
l199 67v-172q0 -119 -107.5 -197.5t-255.5 -78.5zM539 662l135 114l108 -135l-131 -115z" />
    <glyph glyph-name="F" unicode="F" horiz-adv-x="1579" 
d="M739 35q-77 -44 -178 -59t-199 -1.5t-182.5 64.5t-124.5 131q-41 93 -33.5 179t48 161t86.5 131t83 89l37 32q-78 -110 -93 -236t34 -211q44 -75 133.5 -113.5t179.5 -36.5t169 33t108 83q15 27 25.5 65.5t16 67t8.5 83t3.5 74.5t0 81.5t-0.5 66.5l2 108q-86 19 -166 -6
q85 95 166 133l2 105v332q44 14 111 14q48 0 88 -12q-4 -242 -4 -430q33 -12 74 -33.5t73.5 -42.5t73.5 -41t78 -31.5t82.5 -11t91.5 17.5q-35 -43 -71.5 -72t-68 -44.5t-69 -19t-65 -1.5t-67.5 14.5t-65 23t-67 30.5v-33q-2 -90 -10 -162.5t-29 -153t-55 -144t-91.5 -123
t-134.5 -101.5zM403 745l107 89l-107 127l138 114l114 -137l-106 -88l106 -125l-137 -113zM739 1202q-54 34 -81.5 81t-28.5 95t23 95.5t67.5 84t110 58t145.5 20.5q74 -3 147.5 -24.5t136 -50.5t125.5 -58.5t140 -51.5t157 -26q-79 -91 -135 -129.5t-119 -38.5
q-44 0 -87 18t-80.5 44.5t-77.5 52.5t-94 44t-113 18q-54 0 -97 -12t-68.5 -29.5t-42 -41.5t-22.5 -45t-6 -42v-62z" />
    <glyph glyph-name="G" unicode="G" horiz-adv-x="1028" 
d="M420 -16q-200 0 -289 219t-65 631q9 132 25 235t37.5 180.5t51.5 133t64.5 92t80.5 58t94.5 30t110.5 8.5q118 0 190.5 -77.5t72.5 -199.5v-92l-199 -63v219q0 39 -38.5 73.5t-86.5 34.5q-26 0 -47 -11.5t-45 -50t-42 -103.5t-34 -181t-25 -274q-4 -98 -4 -148
q73 -22 131 -15t113.5 24t102 41t95 37.5t93 13.5t96.5 -32.5t105 -98.5q-74 18 -170 -17v-313q0 -181 -114.5 -267.5t-303.5 -86.5zM272 690q0 -606 230 -606q68 0 103.5 42t35.5 150v285q-53 -24 -94.5 -32.5t-90 -1t-94.5 48t-90 114.5zM387 948l133 111l111 -137
l-129 -107z" />
    <glyph glyph-name="H" unicode="H" horiz-adv-x="1531" 
d="M741 39q-78 -41 -179.5 -55.5t-199.5 -1t-182.5 65t-124.5 134.5q-40 90 -32 175t49 159.5t87.5 130.5t84.5 89l37 32q-82 -113 -98.5 -236.5t36.5 -203.5q34 -63 99.5 -102.5t139 -48.5t145.5 0t128 39t78 71q24 46 37 135t14.5 148.5t1.5 154.5v846l197 -82v-684v-6
v-64h219v836l195 -82v-1505q0 -77 16.5 -133.5t40.5 -82.5t47.5 -41t40.5 -17l16 -1h-196q-7 0 -17.5 1.5t-38 16.5t-48.5 41t-38.5 82.5t-17.5 133.5v589h-229q-9 -87 -28.5 -159.5t-54 -143t-91.5 -129.5t-134 -102zM424 752l102 88l-102 125l133 116l115 -137l-107 -88
l107 -127l-137 -108z" />
    <glyph glyph-name="I" unicode="I" horiz-adv-x="452" 
d="M342 -180q-7 0 -17.5 1.5t-38.5 16.5t-49.5 40.5t-39 82t-17.5 133.5v1069q-11 -18 -43 -69.5t-48 -79t-36.5 -73t-32.5 -85.5q0 93 22.5 191t50 170t54 169.5t33.5 184.5l199 -82v-1395q0 -77 16 -133.5t39 -82t46 -40.5t39 -16l16 -2h-193z" />
    <glyph glyph-name="J" unicode="J" horiz-adv-x="1134" 
d="M737 39q-79 -41 -180 -55.5t-198.5 -1t-181 65t-122.5 134.5q-41 90 -34.5 175t47 159.5t86.5 130.5t83 89l37 32q-77 -113 -94.5 -236.5t29.5 -203.5q44 -78 134.5 -118.5t181.5 -38.5t171 33t109 83q24 46 37 135t14.5 148.5t1.5 154.5v668q-43 -25 -70 -39.5t-68 -31
t-69.5 -20.5t-66 -0.5t-67.5 21.5t-63 52.5t-63 86.5q74 -23 136 -13.5t122 32t112 54t105.5 52.5t101.5 27t102 -23t106 -96q-54 14 -121 -6v-684v-6q0 -85 -4 -151t-14.5 -143.5t-33 -140t-56.5 -124t-87 -112.5t-123 -89zM420 752l106 88l-106 125l137 116l115 -137
l-107 -88l107 -127l-137 -108z" />
    <glyph glyph-name="K" unicode="K" horiz-adv-x="1529" 
d="M739 39q-79 -41 -180 -55.5t-198.5 -1t-181.5 65t-124 134.5q-41 90 -34 175t47 159.5t85.5 130.5t82.5 89l36 32q-76 -112 -92.5 -236.5t29.5 -203.5q45 -78 135.5 -118.5t181.5 -38.5t170.5 33t108.5 83q25 46 38.5 135t15 148.5t1.5 154.5v846l197 -82v-684v-6v-78
q40 12 74 30.5t68.5 50.5t54.5 84t20 118v567l196 -82v-485q0 -61 -17.5 -110.5t-45.5 -80t-61.5 -52.5t-67.5 -32.5t-62 -16.5t-46 -6l-17 -1q7 0 18 -0.5t44 -7t63 -17t66.5 -34t63 -55.5t44.5 -83.5t18 -114.5v-409q0 -56 9 -101.5t23 -73t31.5 -48.5t35 -30.5t31.5 -15
t23 -5.5l9 -1h-200q-3 0 -9 0.5t-22 6t-31 15t-33.5 30.5t-31.5 48.5t-22 73t-9 101.5v413q0 69 -20 122.5t-55 86t-69.5 51.5t-74.5 31q-4 -108 -19 -194.5t-48.5 -174.5t-96 -159t-152.5 -121zM420 752l106 90l-106 123l135 116l117 -137l-107 -90l107 -125l-135 -108z
" />
    <glyph glyph-name="L" unicode="L" horiz-adv-x="786" 
d="M819 -258q-61 34 -120 82.5t-103 92.5t-90.5 91t-94.5 84t-104 65t-128.5 39t-158.5 3q223 114 404 49q29 48 47 115t25 147t8.5 126.5t1.5 115.5v409q-9 -16 -42.5 -68.5t-48.5 -79t-37 -72t-34 -85.5q0 93 23 191t51 170t55 169t33 185l199 -82v-666q0 -425 -156 -637
h-2q65 -43 137 -102q50 -37 86.5 -62t95 -59t105.5 -51.5t108 -27.5t112 0.5t106.5 43.5t103.5 92q-31 -132 -94.5 -215.5t-143.5 -111.5t-168 -15.5t-176 64.5z" />
    <glyph glyph-name="M" unicode="M" horiz-adv-x="1890" 
d="M741 39q-77 -41 -178.5 -55.5t-200 -1t-183.5 65t-124 134.5q-40 90 -32 175t49 159.5t87.5 130.5t84.5 89l37 32q-81 -112 -97 -236.5t35 -203.5q44 -78 133.5 -118.5t180 -38.5t170 33t106.5 83q55 112 55 438v846l199 -82q-2 -74 -2 -200t1 -279t1 -205v-2v-4
q0 -72 -2.5 -129t-10.5 -125t-22 -122.5t-38 -112.5t-57.5 -104.5t-82 -90t-109.5 -76.5zM428 752l100 88l-100 125l133 116l111 -137l-103 -88l103 -127l-135 -108zM1063 1223v161q20 36 54.5 71.5t76 64.5t84.5 40.5t79.5 3.5t61.5 -51.5t29 -119.5q27 45 73 87t99 66
t100 22t78 -53.5t31 -152.5v-1268q0 -56 8.5 -101.5t22 -73t30 -48t32.5 -30t29.5 -15t22.5 -6.5h8h-192q-7 0 -17.5 1.5t-38.5 16.5t-49.5 40.5t-39 82t-17.5 133.5v1223q0 66 -46 69q-44 3 -90 -46q-32 -34 -44 -78v-1168h-201v1223q0 64 -46 68q-44 4 -88 -43
q-50 -52 -50 -119z" />
    <glyph glyph-name="N" unicode="N" horiz-adv-x="1552" 
d="M741 39q-77 -41 -178.5 -55.5t-200.5 -1t-184 65t-125 134.5q-39 90 -31 175t49.5 159.5t88 130.5t84.5 89l37 32q-54 -74 -79 -156.5t-20.5 -155.5t35.5 -128q36 -63 102.5 -102.5t140 -48.5t145 0t126.5 39t76 71q59 111 59 438v846l199 -82v-105q17 31 48 63.5
t70.5 58.5t82 44.5t82.5 18t72 -18t51.5 -66t19.5 -122.5v-1268q0 -77 17 -133.5t41 -82t48 -40.5t41 -16l17 -2h-199q-7 0 -18 1.5t-39 16.5t-50 40.5t-39.5 82t-17.5 133.5v1223q0 62 -54 68q-53 5 -110 -41q-63 -52 -63 -121v-418v-6q0 -85 -4 -151t-15 -143.5t-34 -140
t-57.5 -124t-88.5 -112.5t-125 -89zM426 752l106 90l-106 123l137 116l107 -137l-99 -88l99 -127l-127 -108z" />
    <glyph glyph-name="O" unicode="O" horiz-adv-x="1134" 
d="M563 -23q-116 0 -211 61t-154.5 161.5t-94.5 231.5t-40 270.5t18 278.5t71 254.5t127.5 200t179.5 113.5q59 16 114 16.5t105 -11t96 -26t108.5 -30t121.5 -22.5q84 -8 142.5 -2t96 21.5t58.5 32t29 29.5l7 13q1 -8 1.5 -21t-3 -51t-12.5 -71.5t-32 -74t-57 -68.5
t-92.5 -44t-133.5 -10q-48 2 -104 21t-103 43.5t-100.5 48t-100 38t-97 11t-95.5 -30.5q-58 -36 -97.5 -139t-53 -234.5t4 -275.5t63 -263.5t136.5 -197.5t213 -78q126 0 184 159q60 162 28 407q-32 255 -141 432q-82 132 -186 178q61 -12 172 -66q136 -79 246 -96
q41 -102 66 -216.5t29.5 -231t-9 -227.5t-52.5 -207.5t-98 -169.5t-149 -115t-201 -42zM449 690l110 92l-110 123l137 115l114 -137l-108 -84l108 -127l-137 -111z" />
    <glyph glyph-name="P" unicode="P" horiz-adv-x="1511" 
d="M739 39q-104 -56 -242 -64t-264 44.5t-178 158.5q-41 91 -33.5 177t48.5 161.5t87.5 132t84.5 89.5l37 32q-80 -117 -96 -240.5t32 -203.5q36 -62 102 -100t139.5 -47t145 0t127.5 38t80 70q51 87 51 288v814q8 1 24.5 4.5t27 5.5t26.5 4t31 2q43 0 88 -10v-594v-80
l-2 -47q217 72 217 282l6 162q0 149 -75 234.5t-234 85.5q-54 0 -96 -12t-66.5 -30.5t-40.5 -43t-21.5 -46.5t-5.5 -44v-62q-53 35 -80.5 82.5t-28.5 96t22.5 96t66 83t108 56t142.5 16.5q232 -8 366.5 -144.5t134.5 -367.5v-166q0 -62 -20 -112t-52 -80.5t-71 -53.5
t-78 -33.5t-71 -16.5t-52 -6l-20 -1h-53q-5 -102 -20.5 -184t-49.5 -163.5t-95 -148t-149 -114.5zM424 754l102 88l-102 125l131 110l117 -129l-107 -92l107 -125l-137 -115z" />
    <glyph glyph-name="Q" unicode="Q" horiz-adv-x="1140" 
d="M1104 -111q-115 35 -264 181q-121 -93 -281 -93q-162 0 -279.5 117.5t-168.5 294t-49 382.5t56 382.5t170 294t271 117.5q106 0 199 -70t157 -183t104 -259.5t48 -295t-19 -295t-90 -253.5q69 -59 137 -94t121 -43t101 -4t82.5 19.5t59.5 31.5t37 29l13 12
q-1 -4 -4 -11.5t-13 -31.5t-22 -44.5t-32 -51t-43 -51t-54 -45t-66 -33t-79 -14.5t-92 11zM381 340q3 4 9.5 11t28.5 23.5t47.5 28t66.5 17.5t85 -1t103.5 -34.5t122.5 -75.5q33 77 41.5 187.5t-5.5 227.5t-51.5 233.5t-91 207.5t-130 148t-163.5 57q-77 0 -132 -132
q-65 -157 -64 -392q3 -278 101 -462q113 -212 319 -212q34 0 61 12q-42 42 -72 69t-68.5 55t-70 39t-67.5 11t-70 -18zM444 690l109 94l-109 121l134 115l112 -137l-106 -86l106 -125l-131 -111z" />
    <glyph glyph-name="R" unicode="R" horiz-adv-x="1531" 
d="M741 39q-103 -56 -241 -64t-265 44.5t-180 158.5q-40 91 -32 177t49 161.5t87.5 132t84.5 89.5l37 32q-81 -117 -97 -240.5t33 -203.5q36 -62 102.5 -100t140 -47t145 0t127 38t77.5 70q51 84 55 325v777q72 16 109 16q43 0 88 -10v-594v-80l-2 -14q38 8 72 23t69.5 42.5
t56.5 74.5t21 109v162q0 320 -305 320q-66 0 -114 -17.5t-72 -46t-35 -56.5t-11 -56v-62q-53 35 -80.5 82.5t-28 96t23 96t66.5 83t108.5 56t142.5 16.5q230 -8 363.5 -144.5t133.5 -367.5v-166q0 -63 -24 -111.5t-56 -74t-75 -42.5t-69 -21.5t-50 -6.5q32 -4 62.5 -13
t70.5 -31t69.5 -53t50.5 -85.5t21 -122.5v-414q0 -75 17 -130t41 -80.5t48 -40t41 -16.5l17 -1h-198q-6 0 -17 1.5t-38 16t-48 40t-38 80.5t-17 130v420q0 67 -20 119.5t-55 85t-69.5 51.5t-74.5 31q-3 -108 -17.5 -193.5t-48 -173t-97 -158t-155.5 -120.5zM428 754l104 90
l-104 123l135 110l109 -129l-101 -90l101 -127l-129 -115z" />
    <glyph glyph-name="S" unicode="S" horiz-adv-x="1312" 
d="M426 -348l-104 135l135 109l78 -99l137 99l106 -138l-139 -106l-78 98zM55 199q-41 92 -34 177.5t47 160.5t85.5 131t82.5 88l36 32q-53 -72 -77 -155t-18.5 -155.5t34.5 -131.5q46 -85 136.5 -128t193 -43.5t210.5 28.5t192.5 78.5t134 115.5t40.5 131q-9 57 -50.5 82.5
t-103.5 25.5t-128 -6.5t-141.5 -6t-125.5 19.5q-64 24 -96.5 81.5t-30.5 132t25.5 160.5t73 172t110 160t137.5 130.5t154 79.5q59 20 111.5 13t92.5 -32.5t62.5 -82.5t20.5 -138q0 -106 -94 -242q-26 226 -154 250q-97 18 -217 -79q-102 -84 -153 -192q-47 -102 -15 -163
q18 -33 71.5 -44t120.5 -7t144 3.5t141.5 -11t114 -51.5t60.5 -118.5t-19 -211.5q-44 -168 -187.5 -283t-336.5 -160q-99 -25 -199.5 -26t-189 21t-158.5 72t-103 122z" />
    <glyph glyph-name="T" unicode="T" horiz-adv-x="950" 
d="M827 -176q-6 0 -16.5 1.5t-37.5 16t-47 40t-37 81t-17 131.5v1307q160 -35 198 -47v-1260q0 -76 16 -131.5t39 -81t46 -40t39 -15.5l16 -2h-199zM176 979q-73 46 -112.5 118.5t-43 151t32 157.5t100.5 139t174.5 93.5t243.5 24.5q77 -6 321 -69.5t296 -71.5
q18 -4 53.5 -11.5t61 -13t64 -12t67 -9t66 -2t66 6t60.5 17.5t56.5 30.5t47.5 47.5t39 66q-58 -221 -208 -294.5t-398 -28.5q-49 7 -290 68t-318 65q-44 4 -91 -0.5t-96 -19.5t-91.5 -39t-75 -63t-49.5 -87.5t-11.5 -116.5t35.5 -147zM291 754l104 88l-104 125l135 110
l115 -129l-107 -90l107 -127l-138 -115z" />
    <glyph glyph-name="U" unicode="U" horiz-adv-x="1435" 
d="M453 610l-113 138l106 86l-106 129l137 110l111 -135l-105 -86l105 -125zM55 1548q68 146 219 185.5t304 -41.5q61 -33 109.5 -77.5t81.5 -91t57 -105.5t37.5 -113t21 -123t10 -126t2.5 -130v-690q0 -61 59 -69q60 -8 127 38q59 42 74 98v1266l197 -80v-1473
q0 -77 17 -134t41 -83t48 -41t41 -16l17 -2h-197q-7 0 -18 1.5t-39 16.5t-50 41t-39.5 83t-17.5 134v144q-22 -36 -63.5 -71.5t-92 -63t-104 -36.5t-97 3t-72.5 62t-30 134v816v45v51.5t-0.5 50t-2 55t-4 51.5t-6.5 54t-9.5 47t-13 47t-17.5 39q-60 107 -173 113
q-102 6 -189 -69q-99 -86 -109 -220q-10 -149 100 -305q-8 6 -20.5 17t-47.5 46.5t-64.5 73t-60.5 92.5t-46.5 109t-12.5 120t33 127z" />
    <glyph glyph-name="V" unicode="V" horiz-adv-x="1454" 
d="M457 594l-115 137l109 88l-109 123l137 115l115 -135l-109 -88l109 -129zM55 1532q70 146 220.5 186t302.5 -43q61 -33 110 -77t82.5 -91t57.5 -106t38 -113.5t22 -123t10.5 -125.5t2.5 -130v-442l152 -248q87 81 114 201t27 368v785l199 -84v-805l-2 -10
q-9 -248 -91 -433t-231 -264l-364 551v459q0 98 -1.5 154.5t-16 146t-42.5 139.5q-59 106 -170 113q-100 7 -187 -68q-98 -85 -108 -220q-11 -151 101 -310q-8 6 -21 17t-49 47.5t-66 74t-62 93.5t-48 110.5t-13 120.5t33 127z" />
    <glyph glyph-name="W" unicode="W" horiz-adv-x="1968" 
d="M1108 -23l-414 551v459q0 218 -13 307q-12 83 -36 133q-61 107 -174 113q-103 6 -190 -69q-100 -86 -109 -221q-11 -150 100 -308q-8 6 -20.5 17t-47.5 47.5t-64.5 74t-60.5 93.5t-46 110.5t-11.5 120.5t33.5 127q68 146 217 186t301 -43q62 -33 110.5 -77.5t82 -91
t57.5 -105.5t37 -113t21 -123.5t10 -125.5t2 -130v-442l174 -248q83 81 108 199.5t25 369.5v693l201 -92v-652q0 -116 -17 -252l17 -18q28 -34 71 -96t72 -107l29 -45q85 80 110 198.5t25 370.5v785l199 -84v-752q0 -278 -70 -477.5t-223 -282.5l-262 349
q-73 -256 -244 -349zM987 1702l137 113l115 -136l-137 -110zM1161 1878l135 109l115 -138l-133 -108zM1333 1702l135 113l117 -136l-137 -110z" />
    <glyph glyph-name="X" unicode="X" horiz-adv-x="1495" 
d="M457 666l-117 135l106 88l-106 125l137 114l111 -137l-101 -88l101 -125zM55 1604q69 145 219.5 185t303.5 -44q72 -39 125 -81.5t88 -92.5t56.5 -98t32 -113.5t14 -124t3.5 -143.5v-68l152 -150q76 80 118.5 175t42.5 229v295l199 -84v-240q0 -72 -14.5 -135.5
t-34.5 -109t-56 -94t-64.5 -78.5t-74.5 -74l244 -240q0 -75 4 -139t16 -140t32.5 -136t57 -118.5t85 -96.5t120 -60.5t160.5 -20.5q-79 -36 -169.5 -28.5t-184.5 55.5q-78 42 -136 102t-92 124t-54.5 147t-28 156.5t-9.5 166.5l-137 140q-84 -86 -130 -178.5t-46 -221.5
v-309l-199 154v211q0 43 5 82t18 74.5t23.5 61.5t35 58t37 49t45.5 48.5t45 42.5t49 44l-258 261v127q0 15 0.5 51.5t0 51l-1.5 43.5t-4.5 45.5t-9.5 40.5t-15.5 44.5t-22.5 42.5q-60 109 -172 118q-101 8 -188 -66q-97 -85 -107 -218q-11 -152 103 -313q-8 6 -21 17
t-48.5 47t-65.5 73.5t-62 93.5t-48 110.5t-13.5 121t32.5 127.5z" />
    <glyph glyph-name="Y" unicode="Y" horiz-adv-x="1427" 
d="M639 -479l-111 139l144 104l78 -100l131 107l110 -142l-135 -108l-84 104zM55 1597q69 147 221 186t308 -48q68 -37 120 -86t85.5 -109t55.5 -121t33.5 -137t15.5 -141.5t5 -149.5v-143q0 -63 60 -70q61 -7 129 39q75 53 79 123v2v623l199 -84v-738q0 -125 -13.5 -228
t-47 -209.5t-100 -197t-163.5 -157.5q-61 -44 -147.5 -72t-181.5 -32t-183.5 14.5t-160.5 73.5t-105 139q-38 105 -29.5 199t49.5 174.5t86.5 139t81.5 91.5l37 33q-53 -74 -79 -165t-23.5 -171t27.5 -139q30 -67 89.5 -110t129 -56.5t145.5 -7.5t142.5 30t117.5 63.5
t72 86.5q57 124 57 424v112q-19 -36 -61 -73t-93.5 -66t-106.5 -38.5t-100.5 2t-74.5 62t-29 136.5v332q0 257 -53 356q-61 108 -174 115q-101 7 -188 -68q-98 -86 -107 -221q-10 -150 101 -307q-8 6 -21 17t-49 47t-66 73.5t-62 93t-48 110t-13 121t33 127.5z" />
    <glyph glyph-name="Z" unicode="Z" horiz-adv-x="1439" 
d="M999 -203q-83 5 -176.5 39.5t-179 76.5t-179 82t-209 60.5t-235.5 7.5l17 189q102 101 194.5 213.5t166 215.5t144 204t157 212t175.5 206q-98 8 -292.5 47t-280.5 39q-60 -1 -106 -20t-71.5 -49t-38.5 -60.5t-15 -61.5q-40 55 -39.5 127t33 134t96 106.5t141.5 48.5
q70 4 148 -11t143.5 -37.5t155 -43.5t184 -29t229.5 6l-16 -186q-125 -125 -241.5 -274t-194.5 -266.5t-188.5 -264.5t-221.5 -264q109 -16 221.5 -54.5t188.5 -75.5t160.5 -68.5t146.5 -35.5q76 -4 154.5 15.5t135 50t93.5 64t41 59.5q-8 -79 -44 -153.5t-92 -132
t-136.5 -90t-168.5 -26.5zM451 1849l143 111l104 -143l-137 -103z" />
    <glyph glyph-name="bracketleft" unicode="[" horiz-adv-x="1642" 
d="M141 586q-54 -12 -81 32t-17 74q7 15 14 15t11 -7q27 -43 65 -43q38 -3 62 21q20 19 -2 29l-35 12q-34 12 -55.5 31.5t-22.5 50.5q-3 37 16.5 75.5t50.5 66t67 48.5t65.5 22t46.5 -12q11 -12 15.5 -19t8.5 -23t-2 -33q-4 -24 -32 -67.5t-46 -61.5q-19 -9 -24 -9t-19 9
q-30 30 -16 39q35 19 80 90q11 20 10.5 32.5t-9.5 13.5t-22 -5q-25 -17 -59 -50.5t-49 -64.5q-17 -40 -15 -55t21 -31q8 -6 32.5 -14.5t40.5 -20t17 -29.5q0 -33 -30 -66t-87 -50zM158 535q-4 26 8 27q3 1 6 -3q5 -5 19 -7t40 -1.5t43 1t53 2.5t46 3q41 54 99 82.5t85 5.5
q13 -18 15.5 -26.5t-1.5 -36.5q-3 -21 -20 -48.5t-33 -41.5q-13 -10 -18 -9t-15 9l-2 2l-6 6q-12 18 -50.5 18.5t-77.5 -9t-83 -20.5t-57 -12q-26 0 -38.5 22.5t-12.5 35.5zM283 739q6 16 26 62q19 29 25 39q11 26 17.5 30t25.5 -6q13 -9 14 -15.5t-10 -19.5
q-23 -28 -43 -79q-16 -31 -12 -35q1 0 55 51l35 47q6 13 25 55.5t34 73.5q3 9 4.5 15.5t1.5 9t0.5 4t3.5 2.5q6 6 18 -8t15 -27q2 -15 -16 -59q-18 -26 -55 -105.5t-27 -89.5q7 -3 40.5 48t41.5 69l14 22q0 2 1 5.5t1 5.5q16 36 28 42.5t21 -4.5q27 -26 21 -32
q-20 -20 -31 -62q-5 -17 -5 -36.5t2 -30.5l3 -11q15 55 58 121t63 82q23 21 59 -8q9 -12 2 -16q-28 -20 -43 -35q16 13 29.5 20.5t19.5 10t7 4.5q2 2 1 5.5t-3 7.5l-2 3q20 4 51 -27q16 -16 4 -47q-6 -20 -17.5 -36t-21.5 -19q-11 0 -24.5 7.5t-18.5 19.5q-11 -36 -4 -62
q3 -13 19.5 -15.5t31.5 11.5q8 7 18 20.5t25.5 38t17.5 27.5l13 25q-17 11 -17 41q0 12 4 16q2 2 4.5 0t9 -5t15.5 -3q14 0 36 7.5t34 16.5q15 4 15.5 4t12.5 -8q10 -8 11 -12t-9 -23q-6 -14 -22 -43t-21 -38q-10 -33 -10 -41q5 -2 15.5 10.5t19.5 30.5q4 7 14.5 20.5
t12.5 17.5l10 17q20 34 41 61q30 34 59 27q14 -7 27 -23q15 28 39 82q4 9 6 15.5t2 9t0.5 5t3.5 5.5q6 3 17 -11.5t14 -27.5q1 -4 1.5 -6.5t-1 -7.5t-3.5 -9t-7 -15t-9 -21q-1 -3 -12.5 -25.5t-23.5 -47.5t-24 -52t-18 -46.5t-2 -23.5q1 -1 3 0t5 4t6 6.5t7 9t7 10t8 11.5
t8 12.5t8 13t8 11.5l18 33q22 46 49 76q31 38 62 28q11 -4 23 -15.5t12 -23.5v-4l4 8q4 4 8 0q1 -1 4 -3.5t4 -4t3.5 -4.5t3.5 -5t1.5 -4.5t-1 -5.5t-3.5 -5q-19 -22 -35 -70q-11 -22 -4 -22q2 0 4 2q10 8 28 30t30 45l12 19q1 1 2 4t2 4q11 28 20 39.5t15.5 11t15.5 -7.5
q23 -27 19 -31q-17 -17 -31 -63q-5 -17 -5 -36.5t2 -30.5l3 -11q18 55 61 122t60 81q16 11 27.5 9.5t31.5 -15.5q9 -10 9 -12t-11 -9q-25 -17 -45 -39q-33 -33 -58 -75.5t-32 -69.5q-3 -8 -4.5 -16t-1.5 -11t-1 -6.5t-3 -2.5t-8 1q-28 0 -52 31q-2 2 -20 43q0 7 11.5 36
t13.5 35q0 2 -2 0q-18 -51 -54 -94q-1 -2 -4 -5q-9 -12 -15 -18t-16 -14t-19 -6.5t-17 12.5q-12 20 -19 48q-26 -47 -43 -64q-10 -11 -20.5 -5.5t-18.5 21.5q-6 6 17 62l-21 -39q-23 -50 -47 -74q-23 -28 -55 4q-23 23 -23 58q-20 -30 -33 -43q-11 -12 -24 -1.5t-21 33.5
q-7 7 21 62q-17 -27 -19 -35q-40 -69 -57 -74h-4q-10 0 -25 11q-17 21 -17.5 35t11.5 40l39 82q-30 -26 -53 -28q4 -2 14 -2q-9 -27 -12 -33q-35 -78 -72 -113q-13 -16 -30 -16q-18 3 -49 24t-37 35q-7 12 -2.5 41t18.5 53q-31 -33 -54 -72t-28 -61q-4 -10 -5.5 -20
t-1.5 -11.5t-3 -4.5t-10 1q-27 0 -52 31q-12 12 -18 47q0 25 18 66v2q-5 -14 -43 -88q-11 -21 -31 -47t-20 -27q-14 -14 -22.5 -13t-24.5 17q-12 14 -18 39q-4 11 30 66q2 2 2 6l-2 -2q-16 -25 -37 -51t-24 -31q-12 -9 -20.5 -8.5t-18.5 12.5q-17 17 -20 26.5t4 36.5z
M322 379q4 8 9 10.5t8.5 1t4.5 -3.5q29 -29 41 -29q36 -8 56 10q16 16 -7 27q-1 0 -13.5 4.5t-22.5 9t-22.5 13t-21 21.5t-10.5 30q0 23 4 35q47 6 68 -4q-15 -37 12 -64q6 -4 23 -11t27.5 -15.5t10.5 -22.5q3 -30 -19.5 -59.5t-61.5 -38.5q-46 -13 -70.5 25.5t-15.5 60.5z
M369 911q16 28 16 56q2 16 35 -4q10 -16 11.5 -20.5t-3.5 -22.5q-12 -24 -29 -41q-6 -9 -22 0q-9 9 -10 11.5t2 20.5zM446 557q23 -9 33 -25q25 11 45 50q17 24 9 32.5t-27 -0.5q-39 -33 -60 -57zM455 178q5 32 21 46.5t44 25.5q57 15 232.5 27t261.5 12q94 3 116 0.5
t25 -17.5q6 -13 5 -14.5t-12 -0.5q-12 1 -20 1q-47 6 -217 -12q-184 -15 -297 -43q-55 -9 -120 -43q-21 -18 -33 -15.5t-6 33.5zM485 453q2 2 7.5 0t9.5 0q29 7 55 28q50 32 55 47l2 2q-30 0 -30 37q0 21 8 28q3 2 4 -1q12 -20 51 -12l2 4q21 44 21 51q-2 12 1.5 15t9 -0.5
t9.5 -10.5q14 -27 10 -35v-4q8 3 49 19.5t72 27t47 10.5q25 0 40.5 -12t15.5 -31q4 -22 -11 -27q-3 -1 -4 1q-16 16 -59 16q-17 0 -55 -12.5t-86 -31.5t-60 -23q21 3 20 -6q0 -4 -3 -5q-16 -24 -19 -36q-14 -24 -30 -59t-13 -42q8 -22 45 40q2 3 4 7l17 25q37 59 43 76
q3 18 7.5 19.5t16.5 -11.5q23 -26 19 -39q-1 -6 -19 -33.5t-32 -60.5q-17 -41 -9 -39q9 0 47 51q9 16 19.5 33.5t17 28t13 21.5t10 17.5t7 12.5t4.5 9.5t1 6.5q0 8 7 9q7 0 16 -13q11 -11 16 -21q0 -2 -16 -34q0 -1 -9 -20q-42 -81 -32 -82q2 0 6 3q48 63 59 80l8 15
q17 36 45 67q33 35 56 27q20 -7 30 -23q6 11 19.5 38.5t21.5 43.5q2 9 3 16.5t1.5 10t2.5 4.5q14 9 36 -35q3 -15 -20 -59q-17 -26 -54 -107.5t-24 -87.5q2 -2 17 18q8 11 40 60l23 41l6 14q9 12 23 39q4 5 8.5 12t6.5 9.5t5 6t6 3t7 -2t10 -5.5q12 -5 15 -9.5t1 -9
t-12 -16.5q-2 -2 -43 -82q-14 -29 -13 -31q8 0 56 51q8 10 21 28t18 24q20 38 32 30q40 61 78 15q10 -15 9 -33t-7 -33l-6 -16q63 38 64 105q2 45 -22 61q-9 6 -19 2q-12 -4 -12 5q1 16 26 31q7 4 14 7q18 5 32 0.5t20 -15.5q18 -50 5.5 -100t-53.5 -89.5t-90 -45.5
q14 0 17.5 -4.5t-2.5 -18.5q-21 -43 -43 -59q-13 -20 -43 0q-13 9 -18 12.5t-12 13t-9 21.5q0 4 7 17t16.5 29t11.5 20l-7 -9q-6 -6 -8 -10q-45 -67 -63 -82q-19 -16 -39 4q-4 2 16 62q-4 -8 -11.5 -22.5t-8.5 -16.5q-11 -21 -29 -47t-18 -27q-27 -30 -58 4q-25 29 -20 58
q-9 -10 -18.5 -25.5t-12.5 -18.5q-12 -12 -26.5 -0.5t-20.5 35.5q-3 11 16 49l-20 -32q-2 -2 -6.5 -9t-8.5 -12.5t-10.5 -13.5t-11 -12.5t-11.5 -9.5t-11.5 -5t-10.5 2q-32 16 -32 43q-13 -25 -43 -65q-16 -19 -31 -4q-21 21 -25 26q-1 4 4.5 16.5t15 33t13.5 30.5l-20 -33
q-21 -39 -35.5 -59t-30.5 -23q-11 0 -25 20.5t-18 35.5v12q0 18 5 31t19.5 32.5t18.5 26.5l-64 -67q-17 -17 -38 12q-16 24 -9 31zM737 801q4 -5 12 2t19 22q9 10 13 23t-1 16q-10 5 -32 -24q-19 -35 -11 -39zM897 414q2 -2 10.5 6t20.5 23.5t24 33.5q46 67 35 78
q-6 6 -21 -10t-38 -49q-13 -22 -21 -41t-10 -29t0 -12zM999 762q4 -3 20 16t38 51q12 17 20.5 34t10.5 27t-1 13q-2 10 -25 -18q-14 -17 -28 -41q-14 -22 -23 -41t-11.5 -29t-0.5 -12zM1130 625q5 9 9.5 20.5t7.5 24t4 14.5q0 18 20 3q6 -5 11 -11q21 -21 8 -39
q-12 -24 -27 -39q-4 -13 -24 0q-8 8 -9.5 11t0.5 16zM1186 440q0 -30 20 -10q5 4 11 14t9 18l3 7q-11 9 -23 27q-20 -36 -20 -56zM1202 778q3 -3 22 22q4 5 33 44q17 25 27.5 49t7.5 27q-4 3 -12 -2.5t-20.5 -20t-26.5 -37.5q-44 -76 -31 -82zM1229 520q0 -9 4 -15t8 -7
l4 -2q14 29 19.5 52t-0.5 25q-7 3 -19.5 -17.5t-15.5 -35.5z" />
    <glyph glyph-name="grave" unicode="`" horiz-adv-x="335" 
d="M242 1346q18 -47 11 -84t-25.5 -59.5t-37.5 -22.5l-34 73l-68 148h131z" />
    <glyph glyph-name="a" unicode="a" horiz-adv-x="641" 
d="M238 129q-78 -4 -127.5 71.5t-49.5 196.5l7 430q0 121 86.5 199t216.5 78q104 0 156.5 -75t52.5 -202v-698q-45 0 -74 6t-56 31.5t-36 71.5q-19 -50 -71 -79.5t-105 -29.5zM242 367q0 -44 24 -75.5t76 -31.5q61 0 61 107v524q0 42 -24.5 75t-75.5 33q-30 0 -39.5 -29.5
t-9.5 -78.5q-12 -414 -12 -524z" />
    <glyph glyph-name="b" unicode="b" 
d="M338 227q11 0 20.5 1.5t16 6.5t11 8t7.5 12t5 13t2.5 16.5t0.5 16v18v17.5v555q0 39 -26 73.5t-66 34.5q-38 0 -50.5 -19t-12.5 -54v-590q0 -41 27.5 -75t64.5 -34zM61 129v1128q0 75 16.5 130.5t40.5 80.5t48 40t40 16l17 2h178q-6 0 -16.5 -1.5t-37.5 -16.5t-47 -40
t-37 -80.5t-17 -130.5v-200q47 47 125 47q103 0 159 -76t56 -201v-430q0 -109 -76.5 -188.5t-175.5 -79.5q-70 0 -119 55q-22 -35 -59 -45t-95 -10z" />
    <glyph glyph-name="c" unicode="c" horiz-adv-x="626" 
d="M276 129q-105 0 -160 72.5t-55 195.5v430q0 121 90 199t224 78q101 0 156 -76t55 -201v-49l-180 -61v174q0 39 -30.5 73.5t-68.5 34.5q-11 0 -20.5 -1.5t-16 -6.5t-11 -8.5t-7.5 -12t-5 -13t-2.5 -16.5t-0.5 -15.5v-17.5v-17v-555q0 -39 29 -74t71 -35q22 0 35.5 7.5
t19 25t6.5 30t1 37.5v9v110l180 64v-113q0 -118 -89.5 -193t-220.5 -75z" />
    <glyph glyph-name="d" unicode="d" horiz-adv-x="643" 
d="M338 227q63 0 63 72v592q0 40 -28.5 74t-65.5 34q-14 0 -24 -3t-17 -6.5t-12 -12t-7.5 -13t-3.5 -17t-1 -17.5v-20v-19v-555q0 -40 27.5 -74.5t68.5 -34.5zM61 397v430q0 120 89 198.5t219 78.5q5 0 16 -3t16 -3v159q0 55 -9 99t-23 71.5t-31.5 47.5t-34.5 29.5t-31 15
t-23 6.5h-9h184q6 0 17 -1.5t38 -16.5t48 -40t38 -80.5t17 -130.5v-1128q-54 0 -89 9.5t-55 39.5q-64 -49 -164 -49q-106 0 -159.5 72t-53.5 196z" />
    <glyph glyph-name="e" unicode="e" 
d="M276 129q-103 0 -159 72.5t-56 195.5v430q0 120 89.5 198.5t220.5 78.5q105 0 160 -75.5t55 -201.5v-147l-340 -129v-215q0 -39 27.5 -74t64.5 -35q12 0 21.5 1.5t16 6.5t11.5 8t8 12.5t4.5 13t2.5 16t1 16v18v17.5v110l183 64v-113q0 -118 -89.5 -193t-220.5 -75z
M246 641l157 59v191q0 40 -29 74t-67 34q-11 0 -20 -1.5t-15 -6.5t-11 -8.5t-7.5 -12t-4.5 -13t-2.5 -16t-0.5 -16v-18v-16.5v-250z" />
    <glyph glyph-name="f" unicode="f" horiz-adv-x="370" 
d="M90 129v813h-49v145h49v17q0 117 80 195.5t180 78.5v-164q-30 0 -47.5 -7.5t-24.5 -25t-8.5 -30t-1.5 -37.5v-10v-17h82v-145h-82v-813h-178z" />
    <glyph glyph-name="g" unicode="g" 
d="M276 -268q-104 0 -159.5 73t-55.5 197l185 61v-124q0 -40 28 -74.5t66 -34.5q18 0 31 6.5t19 14t9 23.5t3.5 25.5t0.5 29.5v10v272q-27 -40 -71.5 -61t-91.5 -21q-79 -4 -129 71.5t-50 196.5v49l7 381q4 121 91 199t214 78q103 0 158 -76t55 -201v-825q0 -119 -89 -194.5
t-221 -75.5zM246 367q0 -43 23.5 -75t70.5 -32q63 0 63 107v524q0 43 -22 75.5t-72 32.5q-57 0 -57 -108l-6 -445v-79z" />
    <glyph glyph-name="h" unicode="h" horiz-adv-x="641" 
d="M561 -20q-6 0 -17 1.5t-38 16t-48 39t-38 79t-17 128.5v647q0 38 -28 73t-70 35q-36 0 -48.5 -19t-12.5 -54v-797h-183v1128q0 72 16.5 125.5t40 78t47 38.5t39.5 15l17 2h182q-3 0 -9 -0.5t-22.5 -6t-31.5 -14t-33.5 -28t-31.5 -46t-22 -69t-9 -95.5v-200q58 47 129 47
q103 0 157 -75.5t54 -201.5v-583q0 -74 16.5 -128.5t39.5 -79t46.5 -39t39.5 -15.5l17 -2h-182z" />
    <glyph glyph-name="i" unicode="i" horiz-adv-x="331" 
d="M72 129v944h184v-944h-184zM41 1346l135 108l115 -131l-133 -115z" />
    <glyph glyph-name="j" unicode="j" horiz-adv-x="317" 
d="M-102 -258q3 0 9 0.5t22.5 5.5t31.5 14t33.5 28.5t31.5 46t22 69.5t9 96v1071h187v-1071q0 -73 -17 -126.5t-41 -78t-48 -38.5t-41 -15l-17 -2h-182zM27 1346l135 108l114 -131l-131 -115z" />
    <glyph glyph-name="k" unicode="k" horiz-adv-x="638" 
d="M557 -20q-6 0 -16.5 1.5t-37.5 16t-47.5 39t-37.5 79t-17 128.5v270q0 40 -29 75.5t-69 35.5h-63v-496h-179v1128q0 72 16 125.5t39 78t46 38.5t39 15l16 2h184q-3 0 -9 -0.5t-22.5 -6t-32 -14t-34 -28t-32 -46t-22.5 -69t-9 -95.5v-528q57 -10 98 0q23 5 36.5 14t19 24
t6.5 26t1 35v10v235h177v-174q0 -128 -101 -203q101 -66 101 -243v-209q0 -54 9 -97.5t23.5 -70.5t32 -46.5t34.5 -28.5t31.5 -14.5t23.5 -6.5h9h-184z" />
    <glyph glyph-name="l" unicode="l" horiz-adv-x="321" 
d="M61 1257q0 53 9 95.5t23 69t31.5 46t35 28t31.5 14t23 6.5h9h180q-3 0 -9 -0.5t-22.5 -6t-31.5 -14t-33.5 -28t-31.5 -46t-22 -69t-9 -95.5v-1128h-183v1128z" />
    <glyph glyph-name="m" unicode="m" horiz-adv-x="983" 
d="M903 -20q-7 0 -17.5 1.5t-38 16t-48.5 39t-38.5 79t-17.5 128.5v647q0 38 -28 73t-70 35q-11 0 -19.5 -1.5t-14.5 -6.5t-10.5 -8.5t-7 -12t-4.5 -13t-2.5 -16t-0.5 -16v-17.5v-17v-762h-185v762q0 38 -27.5 73t-66.5 35q-65 0 -65 -73v-797h-181v944q26 0 39.5 -0.5
t35 -3.5t34 -9t26 -17.5t21.5 -28.5q41 90 152 90q123 0 178 -105q45 105 170 105q100 0 152.5 -75.5t52.5 -201.5v-583q0 -54 9 -97.5t23.5 -70.5t32 -46.5t34.5 -28.5t31.5 -14.5t23.5 -6.5h9h-182z" />
    <glyph glyph-name="n" unicode="n" horiz-adv-x="641" 
d="M559 -20q-6 0 -17 1.5t-38 16t-48 39t-38 79t-17 128.5v647q0 38 -29.5 73t-68.5 35q-19 0 -31.5 -5t-19 -17.5t-9 -22t-5.5 -28.5v-797h-177v944q31 0 47.5 -1t39.5 -6t39 -18t28 -34q18 42 58 66t96 24q104 0 157.5 -75.5t53.5 -201.5v-583q0 -54 9 -97.5t23.5 -70.5
t32 -46.5t34.5 -28.5t31.5 -14.5t23.5 -6.5h9h-184z" />
    <glyph glyph-name="o" unicode="o" horiz-adv-x="643" 
d="M274 129q-104 0 -158.5 72t-54.5 196v430q0 121 88 199t220 78q102 0 157.5 -76t55.5 -201v-430q0 -118 -88.5 -193t-219.5 -75zM242 336q0 -39 27.5 -74t66.5 -35q11 0 20 1.5t15 6.5t11 8.5t7.5 12t4.5 13t2.5 16t0.5 16v18.5v17v555q0 40 -27.5 74t-64.5 34
q-11 0 -20.5 -1.5t-16 -6.5t-11 -8.5t-7.5 -12t-5 -13t-2.5 -16.5t-0.5 -15.5v-17.5v-17v-555z" />
    <glyph glyph-name="p" unicode="p" horiz-adv-x="677" 
d="M-61 -258q3 0 8.5 0.5t21.5 5.5t30.5 14t32 28.5t30.5 46t21.5 69.5t8.5 96v1071q40 0 59.5 -1.5t44.5 -10t40 -25.5q67 58 172 58q103 0 155.5 -75t52.5 -202v-424q0 -117 -74 -196.5t-175 -79.5q-44 0 -88 28v-143q0 -73 -17 -126.5t-41 -78t-48 -38.5t-41 -15l-17 -2
h-176zM279 332q0 -43 28 -79t66 -36q12 0 21.5 1.5t16.5 7t12 8.5t8 13t5 14t3 17.5t1 16.5v19v18v553q0 38 -30 74t-70 36q-61 0 -61 -80v-583z" />
    <glyph glyph-name="q" unicode="q" horiz-adv-x="638" 
d="M563 -258q-7 0 -17.5 1.5t-38.5 15.5t-49.5 38.5t-39 78t-17.5 126.5v160q-48 -45 -125 -45q-106 0 -160.5 75.5t-54.5 200.5v424q0 114 76 195.5t176 81.5q75 0 123 -64q15 20 41.5 30t47 11.5t61.5 1.5v-1071q0 -73 16 -126.5t39 -78t45.5 -38.5t38.5 -15l16 -2h-178z
M246 326q0 -40 26 -74.5t66 -34.5q63 0 63 76v592q0 41 -27.5 75.5t-64.5 34.5q-11 0 -20.5 -1.5t-16 -6.5t-11 -8.5t-7.5 -12.5t-5 -13t-2.5 -16.5t-0.5 -16v-18v-17.5v-559z" />
    <glyph glyph-name="r" unicode="r" horiz-adv-x="489" 
d="M61 1073q36 0 57 -2.5t46.5 -11.5t41.5 -30t25 -56q17 59 61 86.5t118 27.5q23 0 39 -6v-159h-127q-36 0 -57 -33t-21 -78v-682h-183v944z" />
    <glyph glyph-name="s" unicode="s" 
d="M279 129q-106 0 -162 72.5t-56 195.5v49l187 78v-188q0 -41 27.5 -75t66.5 -34q11 0 20 1.5t15 6.5t11 8.5t7.5 12t4.5 13t2.5 16t0.5 16v18.5v17v78q0 43 -17.5 75t-45 53t-61.5 40t-68 42t-63 51.5t-48.5 76t-21.5 108.5q0 99 84 171.5t211 72.5q60 0 103 -25t66 -68
t33.5 -91t10.5 -103l-183 -84v158q0 40 -25.5 74t-62.5 34q-13 0 -22.5 -3.5t-15 -13t-9 -17.5t-4.5 -25t-1.5 -27.5t-0.5 -31.5v-7q0 -43 17 -76.5t44.5 -55t61 -40.5t67.5 -41t62.5 -49.5t48.5 -72.5t23 -103q0 -147 -86 -227t-221 -80z" />
    <glyph glyph-name="t" unicode="t" horiz-adv-x="391" 
d="M268 -20q-3 0 -9 0.5t-22.5 6t-31.5 14.5t-33.5 28.5t-31.5 46.5t-22 70.5t-9 97.5v682h-48v147h48v213q98 0 140 -49.5t42 -163.5h82v-147h-82v-682q0 -54 9 -97.5t23 -70.5t31.5 -46.5t35 -28.5t31.5 -14.5t23 -6.5h9h-185z" />
    <glyph glyph-name="u" unicode="u" 
d="M272 100q-102 0 -156.5 76t-54.5 201v696h185v-758q0 -39 26.5 -74.5t65.5 -35.5q37 0 50 18.5t13 52.5v797h185v-944q-63 0 -100.5 11t-59.5 48q-45 -88 -154 -88z" />
    <glyph glyph-name="v" unicode="v" 
d="M336 63q-105 47 -190 179.5t-85 281.5v549h187v-549q0 -184 117 -297q17 26 25.5 77.5t9.5 91t1 128.5v549h185v-481q0 -86 -28 -174.5t-71 -158.5t-81 -118t-70 -78z" />
    <glyph glyph-name="w" unicode="w" horiz-adv-x="983" 
d="M328 63q-101 48 -184 180.5t-83 280.5v549h177v-549q0 -181 120 -297q43 64 43 297v549h183v-549q0 -195 121 -297q34 64 34 297v549h183v-481q0 -85 -28.5 -174t-72.5 -159t-82 -118t-71 -78q-111 52 -191 191q-59 -106 -149 -191z" />
    <glyph glyph-name="x" unicode="x" horiz-adv-x="643" 
d="M563 -20q-7 0 -17.5 1.5t-38.5 16t-49.5 39t-39 79t-17.5 128.5v145q0 34 -3.5 60.5t-14 48.5t-17 34.5t-26 29.5t-26.5 22.5t-33 23.5q-25 -38 -32 -78t-7 -141v-260h-181v190q0 184 148 340q-148 123 -148 314v100h181v-100q0 -27 3 -49.5t6.5 -38.5t13 -32.5t14 -25
t19 -21.5t19.5 -17t23 -17t22 -16q28 35 33.5 71t5.5 144v102h183v-37q0 -190 -146 -336q146 -115 146 -311v-145q0 -74 16.5 -128.5t40 -79t47.5 -39t40 -15.5l17 -2h-182z" />
    <glyph glyph-name="y" unicode="y" horiz-adv-x="638" 
d="M272 -268q-103 0 -157 72.5t-54 197.5l179 61v-124q0 -39 31 -74t67 -35q11 0 20.5 1.5t16 6.5t11 8.5t7.5 12.5t5 13t2.5 16t0.5 16v18v17v211q-57 -50 -129 -50q-102 0 -156.5 76t-54.5 201v696h179v-758q0 -37 30 -73.5t68 -36.5t50.5 18.5t12.5 52.5v719
q0 72 16.5 124.5t40.5 76.5t48 38t40 16l17 1h178q-6 0 -16.5 -1.5t-37.5 -15.5t-47 -38t-37 -76.5t-17 -124.5v-993q0 -120 -90 -195t-224 -75z" />
    <glyph glyph-name="z" unicode="z" horiz-adv-x="536" 
d="M63 145q-9 73 9.5 157.5t52.5 165t70 160t65.5 168t34.5 162.5h-234l29 129h393q10 -72 -7.5 -156t-51.5 -164.5t-69.5 -160t-64.5 -168t-34 -162.5h260l-39 -131h-414z" />
    <glyph glyph-name="braceleft" unicode="{" horiz-adv-x="1642" 
d="M141 586q-54 -12 -81 32t-17 74q7 15 14 15t11 -7q27 -43 65 -43q38 -3 62 21q20 19 -2 29l-35 12q-34 12 -55.5 31.5t-22.5 50.5q-3 37 16.5 75.5t50.5 66t67 48.5t65.5 22t46.5 -12q11 -12 15.5 -19t8.5 -23t-2 -33q-4 -24 -32 -67.5t-46 -61.5q-19 -9 -24 -9t-19 9
q-30 30 -16 39q35 19 80 90q11 20 10.5 32.5t-9.5 13.5t-22 -5q-25 -17 -59 -50.5t-49 -64.5q-17 -40 -15 -55t21 -31q8 -6 32.5 -14.5t40.5 -20t17 -29.5q0 -33 -30 -66t-87 -50zM158 535q-4 26 8 27q3 1 6 -3q5 -5 19 -7t40 -1.5t43 1t53 2.5t46 3q41 54 99 82.5t85 5.5
q13 -18 15.5 -26.5t-1.5 -36.5q-3 -21 -20 -48.5t-33 -41.5q-13 -10 -18 -9t-15 9l-2 2l-6 6q-12 18 -50.5 18.5t-77.5 -9t-83 -20.5t-57 -12q-26 0 -38.5 22.5t-12.5 35.5zM283 739q6 16 26 62q19 29 25 39q11 26 17.5 30t25.5 -6q13 -9 14 -15.5t-10 -19.5
q-23 -28 -43 -79q-16 -31 -12 -35q1 0 55 51l35 47q6 13 25 55.5t34 73.5q3 9 4.5 15.5t1.5 9t0.5 4t3.5 2.5q6 6 18 -8t15 -27q2 -15 -16 -59q-18 -26 -55 -105.5t-27 -89.5q7 -3 40.5 48t41.5 69l14 22q0 2 1 5.5t1 5.5q16 36 28 42.5t21 -4.5q27 -26 21 -32
q-20 -20 -31 -62q-5 -17 -5 -36.5t2 -30.5l3 -11q15 55 58 121t63 82q23 21 59 -8q9 -12 2 -16q-28 -20 -43 -35q16 13 29.5 20.5t19.5 10t7 4.5q2 2 1 5.5t-3 7.5l-2 3q20 4 51 -27q16 -16 4 -47q-6 -20 -17.5 -36t-21.5 -19q-11 0 -24.5 7.5t-18.5 19.5q-11 -36 -4 -62
q3 -13 19.5 -15.5t31.5 11.5q8 7 18 20.5t25.5 38t17.5 27.5l13 25q-17 11 -17 41q0 12 4 16q2 2 4.5 0t9 -5t15.5 -3q14 0 36 7.5t34 16.5q15 4 15.5 4t12.5 -8q10 -8 11 -12t-9 -23q-6 -14 -22 -43t-21 -38q-10 -33 -10 -41q5 -2 15.5 10.5t19.5 30.5q4 7 14.5 20.5
t12.5 17.5l10 17q20 34 41 61q30 34 59 27q14 -7 27 -23q15 28 39 82q4 9 6 15.5t2 9t0.5 5t3.5 5.5q6 3 17 -11.5t14 -27.5q1 -4 1.5 -6.5t-1 -7.5t-3.5 -9t-7 -15t-9 -21q-1 -3 -12.5 -25.5t-23.5 -47.5t-24 -52t-18 -46.5t-2 -23.5q1 -1 3 0t5 4t6 6.5t7 9t7 10t8 11.5
t8 12.5t8 13t8 11.5l18 33q22 46 49 76q31 38 62 28q11 -4 23 -15.5t12 -23.5v-4l4 8q4 4 8 0q1 -1 4 -3.5t4 -4t3.5 -4.5t3.5 -5t1.5 -4.5t-1 -5.5t-3.5 -5q-19 -22 -35 -70q-11 -22 -4 -22q2 0 4 2q10 8 28 30t30 45l12 19q1 1 2 4t2 4q11 28 20 39.5t15.5 11t15.5 -7.5
q23 -27 19 -31q-17 -17 -31 -63q-5 -17 -5 -36.5t2 -30.5l3 -11q18 55 61 122t60 81q16 11 27.5 9.5t31.5 -15.5q9 -10 9 -12t-11 -9q-25 -17 -45 -39q-33 -33 -58 -75.5t-32 -69.5q-3 -8 -4.5 -16t-1.5 -11t-1 -6.5t-3 -2.5t-8 1q-28 0 -52 31q-2 2 -20 43q0 7 11.5 36
t13.5 35q0 2 -2 0q-18 -51 -54 -94q-1 -2 -4 -5q-9 -12 -15 -18t-16 -14t-19 -6.5t-17 12.5q-12 20 -19 48q-26 -47 -43 -64q-10 -11 -20.5 -5.5t-18.5 21.5q-6 6 17 62l-21 -39q-23 -50 -47 -74q-23 -28 -55 4q-23 23 -23 58q-20 -30 -33 -43q-11 -12 -24 -1.5t-21 33.5
q-7 7 21 62q-17 -27 -19 -35q-40 -69 -57 -74h-4q-10 0 -25 11q-17 21 -17.5 35t11.5 40l39 82q-30 -26 -53 -28q4 -2 14 -2q-9 -27 -12 -33q-35 -78 -72 -113q-13 -16 -30 -16q-18 3 -49 24t-37 35q-7 12 -2.5 41t18.5 53q-31 -33 -54 -72t-28 -61q-4 -10 -5.5 -20
t-1.5 -11.5t-3 -4.5t-10 1q-27 0 -52 31q-12 12 -18 47q0 25 18 66v2q-5 -14 -43 -88q-11 -21 -31 -47t-20 -27q-14 -14 -22.5 -13t-24.5 17q-12 14 -18 39q-4 11 30 66q2 2 2 6l-2 -2q-16 -25 -37 -51t-24 -31q-12 -9 -20.5 -8.5t-18.5 12.5q-17 17 -20 26.5t4 36.5z
M322 379q4 8 9 10.5t8.5 1t4.5 -3.5q29 -29 41 -29q36 -8 56 10q16 16 -7 27q-1 0 -13.5 4.5t-22.5 9t-22.5 13t-21 21.5t-10.5 30q0 23 4 35q47 6 68 -4q-15 -37 12 -64q6 -4 23 -11t27.5 -15.5t10.5 -22.5q3 -30 -19.5 -59.5t-61.5 -38.5q-46 -13 -70.5 25.5t-15.5 60.5z
M369 911q16 28 16 56q2 16 35 -4q10 -16 11.5 -20.5t-3.5 -22.5q-12 -24 -29 -41q-6 -9 -22 0q-9 9 -10 11.5t2 20.5zM446 557q23 -9 33 -25q25 11 45 50q17 24 9 32.5t-27 -0.5q-39 -33 -60 -57zM455 178q5 32 21 46.5t44 25.5q57 15 232.5 27t261.5 12q94 3 116 0.5
t25 -17.5q6 -13 5 -14.5t-12 -0.5q-12 1 -20 1q-47 6 -217 -12q-184 -15 -297 -43q-55 -9 -120 -43q-21 -18 -33 -15.5t-6 33.5zM485 453q2 2 7.5 0t9.5 0q29 7 55 28q50 32 55 47l2 2q-30 0 -30 37q0 21 8 28q3 2 4 -1q12 -20 51 -12l2 4q21 44 21 51q-2 12 1.5 15t9 -0.5
t9.5 -10.5q14 -27 10 -35v-4q8 3 49 19.5t72 27t47 10.5q25 0 40.5 -12t15.5 -31q4 -22 -11 -27q-3 -1 -4 1q-16 16 -59 16q-17 0 -55 -12.5t-86 -31.5t-60 -23q21 3 20 -6q0 -4 -3 -5q-16 -24 -19 -36q-14 -24 -30 -59t-13 -42q8 -22 45 40q2 3 4 7l17 25q37 59 43 76
q3 18 7.5 19.5t16.5 -11.5q23 -26 19 -39q-1 -6 -19 -33.5t-32 -60.5q-17 -41 -9 -39q9 0 47 51q9 16 19.5 33.5t17 28t13 21.5t10 17.5t7 12.5t4.5 9.5t1 6.5q0 8 7 9q7 0 16 -13q11 -11 16 -21q0 -2 -16 -34q0 -1 -9 -20q-42 -81 -32 -82q2 0 6 3q48 63 59 80l8 15
q17 36 45 67q33 35 56 27q20 -7 30 -23q6 11 19.5 38.5t21.5 43.5q2 9 3 16.5t1.5 10t2.5 4.5q14 9 36 -35q3 -15 -20 -59q-17 -26 -54 -107.5t-24 -87.5q2 -2 17 18q8 11 40 60l23 41l6 14q9 12 23 39q4 5 8.5 12t6.5 9.5t5 6t6 3t7 -2t10 -5.5q12 -5 15 -9.5t1 -9
t-12 -16.5q-2 -2 -43 -82q-14 -29 -13 -31q8 0 56 51q8 10 21 28t18 24q20 38 32 30q40 61 78 15q10 -15 9 -33t-7 -33l-6 -16q63 38 64 105q2 45 -22 61q-9 6 -19 2q-12 -4 -12 5q1 16 26 31q7 4 14 7q18 5 32 0.5t20 -15.5q18 -50 5.5 -100t-53.5 -89.5t-90 -45.5
q14 0 17.5 -4.5t-2.5 -18.5q-21 -43 -43 -59q-13 -20 -43 0q-13 9 -18 12.5t-12 13t-9 21.5q0 4 7 17t16.5 29t11.5 20l-7 -9q-6 -6 -8 -10q-45 -67 -63 -82q-19 -16 -39 4q-4 2 16 62q-4 -8 -11.5 -22.5t-8.5 -16.5q-11 -21 -29 -47t-18 -27q-27 -30 -58 4q-25 29 -20 58
q-9 -10 -18.5 -25.5t-12.5 -18.5q-12 -12 -26.5 -0.5t-20.5 35.5q-3 11 16 49l-20 -32q-2 -2 -6.5 -9t-8.5 -12.5t-10.5 -13.5t-11 -12.5t-11.5 -9.5t-11.5 -5t-10.5 2q-32 16 -32 43q-13 -25 -43 -65q-16 -19 -31 -4q-21 21 -25 26q-1 4 4.5 16.5t15 33t13.5 30.5l-20 -33
q-21 -39 -35.5 -59t-30.5 -23q-11 0 -25 20.5t-18 35.5v12q0 18 5 31t19.5 32.5t18.5 26.5l-64 -67q-17 -17 -38 12q-16 24 -9 31zM737 801q4 -5 12 2t19 22q9 10 13 23t-1 16q-10 5 -32 -24q-19 -35 -11 -39zM897 414q2 -2 10.5 6t20.5 23.5t24 33.5q46 67 35 78
q-6 6 -21 -10t-38 -49q-13 -22 -21 -41t-10 -29t0 -12zM999 762q4 -3 20 16t38 51q12 17 20.5 34t10.5 27t-1 13q-2 10 -25 -18q-14 -17 -28 -41q-14 -22 -23 -41t-11.5 -29t-0.5 -12zM1130 625q5 9 9.5 20.5t7.5 24t4 14.5q0 18 20 3q6 -5 11 -11q21 -21 8 -39
q-12 -24 -27 -39q-4 -13 -24 0q-8 8 -9.5 11t0.5 16zM1186 440q0 -30 20 -10q5 4 11 14t9 18l3 7q-11 9 -23 27q-20 -36 -20 -56zM1202 778q3 -3 22 22q4 5 33 44q17 25 27.5 49t7.5 27q-4 3 -12 -2.5t-20.5 -20t-26.5 -37.5q-44 -76 -31 -82zM1229 520q0 -9 4 -15t8 -7
l4 -2q14 29 19.5 52t-0.5 25q-7 3 -19.5 -17.5t-15.5 -35.5z" />
    <glyph glyph-name="Agrave" unicode="&#xc0;" horiz-adv-x="1529" 
d="M741 39q-77 -41 -178.5 -55.5t-200 -1t-183.5 65t-124 134.5q-40 90 -32.5 175t48.5 159.5t87.5 130.5t83.5 89l37 32q-81 -114 -97.5 -236.5t37.5 -203.5q43 -78 132 -117.5t179.5 -37t170 33t108.5 80.5q51 102 51 356v748q54 14 109 14q63 0 92 -6v-275v-319v-6v-80
q-4 -99 -10 -146h225v551q0 143 -74.5 226.5t-232.5 83.5q-66 0 -114 -17t-71 -45t-33 -54.5t-10 -53.5v-62q-54 34 -81.5 81t-28.5 95t22.5 95.5t66 84t107.5 58t142 20.5q230 -7 365.5 -146.5t135.5 -365.5v-1140q0 -56 9 -101.5t23 -73t31.5 -48.5t35 -30.5t31.5 -15
t23 -5.5l9 -1h-196q-7 0 -17.5 1.5t-38 16.5t-48.5 41t-38.5 82.5t-17.5 133.5v428h-254q-66 -256 -281 -373zM422 752l104 90l-104 123l133 116l117 -137l-107 -90l107 -125l-135 -108zM915 1956h132l22 -55q18 -47 11 -84t-25 -59.5t-37 -22.5l-35 73z" />
    <glyph glyph-name="Aacute" unicode="&#xc1;" horiz-adv-x="1529" 
d="M741 39q-77 -41 -178.5 -55.5t-200 -1t-183.5 65t-124 134.5q-40 90 -32.5 175t48.5 159.5t87.5 130.5t83.5 89l37 32q-81 -114 -97.5 -236.5t37.5 -203.5q43 -78 132 -117.5t179.5 -37t170 33t108.5 80.5q51 102 51 356v748q54 14 109 14q63 0 92 -6v-275v-319v-6v-80
q-4 -99 -10 -146h225v551q0 143 -74.5 226.5t-232.5 83.5q-66 0 -114 -17t-71 -45t-33 -54.5t-10 -53.5v-62q-54 34 -81.5 81t-28.5 95t22.5 95.5t66 84t107.5 58t142 20.5q230 -7 365.5 -146.5t135.5 -365.5v-1140q0 -56 9 -101.5t23 -73t31.5 -48.5t35 -30.5t31.5 -15
t23 -5.5l9 -1h-196q-7 0 -17.5 1.5t-38 16.5t-48.5 41t-38.5 82.5t-17.5 133.5v428h-254q-66 -256 -281 -373zM422 752l104 90l-104 123l133 116l117 -137l-107 -90l107 -125l-135 -108zM930 1898q-20 -47 -13 -83.5t26 -59t38 -22.5l33 73l67 148h-129z" />
    <glyph glyph-name="Acircumflex" unicode="&#xc2;" horiz-adv-x="1529" 
d="M741 39q-77 -41 -178.5 -55.5t-200 -1t-183.5 65t-124 134.5q-40 90 -32.5 175t48.5 159.5t87.5 130.5t83.5 89l37 32q-81 -114 -97.5 -236.5t37.5 -203.5q43 -78 132 -117.5t179.5 -37t170 33t108.5 80.5q51 102 51 356v748q54 14 109 14q63 0 92 -6v-275v-319v-6v-80
q-4 -99 -10 -146h225v551q0 143 -74.5 226.5t-232.5 83.5q-66 0 -114 -17t-71 -45t-33 -54.5t-10 -53.5v-62q-54 34 -81.5 81t-28.5 95t22.5 95.5t66 84t107.5 58t142 20.5q230 -7 365.5 -146.5t135.5 -365.5v-1140q0 -56 9 -101.5t23 -73t31.5 -48.5t35 -30.5t31.5 -15
t23 -5.5l9 -1h-196q-7 0 -17.5 1.5t-38 16.5t-48.5 41t-38.5 82.5t-17.5 133.5v428h-254q-66 -256 -281 -373zM422 752l104 90l-104 123l133 116l117 -137l-107 -90l107 -125l-135 -108zM776 1749l170 215h107l168 -215q-83 -47 -166 70l-56 73l-53 -73q-83 -117 -170 -70z
" />
    <glyph glyph-name="Atilde" unicode="&#xc3;" horiz-adv-x="1529" 
d="M741 39q-77 -41 -178.5 -55.5t-200 -1t-183.5 65t-124 134.5q-40 90 -32.5 175t48.5 159.5t87.5 130.5t83.5 89l37 32q-81 -114 -97.5 -236.5t37.5 -203.5q43 -78 132 -117.5t179.5 -37t170 33t108.5 80.5q51 102 51 356v748q54 14 109 14q63 0 92 -6v-275v-319v-6v-80
q-4 -99 -10 -146h225v551q0 143 -74.5 226.5t-232.5 83.5q-66 0 -114 -17t-71 -45t-33 -54.5t-10 -53.5v-62q-54 34 -81.5 81t-28.5 95t22.5 95.5t66 84t107.5 58t142 20.5q230 -7 365.5 -146.5t135.5 -365.5v-1140q0 -56 9 -101.5t23 -73t31.5 -48.5t35 -30.5t31.5 -15
t23 -5.5l9 -1h-196q-7 0 -17.5 1.5t-38 16.5t-48.5 41t-38.5 82.5t-17.5 133.5v428h-254q-66 -256 -281 -373zM422 752l104 90l-104 123l133 116l117 -137l-107 -90l107 -125l-135 -108zM856 1790q-32 86 17.5 111t140.5 -23q44 -19 68 -14.5t59 39.5q35 -83 -13.5 -109
t-138.5 18q-42 22 -68.5 18t-64.5 -40z" />
    <glyph glyph-name="Adieresis" unicode="&#xc4;" horiz-adv-x="1529" 
d="M741 39q-77 -41 -178.5 -55.5t-200 -1t-183.5 65t-124 134.5q-40 90 -32.5 175t48.5 159.5t87.5 130.5t83.5 89l37 32q-81 -114 -97.5 -236.5t37.5 -203.5q43 -78 132 -117.5t179.5 -37t170 33t108.5 80.5q51 102 51 356v748q54 14 109 14q63 0 92 -6v-275v-319v-6v-80
q-4 -99 -10 -146h225v551q0 143 -74.5 226.5t-232.5 83.5q-66 0 -114 -17t-71 -45t-33 -54.5t-10 -53.5v-62q-54 34 -81.5 81t-28.5 95t22.5 95.5t66 84t107.5 58t142 20.5q230 -7 365.5 -146.5t135.5 -365.5v-1140q0 -56 9 -101.5t23 -73t31.5 -48.5t35 -30.5t31.5 -15
t23 -5.5l9 -1h-196q-7 0 -17.5 1.5t-38 16.5t-48.5 41t-38.5 82.5t-17.5 133.5v428h-254q-66 -256 -281 -373zM422 752l104 90l-104 123l133 116l117 -137l-107 -90l107 -125l-135 -108zM786 1843q0 -37 24.5 -61.5t61.5 -24.5q34 0 60 25t26 61q0 34 -26 60t-60 26
q-36 0 -61 -26t-25 -60zM1040 1843q0 -36 25 -61t61 -25t61 25t25 61q0 34 -25.5 60t-60.5 26t-60.5 -26t-25.5 -60z" />
    <glyph glyph-name="Aring" unicode="&#xc5;" horiz-adv-x="1529" 
d="M741 39q-77 -41 -178.5 -55.5t-200 -1t-183.5 65t-124 134.5q-40 90 -32.5 175t48.5 159.5t87.5 130.5t83.5 89l37 32q-81 -114 -97.5 -236.5t37.5 -203.5q43 -78 132 -117.5t179.5 -37t170 33t108.5 80.5q51 102 51 356v748q54 14 109 14q63 0 92 -6v-275v-319v-6v-80
q-4 -99 -10 -146h225v551q0 143 -74.5 226.5t-232.5 83.5q-66 0 -114 -17t-71 -45t-33 -54.5t-10 -53.5v-62q-54 34 -81.5 81t-28.5 95t22.5 95.5t66 84t107.5 58t142 20.5q230 -7 365.5 -146.5t135.5 -365.5v-1140q0 -56 9 -101.5t23 -73t31.5 -48.5t35 -30.5t31.5 -15
t23 -5.5l9 -1h-196q-7 0 -17.5 1.5t-38 16.5t-48.5 41t-38.5 82.5t-17.5 133.5v428h-254q-66 -256 -281 -373zM422 752l104 90l-104 123l133 116l117 -137l-107 -90l107 -125l-135 -108zM889 1839v33q0 38 40 64t87 26q39 0 66.5 -25.5t27.5 -64.5v-33q0 -37 -39 -63.5
t-86 -26.5q-42 0 -69 25.5t-27 64.5zM965 1819q0 -12 11.5 -23.5t27.5 -11.5q32 0 32 35v73q0 14 -12 24.5t-29 10.5q-14 0 -21 -5.5t-8 -12t-1 -17.5v-73z" />
    <glyph glyph-name="AE" unicode="&#xc6;" horiz-adv-x="2037" 
d="M741 39q-77 -41 -178.5 -55.5t-200 -1t-183.5 65t-124 134.5q-40 90 -32.5 175t48.5 159.5t87.5 130.5t83.5 89l37 32q-81 -114 -97.5 -236.5t37.5 -203.5q43 -78 132 -117.5t179.5 -37t170 33t108.5 80.5q51 102 51 356v748q54 14 109 14q63 0 92 -6v-275v-319v-6v-80
q-4 -99 -10 -146h225v551q0 143 -74.5 226.5t-232.5 83.5q-66 0 -114 -17t-71 -45t-33 -54.5t-10 -53.5v-62q-54 34 -81.5 81t-28.5 95t22.5 95.5t66 84t107.5 58t142 20.5q263 -9 401 -186q50 56 130 88.5t171 32.5q116 0 188 -77.5t72 -199.5v-47l-196 -61v172
q0 40 -39 74t-94 34q-57 0 -76 -30t-19 -78v-273q0 -46 11.5 -83t30 -60t41 -40t45.5 -24.5t41.5 -12t29.5 -5.5h12q-5 0 -13.5 -0.5t-33.5 -5.5t-48 -14t-51 -28.5t-48 -46t-33.5 -69.5t-13.5 -96v-377q0 -58 47.5 -98.5t113.5 -40.5q69 0 98 31t29 78v172l199 67v-172
q0 -119 -107 -197.5t-255 -78.5q-68 0 -132 24v-24q0 -56 9 -101.5t23 -73t31.5 -48.5t35 -30.5t31.5 -15t23 -5.5l9 -1h-196q-7 0 -17.5 1.5t-38 16.5t-48.5 41t-38.5 82.5t-17.5 133.5v428h-254q-66 -256 -281 -373zM422 752l104 90l-104 123l133 116l117 -137l-107 -90
l107 -125l-135 -108zM1470 854l48 6q-21 0 -48 6v-12zM1753 662l135 114l109 -135l-131 -115z" />
    <glyph glyph-name="Ccedilla" unicode="&#xc7;" horiz-adv-x="901" 
d="M688 573l-115 138l107 88l-107 123l138 114l112 -133l-104 -88l104 -127zM68 834q10 183 35 313t61 212.5t92 129.5t119 64.5t151 17.5q120 0 191 -77t71 -200v-92l-192 -63v219q0 39 -40.5 73.5t-90.5 34.5q-26 0 -47 -11.5t-45 -50t-41.5 -103.5t-32.5 -181t-23 -274
q-4 -113 -4.5 -221.5t13.5 -207t38 -172.5t69 -117.5t106 -43.5q72 0 107.5 41.5t35.5 150.5v156l199 64v-158q0 -170 -102.5 -256t-274.5 -96l-27 -39q54 -1 82.5 -29t28.5 -74q-3 -110 -195 -110v67q64 0 88 8.5t21 34.5q0 27 -21.5 34t-87.5 7v52l35 49q-186 15 -266 233
t-53 615z" />
    <glyph glyph-name="Egrave" unicode="&#xc8;" horiz-adv-x="823" 
d="M387 -16q-60 0 -117 19.5t-104.5 56t-76 96.5t-28.5 135v309q0 53 13.5 96t34.5 69.5t47 46t52 28.5t47 14t35 6h13q-4 0 -11.5 0.5t-29.5 5t-41.5 12t-44 24t-41.5 39t-29 59t-12 81.5v213q0 119 107 198t256 79q116 0 188 -77.5t72 -199.5v-47l-197 -61v172
q0 40 -39 74t-94 34q-30 0 -50 -9t-29 -26.5t-12 -34t-3 -38.5v-273q0 -46 11.5 -83t30 -60t41 -40t45.5 -24.5t41.5 -12t29.5 -5.5h12q-5 0 -13.5 -0.5t-34 -5.5t-48 -14t-50.5 -28.5t-48 -46t-34 -69.5t-14 -96v-377q0 -58 47.5 -98.5t114.5 -40.5q69 0 98 31t29 78v172
l199 67v-172q0 -119 -107.5 -197.5t-255.5 -78.5zM379 1880h131l22 -55q18 -47 11 -84t-25 -59.5t-37 -22.5l-35 74zM539 662l135 114l108 -135l-131 -115z" />
    <glyph glyph-name="Eacute" unicode="&#xc9;" horiz-adv-x="823" 
d="M387 -16q-60 0 -117 19.5t-104.5 56t-76 96.5t-28.5 135v309q0 53 13.5 96t34.5 69.5t47 46t52 28.5t47 14t35 6h13q-4 0 -11.5 0.5t-29.5 5t-41.5 12t-44 24t-41.5 39t-29 59t-12 81.5v213q0 119 107 198t256 79q116 0 188 -77.5t72 -199.5v-47l-197 -61v172
q0 40 -39 74t-94 34q-30 0 -50 -9t-29 -26.5t-12 -34t-3 -38.5v-273q0 -46 11.5 -83t30 -60t41 -40t45.5 -24.5t41.5 -12t29.5 -5.5h12q-5 0 -13.5 -0.5t-34 -5.5t-48 -14t-50.5 -28.5t-48 -46t-34 -69.5t-14 -96v-377q0 -58 47.5 -98.5t114.5 -40.5q69 0 98 31t29 78v172
l199 67v-172q0 -119 -107.5 -197.5t-255.5 -78.5zM393 1823q-20 -47 -13 -84t26 -59.5t38 -22.5l33 74l68 147h-129zM539 662l135 114l108 -135l-131 -115z" />
    <glyph glyph-name="Ecircumflex" unicode="&#xca;" horiz-adv-x="823" 
d="M387 -16q-60 0 -117 19.5t-104.5 56t-76 96.5t-28.5 135v309q0 53 13.5 96t34.5 69.5t47 46t52 28.5t47 14t35 6h13q-4 0 -11.5 0.5t-29.5 5t-41.5 12t-44 24t-41.5 39t-29 59t-12 81.5v213q0 119 107 198t256 79q116 0 188 -77.5t72 -199.5v-47l-197 -61v172
q0 40 -39 74t-94 34q-30 0 -50 -9t-29 -26.5t-12 -34t-3 -38.5v-273q0 -46 11.5 -83t30 -60t41 -40t45.5 -24.5t41.5 -12t29.5 -5.5h12q-5 0 -13.5 -0.5t-34 -5.5t-48 -14t-50.5 -28.5t-48 -46t-34 -69.5t-14 -96v-377q0 -58 47.5 -98.5t114.5 -40.5q69 0 98 31t29 78v172
l199 67v-172q0 -119 -107.5 -197.5t-255.5 -78.5zM240 1673l170 215h106l168 -215q-83 -47 -166 70l-55 74l-53 -74q-83 -117 -170 -70zM539 662l135 114l108 -135l-131 -115z" />
    <glyph glyph-name="Edieresis" unicode="&#xcb;" horiz-adv-x="823" 
d="M387 -16q-60 0 -117 19.5t-104.5 56t-76 96.5t-28.5 135v309q0 53 13.5 96t34.5 69.5t47 46t52 28.5t47 14t35 6h13q-4 0 -11.5 0.5t-29.5 5t-41.5 12t-44 24t-41.5 39t-29 59t-12 81.5v213q0 119 107 198t256 79q116 0 188 -77.5t72 -199.5v-47l-197 -61v172
q0 40 -39 74t-94 34q-30 0 -50 -9t-29 -26.5t-12 -34t-3 -38.5v-273q0 -46 11.5 -83t30 -60t41 -40t45.5 -24.5t41.5 -12t29.5 -5.5h12q-5 0 -13.5 -0.5t-34 -5.5t-48 -14t-50.5 -28.5t-48 -46t-34 -69.5t-14 -96v-377q0 -58 47.5 -98.5t114.5 -40.5q69 0 98 31t29 78v172
l199 67v-172q0 -119 -107.5 -197.5t-255.5 -78.5zM250 1767q0 -37 24.5 -61.5t61.5 -24.5q34 0 60 25t26 61q0 34 -26 60t-60 26q-36 0 -61 -26t-25 -60zM504 1767q0 -36 25 -61t61 -25t61 25t25 61q0 34 -25.5 60t-60.5 26t-60.5 -26t-25.5 -60zM539 662l135 114l108 -135
l-131 -115z" />
    <glyph glyph-name="Igrave" unicode="&#xcc;" horiz-adv-x="452" 
d="M342 -180q-7 0 -17.5 1.5t-38.5 16.5t-49.5 40.5t-39 82t-17.5 133.5v1069q-11 -18 -43 -69.5t-48 -79t-36.5 -73t-32.5 -85.5q0 93 22.5 191t50 170t54 169.5t33.5 184.5l199 -82v-1395q0 -77 16 -133.5t39 -82t46 -40.5t39 -16l16 -2h-193zM168 1880h131l23 -55
q18 -47 11 -84t-25.5 -59.5t-37.5 -22.5l-34 74z" />
    <glyph glyph-name="Iacute" unicode="&#xcd;" horiz-adv-x="452" 
d="M342 -180q-7 0 -17.5 1.5t-38.5 16.5t-49.5 40.5t-39 82t-17.5 133.5v1069q-11 -18 -43 -69.5t-48 -79t-36.5 -73t-32.5 -85.5q0 93 22.5 191t50 170t54 169.5t33.5 184.5l199 -82v-1395q0 -77 16 -133.5t39 -82t46 -40.5t39 -16l16 -2h-193zM182 1823q-20 -47 -13 -84
t26 -59.5t38 -22.5l33 74l68 147h-129z" />
    <glyph glyph-name="Icircumflex" unicode="&#xce;" horiz-adv-x="452" 
d="M342 -180q-7 0 -17.5 1.5t-38.5 16.5t-49.5 40.5t-39 82t-17.5 133.5v1069q-11 -18 -43 -69.5t-48 -79t-36.5 -73t-32.5 -85.5q0 93 22.5 191t50 170t54 169.5t33.5 184.5l199 -82v-1395q0 -77 16 -133.5t39 -82t46 -40.5t39 -16l16 -2h-193zM29 1673l170 215h106
l168 -215q-83 -47 -166 70l-55 74l-53 -74q-83 -117 -170 -70z" />
    <glyph glyph-name="Idieresis" unicode="&#xcf;" horiz-adv-x="452" 
d="M342 -180q-7 0 -17.5 1.5t-38.5 16.5t-49.5 40.5t-39 82t-17.5 133.5v1069q-11 -18 -43 -69.5t-48 -79t-36.5 -73t-32.5 -85.5q0 93 22.5 191t50 170t54 169.5t33.5 184.5l199 -82v-1395q0 -77 16 -133.5t39 -82t46 -40.5t39 -16l16 -2h-193zM39 1767q0 -37 24.5 -61.5
t61.5 -24.5q34 0 60 25t26 61q0 34 -26 60t-60 26q-36 0 -61 -26t-25 -60zM293 1767q0 -36 25 -61t61 -25t61 25t25 61q0 34 -25.5 60t-60.5 26t-60.5 -26t-25.5 -60z" />
    <glyph glyph-name="Ntilde" unicode="&#xd1;" horiz-adv-x="1552" 
d="M741 39q-77 -41 -178.5 -55.5t-200.5 -1t-184 65t-125 134.5q-39 90 -31 175t49.5 159.5t88 130.5t84.5 89l37 32q-54 -74 -79 -156.5t-20.5 -155.5t35.5 -128q36 -63 102.5 -102.5t140 -48.5t145 0t126.5 39t76 71q59 111 59 438v846l199 -82v-105q17 31 48 63.5
t70.5 58.5t82 44.5t82.5 18t72 -18t51.5 -66t19.5 -122.5v-1268q0 -77 17 -133.5t41 -82t48 -40.5t41 -16l17 -2h-199q-7 0 -18 1.5t-39 16.5t-50 40.5t-39.5 82t-17.5 133.5v1223q0 62 -54 68q-53 5 -110 -41q-63 -52 -63 -121v-418v-6q0 -85 -4 -151t-15 -143.5t-34 -140
t-57.5 -124t-88.5 -112.5t-125 -89zM426 752l106 90l-106 123l137 116l107 -137l-99 -88l99 -127l-127 -108zM999 1647q-32 86 17.5 111t140.5 -23q44 -19 68 -15t59 39q35 -83 -13 -109t-138 19q-42 22 -69 18t-65 -40z" />
    <glyph glyph-name="Ograve" unicode="&#xd2;" horiz-adv-x="1134" 
d="M563 -23q-116 0 -211 61t-154.5 161.5t-94.5 231.5t-40 270.5t18 278.5t71 254.5t127.5 200t179.5 113.5q59 16 114 16.5t105 -11t96 -26t108.5 -30t121.5 -22.5q84 -8 142.5 -2t96 21.5t58.5 32t29 29.5l7 13q1 -8 1.5 -21t-3 -51t-12.5 -71.5t-32 -74t-57 -68.5
t-92.5 -44t-133.5 -10q-48 2 -104 21t-103 43.5t-100.5 48t-100 38t-97 11t-95.5 -30.5q-58 -36 -97.5 -139t-53 -234.5t4 -275.5t63 -263.5t136.5 -197.5t213 -78q126 0 184 159q60 162 28 407q-32 255 -141 432q-82 132 -186 178q61 -12 172 -66q136 -79 246 -96
q41 -102 66 -216.5t29.5 -231t-9 -227.5t-52.5 -207.5t-98 -169.5t-149 -115t-201 -42zM449 690l110 92l-110 123l137 115l114 -137l-108 -84l108 -127l-137 -111zM494 1880h131l22 -55q18 -47 11 -84t-25 -59.5t-37 -22.5l-35 74z" />
    <glyph glyph-name="Oacute" unicode="&#xd3;" horiz-adv-x="1134" 
d="M563 -23q-116 0 -211 61t-154.5 161.5t-94.5 231.5t-40 270.5t18 278.5t71 254.5t127.5 200t179.5 113.5q59 16 114 16.5t105 -11t96 -26t108.5 -30t121.5 -22.5q84 -8 142.5 -2t96 21.5t58.5 32t29 29.5l7 13q1 -8 1.5 -21t-3 -51t-12.5 -71.5t-32 -74t-57 -68.5
t-92.5 -44t-133.5 -10q-48 2 -104 21t-103 43.5t-100.5 48t-100 38t-97 11t-95.5 -30.5q-58 -36 -97.5 -139t-53 -234.5t4 -275.5t63 -263.5t136.5 -197.5t213 -78q126 0 184 159q60 162 28 407q-32 255 -141 432q-82 132 -186 178q61 -12 172 -66q136 -79 246 -96
q41 -102 66 -216.5t29.5 -231t-9 -227.5t-52.5 -207.5t-98 -169.5t-149 -115t-201 -42zM449 690l110 92l-110 123l137 115l114 -137l-108 -84l108 -127l-137 -111zM508 1823q-20 -47 -13 -84t26 -59.5t38 -22.5l33 74l67 147h-129z" />
    <glyph glyph-name="Ocircumflex" unicode="&#xd4;" horiz-adv-x="1134" 
d="M563 -23q-116 0 -211 61t-154.5 161.5t-94.5 231.5t-40 270.5t18 278.5t71 254.5t127.5 200t179.5 113.5q59 16 114 16.5t105 -11t96 -26t108.5 -30t121.5 -22.5q84 -8 142.5 -2t96 21.5t58.5 32t29 29.5l7 13q1 -8 1.5 -21t-3 -51t-12.5 -71.5t-32 -74t-57 -68.5
t-92.5 -44t-133.5 -10q-48 2 -104 21t-103 43.5t-100.5 48t-100 38t-97 11t-95.5 -30.5q-58 -36 -97.5 -139t-53 -234.5t4 -275.5t63 -263.5t136.5 -197.5t213 -78q126 0 184 159q60 162 28 407q-32 255 -141 432q-82 132 -186 178q61 -12 172 -66q136 -79 246 -96
q41 -102 66 -216.5t29.5 -231t-9 -227.5t-52.5 -207.5t-98 -169.5t-149 -115t-201 -42zM354 1673l170 215h107l168 -215q-83 -47 -166 70l-55 74l-54 -74q-83 -117 -170 -70zM449 690l110 92l-110 123l137 115l114 -137l-108 -84l108 -127l-137 -111z" />
    <glyph glyph-name="Otilde" unicode="&#xd5;" horiz-adv-x="1134" 
d="M563 -23q-116 0 -211 61t-154.5 161.5t-94.5 231.5t-40 270.5t18 278.5t71 254.5t127.5 200t179.5 113.5q59 16 114 16.5t105 -11t96 -26t108.5 -30t121.5 -22.5q84 -8 142.5 -2t96 21.5t58.5 32t29 29.5l7 13q1 -8 1.5 -21t-3 -51t-12.5 -71.5t-32 -74t-57 -68.5
t-92.5 -44t-133.5 -10q-48 2 -104 21t-103 43.5t-100.5 48t-100 38t-97 11t-95.5 -30.5q-58 -36 -97.5 -139t-53 -234.5t4 -275.5t63 -263.5t136.5 -197.5t213 -78q126 0 184 159q60 162 28 407q-32 255 -141 432q-82 132 -186 178q61 -12 172 -66q136 -79 246 -96
q41 -102 66 -216.5t29.5 -231t-9 -227.5t-52.5 -207.5t-98 -169.5t-149 -115t-201 -42zM434 1714q-32 86 17.5 111t140.5 -23q44 -19 68 -14.5t59 39.5q23 -55 8 -86.5t-57.5 -31t-102.5 27.5q-42 22 -68.5 17.5t-64.5 -40.5zM449 690l110 92l-110 123l137 115l114 -137
l-108 -84l108 -127l-137 -111z" />
    <glyph glyph-name="Odieresis" unicode="&#xd6;" horiz-adv-x="1134" 
d="M563 -23q-116 0 -211 61t-154.5 161.5t-94.5 231.5t-40 270.5t18 278.5t71 254.5t127.5 200t179.5 113.5q59 16 114 16.5t105 -11t96 -26t108.5 -30t121.5 -22.5q84 -8 142.5 -2t96 21.5t58.5 32t29 29.5l7 13q1 -8 1.5 -21t-3 -51t-12.5 -71.5t-32 -74t-57 -68.5
t-92.5 -44t-133.5 -10q-48 2 -104 21t-103 43.5t-100.5 48t-100 38t-97 11t-95.5 -30.5q-58 -36 -97.5 -139t-53 -234.5t4 -275.5t63 -263.5t136.5 -197.5t213 -78q126 0 184 159q60 162 28 407q-32 255 -141 432q-82 132 -186 178q61 -12 172 -66q136 -79 246 -96
q41 -102 66 -216.5t29.5 -231t-9 -227.5t-52.5 -207.5t-98 -169.5t-149 -115t-201 -42zM365 1767q0 -37 24.5 -61.5t61.5 -24.5q34 0 60 25t26 61q0 34 -26 60t-60 26q-36 0 -61 -26t-25 -60zM449 690l110 92l-110 123l137 115l114 -137l-108 -84l108 -127l-137 -111z
M618 1767q0 -36 25.5 -61t61.5 -25t61 25t25 61q0 34 -25.5 60t-60.5 26t-61 -26t-26 -60z" />
    <glyph glyph-name="Ugrave" unicode="&#xd9;" horiz-adv-x="1435" 
d="M453 610l-113 138l106 86l-106 129l137 110l111 -135l-105 -86l105 -125zM55 1548q68 146 219 185.5t304 -41.5q61 -33 109.5 -77.5t81.5 -91t57 -105.5t37.5 -113t21 -123t10 -126t2.5 -130v-690q0 -61 59 -69q60 -8 127 38q59 42 74 98v1266l197 -80v-1473
q0 -77 17 -134t41 -83t48 -41t41 -16l17 -2h-197q-7 0 -18 1.5t-39 16.5t-50 41t-39.5 83t-17.5 134v144q-22 -36 -63.5 -71.5t-92 -63t-104 -36.5t-97 3t-72.5 62t-30 134v816v45v51.5t-0.5 50t-2 55t-4 51.5t-6.5 54t-9.5 47t-13 47t-17.5 39q-60 107 -173 113
q-102 6 -189 -69q-99 -86 -109 -220q-10 -149 100 -305q-8 6 -20.5 17t-47.5 46.5t-64.5 73t-60.5 92.5t-46.5 109t-12.5 120t33 127zM883 1880h131l22 -55q18 -47 11 -84t-25 -59.5t-37 -22.5l-35 74z" />
    <glyph glyph-name="Uacute" unicode="&#xda;" horiz-adv-x="1435" 
d="M453 610l-113 138l106 86l-106 129l137 110l111 -135l-105 -86l105 -125zM55 1548q68 146 219 185.5t304 -41.5q61 -33 109.5 -77.5t81.5 -91t57 -105.5t37.5 -113t21 -123t10 -126t2.5 -130v-690q0 -61 59 -69q60 -8 127 38q59 42 74 98v1266l197 -80v-1473
q0 -77 17 -134t41 -83t48 -41t41 -16l17 -2h-197q-7 0 -18 1.5t-39 16.5t-50 41t-39.5 83t-17.5 134v144q-22 -36 -63.5 -71.5t-92 -63t-104 -36.5t-97 3t-72.5 62t-30 134v816v45v51.5t-0.5 50t-2 55t-4 51.5t-6.5 54t-9.5 47t-13 47t-17.5 39q-60 107 -173 113
q-102 6 -189 -69q-99 -86 -109 -220q-10 -149 100 -305q-8 6 -20.5 17t-47.5 46.5t-64.5 73t-60.5 92.5t-46.5 109t-12.5 120t33 127zM897 1823q-20 -47 -13 -84t26 -59.5t38 -22.5l33 74l68 147h-129z" />
    <glyph glyph-name="Ucircumflex" unicode="&#xdb;" horiz-adv-x="1435" 
d="M453 610l-113 138l106 86l-106 129l137 110l111 -135l-105 -86l105 -125zM55 1548q68 146 219 185.5t304 -41.5q61 -33 109.5 -77.5t81.5 -91t57 -105.5t37.5 -113t21 -123t10 -126t2.5 -130v-690q0 -61 59 -69q60 -8 127 38q59 42 74 98v1266l197 -80v-1473
q0 -77 17 -134t41 -83t48 -41t41 -16l17 -2h-197q-7 0 -18 1.5t-39 16.5t-50 41t-39.5 83t-17.5 134v144q-22 -36 -63.5 -71.5t-92 -63t-104 -36.5t-97 3t-72.5 62t-30 134v816v45v51.5t-0.5 50t-2 55t-4 51.5t-6.5 54t-9.5 47t-13 47t-17.5 39q-60 107 -173 113
q-102 6 -189 -69q-99 -86 -109 -220q-10 -149 100 -305q-8 6 -20.5 17t-47.5 46.5t-64.5 73t-60.5 92.5t-46.5 109t-12.5 120t33 127zM743 1673l170 215h107l168 -215q-83 -47 -166 70l-55 74l-54 -74q-83 -117 -170 -70z" />
    <glyph glyph-name="Udieresis" unicode="&#xdc;" horiz-adv-x="1435" 
d="M453 610l-113 138l106 86l-106 129l137 110l111 -135l-105 -86l105 -125zM55 1548q68 146 219 185.5t304 -41.5q61 -33 109.5 -77.5t81.5 -91t57 -105.5t37.5 -113t21 -123t10 -126t2.5 -130v-690q0 -61 59 -69q60 -8 127 38q59 42 74 98v1266l197 -80v-1473
q0 -77 17 -134t41 -83t48 -41t41 -16l17 -2h-197q-7 0 -18 1.5t-39 16.5t-50 41t-39.5 83t-17.5 134v144q-22 -36 -63.5 -71.5t-92 -63t-104 -36.5t-97 3t-72.5 62t-30 134v816v45v51.5t-0.5 50t-2 55t-4 51.5t-6.5 54t-9.5 47t-13 47t-17.5 39q-60 107 -173 113
q-102 6 -189 -69q-99 -86 -109 -220q-10 -149 100 -305q-8 6 -20.5 17t-47.5 46.5t-64.5 73t-60.5 92.5t-46.5 109t-12.5 120t33 127zM754 1767q0 -37 24.5 -61.5t61.5 -24.5q34 0 60 25t26 61q0 34 -26 60t-60 26q-36 0 -61 -26t-25 -60zM1008 1767q0 -36 25 -61t61 -25
t61 25t25 61q0 34 -25.5 60t-60.5 26t-60.5 -26t-25.5 -60z" />
    <glyph glyph-name="Yacute" unicode="&#xdd;" horiz-adv-x="1427" 
d="M639 -479l-111 139l144 104l78 -100l131 107l110 -142l-135 -108l-84 104zM55 1597q69 147 221 186t308 -48q68 -37 120 -86t85.5 -109t55.5 -121t33.5 -137t15.5 -141.5t5 -149.5v-143q0 -63 60 -70q61 -7 129 39q75 53 79 123v2v623l199 -84v-738q0 -125 -13.5 -228
t-47 -209.5t-100 -197t-163.5 -157.5q-61 -44 -147.5 -72t-181.5 -32t-183.5 14.5t-160.5 73.5t-105 139q-38 105 -29.5 199t49.5 174.5t86.5 139t81.5 91.5l37 33q-53 -74 -79 -165t-23.5 -171t27.5 -139q30 -67 89.5 -110t129 -56.5t145.5 -7.5t142.5 30t117.5 63.5
t72 86.5q57 124 57 424v112q-19 -36 -61 -73t-93.5 -66t-106.5 -38.5t-100.5 2t-74.5 62t-29 136.5v332q0 257 -53 356q-61 108 -174 115q-101 7 -188 -68q-98 -86 -107 -221q-10 -150 101 -307q-8 6 -21 17t-49 47t-66 73.5t-62 93t-48 110t-13 121t33 127.5zM920 1884
q-20 -47 -13 -84t26 -59.5t38 -22.5l33 74l67 147h-129z" />
    <glyph glyph-name="agrave" unicode="&#xe0;" horiz-adv-x="641" 
d="M238 129q-78 -4 -127.5 71.5t-49.5 196.5l7 430q0 121 86.5 199t216.5 78q104 0 156.5 -75t52.5 -202v-698q-45 0 -74 6t-56 31.5t-36 71.5q-19 -50 -71 -79.5t-105 -29.5zM242 367q0 -44 24 -75.5t76 -31.5q61 0 61 107v524q0 42 -24.5 75t-75.5 33q-30 0 -39.5 -29.5
t-9.5 -78.5q-12 -414 -12 -524zM283 1399h131l22 -56q18 -47 11 -83.5t-25 -59t-37 -22.5l-35 73z" />
    <glyph glyph-name="aacute" unicode="&#xe1;" horiz-adv-x="641" 
d="M238 129q-78 -4 -127.5 71.5t-49.5 196.5l7 430q0 121 86.5 199t216.5 78q104 0 156.5 -75t52.5 -202v-698q-45 0 -74 6t-56 31.5t-36 71.5q-19 -50 -71 -79.5t-105 -29.5zM242 367q0 -44 24 -75.5t76 -31.5q61 0 61 107v524q0 42 -24.5 75t-75.5 33q-30 0 -39.5 -29.5
t-9.5 -78.5q-12 -414 -12 -524zM297 1341q-20 -47 -13 -83.5t26 -59t38 -22.5l33 73l68 148h-130z" />
    <glyph glyph-name="acircumflex" unicode="&#xe2;" horiz-adv-x="641" 
d="M238 129q-78 -4 -127.5 71.5t-49.5 196.5l7 430q0 121 86.5 199t216.5 78q104 0 156.5 -75t52.5 -202v-698q-45 0 -74 6t-56 31.5t-36 71.5q-19 -50 -71 -79.5t-105 -29.5zM143 1192l170 215h107l168 -215q-83 -47 -166 70l-55 73l-54 -73q-83 -117 -170 -70zM242 367
q0 -44 24 -75.5t76 -31.5q61 0 61 107v524q0 42 -24.5 75t-75.5 33q-30 0 -39.5 -29.5t-9.5 -78.5q-12 -414 -12 -524z" />
    <glyph glyph-name="atilde" unicode="&#xe3;" horiz-adv-x="641" 
d="M238 129q-78 -4 -127.5 71.5t-49.5 196.5l7 430q0 121 86.5 199t216.5 78q104 0 156.5 -75t52.5 -202v-698q-45 0 -74 6t-56 31.5t-36 71.5q-19 -50 -71 -79.5t-105 -29.5zM223 1233q-32 86 17.5 111t140.5 -23q44 -19 68 -14.5t59 39.5q35 -83 -13.5 -109t-138.5 18
q-42 22 -68.5 18t-64.5 -40zM242 367q0 -44 24 -75.5t76 -31.5q61 0 61 107v524q0 42 -24.5 75t-75.5 33q-30 0 -39.5 -29.5t-9.5 -78.5q-12 -414 -12 -524z" />
    <glyph glyph-name="adieresis" unicode="&#xe4;" horiz-adv-x="641" 
d="M238 129q-78 -4 -127.5 71.5t-49.5 196.5l7 430q0 121 86.5 199t216.5 78q104 0 156.5 -75t52.5 -202v-698q-45 0 -74 6t-56 31.5t-36 71.5q-19 -50 -71 -79.5t-105 -29.5zM154 1286q0 -37 24.5 -61.5t61.5 -24.5q34 0 60 25t26 61q0 34 -26 60t-60 26q-36 0 -61 -26
t-25 -60zM242 367q0 -44 24 -75.5t76 -31.5q61 0 61 107v524q0 42 -24.5 75t-75.5 33q-30 0 -39.5 -29.5t-9.5 -78.5q-12 -414 -12 -524zM408 1286q0 -36 25 -61t61 -25t61 25t25 61q0 34 -25.5 60t-60.5 26t-60.5 -26t-25.5 -60z" />
    <glyph glyph-name="aring" unicode="&#xe5;" horiz-adv-x="641" 
d="M238 129q-78 -4 -127.5 71.5t-49.5 196.5l7 430q0 121 86.5 199t216.5 78q104 0 156.5 -75t52.5 -202v-698q-45 0 -74 6t-56 31.5t-36 71.5q-19 -50 -71 -79.5t-105 -29.5zM242 367q0 -44 24 -75.5t76 -31.5q61 0 61 107v524q0 42 -24.5 75t-75.5 33q-30 0 -39.5 -29.5
t-9.5 -78.5q-12 -414 -12 -524zM256 1282v33q0 38 40 64t87 26q39 0 66.5 -25.5t27.5 -64.5v-33q0 -37 -39 -63.5t-86 -26.5q-42 0 -69 25.5t-27 64.5zM332 1262q0 -12 11.5 -23.5t27.5 -11.5q32 0 32 35v73q0 14 -12 24.5t-29 10.5q-14 0 -21 -5.5t-8 -12t-1 -17.5v-73z
" />
    <glyph glyph-name="ae" unicode="&#xe6;" horiz-adv-x="989" 
d="M238 129q-78 -4 -127.5 71.5t-49.5 196.5l7 430q0 121 86.5 199t216.5 78q88 0 145 -60q86 60 197 60q105 0 160 -75.5t55 -201.5v-147l-340 -129v-215q0 -39 27.5 -74t64.5 -35q12 0 21.5 1.5t16 6.5t11.5 8t8 12.5t4.5 13t2.5 16t1 16v18v17.5v110l183 64v-113
q0 -118 -89.5 -193t-220.5 -75q-26 0 -38 2q-45 0 -74 6t-56 31.5t-36 71.5q-19 -50 -71 -80.5t-105 -30.5zM242 367q0 -44 24 -75.5t76 -31.5q61 0 61 107v524q0 42 -24.5 75t-75.5 33q-30 0 -39.5 -29.5t-9.5 -78.5q-12 -414 -12 -524zM555 1346l131 108l115 -131
l-137 -115zM588 641l157 59v191q0 40 -29 74t-67 34q-11 0 -20 -1.5t-15 -6.5t-11 -8.5t-7.5 -12t-4.5 -13t-2.5 -16t-0.5 -16v-18v-16.5v-250z" />
    <glyph glyph-name="ccedilla" unicode="&#xe7;" horiz-adv-x="626" 
d="M276 129q-105 0 -160 72.5t-55 195.5v430q0 121 90 199t224 78q101 0 156 -76t55 -201v-49l-180 -61v174q0 39 -30.5 73.5t-68.5 34.5q-11 0 -20.5 -1.5t-16 -6.5t-11 -8.5t-7.5 -12t-5 -13t-2.5 -16.5t-0.5 -15.5v-17.5v-17v-555q0 -39 29 -74t71 -35q22 0 35.5 7.5
t19 25t6.5 30t1 37.5v9v110l180 64v-113q0 -109 -78 -184l-14 -18q54 -1 82 -29t28 -74q-3 -110 -194 -110v67q64 0 87.5 8.5t20.5 34.5q0 27 -21 34t-87 7v21q-64 -25 -134 -25z" />
    <glyph glyph-name="egrave" unicode="&#xe8;" 
d="M276 129q-103 0 -159 72.5t-56 195.5v430q0 120 89.5 198.5t220.5 78.5q105 0 160 -75.5t55 -201.5v-147l-340 -129v-215q0 -39 27.5 -74t64.5 -35q12 0 21.5 1.5t16 6.5t11.5 8t8 12.5t4.5 13t2.5 16t1 16v18v17.5v110l183 64v-113q0 -118 -89.5 -193t-220.5 -75z
M246 641l157 59v191q0 40 -29 74t-67 34q-11 0 -20 -1.5t-15 -6.5t-11 -8.5t-7.5 -12t-4.5 -13t-2.5 -16t-0.5 -16v-18v-16.5v-250zM262 1731h131l23 -56q18 -47 11 -84t-25 -59.5t-37 -22.5l-35 74z" />
    <glyph glyph-name="eacute" unicode="&#xe9;" 
d="M276 129q-103 0 -159 72.5t-56 195.5v430q0 120 89.5 198.5t220.5 78.5q105 0 160 -75.5t55 -201.5v-147l-340 -129v-215q0 -39 27.5 -74t64.5 -35q12 0 21.5 1.5t16 6.5t11.5 8t8 12.5t4.5 13t2.5 16t1 16v18v17.5v110l183 64v-113q0 -118 -89.5 -193t-220.5 -75z
M246 641l157 59v191q0 40 -29 74t-67 34q-11 0 -20 -1.5t-15 -6.5t-11 -8.5t-7.5 -12t-4.5 -13t-2.5 -16t-0.5 -16v-18v-16.5v-250zM276 1673q-20 -47 -12.5 -84t26.5 -59.5t38 -22.5l32 74l68 148h-129z" />
    <glyph glyph-name="ecircumflex" unicode="&#xea;" 
d="M276 129q-103 0 -159 72.5t-56 195.5v430q0 120 89.5 198.5t220.5 78.5q105 0 160 -75.5t55 -201.5v-147l-340 -129v-215q0 -39 27.5 -74t64.5 -35q12 0 21.5 1.5t16 6.5t11.5 8t8 12.5t4.5 13t2.5 16t1 16v18v17.5v110l183 64v-113q0 -118 -89.5 -193t-220.5 -75z
M123 1524l170 215h106l168 -215q-83 -47 -166 69l-55 74l-53 -74q-83 -116 -170 -69zM246 641l157 59v191q0 40 -29 74t-67 34q-11 0 -20 -1.5t-15 -6.5t-11 -8.5t-7.5 -12t-4.5 -13t-2.5 -16t-0.5 -16v-18v-16.5v-250z" />
    <glyph glyph-name="edieresis" unicode="&#xeb;" 
d="M276 129q-103 0 -159 72.5t-56 195.5v430q0 120 89.5 198.5t220.5 78.5q105 0 160 -75.5t55 -201.5v-147l-340 -129v-215q0 -39 27.5 -74t64.5 -35q12 0 21.5 1.5t16 6.5t11.5 8t8 12.5t4.5 13t2.5 16t1 16v18v17.5v110l183 64v-113q0 -118 -89.5 -193t-220.5 -75z
M133 1618q0 -37 24.5 -61.5t61.5 -24.5q34 0 60 25t26 61q0 34 -26 60t-60 26q-36 0 -61 -26t-25 -60zM246 641l157 59v191q0 40 -29 74t-67 34q-11 0 -20 -1.5t-15 -6.5t-11 -8.5t-7.5 -12t-4.5 -13t-2.5 -16t-0.5 -16v-18v-16.5v-250zM387 1618q0 -36 25 -61t61 -25t61 25
t25 61q0 34 -25.5 60t-60.5 26t-60.5 -26t-25.5 -60z" />
    <glyph glyph-name="igrave" unicode="&#xec;" horiz-adv-x="327" 
d="M72 129v944h184v-944h-184zM80 1395h131l22 -56q18 -47 11 -83.5t-25 -59t-37 -22.5l-35 73z" />
    <glyph glyph-name="iacute" unicode="&#xed;" horiz-adv-x="327" 
d="M72 129v944h184v-944h-184zM94 1337q-20 -47 -13 -84t26 -59.5t38 -22.5l33 74l68 148h-129z" />
    <glyph glyph-name="icircumflex" unicode="&#xee;" horiz-adv-x="327" 
d="M72 129v944h184v-944h-184zM-59 1188l170 215h106l168 -215q-83 -47 -166 69l-55 74l-53 -74q-83 -116 -170 -69z" />
    <glyph glyph-name="idieresis" unicode="&#xef;" horiz-adv-x="327" 
d="M72 129v944h184v-944h-184zM-49 1282q0 -37 24.5 -61.5t61.5 -24.5q34 0 60 25t26 61q0 34 -26 60t-60 26q-36 0 -61 -26t-25 -60zM205 1282q0 -36 25 -61t61 -25t61 25t25 61q0 34 -25.5 60t-60.5 26t-60.5 -26t-25.5 -60z" />
    <glyph glyph-name="ntilde" unicode="&#xf1;" horiz-adv-x="641" 
d="M559 -20q-6 0 -17 1.5t-38 16t-48 39t-38 79t-17 128.5v647q0 38 -29.5 73t-68.5 35q-19 0 -31.5 -5t-19 -17.5t-9 -22t-5.5 -28.5v-797h-177v944q31 0 47.5 -1t39.5 -6t39 -18t28 -34q18 42 58 66t96 24q104 0 157.5 -75.5t53.5 -201.5v-583q0 -54 9 -97.5t23.5 -70.5
t32 -46.5t34.5 -28.5t31.5 -14.5t23.5 -6.5h9h-184zM178 1219q-32 86 17.5 111t140.5 -23q44 -19 68 -15t59 39q23 -55 8 -86.5t-57.5 -31t-102.5 27.5q-42 22 -68.5 18t-64.5 -40z" />
    <glyph glyph-name="ograve" unicode="&#xf2;" horiz-adv-x="643" 
d="M274 129q-104 0 -158.5 72t-54.5 196v430q0 121 88 199t220 78q102 0 157.5 -76t55.5 -201v-430q0 -118 -88.5 -193t-219.5 -75zM240 1722h131l22 -55q18 -47 11 -84t-25 -59.5t-37 -22.5l-35 74zM242 336q0 -39 27.5 -74t66.5 -35q11 0 20 1.5t15 6.5t11 8.5t7.5 12
t4.5 13t2.5 16t0.5 16v18.5v17v555q0 40 -27.5 74t-64.5 34q-11 0 -20.5 -1.5t-16 -6.5t-11 -8.5t-7.5 -12t-5 -13t-2.5 -16.5t-0.5 -15.5v-17.5v-17v-555z" />
    <glyph glyph-name="oacute" unicode="&#xf3;" horiz-adv-x="643" 
d="M274 129q-104 0 -158.5 72t-54.5 196v430q0 121 88 199t220 78q102 0 157.5 -76t55.5 -201v-430q0 -118 -88.5 -193t-219.5 -75zM242 336q0 -39 27.5 -74t66.5 -35q11 0 20 1.5t15 6.5t11 8.5t7.5 12t4.5 13t2.5 16t0.5 16v18.5v17v555q0 40 -27.5 74t-64.5 34
q-11 0 -20.5 -1.5t-16 -6.5t-11 -8.5t-7.5 -12t-5 -13t-2.5 -16.5t-0.5 -15.5v-17.5v-17v-555zM254 1665q-20 -47 -13 -84t26 -59.5t38 -22.5l33 74l68 147h-130z" />
    <glyph glyph-name="ocircumflex" unicode="&#xf4;" horiz-adv-x="643" 
d="M274 129q-104 0 -158.5 72t-54.5 196v430q0 121 88 199t220 78q102 0 157.5 -76t55.5 -201v-430q0 -118 -88.5 -193t-219.5 -75zM100 1516l170 215h107l168 -215q-83 -47 -166 69l-55 74l-54 -74q-83 -116 -170 -69zM242 336q0 -39 27.5 -74t66.5 -35q11 0 20 1.5t15 6.5
t11 8.5t7.5 12t4.5 13t2.5 16t0.5 16v18.5v17v555q0 40 -27.5 74t-64.5 34q-11 0 -20.5 -1.5t-16 -6.5t-11 -8.5t-7.5 -12t-5 -13t-2.5 -16.5t-0.5 -15.5v-17.5v-17v-555z" />
    <glyph glyph-name="otilde" unicode="&#xf5;" horiz-adv-x="643" 
d="M274 129q-104 0 -158.5 72t-54.5 196v430q0 121 88 199t220 78q102 0 157.5 -76t55.5 -201v-430q0 -118 -88.5 -193t-219.5 -75zM180 1556q-32 86 17.5 111t140.5 -22q44 -19 68 -15t59 39q23 -55 8 -86.5t-57.5 -31t-102.5 27.5q-42 22 -68.5 17.5t-64.5 -40.5zM242 336
q0 -39 27.5 -74t66.5 -35q11 0 20 1.5t15 6.5t11 8.5t7.5 12t4.5 13t2.5 16t0.5 16v18.5v17v555q0 40 -27.5 74t-64.5 34q-11 0 -20.5 -1.5t-16 -6.5t-11 -8.5t-7.5 -12t-5 -13t-2.5 -16.5t-0.5 -15.5v-17.5v-17v-555z" />
    <glyph glyph-name="odieresis" unicode="&#xf6;" horiz-adv-x="643" 
d="M274 129q-104 0 -158.5 72t-54.5 196v430q0 121 88 199t220 78q102 0 157.5 -76t55.5 -201v-430q0 -118 -88.5 -193t-219.5 -75zM111 1610q0 -37 24.5 -61.5t61.5 -24.5q34 0 60 25t26 61q0 34 -26 60t-60 26q-36 0 -61 -26t-25 -60zM242 336q0 -39 27.5 -74t66.5 -35
q11 0 20 1.5t15 6.5t11 8.5t7.5 12t4.5 13t2.5 16t0.5 16v18.5v17v555q0 40 -27.5 74t-64.5 34q-11 0 -20.5 -1.5t-16 -6.5t-11 -8.5t-7.5 -12t-5 -13t-2.5 -16.5t-0.5 -15.5v-17.5v-17v-555zM365 1610q0 -36 25 -61t61 -25t61 25t25 61q0 34 -25.5 60t-60.5 26t-60.5 -26
t-25.5 -60z" />
    <glyph glyph-name="ugrave" unicode="&#xf9;" 
d="M272 100q-102 0 -156.5 76t-54.5 201v696h185v-758q0 -39 26.5 -74.5t65.5 -35.5q37 0 50 18.5t13 52.5v797h185v-944q-63 0 -100.5 11t-59.5 48q-45 -88 -154 -88zM240 1372h131l22 -55q18 -47 11 -84t-25 -59.5t-37 -22.5l-35 74z" />
    <glyph glyph-name="uacute" unicode="&#xfa;" 
d="M272 100q-102 0 -156.5 76t-54.5 201v696h185v-758q0 -39 26.5 -74.5t65.5 -35.5q37 0 50 18.5t13 52.5v797h185v-944q-63 0 -100.5 11t-59.5 48q-45 -88 -154 -88zM254 1315q-20 -47 -13 -84t26 -59.5t38 -22.5l33 74l68 147h-130z" />
    <glyph glyph-name="ucircumflex" unicode="&#xfb;" 
d="M272 100q-102 0 -156.5 76t-54.5 201v696h185v-758q0 -39 26.5 -74.5t65.5 -35.5q37 0 50 18.5t13 52.5v797h185v-944q-63 0 -100.5 11t-59.5 48q-45 -88 -154 -88zM100 1165l170 215h107l168 -215q-83 -47 -166 70l-55 74l-54 -74q-83 -117 -170 -70z" />
    <glyph glyph-name="udieresis" unicode="&#xfc;" 
d="M272 100q-102 0 -156.5 76t-54.5 201v696h185v-758q0 -39 26.5 -74.5t65.5 -35.5q37 0 50 18.5t13 52.5v797h185v-944q-63 0 -100.5 11t-59.5 48q-45 -88 -154 -88zM111 1260q0 -37 24.5 -61.5t61.5 -24.5q34 0 60 25t26 61q0 34 -26 60t-60 26q-36 0 -61 -26t-25 -60z
M365 1260q0 -36 25 -61t61 -25t61 25t25 61q0 34 -25.5 60t-60.5 26t-60.5 -26t-25.5 -60z" />
    <glyph glyph-name="yacute" unicode="&#xfd;" horiz-adv-x="638" 
d="M272 -268q-103 0 -157 72.5t-54 197.5l179 61v-124q0 -39 31 -74t67 -35q11 0 20.5 1.5t16 6.5t11 8.5t7.5 12.5t5 13t2.5 16t0.5 16v18v17v211q-57 -50 -129 -50q-102 0 -156.5 76t-54.5 201v696h179v-758q0 -37 30 -73.5t68 -36.5t50.5 18.5t12.5 52.5v719
q0 72 16.5 124.5t40.5 76.5t48 38t40 16l17 1h178q-6 0 -16.5 -1.5t-37.5 -15.5t-47 -38t-37 -76.5t-17 -124.5v-993q0 -120 -90 -195t-224 -75zM135 1397q-20 -47 -13 -84t26 -59.5t38 -22.5l33 74l68 147h-129z" />
    <glyph glyph-name="ydieresis" unicode="&#xff;" horiz-adv-x="638" 
d="M272 -268q-103 0 -157 72.5t-54 197.5l179 61v-124q0 -39 31 -74t67 -35q11 0 20.5 1.5t16 6.5t11 8.5t7.5 12.5t5 13t2.5 16t0.5 16v18v17v211q-57 -50 -129 -50q-102 0 -156.5 76t-54.5 201v696h179v-758q0 -37 30 -73.5t68 -36.5t50.5 18.5t12.5 52.5v719
q0 72 16.5 124.5t40.5 76.5t48 38t40 16l17 1h178q-6 0 -16.5 -1.5t-37.5 -15.5t-47 -38t-37 -76.5t-17 -124.5v-993q0 -120 -90 -195t-224 -75zM-8 1341q0 -37 24.5 -61.5t61.5 -24.5q34 0 60 25t26 61q0 34 -26 60t-60 26q-36 0 -61 -26t-25 -60zM246 1341q0 -36 25 -61
t61 -25t61 25t25 61q0 34 -25.5 60t-60.5 26t-60.5 -26t-25.5 -60z" />
    <glyph glyph-name="Amacron" unicode="&#x100;" horiz-adv-x="1529" 
d="M741 39q-77 -41 -178.5 -55.5t-200 -1t-183.5 65t-124 134.5q-40 90 -32.5 175t48.5 159.5t87.5 130.5t83.5 89l37 32q-81 -114 -97.5 -236.5t37.5 -203.5q43 -78 132 -117.5t179.5 -37t170 33t108.5 80.5q51 102 51 356v748q54 14 109 14q63 0 92 -6v-275v-319v-6v-80
q-4 -99 -10 -146h225v551q0 143 -74.5 226.5t-232.5 83.5q-66 0 -114 -17t-71 -45t-33 -54.5t-10 -53.5v-62q-54 34 -81.5 81t-28.5 95t22.5 95.5t66 84t107.5 58t142 20.5q230 -7 365.5 -146.5t135.5 -365.5v-1140q0 -56 9 -101.5t23 -73t31.5 -48.5t35 -30.5t31.5 -15
t23 -5.5l9 -1h-196q-7 0 -17.5 1.5t-38 16.5t-48.5 41t-38.5 82.5t-17.5 133.5v428h-254q-66 -256 -281 -373zM422 752l104 90l-104 123l133 116l117 -137l-107 -90l107 -125l-135 -108zM848 1878h217q25 0 41.5 -4t25.5 -8.5t13.5 -17t5 -22t0.5 -30.5h-217
q-57 0 -71.5 17.5t-14.5 64.5z" />
    <glyph glyph-name="amacron" unicode="&#x101;" horiz-adv-x="641" 
d="M238 129q-78 -4 -127.5 71.5t-49.5 196.5l7 430q0 121 86.5 199t216.5 78q104 0 156.5 -75t52.5 -202v-698q-45 0 -74 6t-56 31.5t-36 71.5q-19 -50 -71 -79.5t-105 -29.5zM215 1321h217q25 0 41.5 -4t25.5 -8.5t13.5 -17t5 -22t0.5 -30.5h-217q-57 0 -71.5 17.5
t-14.5 64.5zM242 367q0 -44 24 -75.5t76 -31.5q61 0 61 107v524q0 42 -24.5 75t-75.5 33q-30 0 -39.5 -29.5t-9.5 -78.5q-12 -414 -12 -524z" />
    <glyph glyph-name="Abreve" unicode="&#x102;" horiz-adv-x="1529" 
d="M741 39q-77 -41 -178.5 -55.5t-200 -1t-183.5 65t-124 134.5q-40 90 -32.5 175t48.5 159.5t87.5 130.5t83.5 89l37 32q-81 -114 -97.5 -236.5t37.5 -203.5q43 -78 132 -117.5t179.5 -37t170 33t108.5 80.5q51 102 51 356v748q54 14 109 14q63 0 92 -6v-275v-319v-6v-80
q-4 -99 -10 -146h225v551q0 143 -74.5 226.5t-232.5 83.5q-66 0 -114 -17t-71 -45t-33 -54.5t-10 -53.5v-62q-54 34 -81.5 81t-28.5 95t22.5 95.5t66 84t107.5 58t142 20.5q230 -7 365.5 -146.5t135.5 -365.5v-1140q0 -56 9 -101.5t23 -73t31.5 -48.5t35 -30.5t31.5 -15
t23 -5.5l9 -1h-196q-7 0 -17.5 1.5t-38 16.5t-48.5 41t-38.5 82.5t-17.5 133.5v428h-254q-66 -256 -281 -373zM422 752l104 90l-104 123l133 116l117 -137l-107 -90l107 -125l-135 -108zM809 1956h111q0 -67 26 -104.5t57.5 -37.5t57.5 37.5t26 104.5h101q0 -56 -21 -99.5
t-54.5 -66.5t-73.5 -33.5t-80.5 -0.5t-74 32.5t-54.5 67t-21 100.5z" />
    <glyph glyph-name="abreve" unicode="&#x103;" horiz-adv-x="641" 
d="M238 129q-78 -4 -127.5 71.5t-49.5 196.5l7 430q0 121 86.5 199t216.5 78q104 0 156.5 -75t52.5 -202v-698q-45 0 -74 6t-56 31.5t-36 71.5q-19 -50 -71 -79.5t-105 -29.5zM176 1399h111q0 -54 17.5 -90.5t42 -45t49 0t42 45t17.5 90.5h100q0 -56 -21 -99.5t-54.5 -66.5
t-73.5 -33.5t-80.5 -0.5t-74 32.5t-54.5 67t-21 100.5zM242 367q0 -44 24 -75.5t76 -31.5q61 0 61 107v524q0 42 -24.5 75t-75.5 33q-30 0 -39.5 -29.5t-9.5 -78.5q-12 -414 -12 -524z" />
    <glyph glyph-name="Aogonek" unicode="&#x104;" horiz-adv-x="1529" 
d="M741 39q-77 -41 -178.5 -55.5t-200 -1t-183.5 65t-124 134.5q-40 90 -32.5 175t48.5 159.5t87.5 130.5t83.5 89l37 32q-81 -114 -97.5 -236.5t37.5 -203.5q43 -78 132 -117.5t179.5 -37t170 33t108.5 80.5q51 102 51 356v748q54 14 109 14q63 0 92 -6v-275v-319v-6v-80
q-4 -99 -10 -146h225v551q0 143 -74.5 226.5t-232.5 83.5q-66 0 -114 -17t-71 -45t-33 -54.5t-10 -53.5v-62q-54 34 -81.5 81t-28.5 95t22.5 95.5t66 84t107.5 58t142 20.5q230 -7 365.5 -146.5t135.5 -365.5v-1140q0 -56 9 -101.5t23 -73t31.5 -48.5t35 -30.5t31.5 -15
t23 -5.5l9 -1h-196q-27 1 -60 21q-54 4 -71 32q-27 42 -17 101q-12 49 -12 121v428h-254q-66 -256 -281 -373zM422 752l104 90l-104 123l133 116l117 -137l-107 -90l107 -125l-135 -108z" />
    <glyph glyph-name="aogonek" unicode="&#x105;" horiz-adv-x="641" 
d="M238 129q-36 -3 -72 16q-32 -19 -43.5 -46t-1.5 -46q5 -13 24 -18.5t35 -4.5l17 1v-127q-5 1 -29 -1t-59.5 7t-47.5 29q-33 60 -9.5 125t81.5 108q-72 75 -72 225l7 430q0 121 86.5 199t216.5 78q104 0 156.5 -75t52.5 -202v-698q-45 0 -74 6t-56 31.5t-36 71.5
q-19 -50 -71 -79.5t-105 -29.5zM242 367q0 -44 24 -75.5t76 -31.5q61 0 61 107v524q0 42 -24.5 75t-75.5 33q-30 0 -39.5 -29.5t-9.5 -78.5q-12 -414 -12 -524z" />
    <glyph glyph-name="Cacute" unicode="&#x106;" horiz-adv-x="901" 
d="M416 -16q-201 0 -288.5 219.5t-59.5 630.5q10 183 35 313t61 212.5t92 129.5t119 64.5t151 17.5q120 0 191 -77t71 -200v-92l-192 -63v219q0 39 -40.5 73.5t-90.5 34.5q-26 0 -47 -11.5t-45 -50t-41.5 -103.5t-32.5 -181t-23 -274q-4 -113 -4.5 -221.5t13.5 -207
t38 -172.5t69 -117.5t106 -43.5q72 0 107.5 41.5t35.5 150.5v156l199 64v-158q0 -93 -32.5 -162t-91 -110.5t-133.5 -61.5t-167 -20zM449 1810q-20 -47 -13 -83.5t26 -59t38 -22.5l32 73l68 148h-129zM573 711l107 88l-107 123l138 114l112 -133l-104 -88l104 -127
l-135 -115z" />
    <glyph glyph-name="cacute" unicode="&#x107;" horiz-adv-x="626" 
d="M276 129q-105 0 -160 72.5t-55 195.5v430q0 121 90 199t224 78q101 0 156 -76t55 -201v-49l-180 -61v174q0 39 -30.5 73.5t-68.5 34.5q-11 0 -20.5 -1.5t-16 -6.5t-11 -8.5t-7.5 -12t-5 -13t-2.5 -16.5t-0.5 -15.5v-17.5v-17v-555q0 -39 29 -74t71 -35q22 0 35.5 7.5
t19 25t6.5 30t1 37.5v9v110l180 64v-113q0 -118 -89.5 -193t-220.5 -75zM305 1348q-20 -47 -13 -84t26 -59.5t38 -22.5l33 73l68 148h-129z" />
    <glyph glyph-name="Ccircumflex" unicode="&#x108;" horiz-adv-x="901" 
d="M416 -16q-201 0 -288.5 219.5t-59.5 630.5q10 183 35 313t61 212.5t92 129.5t119 64.5t151 17.5q120 0 191 -77t71 -200v-92l-192 -63v219q0 39 -40.5 73.5t-90.5 34.5q-26 0 -47 -11.5t-45 -50t-41.5 -103.5t-32.5 -181t-23 -274q-4 -113 -4.5 -221.5t13.5 -207
t38 -172.5t69 -117.5t106 -43.5q72 0 107.5 41.5t35.5 150.5v156l199 64v-158q0 -93 -32.5 -162t-91 -110.5t-133.5 -61.5t-167 -20zM295 1661l170 215h106l168 -215q-83 -47 -166 70l-55 73l-53 -73q-83 -117 -170 -70zM573 711l107 88l-107 123l138 114l112 -133l-104 -88
l104 -127l-135 -115z" />
    <glyph glyph-name="ccircumflex" unicode="&#x109;" horiz-adv-x="626" 
d="M276 129q-105 0 -160 72.5t-55 195.5v430q0 121 90 199t224 78q101 0 156 -76t55 -201v-49l-180 -61v174q0 39 -30.5 73.5t-68.5 34.5q-11 0 -20.5 -1.5t-16 -6.5t-11 -8.5t-7.5 -12t-5 -13t-2.5 -16.5t-0.5 -15.5v-17.5v-17v-555q0 -39 29 -74t71 -35q22 0 35.5 7.5
t19 25t6.5 30t1 37.5v9v110l180 64v-113q0 -118 -89.5 -193t-220.5 -75zM152 1198l170 215h106l168 -215q-83 -47 -166 70l-55 73l-53 -73q-83 -117 -170 -70z" />
    <glyph glyph-name="Cdotaccent" unicode="&#x10a;" horiz-adv-x="901" 
d="M416 -16q-201 0 -288.5 219.5t-59.5 630.5q10 183 35 313t61 212.5t92 129.5t119 64.5t151 17.5q120 0 191 -77t71 -200v-92l-192 -63v219q0 39 -40.5 73.5t-90.5 34.5q-26 0 -47 -11.5t-45 -50t-41.5 -103.5t-32.5 -181t-23 -274q-4 -113 -4.5 -221.5t13.5 -207
t38 -172.5t69 -117.5t106 -43.5q72 0 107.5 41.5t35.5 150.5v156l199 64v-158q0 -93 -32.5 -162t-91 -110.5t-133.5 -61.5t-167 -20zM432 1755q0 -36 26 -61t60 -25q37 0 61.5 24.5t24.5 61.5q0 34 -25 60t-61 26q-34 0 -60 -26t-26 -60zM573 711l107 88l-107 123l138 114
l112 -133l-104 -88l104 -127l-135 -115z" />
    <glyph glyph-name="cdotaccent" unicode="&#x10b;" horiz-adv-x="626" 
d="M276 129q-105 0 -160 72.5t-55 195.5v430q0 121 90 199t224 78q101 0 156 -76t55 -201v-49l-180 -61v174q0 39 -30.5 73.5t-68.5 34.5q-11 0 -20.5 -1.5t-16 -6.5t-11 -8.5t-7.5 -12t-5 -13t-2.5 -16.5t-0.5 -15.5v-17.5v-17v-555q0 -39 29 -74t71 -35q22 0 35.5 7.5
t19 25t6.5 30t1 37.5v9v110l180 64v-113q0 -118 -89.5 -193t-220.5 -75zM289 1292q0 -36 26 -61t60 -25q37 0 61.5 24.5t24.5 61.5q0 34 -25 60t-61 26q-34 0 -60 -26t-26 -60z" />
    <glyph glyph-name="Ccaron" unicode="&#x10c;" horiz-adv-x="901" 
d="M416 -16q-201 0 -288.5 219.5t-59.5 630.5q10 183 35 313t61 212.5t92 129.5t119 64.5t151 17.5q120 0 191 -77t71 -200v-92l-192 -63v219q0 39 -40.5 73.5t-90.5 34.5q-26 0 -47 -11.5t-45 -50t-41.5 -103.5t-32.5 -181t-23 -274q-4 -113 -4.5 -221.5t13.5 -207
t38 -172.5t69 -117.5t106 -43.5q72 0 107.5 41.5t35.5 150.5v156l199 64v-158q0 -93 -32.5 -162t-91 -110.5t-133.5 -61.5t-167 -20zM297 1880q80 47 166 -70l55 -73l53 73q84 115 168 70l-168 -215h-106zM573 711l107 88l-107 123l138 114l112 -133l-104 -88l104 -127
l-135 -115z" />
    <glyph glyph-name="ccaron" unicode="&#x10d;" horiz-adv-x="626" 
d="M276 129q-105 0 -160 72.5t-55 195.5v430q0 121 90 199t224 78q101 0 156 -76t55 -201v-49l-180 -61v174q0 39 -30.5 73.5t-68.5 34.5q-11 0 -20.5 -1.5t-16 -6.5t-11 -8.5t-7.5 -12t-5 -13t-2.5 -16.5t-0.5 -15.5v-17.5v-17v-555q0 -39 29 -74t71 -35q22 0 35.5 7.5
t19 25t6.5 30t1 37.5v9v110l180 64v-113q0 -118 -89.5 -193t-220.5 -75zM154 1417q80 47 165 -69l56 -74l53 74q84 115 168 69l-168 -215h-106z" />
    <glyph glyph-name="Dcaron" unicode="&#x10e;" horiz-adv-x="1638" 
d="M1157 -16q-103 0 -165 57.5t-62 161.5q19 -28 64.5 -46.5t101.5 -21.5q70 0 124 59.5t85.5 158.5t47 219t13.5 251q0 54 -1 94.5t-5.5 94.5t-12.5 94t-22.5 86t-34.5 79.5t-50 66t-68 52.5t-89 32t-112 12q-66 0 -114.5 -17t-72.5 -45t-34.5 -54.5t-10.5 -53.5v-62
q-53 34 -80.5 81t-28.5 95t22.5 95.5t66 84t108.5 58t144 20.5q137 -5 243.5 -55t173 -127t109.5 -184.5t60.5 -215.5t19.5 -231q1 -126 -14 -245.5t-48.5 -227.5t-82 -189t-119.5 -129t-156 -48zM55 182q-40 90 -32 175t49 159.5t87.5 130.5t84.5 89l37 32
q-81 -111 -97 -236t33 -204q44 -78 133.5 -117.5t180 -37t169.5 33t109 80.5q47 85 51 297v141v666q54 14 111 14q59 0 88 -6v-275v-319v-86q-3 -115 -17 -204t-47 -182t-97.5 -167.5t-158.5 -126.5q-77 -41 -178.5 -55.5t-199.5 -1t-182.5 65t-123.5 134.5zM420 752l106 88
l-106 125l137 116l115 -137l-107 -88l107 -127l-137 -108zM764 1952q80 47 166 -70l55 -74l53 74q84 115 168 70l-168 -215h-106z" />
    <glyph glyph-name="dcaron" unicode="&#x10f;" horiz-adv-x="643" 
d="M338 227q63 0 63 72v592q0 40 -28.5 74t-65.5 34q-14 0 -24 -3t-17 -6.5t-12 -12t-7.5 -13t-3.5 -17t-1 -17.5v-20v-19v-555q0 -40 27.5 -74.5t68.5 -34.5zM61 397v430q0 120 89 198.5t219 78.5q5 0 16 -3t16 -3v159q0 55 -9 99t-23 71.5t-31.5 47.5t-34.5 29.5t-31 15
t-23 6.5h-9h184q6 0 17 -1.5t38 -16.5t48 -40t38 -80.5t17 -130.5v-1128q-54 0 -89 9.5t-55 39.5q-64 -49 -164 -49q-106 0 -159.5 72t-53.5 196zM100 1892q81 47 166 -69l56 -74l53 74q84 115 168 69l-168 -215h-107z" />
    <glyph glyph-name="Emacron" unicode="&#x112;" horiz-adv-x="823" 
d="M387 -16q-60 0 -117 19.5t-104.5 56t-76 96.5t-28.5 135v309q0 53 13.5 96t34.5 69.5t47 46t52 28.5t47 14t35 6h13q-4 0 -11.5 0.5t-29.5 5t-41.5 12t-44 24t-41.5 39t-29 59t-12 81.5v213q0 119 107 198t256 79q116 0 188 -77.5t72 -199.5v-47l-197 -61v172
q0 40 -39 74t-94 34q-30 0 -50 -9t-29 -26.5t-12 -34t-3 -38.5v-273q0 -46 11.5 -83t30 -60t41 -40t45.5 -24.5t41.5 -12t29.5 -5.5h12q-5 0 -13.5 -0.5t-34 -5.5t-48 -14t-50.5 -28.5t-48 -46t-34 -69.5t-14 -96v-377q0 -58 47.5 -98.5t114.5 -40.5q69 0 98 31t29 78v172
l199 67v-172q0 -119 -107.5 -197.5t-255.5 -78.5zM311 1802h217q25 0 41.5 -4t25.5 -8.5t13.5 -17t5 -22t0.5 -30.5h-217q-57 0 -71.5 17.5t-14.5 64.5zM539 662l135 114l108 -135l-131 -115z" />
    <glyph glyph-name="emacron" unicode="&#x113;" 
d="M276 129q-103 0 -159 72.5t-56 195.5v430q0 120 89.5 198.5t220.5 78.5q105 0 160 -75.5t55 -201.5v-147l-340 -129v-215q0 -39 27.5 -74t64.5 -35q12 0 21.5 1.5t16 6.5t11.5 8t8 12.5t4.5 13t2.5 16t1 16v18v17.5v110l183 64v-113q0 -118 -89.5 -193t-220.5 -75z
M195 1653h217q25 0 41.5 -4t25.5 -8.5t13.5 -17t5 -22t0.5 -30.5h-217q-57 0 -71.5 17.5t-14.5 64.5zM246 641l157 59v191q0 40 -29 74t-67 34q-11 0 -20 -1.5t-15 -6.5t-11 -8.5t-7.5 -12t-4.5 -13t-2.5 -16t-0.5 -16v-18v-16.5v-250z" />
    <glyph glyph-name="Edotaccent" unicode="&#x116;" horiz-adv-x="823" 
d="M387 -16q-60 0 -117 19.5t-104.5 56t-76 96.5t-28.5 135v309q0 53 13.5 96t34.5 69.5t47 46t52 28.5t47 14t35 6h13q-4 0 -11.5 0.5t-29.5 5t-41.5 12t-44 24t-41.5 39t-29 59t-12 81.5v213q0 119 107 198t256 79q116 0 188 -77.5t72 -199.5v-47l-197 -61v172
q0 40 -39 74t-94 34q-30 0 -50 -9t-29 -26.5t-12 -34t-3 -38.5v-273q0 -46 11.5 -83t30 -60t41 -40t45.5 -24.5t41.5 -12t29.5 -5.5h12q-5 0 -13.5 -0.5t-34 -5.5t-48 -14t-50.5 -28.5t-48 -46t-34 -69.5t-14 -96v-377q0 -58 47.5 -98.5t114.5 -40.5q69 0 98 31t29 78v172
l199 67v-172q0 -119 -107.5 -197.5t-255.5 -78.5zM377 1767q0 -36 26 -61t60 -25q37 0 61.5 24.5t24.5 61.5q0 34 -25 60t-61 26q-34 0 -60 -26t-26 -60zM539 662l135 114l108 -135l-131 -115z" />
    <glyph glyph-name="edotaccent" unicode="&#x117;" 
d="M276 129q-103 0 -159 72.5t-56 195.5v430q0 120 89.5 198.5t220.5 78.5q105 0 160 -75.5t55 -201.5v-147l-340 -129v-215q0 -39 27.5 -74t64.5 -35q12 0 21.5 1.5t16 6.5t11.5 8t8 12.5t4.5 13t2.5 16t1 16v18v17.5v110l183 64v-113q0 -118 -89.5 -193t-220.5 -75z
M246 641l157 59v191q0 40 -29 74t-67 34q-11 0 -20 -1.5t-15 -6.5t-11 -8.5t-7.5 -12t-4.5 -13t-2.5 -16t-0.5 -16v-18v-16.5v-250zM260 1618q0 -36 26 -61t60 -25q37 0 61.5 24.5t24.5 61.5q0 34 -25 60t-61 26q-34 0 -60 -26t-26 -60z" />
    <glyph glyph-name="Eogonek" unicode="&#x118;" horiz-adv-x="823" 
d="M387 -16q-60 0 -117 19.5t-104.5 56t-76 96.5t-28.5 135v309q0 53 13.5 96t34.5 69.5t47 46t52 28.5t47 14t35 6h13q-4 0 -11.5 0.5t-29.5 5t-41.5 12t-44 24t-41.5 39t-29 59t-12 81.5v213q0 119 107 198t256 79q116 0 188 -77.5t72 -199.5v-47l-197 -61v172
q0 40 -39 74t-94 34q-30 0 -50 -9t-29 -26.5t-12 -34t-3 -38.5v-273q0 -46 11.5 -83t30 -60t41 -40t45.5 -24.5t41.5 -12t29.5 -5.5h12q-5 0 -13.5 -0.5t-34 -5.5t-48 -14t-50.5 -28.5t-48 -46t-34 -69.5t-14 -96v-377q0 -58 47.5 -98.5t114.5 -40.5q69 0 98 31t29 78v172
l199 67v-172q0 -100 -79.5 -173.5t-199.5 -94.5q-29 -21 -40 -47.5t-1 -42.5q5 -13 24 -18.5t36 -5.5l16 1v-127q-5 1 -29 -1t-59 7t-47 29q-27 49 -16.5 101t48.5 96h-16zM539 662l135 114l108 -135l-131 -115z" />
    <glyph glyph-name="eogonek" unicode="&#x119;" 
d="M246 641l157 59v191q0 40 -29 74t-67 34q-11 0 -20 -1.5t-15 -6.5t-11 -8.5t-7.5 -12t-4.5 -13t-2.5 -16t-0.5 -16v-18v-16.5v-250zM61 397v430q0 120 89.5 198.5t220.5 78.5q105 0 160 -75.5t55 -201.5v-147l-340 -129v-215q0 -39 27.5 -74t64.5 -35q12 0 21.5 1.5
t16 6.5t11.5 8t8 12.5t4.5 13t2.5 16t1 16v18v17.5v110l183 64v-113q0 -102 -70 -174t-178 -90q-31 -19 -42 -45t-1 -45q5 -13 24 -18.5t35 -4.5h17v-126q-5 1 -29 -1.5t-59 6.5t-47 29q-27 50 -15.5 103.5t51.5 97.5q-102 1 -156.5 73.5t-54.5 194.5z" />
    <glyph glyph-name="Ecaron" unicode="&#x11a;" horiz-adv-x="823" 
d="M387 -16q-60 0 -117 19.5t-104.5 56t-76 96.5t-28.5 135v309q0 53 13.5 96t34.5 69.5t47 46t52 28.5t47 14t35 6h13q-4 0 -11.5 0.5t-29.5 5t-41.5 12t-44 24t-41.5 39t-29 59t-12 81.5v213q0 119 107 198t256 79q116 0 188 -77.5t72 -199.5v-47l-197 -61v172
q0 40 -39 74t-94 34q-30 0 -50 -9t-29 -26.5t-12 -34t-3 -38.5v-273q0 -46 11.5 -83t30 -60t41 -40t45.5 -24.5t41.5 -12t29.5 -5.5h12q-5 0 -13.5 -0.5t-34 -5.5t-48 -14t-50.5 -28.5t-48 -46t-34 -69.5t-14 -96v-377q0 -58 47.5 -98.5t114.5 -40.5q69 0 98 31t29 78v172
l199 67v-172q0 -119 -107.5 -197.5t-255.5 -78.5zM242 1892q81 47 166 -69l55 -74l53 74q84 115 168 69l-168 -215h-106zM539 662l135 114l108 -135l-131 -115z" />
    <glyph glyph-name="ecaron" unicode="&#x11b;" 
d="M276 129q-103 0 -159 72.5t-56 195.5v430q0 120 89.5 198.5t220.5 78.5q105 0 160 -75.5t55 -201.5v-147l-340 -129v-215q0 -39 27.5 -74t64.5 -35q12 0 21.5 1.5t16 6.5t11.5 8t8 12.5t4.5 13t2.5 16t1 16v18v17.5v110l183 64v-113q0 -118 -89.5 -193t-220.5 -75z
M125 1743q80 47 166 -70l55 -74l53 74q84 115 168 70l-168 -215h-106zM246 641l157 59v191q0 40 -29 74t-67 34q-11 0 -20 -1.5t-15 -6.5t-11 -8.5t-7.5 -12t-4.5 -13t-2.5 -16t-0.5 -16v-18v-16.5v-250z" />
    <glyph glyph-name="Gcircumflex" unicode="&#x11c;" horiz-adv-x="1028" 
d="M420 -16q-200 0 -289 219t-65 631q9 132 25 235t37.5 180.5t51.5 133t64.5 92t80.5 58t94.5 30t110.5 8.5q118 0 190.5 -77.5t72.5 -199.5v-92l-199 -63v219q0 39 -38.5 73.5t-86.5 34.5q-26 0 -47 -11.5t-45 -50t-42 -103.5t-34 -181t-25 -274q-4 -98 -4 -148
q73 -22 131 -15t113.5 24t102 41t95 37.5t93 13.5t96.5 -32.5t105 -98.5q-74 18 -170 -17v-313q0 -181 -114.5 -267.5t-303.5 -86.5zM272 690q0 -606 230 -606q68 0 103.5 42t35.5 150v285q-53 -24 -94.5 -32.5t-90 -1t-94.5 48t-90 114.5zM291 1673l170 215h106l168 -215
q-83 -47 -166 70l-55 74l-53 -74q-83 -117 -170 -70zM387 948l133 111l111 -137l-129 -107z" />
    <glyph glyph-name="gcircumflex" unicode="&#x11d;" 
d="M276 -268q-104 0 -159.5 73t-55.5 197l185 61v-124q0 -40 28 -74.5t66 -34.5q18 0 31 6.5t19 14t9 23.5t3.5 25.5t0.5 29.5v10v272q-27 -40 -71.5 -61t-91.5 -21q-79 -4 -129 71.5t-50 196.5v49l7 381q4 121 91 199t214 78q103 0 158 -76t55 -201v-825q0 -119 -89 -194.5
t-221 -75.5zM121 1513l170 216h106l168 -216q-83 -47 -166 70l-55 74l-53 -74q-83 -117 -170 -70zM246 367q0 -43 23.5 -75t70.5 -32q63 0 63 107v524q0 43 -22 75.5t-72 32.5q-57 0 -57 -108l-6 -445v-79z" />
    <glyph glyph-name="Gbreve" unicode="&#x11e;" horiz-adv-x="1028" 
d="M420 -16q-200 0 -289 219t-65 631q9 132 25 235t37.5 180.5t51.5 133t64.5 92t80.5 58t94.5 30t110.5 8.5q118 0 190.5 -77.5t72.5 -199.5v-92l-199 -63v219q0 39 -38.5 73.5t-86.5 34.5q-26 0 -47 -11.5t-45 -50t-42 -103.5t-34 -181t-25 -274q-4 -98 -4 -148
q73 -22 131 -15t113.5 24t102 41t95 37.5t93 13.5t96.5 -32.5t105 -98.5q-74 18 -170 -17v-313q0 -181 -114.5 -267.5t-303.5 -86.5zM272 690q0 -606 230 -606q68 0 103.5 42t35.5 150v285q-53 -24 -94.5 -32.5t-90 -1t-94.5 48t-90 114.5zM324 1880h110q0 -67 26 -104.5
t58 -37.5t58 37.5t26 104.5h100q0 -65 -28 -112.5t-70 -69t-91 -22t-91 21t-70 69.5t-28 113zM387 948l133 111l111 -137l-129 -107z" />
    <glyph glyph-name="gbreve" unicode="&#x11f;" 
d="M276 -268q-104 0 -159.5 73t-55.5 197l185 61v-124q0 -40 28 -74.5t66 -34.5q18 0 31 6.5t19 14t9 23.5t3.5 25.5t0.5 29.5v10v272q-27 -40 -71.5 -61t-91.5 -21q-79 -4 -129 71.5t-50 196.5v49l7 381q4 121 91 199t214 78q103 0 158 -76t55 -201v-825q0 -119 -89 -194.5
t-221 -75.5zM154 1720h110q0 -67 26 -104.5t58 -37.5t58 37.5t26 104.5h100q0 -65 -28 -112.5t-70 -69t-91 -22t-91 21t-70 69.5t-28 113zM246 367q0 -43 23.5 -75t70.5 -32q63 0 63 107v524q0 43 -22 75.5t-72 32.5q-57 0 -57 -108l-6 -445v-79z" />
    <glyph glyph-name="Gdotaccent" unicode="&#x120;" horiz-adv-x="1028" 
d="M420 -16q-200 0 -289 219t-65 631q9 132 25 235t37.5 180.5t51.5 133t64.5 92t80.5 58t94.5 30t110.5 8.5q118 0 190.5 -77.5t72.5 -199.5v-92l-199 -63v219q0 39 -38.5 73.5t-86.5 34.5q-26 0 -47 -11.5t-45 -50t-42 -103.5t-34 -181t-25 -274q-4 -98 -4 -148
q73 -22 131 -15t113.5 24t102 41t95 37.5t93 13.5t96.5 -32.5t105 -98.5q-74 18 -170 -17v-313q0 -181 -114.5 -267.5t-303.5 -86.5zM272 690q0 -606 230 -606q68 0 103.5 42t35.5 150v285q-53 -24 -94.5 -32.5t-90 -1t-94.5 48t-90 114.5zM387 948l133 111l111 -137
l-129 -107zM428 1767q0 -36 26 -61t60 -25q37 0 61.5 24.5t24.5 61.5q0 34 -25 60t-61 26q-34 0 -60 -26t-26 -60z" />
    <glyph glyph-name="gdotaccent" unicode="&#x121;" 
d="M276 -268q-104 0 -159.5 73t-55.5 197l185 61v-124q0 -40 28 -74.5t66 -34.5q18 0 31 6.5t19 14t9 23.5t3.5 25.5t0.5 29.5v10v272q-27 -40 -71.5 -61t-91.5 -21q-79 -4 -129 71.5t-50 196.5v49l7 381q4 121 91 199t214 78q103 0 158 -76t55 -201v-825q0 -119 -89 -194.5
t-221 -75.5zM246 367q0 -43 23.5 -75t70.5 -32q63 0 63 107v524q0 43 -22 75.5t-72 32.5q-57 0 -57 -108l-6 -445v-79zM258 1608q0 -36 26 -61t60 -25q37 0 61.5 24.5t24.5 61.5q0 34 -25 60t-61 26q-34 0 -60 -26t-26 -60z" />
    <glyph glyph-name="uni0122" unicode="&#x122;" horiz-adv-x="1028" 
d="M420 -16q-200 0 -289 219t-65 631q9 132 25 235t37.5 180.5t51.5 133t64.5 92t80.5 58t94.5 30t110.5 8.5q118 0 190.5 -77.5t72.5 -199.5v-92l-199 -63v219q0 39 -38.5 73.5t-86.5 34.5q-26 0 -47 -11.5t-45 -50t-42 -103.5t-34 -181t-25 -274q-4 -98 -4 -148
q73 -22 131 -15t113.5 24t102 41t95 37.5t93 13.5t96.5 -32.5t105 -98.5q-74 18 -170 -17v-313q0 -133 -64 -215.5t-176 -116.5q6 -127 -56 -167.5t-177 -16.5l4 43q71 -10 92.5 19t21.5 102q-20 -2 -63 -2zM272 690q0 -606 230 -606q68 0 103.5 42t35.5 150v285
q-53 -24 -94.5 -32.5t-90 -1t-94.5 48t-90 114.5zM387 948l133 111l111 -137l-129 -107z" />
    <glyph glyph-name="Hcircumflex" unicode="&#x124;" horiz-adv-x="1531" 
d="M741 39q-78 -41 -179.5 -55.5t-199.5 -1t-182.5 65t-124.5 134.5q-40 90 -32 175t49 159.5t87.5 130.5t84.5 89l37 32q-82 -113 -98.5 -236.5t36.5 -203.5q34 -63 99.5 -102.5t139 -48.5t145.5 0t128 39t78 71q24 46 37 135t14.5 148.5t1.5 154.5v846l197 -82v-684v-6
v-64h219v836l195 -82v-1505q0 -77 16.5 -133.5t40.5 -82.5t47.5 -41t40.5 -17l16 -1h-196q-7 0 -17.5 1.5t-38 16.5t-48.5 41t-38.5 82.5t-17.5 133.5v589h-229q-9 -87 -28.5 -159.5t-54 -143t-91.5 -129.5t-134 -102zM424 752l102 88l-102 125l133 116l115 -137l-107 -88
l107 -127l-137 -108zM909 1642l170 216h107l168 -216q-83 -47 -166 70l-55 74l-54 -74q-83 -117 -170 -70z" />
    <glyph glyph-name="hcircumflex" unicode="&#x125;" horiz-adv-x="641" 
d="M561 -20q-6 0 -17 1.5t-38 16t-48 39t-38 79t-17 128.5v647q0 38 -28 73t-70 35q-36 0 -48.5 -19t-12.5 -54v-797h-183v1128q0 72 16.5 125.5t40 78t47 38.5t39.5 15l17 2h182q-3 0 -9 -0.5t-22.5 -6t-31.5 -14t-33.5 -28t-31.5 -46t-22 -69t-9 -95.5v-200q58 47 129 47
q103 0 157 -75.5t54 -201.5v-583q0 -74 16.5 -128.5t39.5 -79t46.5 -39t39.5 -15.5l17 -2h-182zM98 1673l170 215h107l168 -215q-83 -47 -166 70l-55 74l-54 -74q-83 -117 -170 -70z" />
    <glyph glyph-name="Itilde" unicode="&#x128;" horiz-adv-x="452" 
d="M342 -180q-7 0 -17.5 1.5t-38.5 16.5t-49.5 40.5t-39 82t-17.5 133.5v1069q-11 -18 -43 -69.5t-48 -79t-36.5 -73t-32.5 -85.5q0 93 22.5 191t50 170t54 169.5t33.5 184.5l199 -82v-1395q0 -77 16 -133.5t39 -82t46 -40.5t39 -16l16 -2h-193zM109 1714q-32 86 17 110.5
t140 -22.5q44 -19 68 -14.5t59 39.5q35 -83 -13 -109t-138 19q-42 22 -68.5 17.5t-64.5 -40.5z" />
    <glyph glyph-name="itilde" unicode="&#x129;" horiz-adv-x="327" 
d="M72 129v944h184v-944h-184zM20 1229q-32 86 17.5 111t140.5 -23q44 -19 68 -15t59 39q35 -83 -13 -109t-138 19q-42 22 -69 18t-65 -40z" />
    <glyph glyph-name="Imacron" unicode="&#x12a;" horiz-adv-x="452" 
d="M342 -180q-7 0 -17.5 1.5t-38.5 16.5t-49.5 40.5t-39 82t-17.5 133.5v1069q-11 -18 -43 -69.5t-48 -79t-36.5 -73t-32.5 -85.5q0 93 22.5 191t50 170t54 169.5t33.5 184.5l199 -82v-1395q0 -77 16 -133.5t39 -82t46 -40.5t39 -16l16 -2h-193zM100 1802h217q25 0 41.5 -4
t25.5 -8.5t13.5 -17t5 -22t0.5 -30.5h-217q-57 0 -71.5 17.5t-14.5 64.5z" />
    <glyph glyph-name="imacron" unicode="&#x12b;" horiz-adv-x="327" 
d="M72 129v944h184v-944h-184zM12 1317h217q25 0 41.5 -4t25.5 -8.5t13.5 -17t5 -22t0.5 -30.5h-217q-57 0 -71.5 17.5t-14.5 64.5z" />
    <glyph glyph-name="Iogonek" unicode="&#x12e;" horiz-adv-x="452" 
d="M342 -180q-49 0 -92 45q-16 -18 -21 -38.5t2 -31.5q5 -13 24 -18.5t35 -4.5l17 1v-127q-5 1 -29 -1t-59 7t-47 29q-29 55 -12.5 114t65.5 103q-45 68 -45 196v1069q-11 -18 -43 -69.5t-48 -79t-36.5 -73t-32.5 -85.5q0 93 22.5 191t50 170t54 169.5t33.5 184.5l199 -82
v-1395q0 -77 16 -133.5t39 -82t46 -40.5t39 -16l16 -2h-193z" />
    <glyph glyph-name="iogonek" unicode="&#x12f;" horiz-adv-x="327" 
d="M164 1368q-34 0 -60 -26t-26 -60q0 -36 26 -61t60 -25q37 0 61.5 24.5t24.5 61.5q0 34 -25 60t-61 26zM23 -80q-29 55 -13 112t62 103v938h184v-944h-125q-34 -19 -46.5 -47t-2.5 -47q5 -13 24 -18.5t36 -4.5h16v-127q-5 1 -29 -1t-59 7t-47 29z" />
    <glyph glyph-name="Idotaccent" unicode="&#x130;" horiz-adv-x="452" 
d="M342 -180q-7 0 -17.5 1.5t-38.5 16.5t-49.5 40.5t-39 82t-17.5 133.5v1069q-11 -18 -43 -69.5t-48 -79t-36.5 -73t-32.5 -85.5q0 93 22.5 191t50 170t54 169.5t33.5 184.5l199 -82v-1395q0 -77 16 -133.5t39 -82t46 -40.5t39 -16l16 -2h-193zM166 1767q0 -36 26 -61
t60 -25q37 0 61.5 24.5t24.5 61.5q0 34 -25 60t-61 26q-34 0 -60 -26t-26 -60z" />
    <glyph glyph-name="dotlessi" unicode="&#x131;" horiz-adv-x="327" 
d="M72 129v944h184v-944h-184z" />
    <glyph glyph-name="IJ" unicode="&#x132;" horiz-adv-x="1587" 
d="M342 -180q-7 0 -17.5 1.5t-38.5 16.5t-49.5 40.5t-39 82t-17.5 133.5v1069q-11 -18 -43 -69.5t-48 -79t-36.5 -73t-32.5 -85.5q0 93 22.5 191t50 170t54 169.5t33.5 184.5l199 -82v-1395q0 -77 16 -133.5t39 -82t46 -40.5t39 -16l16 -2h-193zM508 182q-41 90 -34.5 175
t47 159.5t86.5 130.5t83 89l37 32q-77 -113 -94.5 -236.5t29.5 -203.5q44 -78 134 -118.5t181.5 -38.5t171 33t108.5 83q54 102 54 438v668q-43 -25 -70 -39.5t-68 -31t-69.5 -20.5t-66 -0.5t-67.5 21.5t-63 52.5t-63 86.5q61 -17 119.5 -15t109 22.5t100.5 44t94 49
t90 38.5t88.5 12.5t89.5 -30t93 -88.5q-54 14 -121 -6v-684v-6q0 -85 -4 -151t-14.5 -143.5t-32.5 -140t-56 -124t-87 -112.5t-123 -89q-79 -41 -180 -55.5t-198.5 -1t-181 65t-122.5 134.5zM872 752l107 88l-107 125l138 116l114 -137l-106 -88l106 -127l-137 -108z" />
    <glyph glyph-name="ij" unicode="&#x133;" horiz-adv-x="649" 
d="M72 129v944h184v-944h-184zM41 1346l135 108l115 -131l-133 -115zM229 -258q7 0 17.5 1.5t38 15.5t48.5 38.5t38.5 78t17.5 126.5v1071h186v-1071q0 -73 -17 -126.5t-40.5 -78t-47.5 -38.5t-41 -15l-17 -2h-183zM358 1346l136 108l114 -131l-131 -115z" />
    <glyph glyph-name="Jcircumflex" unicode="&#x134;" horiz-adv-x="1134" 
d="M737 39q-79 -41 -180 -55.5t-198.5 -1t-181 65t-122.5 134.5q-41 90 -34.5 175t47 159.5t86.5 130.5t83 89l37 32q-77 -113 -94.5 -236.5t29.5 -203.5q44 -78 134.5 -118.5t181.5 -38.5t171 33t109 83q24 46 37 135t14.5 148.5t1.5 154.5v668q-43 -25 -70 -39.5t-68 -31
t-69.5 -20.5t-66 -0.5t-67.5 21.5t-63 52.5t-63 86.5q74 -23 136 -13.5t122 32t112 54t105.5 52.5t101.5 27t102 -23t106 -96q-54 14 -121 -6v-684v-6q0 -85 -4 -151t-14.5 -143.5t-33 -140t-56.5 -124t-87 -112.5t-123 -89zM420 752l106 88l-106 125l137 116l115 -137
l-107 -88l107 -127l-137 -108zM565 1673l170 215h107l168 -215q-83 -47 -166 70l-56 74l-53 -74q-83 -117 -170 -70z" />
    <glyph glyph-name="uni0136" unicode="&#x136;" horiz-adv-x="1529" 
d="M739 39q-37 -19 -67 -29q4 -89 -25.5 -137t-83 -56t-125.5 5l4 43q70 -10 92.5 19t22.5 100q-72 -13 -149 -5.5t-144 29t-123 67t-86 107.5q-41 90 -34 175t47 159.5t85.5 130.5t82.5 89l36 32q-76 -112 -92.5 -236.5t29.5 -203.5q45 -78 135.5 -118.5t181.5 -38.5
t170.5 33t108.5 83q25 46 38.5 135t15 148.5t1.5 154.5v846l197 -82v-684v-6v-78q40 12 74 30.5t68.5 50.5t54.5 84t20 118v567l196 -82v-485q0 -61 -17.5 -110.5t-45.5 -80t-61.5 -52.5t-67.5 -32.5t-62 -16.5t-46 -6l-17 -1q7 0 18 -0.5t44 -7t63 -17t66.5 -34t63 -55.5
t44.5 -83.5t18 -114.5v-409q0 -56 9 -101.5t23 -73t31.5 -48.5t35 -30.5t31.5 -15t23 -5.5l9 -1h-200q-3 0 -9 0.5t-22 6t-31 15t-33.5 30.5t-31.5 48.5t-22 73t-9 101.5v413q0 69 -20 122.5t-55 86t-69.5 51.5t-74.5 31q-4 -108 -19 -194.5t-48.5 -174.5t-96 -159
t-152.5 -121zM420 752l106 90l-106 123l135 116l117 -137l-107 -90l107 -125l-135 -108z" />
    <glyph glyph-name="uni0137" unicode="&#x137;" horiz-adv-x="638" 
d="M344 -104q75 -10 96 22.5t19 114.5q-58 69 -58 211v270q0 40 -29 75.5t-69 35.5h-63v-496h-179v1128q0 72 16 125.5t39 78t46 38.5t39 15l16 2h184q-3 0 -9 -0.5t-22.5 -6t-32 -14t-34 -28t-32 -46t-22.5 -69t-9 -95.5v-528q57 -10 98 0q23 5 36.5 14t19 24t6.5 26t1 35
v10v235h177v-174q0 -128 -101 -203q101 -66 101 -243v-209q0 -54 9 -97.5t23.5 -70.5t32 -46.5t34.5 -28.5t31.5 -14.5t23.5 -6.5h9h-170q-18 -173 -231 -127z" />
    <glyph glyph-name="Lacute" unicode="&#x139;" horiz-adv-x="786" 
d="M819 -258q-61 34 -120 82.5t-103 92.5t-90.5 91t-94.5 84t-104 65t-128.5 39t-158.5 3q223 114 404 49q29 48 47 115t25 147t8.5 126.5t1.5 115.5v409q-9 -16 -42.5 -68.5t-48.5 -79t-37 -72t-34 -85.5q0 93 23 191t51 170t55 169t33 185l199 -82v-666q0 -425 -156 -637
h-2q65 -43 137 -102q50 -37 86.5 -62t95 -59t105.5 -51.5t108 -27.5t112 0.5t106.5 43.5t103.5 92q-31 -132 -94.5 -215.5t-143.5 -111.5t-168 -15.5t-176 64.5zM641 1739q-20 -47 -13 -84t26 -59.5t38 -22.5l33 74l68 147h-129z" />
    <glyph glyph-name="lacute" unicode="&#x13a;" horiz-adv-x="321" 
d="M61 1257q0 53 9 95.5t23 69t31.5 46t35 28t31.5 14t23 6.5h9h180q-3 0 -9 -0.5t-22.5 -6t-31.5 -14t-33.5 -28t-31.5 -46t-22 -69t-9 -95.5v-1128h-183v1128zM92 1823q-20 -47 -13 -84t26 -59.5t38 -22.5l33 74l68 147h-129z" />
    <glyph glyph-name="uni013B" unicode="&#x13b;" horiz-adv-x="786" 
d="M549 186h-2q65 -43 137 -102q50 -37 86.5 -62t95 -59t105.5 -51.5t108 -27.5t112 0.5t106.5 43.5t103.5 92q-30 -127 -89.5 -209.5t-135.5 -112.5t-159.5 -23t-168.5 51q-21 -167 -232 -121l5 43q28 -4 48 -2t32.5 10t20 21t10 31t3.5 39.5t0 47.5q-61 44 -130.5 113
t-121 119t-118 96.5t-152.5 66.5t-193 9q223 114 404 49q29 48 47 115t25 147t8.5 126.5t1.5 115.5v409q-9 -16 -42.5 -68.5t-48.5 -79t-37 -72t-34 -85.5q0 93 23 191t51 170t55 169t33 185l199 -82v-666q0 -425 -156 -637z" />
    <glyph glyph-name="uni013C" unicode="&#x13c;" horiz-adv-x="321" 
d="M61 1257q0 53 9 95.5t23 69t31.5 46t35 28t31.5 14t23 6.5h9h180q-3 0 -9 -0.5t-22.5 -6t-31.5 -14t-33.5 -28t-31.5 -46t-22 -69t-9 -95.5v-1128h-183v1128zM43 -178l4 43q35 -5 58 0t34.5 18.5t17 35t5.5 49.5v63h112q13 -143 -49 -188.5t-182 -20.5z" />
    <glyph glyph-name="Lcaron" unicode="&#x13d;" horiz-adv-x="786" 
d="M819 -258q-61 34 -120 82.5t-103 92.5t-90.5 91t-94.5 84t-104 65t-128.5 39t-158.5 3q223 114 404 49q29 48 47 115t25 147t8.5 126.5t1.5 115.5v409q-9 -16 -42.5 -68.5t-48.5 -79t-37 -72t-34 -85.5q0 93 23 191t51 170t55 169t33 185l199 -82v-666q0 -425 -156 -637
h-2q65 -43 137 -102q50 -37 86.5 -62t95 -59t105.5 -51.5t108 -27.5t112 0.5t106.5 43.5t103.5 92q-31 -132 -94.5 -215.5t-143.5 -111.5t-168 -15.5t-176 64.5zM489 1808q81 47 166 -69l56 -74l53 74q84 115 168 69l-168 -215h-107z" />
    </font>
</defs>
</svg>
