<svg width="40" height="40" viewBox="0 0 40 40" fill="none" xmlns="http://www.w3.org/2000/svg">
<rect width="40" height="40" rx="20" fill="#D4AF37" fill-opacity="0.12"/>
<path d="M21.6622 15.1746C22.4408 15.3258 23.1565 15.705 23.7174 16.2634C24.2784 16.8219 24.6592 17.5343 24.8112 18.3095M21.6622 12C23.2799 12.1789 24.7885 12.9001 25.9402 14.0452C27.0919 15.1903 27.8182 16.6913 28 18.3016M18.6144 21.4151C17.6565 20.4615 16.9001 19.3832 16.3453 18.2327C16.2975 18.1338 16.2737 18.0843 16.2553 18.0217C16.1902 17.7992 16.237 17.5259 16.3725 17.3375C16.4107 17.2845 16.4562 17.2391 16.5474 17.1484C16.8261 16.8709 16.9654 16.7322 17.0565 16.5927C17.4001 16.0666 17.4001 15.3883 17.0565 14.8622C16.9654 14.7227 16.8261 14.584 16.5474 14.3065L16.392 14.1519C15.9683 13.7301 15.7565 13.5192 15.529 13.4047C15.0765 13.1768 14.5422 13.1768 14.0897 13.4047C13.8622 13.5192 13.6504 13.7301 13.2267 14.1519L13.101 14.277C12.6788 14.6973 12.4677 14.9075 12.3065 15.1932C12.1276 15.5103 11.9989 16.0028 12 16.3664C12.001 16.6942 12.0648 16.9181 12.1926 17.3661C12.8789 19.7736 14.174 22.0453 16.0777 23.9405C17.9814 25.8357 20.2633 27.125 22.6816 27.8083C23.1316 27.9354 23.3566 27.999 23.6858 28C24.0511 28.0011 24.5457 27.873 24.8642 27.6949C25.1512 27.5344 25.3624 27.3242 25.7846 26.9039L25.9102 26.7788C26.3339 26.357 26.5458 26.1461 26.6608 25.9196C26.8897 25.4692 26.8897 24.9372 26.6608 24.4868C26.5458 24.2603 26.3339 24.0494 25.9102 23.6276L25.7549 23.4729C25.4762 23.1955 25.3368 23.0568 25.1967 22.966C24.6682 22.624 23.987 22.624 23.4585 22.966C23.3184 23.0568 23.179 23.1955 22.9003 23.4729C22.8092 23.5637 22.7636 23.609 22.7103 23.647C22.5211 23.7819 22.2466 23.8285 22.0231 23.7637C21.9602 23.7454 21.9105 23.7217 21.8111 23.6741C20.6555 23.1218 19.5723 22.3688 18.6144 21.4151Z" stroke="#D4AF37" stroke-width="1.5" stroke-linecap="round" stroke-linejoin="round"/>
</svg>
