<svg width="15" height="20" viewBox="0 0 15 20" fill="none" xmlns="http://www.w3.org/2000/svg">
<path d="M4.24921 11.5254L3.18062 10.2072L4.19092 9.3809L3.18062 8.14138L4.48236 7.07894L5.53151 8.37748L4.54064 9.20382L5.53151 10.404L4.24921 11.5254ZM0.480014 2.51439C1.35431 0.625613 3.49149 0.114069 5.43437 1.13716C8.19327 2.67179 8.46527 5.58366 8.46527 8.49553V15.1259C8.46527 16.3851 10.6219 15.6965 10.9327 14.4767V2.31765L12.7979 3.08496V17.2311C12.7979 19.8872 14.3522 19.8872 14.3522 19.8872H12.487C12.487 19.8872 10.9327 19.8872 10.9327 17.2311V15.8539C10.1167 17.2311 6.63896 18.9625 6.58067 15.5785V7.74789C6.58067 6.4887 6.63896 4.58025 6.07552 3.51781C4.48236 0.664963 -0.45257 3.8326 2.5589 8.14138C2.5589 8.14138 -0.899434 5.38691 0.480014 2.51439Z" fill="white"/>
</svg>
